<svg xmlns="http://www.w3.org/2000/svg" xmlns:xlink="http://www.w3.org/1999/xlink" width="1030" height="486" viewBox="0 0 1030 486">
  <defs>
    <clipPath id="clip-path">
      <rect id="Rectángulo_45970" data-name="Rectángulo 45970" width="67.661" height="64.894" fill="none"/>
    </clipPath>
    <clipPath id="clip-path-3">
      <rect id="Rectángulo_45972" data-name="Rectángulo 45972" width="34.658" height="34.729" fill="#69489b"/>
    </clipPath>
    <clipPath id="clip-path-4">
      <rect id="Rectángulo_45972-2" data-name="Rectángulo 45972" width="34.658" height="34.729" fill="#4462fe"/>
    </clipPath>
  </defs>
  <g id="Grupo_159780" data-name="Grupo 159780" transform="translate(-285 -4336)">
    <rect id="Rectángulo_45741" data-name="Rectángulo 45741" width="1030" height="486" transform="translate(285 4336)" fill="#e2e7fe"/>
    <rect id="Rectángulo_45954" data-name="Rectángulo 45954" width="294" height="71" rx="7" transform="translate(453 4442)" fill="#fff"/>
    <rect id="Rectángulo_45955" data-name="Rectángulo 45955" width="294" height="71" rx="7" transform="translate(863 4442)" fill="#fff"/>
    <path id="Sustracción_6" data-name="Sustracción 6" d="M9048.85,11788h-128.7a67.5,67.5,0,1,1,128.7,0Z" transform="translate(-8385 -7336)" fill="#fff"/>
    <path id="Sustracción_7" data-name="Sustracción 7" d="M9048.85,11788h-128.7a67.5,67.5,0,1,1,128.7,0Z" transform="translate(-7975 -7336)" fill="#fff"/>
    <text id="El_mosquito_se_alimenta_y_adquiere_el_virus." data-name="El mosquito se alimenta y adquiere el virus." transform="translate(477 4457)" fill="#12263f" font-size="18" font-family="Roboto-Bold, Roboto" font-weight="700"><tspan x="19.403" y="17">El mosquito se alimenta y </tspan><tspan x="53.439" y="39">adquiere el virus.</tspan></text>
    <text id="El_mosquito_se_alimenta_y_transmite_el_virus." data-name="El mosquito se alimenta y transmite el virus." transform="translate(887 4457)" fill="#12263f" font-size="18" font-family="Roboto-Bold, Roboto" font-weight="700"><tspan x="19.403" y="17">El mosquito se alimenta y </tspan><tspan x="50.002" y="39">transmite el virus.</tspan></text>
    <path id="Trazado_600174" data-name="Trazado 600174" d="M-8110.323-9047h83.3" transform="translate(8668.822 13489)" fill="none" stroke="#4c82fc" stroke-width="2"/>
    <path id="Trazado_600175" data-name="Trazado 600175" d="M-8110.323-9047h83.3" transform="translate(9078.822 13489)" fill="none" stroke="#4c82fc" stroke-width="2"/>
    <path id="Rectángulo_45962" data-name="Rectángulo 45962" d="M8,0H117a8,8,0,0,1,8,8V44a0,0,0,0,1,0,0H0a0,0,0,0,1,0,0V8A8,8,0,0,1,8,0Z" transform="translate(951 4590)" fill="#344abe"/>
    <path id="Rectángulo_45967" data-name="Rectángulo 45967" d="M8,0H117a8,8,0,0,1,8,8V44a0,0,0,0,1,0,0H0a0,0,0,0,1,0,0V8A8,8,0,0,1,8,0Z" transform="translate(370 4590)" fill="#54397c"/>
    <g id="Rectángulo_45968" data-name="Rectángulo 45968" transform="translate(517 4746)" fill="#fff" stroke="#654595" stroke-width="1">
      <rect width="167" height="44" rx="9" stroke="none"/>
      <rect x="0.5" y="0.5" width="166" height="43" rx="8.5" fill="none"/>
    </g>
    <g id="Rectángulo_45969" data-name="Rectángulo 45969" transform="translate(927 4746)" fill="#fff" stroke="#4462fe" stroke-width="1">
      <rect width="167" height="44" rx="9" stroke="none"/>
      <rect x="0.5" y="0.5" width="166" height="43" rx="8.5" fill="none"/>
    </g>
    <text id="Viremia" transform="translate(370 4600)" fill="#fff" font-size="18" font-family="Roboto-Bold, Roboto" font-weight="700"><tspan x="31.163" y="17">Viremia</tspan></text>
    <text id="Enfermedad" transform="translate(484 4705)" fill="#12263f" font-size="18" font-family="Roboto-Bold, Roboto" font-weight="700"><tspan x="13.505" y="17">Enfermedad</tspan></text>
    <text id="Humano_1" data-name="Humano #1" transform="translate(560 4757)" fill="#69489b" font-size="18" font-family="Roboto-Bold, Roboto" font-weight="700"><tspan x="15.593" y="17">Humano #1</tspan></text>
    <text id="Humano_2" data-name="Humano #2" transform="translate(968 4757)" fill="#4462fe" font-size="18" font-family="Roboto-Bold, Roboto" font-weight="700"><tspan x="15.593" y="17">Humano #2</tspan></text>
    <text id="Enfermedad-2" data-name="Enfermedad" transform="translate(991.673 4705)" fill="#12263f" font-size="18" font-family="Roboto-Bold, Roboto" font-weight="700"><tspan x="13.505" y="17">Enfermedad</tspan></text>
    <text id="_0" data-name="0" transform="translate(407 4653)" fill="#12263f" font-size="18" font-family="Roboto-Bold, Roboto" font-weight="700"><tspan x="21.336" y="17">0</tspan></text>
    <text id="_28" data-name="28" transform="translate(1130 4653)" fill="#12263f" font-size="18" font-family="Roboto-Bold, Roboto" font-weight="700"><tspan x="16.173" y="17">28</tspan></text>
    <text id="Días" transform="translate(1198 4653)" fill="#12263f" font-size="18" font-family="Roboto-Bold, Roboto" font-weight="700"><tspan x="8.733" y="17">Días</tspan></text>
    <text id="_24" data-name="24" transform="translate(1028 4653)" fill="#12263f" font-size="18" font-family="Roboto-Bold, Roboto" font-weight="700"><tspan x="16.173" y="17">24</tspan></text>
    <text id="_20" data-name="20" transform="translate(924 4653)" fill="#12263f" font-size="18" font-family="Roboto-Bold, Roboto" font-weight="700"><tspan x="16.173" y="17">20</tspan></text>
    <text id="_16" data-name="16" transform="translate(820 4653)" fill="#12263f" font-size="18" font-family="Roboto-Bold, Roboto" font-weight="700"><tspan x="16.173" y="17">16</tspan></text>
    <text id="_12" data-name="12" transform="translate(718 4653)" fill="#12263f" font-size="18" font-family="Roboto-Bold, Roboto" font-weight="700"><tspan x="16.173" y="17">12</tspan></text>
    <text id="_8" data-name="8" transform="translate(615 4653)" fill="#12263f" font-size="18" font-family="Roboto-Bold, Roboto" font-weight="700"><tspan x="21.336" y="17">8</tspan></text>
    <text id="_5" data-name="5" transform="translate(511 4653)" fill="#12263f" font-size="18" font-family="Roboto-Bold, Roboto" font-weight="700"><tspan x="21.336" y="17">5</tspan></text>
    <text id="Viremia-2" data-name="Viremia" transform="translate(951 4600)" fill="#fff" font-size="18" font-family="Roboto-Bold, Roboto" font-weight="700"><tspan x="31.163" y="17">Viremia</tspan></text>
    <path id="Polígono_12" data-name="Polígono 12" d="M7,0l7,12H0Z" transform="translate(442 4580) rotate(180)" fill="#69489b"/>
    <path id="Polígono_13" data-name="Polígono 13" d="M7,0l7,12H0Z" transform="translate(853 4624) rotate(180)" fill="#4462fe"/>
    <path id="Polígono_14" data-name="Polígono 14" d="M7,0l7,12H0Z" transform="translate(1201 4629) rotate(90)" fill="#4462fe"/>
    <rect id="Rectángulo_45963" data-name="Rectángulo 45963" width="4" height="129" transform="translate(433 4442)" fill="#69489b"/>
    <rect id="Rectángulo_45965" data-name="Rectángulo 45965" width="4" height="412" transform="translate(846 4634) rotate(90)" fill="#54397c"/>
    <rect id="Rectángulo_45966" data-name="Rectángulo 45966" width="4" height="344" transform="translate(1190 4634) rotate(90)" fill="#344abe"/>
    <rect id="Rectángulo_45964" data-name="Rectángulo 45964" width="4" height="171" transform="translate(844 4442)" fill="#4462fe"/>
    <path id="Trazado_600176" data-name="Trazado 600176" d="M-8237.7-7054.268v47.6h-142.327v-47.6" transform="translate(8855.028 11700)" fill="none" stroke="#12263f" stroke-width="2" stroke-dasharray="2"/>
    <path id="Trazado_600177" data-name="Trazado 600177" d="M-8237.7-7054.268v47.6h-142.327v-47.6" transform="translate(9362.701 11700)" fill="none" stroke="#12263f" stroke-width="2" stroke-dasharray="2"/>
    <text id="Periodo_de_incubación_extrínseca" data-name="Periodo de incubación extrínseca" transform="translate(509 4527)" fill="#12263f" font-size="18" font-family="Roboto-Regular, Roboto"><tspan x="1.98" y="17">Periodo de incubación </tspan><tspan x="49.582" y="39">extrínseca</tspan></text>
    <text id="Periodo_de_incubación_intrínseca" data-name="Periodo de incubación intrínseca" transform="translate(919 4527)" fill="#12263f" font-size="18" font-family="Roboto-Regular, Roboto"><tspan x="1.98" y="17">Periodo de incubación </tspan><tspan x="51.66" y="39">intrínseca</tspan></text>
    <g id="Grupo_159773" data-name="Grupo 159773" transform="translate(564 4378.814)">
      <g id="Grupo_159772" data-name="Grupo 159772" clip-path="url(#clip-path)">
        <path id="Trazado_600178" data-name="Trazado 600178" d="M30.635,37.577c1.1,2.995,2.109,5.765,3.148,8.521a56.122,56.122,0,0,0,2.581,6.518,17.427,17.427,0,0,0,12.527,9.191c1.606.328,3.214.645,4.884.979l-.4,2.107c-1.133-.222-2.223-.459-3.321-.646A22.51,22.51,0,0,1,41,60.895a20.411,20.411,0,0,1-8.029-10.568c-1.292-3.744-2.693-7.451-4.075-11.253A8.819,8.819,0,0,1,19,40.011c-.432,1.284-.855,2.535-1.274,3.787-.678,2.028-1.329,4.067-2.051,6.079a1.726,1.726,0,0,1-.852.941C10.282,52.608,5.718,54.35,1.158,56.1a1.212,1.212,0,0,1-.263.023L.16,54.214c.2-.094.371-.186.55-.255q6.176-2.378,12.358-4.743a1.355,1.355,0,0,0,.906-.954c.892-2.763,1.827-5.512,2.741-8.247a12.747,12.747,0,0,1-1.932-.123,3.337,3.337,0,0,1-1.522-.666c-.568-.516-.972-.356-1.523-.037C8.423,41.108,5.092,43,1.767,44.9c-.212.121-.428.234-.7.38L0,43.435c.241-.148.445-.282.657-.4q5.165-2.949,10.337-5.886a.7.7,0,0,0,.423-.892,4.251,4.251,0,0,1,2.74-4.621,1,1,0,0,0,.558-.606,8.658,8.658,0,0,1,6.812-7.038.877.877,0,0,0,.774-.684c.293-.97.626-1.927.952-2.886.244-.717.7-1.05,1.271-.952.609.1.931.578.9,1.376-.046,1.034-.114,2.068-.174,3.149l1.713.606c.121-1.146.239-2.237.352-3.329.1-.942.2-1.883.276-2.826a1.1,1.1,0,0,1,2.174-.291q.806,2.078,1.628,4.15c.1.247.2.491.353.85a12.689,12.689,0,0,0,.955-.939Q41.527,11.436,50.362.66A1.981,1.981,0,0,1,51.519.007c.563-.076.987.469.97,1.141-.072,2.724-.171,5.448-.26,8.172,0,.133-.017.266-.034.537.263-.163.441-.269.616-.381q3.723-2.4,7.442-4.8c.5-.328,1-.567,1.549-.151.515.389.465.9.322,1.468A26.967,26.967,0,0,1,51.4,21.739a1.055,1.055,0,0,0-.385.429c1.1-.156,2.191-.306,3.285-.468,2.541-.376,5.078-.783,7.624-1.11a1.685,1.685,0,0,1,1.174.44c.4.359.217.865,0,1.315A26,26,0,0,1,46.458,36.373c-.4.119-.813.221-1.333.362a40.594,40.594,0,0,0,2.6,4.323,5.875,5.875,0,0,0,9.935-1.181c1.125-2.331,2.157-4.708,3.231-7.064.111-.244.228-.486.378-.8l1.949.883c-.2.459-.386.885-.578,1.308q-1.411,3.106-2.825,6.21a8.136,8.136,0,0,1-14.72.637c-.654-1.157-1.281-2.33-1.946-3.48-.1-.178-.354-.4-.526-.39-1.729.085-3.456.214-5.227.334.074.217.138.428.218.632,1.182,3.019,2.374,6.033,3.543,9.057a1.057,1.057,0,0,0,.849.728c3.632.88,7.24,1.863,10.884,2.687a10.456,10.456,0,0,0,12.6-9.889c.013-.562,0-1.124,0-1.734H67.62A12.914,12.914,0,0,1,65.2,47.838a12.652,12.652,0,0,1-13.505,4.741c-3.629-.9-7.249-1.825-10.881-2.708a1.849,1.849,0,0,1-1.433-1.25c-1.338-3.49-2.726-6.959-4.07-10.447a.8.8,0,0,0-.933-.612c-1.191.048-2.385.015-3.743.015M59.3,7.869,33.183,24.718a5.688,5.688,0,0,0,.6,0c2.228-.325,4.457-.642,6.683-.987a20.637,20.637,0,0,0,3.708-.68A24.335,24.335,0,0,0,56.683,13.2,24.14,24.14,0,0,0,59.3,7.869M26.523,29.08a4.729,4.729,0,0,0,.109-1.9c-.182-.44-.874-.67-1.341-.992l-.183.156-.494,8.839a29.826,29.826,0,0,0,1.935-3.1,1.113,1.113,0,0,1,2.127.162c.341.953.716,1.895,1.035,2.855a.563.563,0,0,0,.683.458c.673-.056,1.35-.065,2.025-.1.13-.007.353-.029.372-.093.209-.693.695-1.49.515-2.079-.582-1.909-1.406-3.745-2.155-5.6-.059-.146-.271-.345-.394-.332-.642.063-1.278.187-1.9.287L28.638,29.3l-2.115-.225m11.9-10.448c.159-.02.209-.012.241-.033q5.281-3.4,10.556-6.816a.9.9,0,0,0,.383-.44A22.58,22.58,0,0,0,50.3,4.125L38.428,18.631m3.55,16.49c1.167-.244,2.4-.486,3.613-.774.16-.038.328-.291.385-.477.434-1.417.909-2.826,1.239-4.268.353-1.541.562-3.116.855-4.8l-4.12.608-1.973,9.711m-.482-9.35c-1.435.209-2.772.39-4.1.617-.13.022-.271.311-.308.5-.409,2.028-.774,4.066-1.2,6.089-.185.872.37,1.493.6,2.222.022.067.237.1.362.1.721-.011,1.444-.017,2.163-.075a.671.671,0,0,0,.485-.34,34.329,34.329,0,0,0,2-9.111m7.158,7.569c.632-.3,1.324-.609,2-.954,2.494-1.278,2.491-1.282,3.126-4,.005-.022.015-.043.019-.065l.758-4.471-4.152.615-1.75,8.876M17.847,35.707a2.162,2.162,0,1,0-2.158,2.15,2.174,2.174,0,0,0,2.158-2.15m4.93-6.483-.17-.039-2.925,8.771,2.56.982.536-9.715m-3.668,3.6,2.15-6.449c-1.962.325-4.276,2.932-4.348,4.84a.551.551,0,0,0,.218.408c.636.408,1.291.787,1.98,1.2m37.642-9.3-.719,4.955a23.548,23.548,0,0,0,4.27-5.47l-3.551.514M25.427,38.432l.174.2c.751-.536,1.51-1.062,2.245-1.62a.532.532,0,0,0,.1-.469c-.147-.479-.344-.943-.565-1.527l-1.952,3.416m9.513-11.7-1.708.259,1.079,2.752.153-.026.476-2.985m-5.507-3.468-.162.02-.2,2.126,1.12-.193-.763-1.953" transform="translate(0 0)"/>
      </g>
    </g>
    <g id="Grupo_159774" data-name="Grupo 159774" transform="translate(976.17 4378.814)">
      <g id="Grupo_159772-2" data-name="Grupo 159772" clip-path="url(#clip-path)">
        <path id="Trazado_600178-2" data-name="Trazado 600178" d="M30.635,37.577c1.1,2.995,2.109,5.765,3.148,8.521a56.122,56.122,0,0,0,2.581,6.518,17.427,17.427,0,0,0,12.527,9.191c1.606.328,3.214.645,4.884.979l-.4,2.107c-1.133-.222-2.223-.459-3.321-.646A22.51,22.51,0,0,1,41,60.895a20.411,20.411,0,0,1-8.029-10.568c-1.292-3.744-2.693-7.451-4.075-11.253A8.819,8.819,0,0,1,19,40.011c-.432,1.284-.855,2.535-1.274,3.787-.678,2.028-1.329,4.067-2.051,6.079a1.726,1.726,0,0,1-.852.941C10.282,52.608,5.718,54.35,1.158,56.1a1.212,1.212,0,0,1-.263.023L.16,54.214c.2-.094.371-.186.55-.255q6.176-2.378,12.358-4.743a1.355,1.355,0,0,0,.906-.954c.892-2.763,1.827-5.512,2.741-8.247a12.747,12.747,0,0,1-1.932-.123,3.337,3.337,0,0,1-1.522-.666c-.568-.516-.972-.356-1.523-.037C8.423,41.108,5.092,43,1.767,44.9c-.212.121-.428.234-.7.38L0,43.435c.241-.148.445-.282.657-.4q5.165-2.949,10.337-5.886a.7.7,0,0,0,.423-.892,4.251,4.251,0,0,1,2.74-4.621,1,1,0,0,0,.558-.606,8.658,8.658,0,0,1,6.812-7.038.877.877,0,0,0,.774-.684c.293-.97.626-1.927.952-2.886.244-.717.7-1.05,1.271-.952.609.1.931.578.9,1.376-.046,1.034-.114,2.068-.174,3.149l1.713.606c.121-1.146.239-2.237.352-3.329.1-.942.2-1.883.276-2.826a1.1,1.1,0,0,1,2.174-.291q.806,2.078,1.628,4.15c.1.247.2.491.353.85a12.689,12.689,0,0,0,.955-.939Q41.527,11.436,50.362.66A1.981,1.981,0,0,1,51.519.007c.563-.076.987.469.97,1.141-.072,2.724-.171,5.448-.26,8.172,0,.133-.017.266-.034.537.263-.163.441-.269.616-.381q3.723-2.4,7.442-4.8c.5-.328,1-.567,1.549-.151.515.389.465.9.322,1.468A26.967,26.967,0,0,1,51.4,21.739a1.055,1.055,0,0,0-.385.429c1.1-.156,2.191-.306,3.285-.468,2.541-.376,5.078-.783,7.624-1.11a1.685,1.685,0,0,1,1.174.44c.4.359.217.865,0,1.315A26,26,0,0,1,46.458,36.373c-.4.119-.813.221-1.333.362a40.594,40.594,0,0,0,2.6,4.323,5.875,5.875,0,0,0,9.935-1.181c1.125-2.331,2.157-4.708,3.231-7.064.111-.244.228-.486.378-.8l1.949.883c-.2.459-.386.885-.578,1.308q-1.411,3.106-2.825,6.21a8.136,8.136,0,0,1-14.72.637c-.654-1.157-1.281-2.33-1.946-3.48-.1-.178-.354-.4-.526-.39-1.729.085-3.456.214-5.227.334.074.217.138.428.218.632,1.182,3.019,2.374,6.033,3.543,9.057a1.057,1.057,0,0,0,.849.728c3.632.88,7.24,1.863,10.884,2.687a10.456,10.456,0,0,0,12.6-9.889c.013-.562,0-1.124,0-1.734H67.62A12.914,12.914,0,0,1,65.2,47.838a12.652,12.652,0,0,1-13.505,4.741c-3.629-.9-7.249-1.825-10.881-2.708a1.849,1.849,0,0,1-1.433-1.25c-1.338-3.49-2.726-6.959-4.07-10.447a.8.8,0,0,0-.933-.612c-1.191.048-2.385.015-3.743.015M59.3,7.869,33.183,24.718a5.688,5.688,0,0,0,.6,0c2.228-.325,4.457-.642,6.683-.987a20.637,20.637,0,0,0,3.708-.68A24.335,24.335,0,0,0,56.683,13.2,24.14,24.14,0,0,0,59.3,7.869M26.523,29.08a4.729,4.729,0,0,0,.109-1.9c-.182-.44-.874-.67-1.341-.992l-.183.156-.494,8.839a29.826,29.826,0,0,0,1.935-3.1,1.113,1.113,0,0,1,2.127.162c.341.953.716,1.895,1.035,2.855a.563.563,0,0,0,.683.458c.673-.056,1.35-.065,2.025-.1.13-.007.353-.029.372-.093.209-.693.695-1.49.515-2.079-.582-1.909-1.406-3.745-2.155-5.6-.059-.146-.271-.345-.394-.332-.642.063-1.278.187-1.9.287L28.638,29.3l-2.115-.225m11.9-10.448c.159-.02.209-.012.241-.033q5.281-3.4,10.556-6.816a.9.9,0,0,0,.383-.44A22.58,22.58,0,0,0,50.3,4.125L38.428,18.631m3.55,16.49c1.167-.244,2.4-.486,3.613-.774.16-.038.328-.291.385-.477.434-1.417.909-2.826,1.239-4.268.353-1.541.562-3.116.855-4.8l-4.12.608-1.973,9.711m-.482-9.35c-1.435.209-2.772.39-4.1.617-.13.022-.271.311-.308.5-.409,2.028-.774,4.066-1.2,6.089-.185.872.37,1.493.6,2.222.022.067.237.1.362.1.721-.011,1.444-.017,2.163-.075a.671.671,0,0,0,.485-.34,34.329,34.329,0,0,0,2-9.111m7.158,7.569c.632-.3,1.324-.609,2-.954,2.494-1.278,2.491-1.282,3.126-4,.005-.022.015-.043.019-.065l.758-4.471-4.152.615-1.75,8.876M17.847,35.707a2.162,2.162,0,1,0-2.158,2.15,2.174,2.174,0,0,0,2.158-2.15m4.93-6.483-.17-.039-2.925,8.771,2.56.982.536-9.715m-3.668,3.6,2.15-6.449c-1.962.325-4.276,2.932-4.348,4.84a.551.551,0,0,0,.218.408c.636.408,1.291.787,1.98,1.2m37.642-9.3-.719,4.955a23.548,23.548,0,0,0,4.27-5.47l-3.551.514M25.427,38.432l.174.2c.751-.536,1.51-1.062,2.245-1.62a.532.532,0,0,0,.1-.469c-.147-.479-.344-.943-.565-1.527l-1.952,3.416m9.513-11.7-1.708.259,1.079,2.752.153-.026.476-2.985m-5.507-3.468-.162.02-.2,2.126,1.12-.193-.763-1.953" transform="translate(0 0)"/>
      </g>
    </g>
    <g id="Grupo_159778" data-name="Grupo 159778" transform="translate(525.342 4751)">
      <g id="Grupo_159778-2" data-name="Grupo 159778" clip-path="url(#clip-path-3)">
        <path id="Trazado_600180" data-name="Trazado 600180" d="M17.3,34.729h.046A17.364,17.364,0,0,0,17.371,0h-.1A17.1,17.1,0,0,0,5.15,5.027,17.361,17.361,0,0,0,17.3,34.729m7.982-5.294a13.855,13.855,0,0,1-6.5,2.34q-.748.072-1.482.072a14.182,14.182,0,0,1-7.512-2.131.923.923,0,0,1-.485-1.21,8.413,8.413,0,0,1,8.134-5.7h.146a8.433,8.433,0,0,1,7.834,5.961.966.966,0,0,1,.035.206c0,.02,0,.041.007.065a.412.412,0,0,1-.179.395M12.8,15.4a4.515,4.515,0,0,1,4.512-4.533h.019a4.521,4.521,0,0,1-.02,9.042H17.3A4.528,4.528,0,0,1,12.8,15.4M6.652,7.623A14.435,14.435,0,0,1,28.359,26.65a.413.413,0,0,1-.313.144.4.4,0,0,1-.053,0,.413.413,0,0,1-.318-.228,11.63,11.63,0,0,0-4.966-5.3.413.413,0,0,1-.109-.638A7.425,7.425,0,0,0,12.469,9.786a7.53,7.53,0,0,0-2.527,5.1,7.779,7.779,0,0,0,2.081,5.746.413.413,0,0,1-.11.634,11.6,11.6,0,0,0-4.928,5.267.413.413,0,0,1-.677.1A13.846,13.846,0,0,1,2.88,17.7,14.407,14.407,0,0,1,6.652,7.623" transform="translate(0)" fill="#69489b"/>
      </g>
    </g>
    <g id="Grupo_159779" data-name="Grupo 159779" transform="translate(933.171 4751)">
      <g id="Grupo_159778-3" data-name="Grupo 159778" clip-path="url(#clip-path-4)">
        <path id="Trazado_600180-2" data-name="Trazado 600180" d="M17.3,34.729h.046A17.364,17.364,0,0,0,17.371,0h-.1A17.1,17.1,0,0,0,5.15,5.027,17.361,17.361,0,0,0,17.3,34.729m7.982-5.294a13.855,13.855,0,0,1-6.5,2.34q-.748.072-1.482.072a14.182,14.182,0,0,1-7.512-2.131.923.923,0,0,1-.485-1.21,8.413,8.413,0,0,1,8.134-5.7h.146a8.433,8.433,0,0,1,7.834,5.961.966.966,0,0,1,.035.206c0,.02,0,.041.007.065a.412.412,0,0,1-.179.395M12.8,15.4a4.515,4.515,0,0,1,4.512-4.533h.019a4.521,4.521,0,0,1-.02,9.042H17.3A4.528,4.528,0,0,1,12.8,15.4M6.652,7.623A14.435,14.435,0,0,1,28.359,26.65a.413.413,0,0,1-.313.144.4.4,0,0,1-.053,0,.413.413,0,0,1-.318-.228,11.63,11.63,0,0,0-4.966-5.3.413.413,0,0,1-.109-.638A7.425,7.425,0,0,0,12.469,9.786a7.53,7.53,0,0,0-2.527,5.1,7.779,7.779,0,0,0,2.081,5.746.413.413,0,0,1-.11.634,11.6,11.6,0,0,0-4.928,5.267.413.413,0,0,1-.677.1A13.846,13.846,0,0,1,2.88,17.7,14.407,14.407,0,0,1,6.652,7.623" transform="translate(0)" fill="#4462fe"/>
      </g>
    </g>
  </g>
</svg>
