<svg xmlns="http://www.w3.org/2000/svg" xmlns:xlink="http://www.w3.org/1999/xlink" width="610" height="449" viewBox="0 0 610 449">
  <defs>
    <clipPath id="clip-path">
      <rect id="Rectángulo_45970" data-name="Rectángulo 45970" width="43.404" height="41.629" fill="none"/>
    </clipPath>
    <clipPath id="clip-path-3">
      <rect id="Rectángulo_45972" data-name="Rectángulo 45972" width="22.233" height="22.278" fill="#69489b"/>
    </clipPath>
    <clipPath id="clip-path-4">
      <rect id="Rectángulo_45972-2" data-name="Rectángulo 45972" width="22.233" height="22.278" fill="#4462fe"/>
    </clipPath>
  </defs>
  <g id="Grupo_159818" data-name="Grupo 159818" transform="translate(-285 -5280)">
    <rect id="Rectángulo_45987" data-name="Rectángulo 45987" width="610" height="449" transform="translate(285 5280)" fill="#e2e7fe"/>
    <rect id="Rectángulo_45954" data-name="Rectángulo 45954" width="189" height="90" rx="7" transform="translate(358 5355)" fill="#fff"/>
    <rect id="Rectángulo_45955" data-name="Rectángulo 45955" width="189" height="90" rx="7" transform="translate(621 5355)" fill="#fff"/>
    <path id="Sustracción_6" data-name="Sustracción 6" d="M84.969,56H2.031a42.54,42.54,0,0,1,5.4-37.05,43.73,43.73,0,0,1,72.142,0,42.917,42.917,0,0,1,4.011,7.3A42.69,42.69,0,0,1,84.969,56Z" transform="translate(409 5305)" fill="#fff"/>
    <path id="Sustracción_7" data-name="Sustracción 7" d="M84.969,56H2.031a42.54,42.54,0,0,1,5.4-37.05,43.73,43.73,0,0,1,72.142,0,42.917,42.917,0,0,1,4.011,7.3A42.69,42.69,0,0,1,84.969,56Z" transform="translate(672 5305)" fill="#fff"/>
    <text id="El_mosquito_se_alimenta_y_adquiere_el_virus." data-name="El mosquito se alimenta y adquiere el virus." transform="translate(381 5364)" fill="#12263f" font-size="17" font-family="Roboto-Bold, Roboto" font-weight="700"><tspan x="15.866" y="16">El mosquito se </tspan><tspan x="32.409" y="38">alimenta y </tspan><tspan x="6.303" y="60">adquiere el virus.</tspan></text>
    <text id="El_mosquito_se_alimenta_y_transmite_el_virus." data-name="El mosquito se alimenta y transmite el virus." transform="translate(644 5364)" fill="#12263f" font-size="17" font-family="Roboto-Bold, Roboto" font-weight="700"><tspan x="19.366" y="16">El mosquito se </tspan><tspan x="35.909" y="38">alimenta y </tspan><tspan x="6.558" y="60">transmite el virus.</tspan></text>
    <path id="Trazado_600174" data-name="Trazado 600174" d="M-8110.323-9047h53.437" transform="translate(8536.244 14401.762)" fill="none" stroke="#4c82fc" stroke-width="2"/>
    <path id="Trazado_600175" data-name="Trazado 600175" d="M-8110.323-9047h53.437" transform="translate(8799.255 14401.762)" fill="none" stroke="#4c82fc" stroke-width="2"/>
    <path id="Rectángulo_45962" data-name="Rectángulo 45962" d="M8,0H72a8,8,0,0,1,8,8V28a0,0,0,0,1,0,0H0a0,0,0,0,1,0,0V8A8,8,0,0,1,8,0Z" transform="translate(678 5540)" fill="#344abe"/>
    <path id="Rectángulo_45967" data-name="Rectángulo 45967" d="M8,0H72a8,8,0,0,1,8,8V28a0,0,0,0,1,0,0H0a0,0,0,0,1,0,0V8A8,8,0,0,1,8,0Z" transform="translate(305 5540)" fill="#54397c"/>
    <g id="Rectángulo_45968" data-name="Rectángulo 45968" transform="translate(399 5655)" fill="#fff" stroke="#654595" stroke-width="1">
      <rect width="112" height="36" rx="9" stroke="none"/>
      <rect x="0.5" y="0.5" width="111" height="35" rx="8.5" fill="none"/>
    </g>
    <g id="Rectángulo_45988" data-name="Rectángulo 45988" transform="translate(659 5655)" fill="#fff" stroke="#4462fe" stroke-width="1">
      <rect width="112" height="36" rx="9" stroke="none"/>
      <rect x="0.5" y="0.5" width="111" height="35" rx="8.5" fill="none"/>
    </g>
    <text id="Viremia" transform="translate(305 5546)" fill="#fff" font-size="17" font-family="Roboto-Bold, Roboto" font-weight="700"><tspan x="10.404" y="16">Viremia</tspan></text>
    <text id="Enfermedad" transform="translate(362 5624)" fill="#12263f" font-size="17" font-family="Roboto-Bold, Roboto" font-weight="700"><tspan x="10.227" y="16">Enfermedad</tspan></text>
    <text id="Humano_1" data-name="Humano #1" transform="translate(427 5662)" fill="#54397c" font-size="17" font-family="Roboto-Bold, Roboto" font-weight="700"><tspan x="7.756" y="16">Humano </tspan></text>
    <text id="Humano_2" data-name="Humano #2" transform="translate(689 5663)" fill="#4462fe" font-size="17" font-family="Roboto-Bold, Roboto" font-weight="700"><tspan x="7.756" y="16">Humano </tspan></text>
    <text id="Enfermedad-2" data-name="Enfermedad" transform="translate(703.797 5624.473)" fill="#12263f" font-size="17" font-family="Roboto-Bold, Roboto" font-weight="700"><tspan x="6.829" y="16">Enfermedad</tspan></text>
    <text id="_0" data-name="0" transform="translate(329 5580)" fill="#12263f" font-size="17" font-family="Roboto-Bold, Roboto" font-weight="700"><tspan x="12.123" y="16">0</tspan></text>
    <text id="_28" data-name="28" transform="translate(793 5580)" fill="#12263f" font-size="17" font-family="Roboto-Bold, Roboto" font-weight="700"><tspan x="7.247" y="16">28</tspan></text>
    <text id="Días" transform="translate(836 5580)" fill="#12263f" font-size="17" font-family="Roboto-Bold, Roboto" font-weight="700"><tspan x="0.22" y="16">Días</tspan></text>
    <text id="_24" data-name="24" transform="translate(727 5580)" fill="#12263f" font-size="17" font-family="Roboto-Bold, Roboto" font-weight="700"><tspan x="7.247" y="16">24</tspan></text>
    <text id="_20" data-name="20" transform="translate(660 5580)" fill="#12263f" font-size="17" font-family="Roboto-Bold, Roboto" font-weight="700"><tspan x="7.247" y="16">20</tspan></text>
    <text id="_16" data-name="16" transform="translate(594 5580)" fill="#12263f" font-size="17" font-family="Roboto-Bold, Roboto" font-weight="700"><tspan x="7.247" y="16">16</tspan></text>
    <text id="_12" data-name="12" transform="translate(528 5580)" fill="#12263f" font-size="17" font-family="Roboto-Bold, Roboto" font-weight="700"><tspan x="7.247" y="16">12</tspan></text>
    <text id="_8" data-name="8" transform="translate(462 5580)" fill="#12263f" font-size="17" font-family="Roboto-Bold, Roboto" font-weight="700"><tspan x="12.123" y="16">8</tspan></text>
    <text id="_5" data-name="5" transform="translate(395 5580)" fill="#12263f" font-size="17" font-family="Roboto-Bold, Roboto" font-weight="700"><tspan x="12.123" y="16">5</tspan></text>
    <text id="Viremia-2" data-name="Viremia" transform="translate(678 5546)" fill="#fff" font-size="17" font-family="Roboto-Bold, Roboto" font-weight="700"><tspan x="10.404" y="16">Viremia</tspan></text>
    <path id="Polígono_12" data-name="Polígono 12" d="M4.5,0,9,7H0Z" transform="translate(351 5533) rotate(180)" fill="#69489b"/>
    <path id="Polígono_13" data-name="Polígono 13" d="M4.5,0,9,8H0Z" transform="translate(615 5562) rotate(180)" fill="#4462fe"/>
    <path id="Trazado_600393" data-name="Trazado 600393" d="M4.5,0,9,8H0Z" transform="translate(838 5565) rotate(90)" fill="#344abe"/>
    <rect id="Rectángulo_45963" data-name="Rectángulo 45963" width="3" height="173" transform="translate(345 5355)" fill="#69489b"/>
    <rect id="Rectángulo_45965" data-name="Rectángulo 45965" width="2" height="264" transform="translate(610 5568) rotate(90)" fill="#54397c"/>
    <rect id="Rectángulo_45966" data-name="Rectángulo 45966" width="2" height="221" transform="translate(831 5568) rotate(90)" fill="#344abe"/>
    <rect id="Rectángulo_45964" data-name="Rectángulo 45964" width="3" height="199" transform="translate(609 5355)" fill="#4462fe"/>
    <path id="Trazado_600176" data-name="Trazado 600176" d="M-8288.727-7054.268v37.578h-91.3v-37.578" transform="translate(8752.385 12629.722)" fill="none" stroke="#12263f" stroke-width="2" stroke-dasharray="2"/>
    <path id="Trazado_600177" data-name="Trazado 600177" d="M-8288.727-7054.268v37.578h-91.3v-37.578" transform="translate(9078.052 12629.722)" fill="none" stroke="#12263f" stroke-width="2" stroke-dasharray="2"/>
    <text id="Periodo_de_incubación_extrínseca" data-name="Periodo de incubación extrínseca" transform="translate(370 5471)" fill="#12263f" font-size="17" font-family="Roboto-Regular, Roboto"><tspan x="3.426" y="16">Periodo de incubación </tspan><tspan x="48.383" y="38">extrínseca</tspan></text>
    <text id="Periodo_de_incubación_intrínseca" data-name="Periodo de incubación intrínseca" transform="translate(621 5471)" fill="#12263f" font-size="17" font-family="Roboto-Regular, Roboto"><tspan x="10.426" y="16">Periodo de incubación </tspan><tspan x="57.346" y="38">intrínseca</tspan></text>
    <g id="Grupo_159773" data-name="Grupo 159773" transform="translate(429.449 5314.229)">
      <g id="Grupo_159772" data-name="Grupo 159772" clip-path="url(#clip-path)">
        <path id="Trazado_600178" data-name="Trazado 600178" d="M19.652,24.106c.709,1.921,1.353,3.7,2.019,5.466a36,36,0,0,0,1.656,4.181,11.179,11.179,0,0,0,8.036,5.9c1.03.21,2.062.414,3.133.628l-.259,1.352c-.727-.142-1.426-.295-2.13-.415A14.44,14.44,0,0,1,26.3,39.063a13.093,13.093,0,0,1-5.15-6.779c-.829-2.4-1.728-4.78-2.614-7.219a5.657,5.657,0,0,1-6.347.6c-.277.824-.548,1.626-.817,2.429-.435,1.3-.852,2.609-1.316,3.9a1.108,1.108,0,0,1-.547.6C6.6,33.748,3.668,34.865.743,35.989A.778.778,0,0,1,.574,36L.1,34.778c.129-.06.238-.119.353-.163q3.962-1.526,7.927-3.043a.869.869,0,0,0,.581-.612c.572-1.772,1.172-3.536,1.759-5.29a8.177,8.177,0,0,1-1.24-.079,2.141,2.141,0,0,1-.976-.427c-.364-.331-.624-.228-.977-.024C5.4,26.37,3.267,27.583,1.133,28.8c-.136.078-.275.15-.447.244L0,27.863c.155-.1.286-.181.421-.258q3.313-1.892,6.631-3.776a.451.451,0,0,0,.272-.572,2.727,2.727,0,0,1,1.758-2.964.642.642,0,0,0,.358-.389,5.554,5.554,0,0,1,4.37-4.515.562.562,0,0,0,.5-.439c.188-.622.4-1.236.611-1.851.156-.46.448-.673.815-.611.391.067.6.371.574.883-.029.664-.073,1.327-.112,2.02l1.1.389c.078-.735.154-1.435.226-2.136.062-.6.127-1.208.177-1.813a.707.707,0,0,1,1.394-.187q.517,1.333,1.044,2.662c.063.159.131.315.227.545a8.14,8.14,0,0,0,.613-.6Q26.639,7.336,32.306.423A1.271,1.271,0,0,1,33.049,0c.361-.048.633.3.622.732-.046,1.748-.109,3.495-.167,5.242,0,.085-.011.17-.022.345.169-.1.283-.173.395-.245Q36.265,4.541,38.651,3c.324-.211.64-.364.993-.1.33.249.3.578.207.942a17.3,17.3,0,0,1-6.879,10.1.677.677,0,0,0-.247.275c.7-.1,1.406-.2,2.108-.3,1.63-.241,3.257-.5,4.891-.712a1.081,1.081,0,0,1,.753.282c.254.231.139.555,0,.843a16.677,16.677,0,0,1-10.672,9c-.259.077-.521.142-.855.232a26.04,26.04,0,0,0,1.665,2.773,3.769,3.769,0,0,0,6.373-.758c.722-1.5,1.383-3.02,2.073-4.532.071-.157.146-.312.242-.516l1.25.566c-.13.294-.248.568-.371.839q-.9,1.992-1.812,3.984a5.219,5.219,0,0,1-9.443.408c-.42-.742-.822-1.494-1.248-2.232-.066-.114-.227-.256-.337-.25-1.109.055-2.217.137-3.353.214.048.139.088.274.14.406.759,1.936,1.523,3.87,2.273,5.81a.678.678,0,0,0,.544.467c2.33.565,4.644,1.2,6.982,1.724a6.707,6.707,0,0,0,8.081-6.344c.009-.36,0-.721,0-1.112h1.37a8.284,8.284,0,0,1-1.553,5.675,8.116,8.116,0,0,1-8.664,3.041c-2.328-.575-4.65-1.171-6.98-1.737a1.186,1.186,0,0,1-.919-.8c-.858-2.239-1.749-4.464-2.611-6.7a.516.516,0,0,0-.6-.393c-.764.031-1.53.01-2.4.01M38.042,5.048,21.287,15.856a3.649,3.649,0,0,0,.386,0c1.429-.208,2.859-.412,4.287-.633a13.238,13.238,0,0,0,2.379-.436,15.611,15.611,0,0,0,8.023-6.32,15.485,15.485,0,0,0,1.681-3.418M17.014,18.654a3.033,3.033,0,0,0,.07-1.219c-.117-.283-.561-.43-.86-.637l-.117.1-.317,5.67a19.133,19.133,0,0,0,1.241-1.987.714.714,0,0,1,1.365.1c.219.611.459,1.215.664,1.831a.361.361,0,0,0,.438.294c.432-.036.866-.042,1.3-.066.084,0,.226-.019.239-.06.134-.445.446-.956.33-1.334-.373-1.225-.9-2.4-1.382-3.593-.038-.094-.174-.221-.252-.213-.412.041-.82.12-1.222.184L18.371,18.8l-1.357-.144m7.637-6.7c.1-.013.134-.008.155-.021q3.388-2.183,6.772-4.372a.579.579,0,0,0,.245-.282,14.485,14.485,0,0,0,.442-4.63l-7.614,9.306M26.928,22.53c.749-.157,1.537-.312,2.318-.5.1-.024.21-.187.247-.306.279-.909.583-1.813.8-2.738.227-.989.36-2,.549-3.079l-2.643.39L26.928,22.53m-.309-6c-.921.134-1.778.25-2.631.4-.083.014-.174.2-.2.318-.262,1.3-.5,2.608-.772,3.906-.119.559.237.958.388,1.426.014.043.152.066.232.065.463-.007.927-.011,1.387-.048a.43.43,0,0,0,.311-.218,22.022,22.022,0,0,0,1.282-5.844m4.592,4.855c.405-.193.849-.391,1.281-.612,1.6-.82,1.6-.822,2.006-2.567,0-.014.01-.027.012-.042L35,15.3l-2.663.395-1.122,5.694M11.449,22.906a1.387,1.387,0,1,0-1.384,1.379,1.394,1.394,0,0,0,1.384-1.379m3.162-4.159-.109-.025-1.877,5.627,1.642.63.344-6.232m-2.353,2.309,1.379-4.137a3.969,3.969,0,0,0-2.789,3.1.353.353,0,0,0,.14.262c.408.262.828.505,1.27.77m24.147-5.965-.461,3.179a15.106,15.106,0,0,0,2.739-3.509l-2.278.33M16.311,24.654l.111.129c.482-.344.969-.681,1.44-1.039a.342.342,0,0,0,.063-.3c-.095-.307-.22-.6-.362-.98l-1.252,2.191m6.1-7.506-1.1.166.692,1.765.1-.016.306-1.915m-3.533-2.225-.1.013L18.652,16.3l.718-.124-.489-1.253" transform="translate(0 0)"/>
      </g>
    </g>
    <g id="Grupo_159774" data-name="Grupo 159774" transform="translate(693.852 5314.229)">
      <g id="Grupo_159772-2" data-name="Grupo 159772" clip-path="url(#clip-path)">
        <path id="Trazado_600178-2" data-name="Trazado 600178" d="M19.652,24.106c.709,1.921,1.353,3.7,2.019,5.466a36,36,0,0,0,1.656,4.181,11.179,11.179,0,0,0,8.036,5.9c1.03.21,2.062.414,3.133.628l-.259,1.352c-.727-.142-1.426-.295-2.13-.415A14.44,14.44,0,0,1,26.3,39.063a13.093,13.093,0,0,1-5.15-6.779c-.829-2.4-1.728-4.78-2.614-7.219a5.657,5.657,0,0,1-6.347.6c-.277.824-.548,1.626-.817,2.429-.435,1.3-.852,2.609-1.316,3.9a1.108,1.108,0,0,1-.547.6C6.6,33.748,3.668,34.865.743,35.989A.778.778,0,0,1,.574,36L.1,34.778c.129-.06.238-.119.353-.163q3.962-1.526,7.927-3.043a.869.869,0,0,0,.581-.612c.572-1.772,1.172-3.536,1.759-5.29a8.177,8.177,0,0,1-1.24-.079,2.141,2.141,0,0,1-.976-.427c-.364-.331-.624-.228-.977-.024C5.4,26.37,3.267,27.583,1.133,28.8c-.136.078-.275.15-.447.244L0,27.863c.155-.1.286-.181.421-.258q3.313-1.892,6.631-3.776a.451.451,0,0,0,.272-.572,2.727,2.727,0,0,1,1.758-2.964.642.642,0,0,0,.358-.389,5.554,5.554,0,0,1,4.37-4.515.562.562,0,0,0,.5-.439c.188-.622.4-1.236.611-1.851.156-.46.448-.673.815-.611.391.067.6.371.574.883-.029.664-.073,1.327-.112,2.02l1.1.389c.078-.735.154-1.435.226-2.136.062-.6.127-1.208.177-1.813a.707.707,0,0,1,1.394-.187q.517,1.333,1.044,2.662c.063.159.131.315.227.545a8.14,8.14,0,0,0,.613-.6Q26.639,7.336,32.306.423A1.271,1.271,0,0,1,33.049,0c.361-.048.633.3.622.732-.046,1.748-.109,3.495-.167,5.242,0,.085-.011.17-.022.345.169-.1.283-.173.395-.245Q36.265,4.541,38.651,3c.324-.211.64-.364.993-.1.33.249.3.578.207.942a17.3,17.3,0,0,1-6.879,10.1.677.677,0,0,0-.247.275c.7-.1,1.406-.2,2.108-.3,1.63-.241,3.257-.5,4.891-.712a1.081,1.081,0,0,1,.753.282c.254.231.139.555,0,.843a16.677,16.677,0,0,1-10.672,9c-.259.077-.521.142-.855.232a26.04,26.04,0,0,0,1.665,2.773,3.769,3.769,0,0,0,6.373-.758c.722-1.5,1.383-3.02,2.073-4.532.071-.157.146-.312.242-.516l1.25.566c-.13.294-.248.568-.371.839q-.9,1.992-1.812,3.984a5.219,5.219,0,0,1-9.443.408c-.42-.742-.822-1.494-1.248-2.232-.066-.114-.227-.256-.337-.25-1.109.055-2.217.137-3.353.214.048.139.088.274.14.406.759,1.936,1.523,3.87,2.273,5.81a.678.678,0,0,0,.544.467c2.33.565,4.644,1.2,6.982,1.724a6.707,6.707,0,0,0,8.081-6.344c.009-.36,0-.721,0-1.112h1.37a8.284,8.284,0,0,1-1.553,5.675,8.116,8.116,0,0,1-8.664,3.041c-2.328-.575-4.65-1.171-6.98-1.737a1.186,1.186,0,0,1-.919-.8c-.858-2.239-1.749-4.464-2.611-6.7a.516.516,0,0,0-.6-.393c-.764.031-1.53.01-2.4.01M38.042,5.048,21.287,15.856a3.649,3.649,0,0,0,.386,0c1.429-.208,2.859-.412,4.287-.633a13.238,13.238,0,0,0,2.379-.436,15.611,15.611,0,0,0,8.023-6.32,15.485,15.485,0,0,0,1.681-3.418M17.014,18.654a3.033,3.033,0,0,0,.07-1.219c-.117-.283-.561-.43-.86-.637l-.117.1-.317,5.67a19.133,19.133,0,0,0,1.241-1.987.714.714,0,0,1,1.365.1c.219.611.459,1.215.664,1.831a.361.361,0,0,0,.438.294c.432-.036.866-.042,1.3-.066.084,0,.226-.019.239-.06.134-.445.446-.956.33-1.334-.373-1.225-.9-2.4-1.382-3.593-.038-.094-.174-.221-.252-.213-.412.041-.82.12-1.222.184L18.371,18.8l-1.357-.144m7.637-6.7c.1-.013.134-.008.155-.021q3.388-2.183,6.772-4.372a.579.579,0,0,0,.245-.282,14.485,14.485,0,0,0,.442-4.63l-7.614,9.306M26.928,22.53c.749-.157,1.537-.312,2.318-.5.1-.024.21-.187.247-.306.279-.909.583-1.813.8-2.738.227-.989.36-2,.549-3.079l-2.643.39L26.928,22.53m-.309-6c-.921.134-1.778.25-2.631.4-.083.014-.174.2-.2.318-.262,1.3-.5,2.608-.772,3.906-.119.559.237.958.388,1.426.014.043.152.066.232.065.463-.007.927-.011,1.387-.048a.43.43,0,0,0,.311-.218,22.022,22.022,0,0,0,1.282-5.844m4.592,4.855c.405-.193.849-.391,1.281-.612,1.6-.82,1.6-.822,2.006-2.567,0-.014.01-.027.012-.042L35,15.3l-2.663.395-1.122,5.694M11.449,22.906a1.387,1.387,0,1,0-1.384,1.379,1.394,1.394,0,0,0,1.384-1.379m3.162-4.159-.109-.025-1.877,5.627,1.642.63.344-6.232m-2.353,2.309,1.379-4.137a3.969,3.969,0,0,0-2.789,3.1.353.353,0,0,0,.14.262c.408.262.828.505,1.27.77m24.147-5.965-.461,3.179a15.106,15.106,0,0,0,2.739-3.509l-2.278.33M16.311,24.654l.111.129c.482-.344.969-.681,1.44-1.039a.342.342,0,0,0,.063-.3c-.095-.307-.22-.6-.362-.98l-1.252,2.191m6.1-7.506-1.1.166.692,1.765.1-.016.306-1.915m-3.533-2.225-.1.013L18.652,16.3l.718-.124-.489-1.253" transform="translate(0 0)"/>
      </g>
    </g>
    <g id="Grupo_159778" data-name="Grupo 159778" transform="translate(404.65 5662)">
      <g id="Grupo_159778-2" data-name="Grupo 159778" clip-path="url(#clip-path-3)">
        <path id="Trazado_600180" data-name="Trazado 600180" d="M11.095,22.278h.029A11.139,11.139,0,0,0,11.143,0H11.08A10.968,10.968,0,0,0,3.3,3.225a11.137,11.137,0,0,0,7.791,19.053m5.12-3.4a8.888,8.888,0,0,1-4.169,1.5q-.48.046-.951.046a9.1,9.1,0,0,1-4.819-1.367.592.592,0,0,1-.311-.776,5.4,5.4,0,0,1,5.218-3.656h.094A5.409,5.409,0,0,1,16.3,18.455a.62.62,0,0,1,.022.132c0,.013,0,.026,0,.042a.265.265,0,0,1-.115.253m-8-9a2.9,2.9,0,0,1,2.895-2.908h.012a2.9,2.9,0,0,1-.013,5.8H11.1A2.9,2.9,0,0,1,8.213,9.881M4.267,4.89A9.26,9.26,0,0,1,18.192,17.1a.265.265,0,0,1-.2.092l-.034,0a.265.265,0,0,1-.2-.146,7.461,7.461,0,0,0-3.185-3.4.265.265,0,0,1-.07-.409A4.763,4.763,0,0,0,8,6.277,4.83,4.83,0,0,0,6.378,9.55a4.99,4.99,0,0,0,1.335,3.686.265.265,0,0,1-.071.407,7.442,7.442,0,0,0-3.161,3.378.265.265,0,0,1-.434.065,8.882,8.882,0,0,1-2.2-5.732A9.242,9.242,0,0,1,4.267,4.89" transform="translate(0)" fill="#69489b"/>
      </g>
    </g>
    <g id="Grupo_159779" data-name="Grupo 159779" transform="translate(666.269 5662)">
      <g id="Grupo_159778-3" data-name="Grupo 159778" clip-path="url(#clip-path-4)">
        <path id="Trazado_600180-2" data-name="Trazado 600180" d="M11.095,22.278h.029A11.139,11.139,0,0,0,11.143,0H11.08A10.968,10.968,0,0,0,3.3,3.225a11.137,11.137,0,0,0,7.791,19.053m5.12-3.4a8.888,8.888,0,0,1-4.169,1.5q-.48.046-.951.046a9.1,9.1,0,0,1-4.819-1.367.592.592,0,0,1-.311-.776,5.4,5.4,0,0,1,5.218-3.656h.094A5.409,5.409,0,0,1,16.3,18.455a.62.62,0,0,1,.022.132c0,.013,0,.026,0,.042a.265.265,0,0,1-.115.253m-8-9a2.9,2.9,0,0,1,2.895-2.908h.012a2.9,2.9,0,0,1-.013,5.8H11.1A2.9,2.9,0,0,1,8.213,9.881M4.267,4.89A9.26,9.26,0,0,1,18.192,17.1a.265.265,0,0,1-.2.092l-.034,0a.265.265,0,0,1-.2-.146,7.461,7.461,0,0,0-3.185-3.4.265.265,0,0,1-.07-.409A4.763,4.763,0,0,0,8,6.277,4.83,4.83,0,0,0,6.378,9.55a4.99,4.99,0,0,0,1.335,3.686.265.265,0,0,1-.071.407,7.442,7.442,0,0,0-3.161,3.378.265.265,0,0,1-.434.065,8.882,8.882,0,0,1-2.2-5.732A9.242,9.242,0,0,1,4.267,4.89" transform="translate(0)" fill="#4462fe"/>
      </g>
    </g>
  </g>
</svg>
