<svg xmlns="http://www.w3.org/2000/svg" xmlns:xlink="http://www.w3.org/1999/xlink" width="610" height="709" viewBox="0 0 610 709">
  <defs>
    <clipPath id="clip-path">
      <rect id="Rectángulo_45970" data-name="Rectángulo 45970" width="43.404" height="41.629" fill="none"/>
    </clipPath>
    <clipPath id="clip-path-3">
      <rect id="Rectángulo_45972" data-name="Rectángulo 45972" width="22.233" height="22.278" fill="#69489b"/>
    </clipPath>
    <clipPath id="clip-path-4">
      <rect id="Rectángulo_45972-2" data-name="Rectángulo 45972" width="22.233" height="22.278" fill="#4462fe"/>
    </clipPath>
    <clipPath id="clip-path-5">
      <rect id="Rectángulo_45986" data-name="Rectángulo 45986" width="19.182" height="19.164" fill="#9fc26f"/>
    </clipPath>
    <clipPath id="clip-path-6">
      <rect id="Rectángulo_45986-2" data-name="Rectángulo 45986" width="11.849" height="11.838" fill="#579107"/>
    </clipPath>
    <clipPath id="clip-path-7">
      <rect id="Rectángulo_45986-3" data-name="Rectángulo 45986" width="20.248" height="20.229" fill="#9fc26f"/>
    </clipPath>
    <clipPath id="clip-path-9">
      <rect id="Rectángulo_45986-5" data-name="Rectángulo 45986" width="22.758" height="22.737" fill="#579107"/>
    </clipPath>
  </defs>
  <g id="Grupo_160816" data-name="Grupo 160816" transform="translate(10022 7160)">
    <g id="Grupo_160793" data-name="Grupo 160793">
      <g id="Grupo_159818" data-name="Grupo 159818" transform="translate(-10307 -12180)">
        <rect id="Rectángulo_45987" data-name="Rectángulo 45987" width="610" height="449" transform="translate(285 5280)" fill="#e2e7fe"/>
        <rect id="Rectángulo_45954" data-name="Rectángulo 45954" width="189" height="90" rx="7" transform="translate(358 5355)" fill="#fff"/>
        <rect id="Rectángulo_45955" data-name="Rectángulo 45955" width="189" height="90" rx="7" transform="translate(621 5355)" fill="#fff"/>
        <path id="Sustracción_6" data-name="Sustracción 6" d="M84.969,56H2.031a42.54,42.54,0,0,1,5.4-37.05,43.73,43.73,0,0,1,72.142,0,42.917,42.917,0,0,1,4.011,7.3A42.69,42.69,0,0,1,84.969,56Z" transform="translate(409 5305)" fill="#fff"/>
        <path id="Sustracción_7" data-name="Sustracción 7" d="M84.969,56H2.031a42.54,42.54,0,0,1,5.4-37.05,43.73,43.73,0,0,1,72.142,0,42.917,42.917,0,0,1,4.011,7.3A42.69,42.69,0,0,1,84.969,56Z" transform="translate(672 5305)" fill="#fff"/>
        <text id="El_mosquito_se_alimenta_y_adquiere_el_virus." data-name="El mosquito se alimenta y adquiere el virus." transform="translate(381 5364)" fill="#12263f" font-size="17" font-family="Roboto-Bold, Roboto" font-weight="700"><tspan x="15.866" y="18">El mosquito se </tspan><tspan x="32.409" y="40">alimenta y </tspan><tspan x="6.225" y="62">adquiere el virus.</tspan></text>
        <text id="El_mosquito_se_alimenta_y_transmite_el_virus." data-name="El mosquito se alimenta y transmite el virus." transform="translate(644 5364)" fill="#12263f" font-size="17" font-family="Roboto-Bold, Roboto" font-weight="700"><tspan x="19.366" y="18">El mosquito se </tspan><tspan x="35.909" y="40">alimenta y </tspan><tspan x="6.558" y="62">transmite el virus.</tspan></text>
        <path id="Trazado_600174" data-name="Trazado 600174" d="M-8110.323-9047h53.437" transform="translate(8536.244 14401.762)" fill="none" stroke="#4c82fc" stroke-width="2"/>
        <path id="Trazado_600175" data-name="Trazado 600175" d="M-8110.323-9047h53.437" transform="translate(8799.255 14401.762)" fill="none" stroke="#4c82fc" stroke-width="2"/>
        <path id="Rectángulo_45962" data-name="Rectángulo 45962" d="M8,0H72a8,8,0,0,1,8,8V28a0,0,0,0,1,0,0H0a0,0,0,0,1,0,0V8A8,8,0,0,1,8,0Z" transform="translate(678 5540)" fill="#344abe"/>
        <path id="Rectángulo_45967" data-name="Rectángulo 45967" d="M8,0H72a8,8,0,0,1,8,8V28a0,0,0,0,1,0,0H0a0,0,0,0,1,0,0V8A8,8,0,0,1,8,0Z" transform="translate(305 5540)" fill="#54397c"/>
        <g id="Rectángulo_45968" data-name="Rectángulo 45968" transform="translate(399 5655)" fill="#fff" stroke="#654595" stroke-width="1">
          <rect width="112" height="36" rx="9" stroke="none"/>
          <rect x="0.5" y="0.5" width="111" height="35" rx="8.5" fill="none"/>
        </g>
        <g id="Rectángulo_45988" data-name="Rectángulo 45988" transform="translate(659 5655)" fill="#fff" stroke="#4462fe" stroke-width="1">
          <rect width="112" height="36" rx="9" stroke="none"/>
          <rect x="0.5" y="0.5" width="111" height="35" rx="8.5" fill="none"/>
        </g>
        <text id="Viremia" transform="translate(305 5546)" fill="#fff" font-size="17" font-family="Roboto-Bold, Roboto" font-weight="700"><tspan x="10.325" y="18">Viremia</tspan></text>
        <text id="Enfermedad" transform="translate(362 5624)" fill="#12263f" font-size="17" font-family="Roboto-Bold, Roboto" font-weight="700"><tspan x="10.128" y="18">Enfermedad</tspan></text>
        <text id="Humano_1" data-name="Humano #1" transform="translate(427 5662)" fill="#54397c" font-size="17" font-family="Roboto-Bold, Roboto" font-weight="700"><tspan x="7.756" y="18">Humano </tspan></text>
        <text id="Humano_2" data-name="Humano #2" transform="translate(689 5663)" fill="#4462fe" font-size="17" font-family="Roboto-Bold, Roboto" font-weight="700"><tspan x="7.756" y="18">Humano </tspan></text>
        <text id="Enfermedad-2" data-name="Enfermedad" transform="translate(703.797 5624.473)" fill="#12263f" font-size="17" font-family="Roboto-Bold, Roboto" font-weight="700"><tspan x="6.729" y="18">Enfermedad</tspan></text>
        <text id="_0" data-name="0" transform="translate(329 5580)" fill="#12263f" font-size="17" font-family="Roboto-Bold, Roboto" font-weight="700"><tspan x="12.123" y="18">0</tspan></text>
        <text id="_28" data-name="28" transform="translate(793 5580)" fill="#12263f" font-size="17" font-family="Roboto-Bold, Roboto" font-weight="700"><tspan x="7.247" y="18">28</tspan></text>
        <text id="Días" transform="translate(836 5580)" fill="#12263f" font-size="17" font-family="Roboto-Bold, Roboto" font-weight="700"><tspan x="0.22" y="18">Días</tspan></text>
        <text id="_24" data-name="24" transform="translate(727 5580)" fill="#12263f" font-size="17" font-family="Roboto-Bold, Roboto" font-weight="700"><tspan x="7.247" y="18">24</tspan></text>
        <text id="_20" data-name="20" transform="translate(660 5580)" fill="#12263f" font-size="17" font-family="Roboto-Bold, Roboto" font-weight="700"><tspan x="7.247" y="18">20</tspan></text>
        <text id="_16" data-name="16" transform="translate(594 5580)" fill="#12263f" font-size="17" font-family="Roboto-Bold, Roboto" font-weight="700"><tspan x="7.247" y="18">16</tspan></text>
        <text id="_12" data-name="12" transform="translate(528 5580)" fill="#12263f" font-size="17" font-family="Roboto-Bold, Roboto" font-weight="700"><tspan x="7.247" y="18">12</tspan></text>
        <text id="_8" data-name="8" transform="translate(462 5580)" fill="#12263f" font-size="17" font-family="Roboto-Bold, Roboto" font-weight="700"><tspan x="12.123" y="18">8</tspan></text>
        <text id="_5" data-name="5" transform="translate(395 5580)" fill="#12263f" font-size="17" font-family="Roboto-Bold, Roboto" font-weight="700"><tspan x="12.123" y="18">5</tspan></text>
        <text id="Viremia-2" data-name="Viremia" transform="translate(678 5546)" fill="#fff" font-size="17" font-family="Roboto-Bold, Roboto" font-weight="700"><tspan x="10.325" y="18">Viremia</tspan></text>
        <path id="Polígono_12" data-name="Polígono 12" d="M4.5,0,9,7H0Z" transform="translate(351 5533) rotate(180)" fill="#69489b"/>
        <path id="Polígono_13" data-name="Polígono 13" d="M4.5,0,9,8H0Z" transform="translate(615 5562) rotate(180)" fill="#4462fe"/>
        <path id="Trazado_600393" data-name="Trazado 600393" d="M4.5,0,9,8H0Z" transform="translate(838 5565) rotate(90)" fill="#344abe"/>
        <rect id="Rectángulo_45963" data-name="Rectángulo 45963" width="3" height="173" transform="translate(345 5355)" fill="#69489b"/>
        <rect id="Rectángulo_45965" data-name="Rectángulo 45965" width="2" height="264" transform="translate(610 5568) rotate(90)" fill="#54397c"/>
        <rect id="Rectángulo_45966" data-name="Rectángulo 45966" width="2" height="221" transform="translate(831 5568) rotate(90)" fill="#344abe"/>
        <rect id="Rectángulo_45964" data-name="Rectángulo 45964" width="3" height="199" transform="translate(609 5355)" fill="#4462fe"/>
        <path id="Trazado_600176" data-name="Trazado 600176" d="M-8288.727-7054.268v37.578h-91.3v-37.578" transform="translate(8752.385 12629.722)" fill="none" stroke="#12263f" stroke-width="2" stroke-dasharray="2"/>
        <path id="Trazado_600177" data-name="Trazado 600177" d="M-8288.727-7054.268v37.578h-91.3v-37.578" transform="translate(9078.052 12629.722)" fill="none" stroke="#12263f" stroke-width="2" stroke-dasharray="2"/>
        <text id="Periodo_de_incubación_extrínseca" data-name="Periodo de incubación extrínseca" transform="translate(370 5471)" fill="#12263f" font-size="17" font-family="Roboto-Regular, Roboto"><tspan x="3.372" y="18">Periodo de incubación </tspan><tspan x="48.383" y="40">extrínseca</tspan></text>
        <text id="Periodo_de_incubación_intrínseca" data-name="Periodo de incubación intrínseca" transform="translate(621 5471)" fill="#12263f" font-size="17" font-family="Roboto-Regular, Roboto"><tspan x="10.372" y="18">Periodo de incubación </tspan><tspan x="57.346" y="40">intrínseca</tspan></text>
        <g id="Grupo_159773" data-name="Grupo 159773" transform="translate(429.449 5314.229)">
          <g id="Grupo_159772" data-name="Grupo 159772" clip-path="url(#clip-path)">
            <path id="Trazado_600178" data-name="Trazado 600178" d="M19.652,24.106c.709,1.921,1.353,3.7,2.019,5.466a36,36,0,0,0,1.656,4.181,11.179,11.179,0,0,0,8.036,5.9c1.03.21,2.062.414,3.133.628l-.259,1.352c-.727-.142-1.426-.295-2.13-.415A14.44,14.44,0,0,1,26.3,39.063a13.093,13.093,0,0,1-5.15-6.779c-.829-2.4-1.728-4.78-2.614-7.219a5.657,5.657,0,0,1-6.347.6c-.277.824-.548,1.626-.817,2.429-.435,1.3-.852,2.609-1.316,3.9a1.108,1.108,0,0,1-.547.6C6.6,33.748,3.668,34.865.743,35.989A.778.778,0,0,1,.574,36L.1,34.778c.129-.06.238-.119.353-.163q3.962-1.526,7.927-3.043a.869.869,0,0,0,.581-.612c.572-1.772,1.172-3.536,1.759-5.29a8.177,8.177,0,0,1-1.24-.079,2.141,2.141,0,0,1-.976-.427c-.364-.331-.624-.228-.977-.024C5.4,26.37,3.267,27.583,1.133,28.8c-.136.078-.275.15-.447.244L0,27.863c.155-.1.286-.181.421-.258q3.313-1.892,6.631-3.776a.451.451,0,0,0,.272-.572,2.727,2.727,0,0,1,1.758-2.964.642.642,0,0,0,.358-.389,5.554,5.554,0,0,1,4.37-4.515.562.562,0,0,0,.5-.439c.188-.622.4-1.236.611-1.851.156-.46.448-.673.815-.611.391.067.6.371.574.883-.029.664-.073,1.327-.112,2.02l1.1.389c.078-.735.154-1.435.226-2.136.062-.6.127-1.208.177-1.813a.707.707,0,0,1,1.394-.187q.517,1.333,1.044,2.662c.063.159.131.315.227.545a8.14,8.14,0,0,0,.613-.6Q26.639,7.336,32.306.423A1.271,1.271,0,0,1,33.049,0c.361-.048.633.3.622.732-.046,1.748-.109,3.495-.167,5.242,0,.085-.011.17-.022.345.169-.1.283-.173.395-.245Q36.265,4.541,38.651,3c.324-.211.64-.364.993-.1.33.249.3.578.207.942a17.3,17.3,0,0,1-6.879,10.1.677.677,0,0,0-.247.275c.7-.1,1.406-.2,2.108-.3,1.63-.241,3.257-.5,4.891-.712a1.081,1.081,0,0,1,.753.282c.254.231.139.555,0,.843a16.677,16.677,0,0,1-10.672,9c-.259.077-.521.142-.855.232a26.04,26.04,0,0,0,1.665,2.773,3.769,3.769,0,0,0,6.373-.758c.722-1.5,1.383-3.02,2.073-4.532.071-.157.146-.312.242-.516l1.25.566c-.13.294-.248.568-.371.839q-.9,1.992-1.812,3.984a5.219,5.219,0,0,1-9.443.408c-.42-.742-.822-1.494-1.248-2.232-.066-.114-.227-.256-.337-.25-1.109.055-2.217.137-3.353.214.048.139.088.274.14.406.759,1.936,1.523,3.87,2.273,5.81a.678.678,0,0,0,.544.467c2.33.565,4.644,1.2,6.982,1.724a6.707,6.707,0,0,0,8.081-6.344c.009-.36,0-.721,0-1.112h1.37a8.284,8.284,0,0,1-1.553,5.675,8.116,8.116,0,0,1-8.664,3.041c-2.328-.575-4.65-1.171-6.98-1.737a1.186,1.186,0,0,1-.919-.8c-.858-2.239-1.749-4.464-2.611-6.7a.516.516,0,0,0-.6-.393c-.764.031-1.53.01-2.4.01M38.042,5.048,21.287,15.856a3.649,3.649,0,0,0,.386,0c1.429-.208,2.859-.412,4.287-.633a13.238,13.238,0,0,0,2.379-.436,15.611,15.611,0,0,0,8.023-6.32,15.485,15.485,0,0,0,1.681-3.418M17.014,18.654a3.033,3.033,0,0,0,.07-1.219c-.117-.283-.561-.43-.86-.637l-.117.1-.317,5.67a19.133,19.133,0,0,0,1.241-1.987.714.714,0,0,1,1.365.1c.219.611.459,1.215.664,1.831a.361.361,0,0,0,.438.294c.432-.036.866-.042,1.3-.066.084,0,.226-.019.239-.06.134-.445.446-.956.33-1.334-.373-1.225-.9-2.4-1.382-3.593-.038-.094-.174-.221-.252-.213-.412.041-.82.12-1.222.184L18.371,18.8l-1.357-.144m7.637-6.7c.1-.013.134-.008.155-.021q3.388-2.183,6.772-4.372a.579.579,0,0,0,.245-.282,14.485,14.485,0,0,0,.442-4.63l-7.614,9.306M26.928,22.53c.749-.157,1.537-.312,2.318-.5.1-.024.21-.187.247-.306.279-.909.583-1.813.8-2.738.227-.989.36-2,.549-3.079l-2.643.39L26.928,22.53m-.309-6c-.921.134-1.778.25-2.631.4-.083.014-.174.2-.2.318-.262,1.3-.5,2.608-.772,3.906-.119.559.237.958.388,1.426.014.043.152.066.232.065.463-.007.927-.011,1.387-.048a.43.43,0,0,0,.311-.218,22.022,22.022,0,0,0,1.282-5.844m4.592,4.855c.405-.193.849-.391,1.281-.612,1.6-.82,1.6-.822,2.006-2.567,0-.014.01-.027.012-.042L35,15.3l-2.663.395-1.122,5.694M11.449,22.906a1.387,1.387,0,1,0-1.384,1.379,1.394,1.394,0,0,0,1.384-1.379m3.162-4.159-.109-.025-1.877,5.627,1.642.63.344-6.232m-2.353,2.309,1.379-4.137a3.969,3.969,0,0,0-2.789,3.1.353.353,0,0,0,.14.262c.408.262.828.505,1.27.77m24.147-5.965-.461,3.179a15.106,15.106,0,0,0,2.739-3.509l-2.278.33M16.311,24.654l.111.129c.482-.344.969-.681,1.44-1.039a.342.342,0,0,0,.063-.3c-.095-.307-.22-.6-.362-.98l-1.252,2.191m6.1-7.506-1.1.166.692,1.765.1-.016.306-1.915m-3.533-2.225-.1.013L18.652,16.3l.718-.124-.489-1.253" transform="translate(0 0)"/>
          </g>
        </g>
        <g id="Grupo_159774" data-name="Grupo 159774" transform="translate(693.852 5314.229)">
          <g id="Grupo_159772-2" data-name="Grupo 159772" clip-path="url(#clip-path)">
            <path id="Trazado_600178-2" data-name="Trazado 600178" d="M19.652,24.106c.709,1.921,1.353,3.7,2.019,5.466a36,36,0,0,0,1.656,4.181,11.179,11.179,0,0,0,8.036,5.9c1.03.21,2.062.414,3.133.628l-.259,1.352c-.727-.142-1.426-.295-2.13-.415A14.44,14.44,0,0,1,26.3,39.063a13.093,13.093,0,0,1-5.15-6.779c-.829-2.4-1.728-4.78-2.614-7.219a5.657,5.657,0,0,1-6.347.6c-.277.824-.548,1.626-.817,2.429-.435,1.3-.852,2.609-1.316,3.9a1.108,1.108,0,0,1-.547.6C6.6,33.748,3.668,34.865.743,35.989A.778.778,0,0,1,.574,36L.1,34.778c.129-.06.238-.119.353-.163q3.962-1.526,7.927-3.043a.869.869,0,0,0,.581-.612c.572-1.772,1.172-3.536,1.759-5.29a8.177,8.177,0,0,1-1.24-.079,2.141,2.141,0,0,1-.976-.427c-.364-.331-.624-.228-.977-.024C5.4,26.37,3.267,27.583,1.133,28.8c-.136.078-.275.15-.447.244L0,27.863c.155-.1.286-.181.421-.258q3.313-1.892,6.631-3.776a.451.451,0,0,0,.272-.572,2.727,2.727,0,0,1,1.758-2.964.642.642,0,0,0,.358-.389,5.554,5.554,0,0,1,4.37-4.515.562.562,0,0,0,.5-.439c.188-.622.4-1.236.611-1.851.156-.46.448-.673.815-.611.391.067.6.371.574.883-.029.664-.073,1.327-.112,2.02l1.1.389c.078-.735.154-1.435.226-2.136.062-.6.127-1.208.177-1.813a.707.707,0,0,1,1.394-.187q.517,1.333,1.044,2.662c.063.159.131.315.227.545a8.14,8.14,0,0,0,.613-.6Q26.639,7.336,32.306.423A1.271,1.271,0,0,1,33.049,0c.361-.048.633.3.622.732-.046,1.748-.109,3.495-.167,5.242,0,.085-.011.17-.022.345.169-.1.283-.173.395-.245Q36.265,4.541,38.651,3c.324-.211.64-.364.993-.1.33.249.3.578.207.942a17.3,17.3,0,0,1-6.879,10.1.677.677,0,0,0-.247.275c.7-.1,1.406-.2,2.108-.3,1.63-.241,3.257-.5,4.891-.712a1.081,1.081,0,0,1,.753.282c.254.231.139.555,0,.843a16.677,16.677,0,0,1-10.672,9c-.259.077-.521.142-.855.232a26.04,26.04,0,0,0,1.665,2.773,3.769,3.769,0,0,0,6.373-.758c.722-1.5,1.383-3.02,2.073-4.532.071-.157.146-.312.242-.516l1.25.566c-.13.294-.248.568-.371.839q-.9,1.992-1.812,3.984a5.219,5.219,0,0,1-9.443.408c-.42-.742-.822-1.494-1.248-2.232-.066-.114-.227-.256-.337-.25-1.109.055-2.217.137-3.353.214.048.139.088.274.14.406.759,1.936,1.523,3.87,2.273,5.81a.678.678,0,0,0,.544.467c2.33.565,4.644,1.2,6.982,1.724a6.707,6.707,0,0,0,8.081-6.344c.009-.36,0-.721,0-1.112h1.37a8.284,8.284,0,0,1-1.553,5.675,8.116,8.116,0,0,1-8.664,3.041c-2.328-.575-4.65-1.171-6.98-1.737a1.186,1.186,0,0,1-.919-.8c-.858-2.239-1.749-4.464-2.611-6.7a.516.516,0,0,0-.6-.393c-.764.031-1.53.01-2.4.01M38.042,5.048,21.287,15.856a3.649,3.649,0,0,0,.386,0c1.429-.208,2.859-.412,4.287-.633a13.238,13.238,0,0,0,2.379-.436,15.611,15.611,0,0,0,8.023-6.32,15.485,15.485,0,0,0,1.681-3.418M17.014,18.654a3.033,3.033,0,0,0,.07-1.219c-.117-.283-.561-.43-.86-.637l-.117.1-.317,5.67a19.133,19.133,0,0,0,1.241-1.987.714.714,0,0,1,1.365.1c.219.611.459,1.215.664,1.831a.361.361,0,0,0,.438.294c.432-.036.866-.042,1.3-.066.084,0,.226-.019.239-.06.134-.445.446-.956.33-1.334-.373-1.225-.9-2.4-1.382-3.593-.038-.094-.174-.221-.252-.213-.412.041-.82.12-1.222.184L18.371,18.8l-1.357-.144m7.637-6.7c.1-.013.134-.008.155-.021q3.388-2.183,6.772-4.372a.579.579,0,0,0,.245-.282,14.485,14.485,0,0,0,.442-4.63l-7.614,9.306M26.928,22.53c.749-.157,1.537-.312,2.318-.5.1-.024.21-.187.247-.306.279-.909.583-1.813.8-2.738.227-.989.36-2,.549-3.079l-2.643.39L26.928,22.53m-.309-6c-.921.134-1.778.25-2.631.4-.083.014-.174.2-.2.318-.262,1.3-.5,2.608-.772,3.906-.119.559.237.958.388,1.426.014.043.152.066.232.065.463-.007.927-.011,1.387-.048a.43.43,0,0,0,.311-.218,22.022,22.022,0,0,0,1.282-5.844m4.592,4.855c.405-.193.849-.391,1.281-.612,1.6-.82,1.6-.822,2.006-2.567,0-.014.01-.027.012-.042L35,15.3l-2.663.395-1.122,5.694M11.449,22.906a1.387,1.387,0,1,0-1.384,1.379,1.394,1.394,0,0,0,1.384-1.379m3.162-4.159-.109-.025-1.877,5.627,1.642.63.344-6.232m-2.353,2.309,1.379-4.137a3.969,3.969,0,0,0-2.789,3.1.353.353,0,0,0,.14.262c.408.262.828.505,1.27.77m24.147-5.965-.461,3.179a15.106,15.106,0,0,0,2.739-3.509l-2.278.33M16.311,24.654l.111.129c.482-.344.969-.681,1.44-1.039a.342.342,0,0,0,.063-.3c-.095-.307-.22-.6-.362-.98l-1.252,2.191m6.1-7.506-1.1.166.692,1.765.1-.016.306-1.915m-3.533-2.225-.1.013L18.652,16.3l.718-.124-.489-1.253" transform="translate(0 0)"/>
          </g>
        </g>
        <g id="Grupo_159778" data-name="Grupo 159778" transform="translate(404.65 5662)">
          <g id="Grupo_159778-2" data-name="Grupo 159778" clip-path="url(#clip-path-3)">
            <path id="Trazado_600180" data-name="Trazado 600180" d="M11.095,22.278h.029A11.139,11.139,0,0,0,11.143,0H11.08A10.968,10.968,0,0,0,3.3,3.225a11.137,11.137,0,0,0,7.791,19.053m5.12-3.4a8.888,8.888,0,0,1-4.169,1.5q-.48.046-.951.046a9.1,9.1,0,0,1-4.819-1.367.592.592,0,0,1-.311-.776,5.4,5.4,0,0,1,5.218-3.656h.094A5.409,5.409,0,0,1,16.3,18.455a.62.62,0,0,1,.022.132c0,.013,0,.026,0,.042a.265.265,0,0,1-.115.253m-8-9a2.9,2.9,0,0,1,2.895-2.908h.012a2.9,2.9,0,0,1-.013,5.8H11.1A2.9,2.9,0,0,1,8.213,9.881M4.267,4.89A9.26,9.26,0,0,1,18.192,17.1a.265.265,0,0,1-.2.092l-.034,0a.265.265,0,0,1-.2-.146,7.461,7.461,0,0,0-3.185-3.4.265.265,0,0,1-.07-.409A4.763,4.763,0,0,0,8,6.277,4.83,4.83,0,0,0,6.378,9.55a4.99,4.99,0,0,0,1.335,3.686.265.265,0,0,1-.071.407,7.442,7.442,0,0,0-3.161,3.378.265.265,0,0,1-.434.065,8.882,8.882,0,0,1-2.2-5.732A9.242,9.242,0,0,1,4.267,4.89" transform="translate(0)" fill="#69489b"/>
          </g>
        </g>
        <g id="Grupo_159779" data-name="Grupo 159779" transform="translate(666.269 5662)">
          <g id="Grupo_159778-3" data-name="Grupo 159778" clip-path="url(#clip-path-4)">
            <path id="Trazado_600180-2" data-name="Trazado 600180" d="M11.095,22.278h.029A11.139,11.139,0,0,0,11.143,0H11.08A10.968,10.968,0,0,0,3.3,3.225a11.137,11.137,0,0,0,7.791,19.053m5.12-3.4a8.888,8.888,0,0,1-4.169,1.5q-.48.046-.951.046a9.1,9.1,0,0,1-4.819-1.367.592.592,0,0,1-.311-.776,5.4,5.4,0,0,1,5.218-3.656h.094A5.409,5.409,0,0,1,16.3,18.455a.62.62,0,0,1,.022.132c0,.013,0,.026,0,.042a.265.265,0,0,1-.115.253m-8-9a2.9,2.9,0,0,1,2.895-2.908h.012a2.9,2.9,0,0,1-.013,5.8H11.1A2.9,2.9,0,0,1,8.213,9.881M4.267,4.89A9.26,9.26,0,0,1,18.192,17.1a.265.265,0,0,1-.2.092l-.034,0a.265.265,0,0,1-.2-.146,7.461,7.461,0,0,0-3.185-3.4.265.265,0,0,1-.07-.409A4.763,4.763,0,0,0,8,6.277,4.83,4.83,0,0,0,6.378,9.55a4.99,4.99,0,0,0,1.335,3.686.265.265,0,0,1-.071.407,7.442,7.442,0,0,0-3.161,3.378.265.265,0,0,1-.434.065,8.882,8.882,0,0,1-2.2-5.732A9.242,9.242,0,0,1,4.267,4.89" transform="translate(0)" fill="#4462fe"/>
          </g>
        </g>
      </g>
      <g id="Grupo_159837" data-name="Grupo 159837" transform="translate(-449)">
        <rect id="Rectángulo_45987-2" data-name="Rectángulo 45987" width="610" height="259" transform="translate(-9573 -7159)" fill="#fff"/>
        <g id="Grupo_159820" data-name="Grupo 159820" transform="translate(-25 -217)">
          <path id="Rectángulo_45979" data-name="Rectángulo 45979" d="M0,0H230a0,0,0,0,1,0,0V28a16,16,0,0,1-16,16H16A16,16,0,0,1,0,28V0A0,0,0,0,1,0,0Z" transform="translate(-9358 -6942)" fill="#344abe"/>
          <text id="Ciclo_de_transmisión" data-name="Ciclo de transmisión" transform="translate(-9358 -6929)" fill="#fff" font-size="16" font-family="Roboto-Black, Roboto" font-weight="800"><tspan x="40.957" y="17">Ciclo de transmisión</tspan></text>
          <path id="Trazado_600181" data-name="Trazado 600181" d="M-8268-7543h400" transform="translate(-1175 601)" fill="none" stroke="#344abe" stroke-width="2"/>
        </g>
        <g id="Grupo_159783" data-name="Grupo 159783" transform="translate(-9552.297 -7098)">
          <path id="Trazado_600181-2" data-name="Trazado 600181" d="M97.79,55.117a45.739,45.739,0,1,0-45.74,45.74,45.74,45.74,0,0,0,45.74-45.74" transform="translate(-4.753 -7.819)" fill="#e2e7fe"/>
          <path id="Trazado_600182" data-name="Trazado 600182" d="M148.4,101.62l14.369-7.957s8.3-3.079,9.33-2.519a12.8,12.8,0,0,0,1.866.84l-.747,1.586s9.05.653,9.517.747,2.053,2.032,2.053,2.032l-2.986,4.313-2.325.653-22.307,4.945-5.692-1.376Z" transform="translate(-111.768 -69.349)" fill="#99e6fc"/>
          <path id="Trazado_600197" data-name="Trazado 600197" d="M47.3,97.662a47.3,47.3,0,1,1,47.3-47.3,47.351,47.351,0,0,1-47.3,47.3m0-91.632A44.335,44.335,0,1,0,91.632,50.364,44.385,44.385,0,0,0,47.3,6.029" transform="translate(0 -3.067)"/>
          <path id="Trazado_600198" data-name="Trazado 600198" d="M100.36,142.02,96.021,145.7s-1.259,3.809-3.079,3.739a9.74,9.74,0,0,1-3.5-.91s-1.959-1.889-1.75-1.889.07-2.169.35-2.239,2.939-1.679,2.939-1.679l2.309-4.9s.84-4.381,3.919-4.01A32.982,32.982,0,0,1,104,135.653a21.729,21.729,0,0,0,1.75,1.4c.21.07,18.334,3.849,19.594,5.738s8.677,7.267,8.4,7.867-3.569,2.575-3.919,2.637-9.237,0-9.237,0l-8.187-5.466-7.47-5.6-.367-1.329Z" transform="translate(-66.034 -101.519)" fill="#557085"/>
          <path id="Trazado_600199" data-name="Trazado 600199" d="M127.2,95.336a1.576,1.576,0,0,0-.9.852,1.352,1.352,0,0,0,.034,1.055,1.415,1.415,0,0,0,1.972.692,11.926,11.926,0,0,0,5.457-4.505,3.451,3.451,0,0,0-2.7-5.355c-1.982-.047-3.945.014-5.787.082-.726.026-1.456.112-2.162.195l-.113.013a3.085,3.085,0,0,0-.64-2.378,3.158,3.158,0,0,0-2.755-1.121c-.457.035-.937.09-1.47.167a39.943,39.943,0,0,0-15.182,5.526c-2.092,1.281-4.241,2.553-6.318,3.783l-1.4.829a.652.652,0,0,1-.243.094c-.386-.042-.767-.1-1.17-.168-.354-.056-.721-.115-1.089-.159a7.6,7.6,0,0,0-8.423,6.608,1.441,1.441,0,0,0,1.088,1.609,1.421,1.421,0,0,0,1.67-1.006,4.3,4.3,0,0,0,.106-.469c.01-.053.02-.106.03-.159a4.568,4.568,0,0,1,3.73-3.693,8.879,8.879,0,0,1,2.176.033l.426.039a4.478,4.478,0,0,1,3.77,2.475.385.385,0,0,1,.009.2,19.455,19.455,0,0,1-.728,1.928.506.506,0,0,1-.207.2c-.248.108-.513.2-.794.292a6.748,6.748,0,0,0-1.451.621c-1.068.664-2.1,1.4-3.106,2.113q-.5.354-1,.705c-.261.183-.517.376-.766.567a5.818,5.818,0,0,0-5.587-2.8,4.846,4.846,0,0,0-4.648,4.313,4.959,4.959,0,0,0,2.619,4.75.577.577,0,0,1,.074.053.508.508,0,0,1,0,.07l-.021.506c-.067,1.619-.137,3.293-.16,4.945a10.11,10.11,0,0,1-2.861,7.091l-.168.178v.976l.115.161a1.767,1.767,0,0,0,1.243.836,1.716,1.716,0,0,0,1.3-.7,12.527,12.527,0,0,0,3.166-7.831c.056-1.236.1-2.491.138-3.7q.028-.858.058-1.716a11.067,11.067,0,0,0,1.152-.072,4.806,4.806,0,0,0,4.152-3.717.6.6,0,0,1,.281-.429l.093-.069c1.121-.836,2.279-1.7,3.4-2.579a11.868,11.868,0,0,1,3-1.651c.733-.292.97-.195,1.254.153a3.353,3.353,0,0,0,.9.75,1.491,1.491,0,0,1,.837,1.735,3.878,3.878,0,0,0-.031.881c0,.114.011.228.009.341a.924.924,0,0,1-.859,1.035q-.534.1-1.068.2c-1.135.219-2.308.446-3.462.608a4.151,4.151,0,0,0-3.637,3.178c-1.175,3.823-2.406,7.7-3.6,11.449q-.647,2.038-1.293,4.076c-.224.709-.463.884-1.218.89-.23,0-.46,0-.69,0-.359,0-.719,0-1.079.006a1.572,1.572,0,0,0-1.149.454,1.355,1.355,0,0,0-.36.994,1.4,1.4,0,0,0,1.5,1.374c.533.014,1.07.01,1.59.006l.242,0a3.749,3.749,0,0,0,3.855-2.859l.9-2.833q2.057-6.5,4.1-13a1.128,1.128,0,0,1,1.011-.89c1.658-.277,3.322-.579,4.884-.865a3.766,3.766,0,0,0,3.165-3.755c.865.711,1.689,1.39,2.5,2.076,0,.019,0,.041,0,.065-.031.5-.07.991-.109,1.487-.032.406-.064.813-.092,1.22a3.61,3.61,0,0,0,2.722,3.918l.116.034q1.32.387,2.638.777a.8.8,0,0,1,.635.745l.087.637q.111.815.219,1.63l.582,4.464q.621,4.766,1.248,9.532a3.335,3.335,0,0,0,3.067,2.907c.425.033.851.044,1.27.044.332,0,.659-.007.977-.015a1.41,1.41,0,1,0-.038-2.817c-.275-.006-.55-.005-.826,0-.32,0-.622,0-.926-.007-.514-.018-.664-.15-.729-.64q-.96-7.226-1.9-14.454l-.2-1.545A3.682,3.682,0,0,0,112.228,117a18.256,18.256,0,0,0,9.349,1.464l.076,0a.5.5,0,0,1,.085.006.15.15,0,0,1,.019.028,2.3,2.3,0,0,1,.252.613q.787,3.313,1.558,6.63l.976,4.178q.565,2.421,1.133,4.841a3.394,3.394,0,0,0,3.44,2.782c.47.008,1.024.015,1.578,0a1.371,1.371,0,0,0,1.422-1.4,1.4,1.4,0,0,0-1.4-1.421c-.316-.017-.628-.014-.931-.011-.144,0-.287,0-.432,0-.715,0-.8-.068-.959-.761q-.7-2.958-1.388-5.918-.763-3.259-1.529-6.518c-.227-.965-.461-1.928-.7-2.9l-.205-.846.082-.033c.454-.184.968-.393,1.461-.635a3.562,3.562,0,0,0,2.055-2.55,3.654,3.654,0,0,0-1.052-3.143,26.741,26.741,0,0,0-5.108-4.152,52.6,52.6,0,0,0-11.6-5.376l3.325-.691q4.681-.974,9.361-1.948a1.434,1.434,0,0,0,1.3-1.7,1.342,1.342,0,0,0-.581-.881,1.7,1.7,0,0,0-1.329-.175l-3.079.673q-6.961,1.522-13.925,3.034a1.652,1.652,0,0,1-.673-.015c-.671-.147-1.341-.3-2.01-.46-.824-.192-1.674-.391-2.521-.57l1.836-.777c2.062-.872,4.193-1.774,6.281-2.675A59.613,59.613,0,0,1,119.213,91.9,46.426,46.426,0,0,1,130.6,90.855c.559.019.727.148.841.382s.113.444-.215.9a9.378,9.378,0,0,1-4.022,3.2m-17.093,11.187a1.558,1.558,0,0,0-.667,1.051,1.5,1.5,0,0,0,.636,1.344,1.693,1.693,0,0,0,1.528-.027,4.6,4.6,0,0,0,2.032-2.77,40.533,40.533,0,0,1,8.4,4.6l.088.065-.063.079a1.54,1.54,0,0,1-.439.334,1.4,1.4,0,0,0-.745,1.806,1.417,1.417,0,0,0,1.885.789,3.344,3.344,0,0,0,1.583-1.247c.315.342.612.667.893,1a.569.569,0,0,1,.151.481.749.749,0,0,1-.418.484,10.747,10.747,0,0,1-5.019,1.254h-.117a17.561,17.561,0,0,1-5.4-.9,6.129,6.129,0,0,0,1.171-3.067,1.413,1.413,0,1,0-2.773-.515q-.042.173-.082.348a9.343,9.343,0,0,1-.278,1.026,1.479,1.479,0,0,1-.337.519,1.273,1.273,0,0,1-.365.3c-.01,0-.1-.018-.391-.251-1.328-1.078-2.672-2.184-3.971-3.253l-.918-.754a5.111,5.111,0,0,0,1.339-2.027,1.448,1.448,0,0,0-.8-2.025c-.3-.108-1.325-.353-1.853,1.028a2.485,2.485,0,0,1-.925,1.194c-1.542-1.291-3.154-2.621-4.925-4.061a13.151,13.151,0,0,0,.518-1.382c.834.215,1.67.425,2.505.635,1.539.387,3.13.787,4.683,1.213.829.227,1.665.515,2.475.794.474.163.964.332,1.453.489a2.22,2.22,0,0,1-.855,1.46m9.96-18.226a1.074,1.074,0,0,1-.858.74,52.031,52.031,0,0,0-10.864,3.6c-1.729.748-3.494,1.495-5.2,2.217-1.585.671-3.224,1.365-4.833,2.059a.873.873,0,0,1-.136.049.506.506,0,0,1-.044-.042c-.034-.036-.068-.07-.1-.1l.4-.242c.837-.5,1.667-1,2.5-1.488.64-.376,1.276-.76,1.912-1.144a53.4,53.4,0,0,1,6.294-3.426A36.646,36.646,0,0,1,119.718,87.7c.358-.04.4.029.449.1s.08.122-.1.5m-9.128,28.074c-.53-.158-1.061-.312-1.592-.465q-.56-.161-1.119-.324c-.616-.181-.632-.463-.637-.555a11.074,11.074,0,0,1,.015-1.223c.528.435,1.024.845,1.525,1.25a15.465,15.465,0,0,0,2.023,1.387c-.07-.024-.142-.048-.216-.07m-23.9-6.491a1.977,1.977,0,0,1-1.635,1.349,3.459,3.459,0,0,1-.448.064l-.13.013a3.333,3.333,0,0,1-2.252-.873,1.925,1.925,0,0,1-.67-1.992,1.846,1.846,0,0,1,1.537-1.345,3.75,3.75,0,0,1,.84-.1,2.987,2.987,0,0,1,2.164.934,1.835,1.835,0,0,1,.594,1.95" transform="translate(-59.137 -64.665)"/>
        </g>
        <g id="Grupo_159781" data-name="Grupo 159781" transform="translate(-9196 -7098.014)">
          <path id="Trazado_600200" data-name="Trazado 600200" d="M1000.6,84.558a12.879,12.879,0,0,0-1.881-6.917,12.048,12.048,0,0,0-7.963-5.526c-2.166-.457-4.353-.819-6.516-1.293a6.556,6.556,0,0,1-1.812-.792c-1.223-.707-2.413-1.472-3.733-2.284.844-.5,1.593-.953,2.355-1.385a11.633,11.633,0,0,0,6.25-10.935c-.032-4.927.008-9.855-.015-14.782a20.35,20.35,0,0,0-15.84-20.136,19.856,19.856,0,0,0-18.71,5.057c-.837.766-.937,1.611-.315,2.24.591.6,1.387.52,2.2-.218a17.5,17.5,0,0,1,17.481-4.07c.266.074.525.176.783.274a4.3,4.3,0,0,1,.385.2,16.191,16.191,0,0,1-8.724,12.8,15.79,15.79,0,0,1-7.73,1.84c-3.219-.021-5.025,1.717-4.97,4.93a60.094,60.094,0,0,0,.4,8.092,13.313,13.313,0,0,0,5.286,8.5,1.516,1.516,0,0,1,.691,1.382c-.048,1.2-.021,2.4-.012,3.6.005.691-.217,1.046-.932.642a53.522,53.522,0,0,1-4.7-2.74,8.022,8.022,0,0,1-3.46-6.725c-.055-5.45-.037-10.9.006-16.353a17.546,17.546,0,0,1,1.515-6.8,2.235,2.235,0,0,0,.086-1.555,1.374,1.374,0,0,0-1.138-.682,2.021,2.021,0,0,0-1.317.907,18.009,18.009,0,0,0-1.9,7.922c-.057,5.573-.118,11.15,0,16.722a11.007,11.007,0,0,0,5.6,9.518c.937.58,1.9,1.118,2.872,1.688a17.865,17.865,0,0,1-9.005,3.909,19.9,19.9,0,0,0-5.929,1.59,11.568,11.568,0,0,0-6.771,9.675c-.058.488-.091.98-.139,1.469,0,.022-.032.042-.048.063-12.2-13.191-16.036-38.394-.382-57.2a44.436,44.436,0,0,1,64.367-4.327c19.071,17.618,18.057,45.462,3.661,61.7" transform="translate(-919.508 -8.349)" fill="#e2e7fe"/>
          <path id="Trazado_600201" data-name="Trazado 600201" d="M1025.25,65.889l-.746,9.283.373,14.922,1.586,4.338s5.692,5.785,6.345,5.691,3.732,0,3.732,0V93.2l-4.927-4.991-1.091-11.028.513-3.368,4.759-1.157,7.091-2.668L1051,61.963l1.038,6,4.815,4.691,5.343,2.517v5.205l-4.572,1.3-2.519,6.529-3.639,4.991-.653,6.925,4.105-.561L1062.2,93.2l.56-6.139.56-10.263V71.573l-3.919-9.61-6.531-5.754-7.184-1.9s-8.117,1.026-8.4.933-6.811,4.012-6.811,4.012Z" transform="translate(-996.512 -40.904)" fill="#f29100"/>
          <path id="Trazado_600202" data-name="Trazado 600202" d="M1072.084,97.283a30.255,30.255,0,0,0,5.091,7.595,1.777,1.777,0,0,1,.506,1.047,80,80,0,0,1-.213,9.586c-.732,5.754-5.985,10.006-11.928,10.051a12.026,12.026,0,0,1-11.984-9.892,54.994,54.994,0,0,1-.223-7.922c0-.928.783-1.444,1.912-1.432a19.484,19.484,0,0,0,7.748-1.443,18.856,18.856,0,0,0,8.59-7.026c.086-.128.166-.259.258-.383a1.559,1.559,0,0,1,.242-.182" transform="translate(-1018.201 -73.267)" fill="#fcd5d0"/>
          <path id="Trazado_600203" data-name="Trazado 600203" d="M1118.816,272.74c2.438-8.821,4.678-17.647,4.653-27.051l5.443,3.336c-.841.934-1.634,1.793-2.4,2.675a2.5,2.5,0,0,0,.21,3.889c.067.063.137.124.206.186,1.681,1.524,1.681,1.524.808,3.606-.178.425-.4.836-.537,1.273a1.258,1.258,0,0,0,.69,1.621,1.143,1.143,0,0,0,1.683-.44,24.709,24.709,0,0,0,1.537-4.686c.122-.627-.459-1.474-.894-2.1a10.212,10.212,0,0,0-1.617-1.5c.937-1.06,1.83-2.1,2.769-3.1a.97.97,0,0,1,.753-.118c2.025.376,4.053.749,6.065,1.185a9.433,9.433,0,0,1,7.669,9.336c.072,3.534.094,3.561-2.606,5.793a44.122,44.122,0,0,1-23.98,10.025c.313-.4.533-.681.747-.963l6.039-7.934a1.45,1.45,0,0,0,.088-2.011c-.63-.732-1.588-.6-2.263.307q-2.269,3.03-4.53,6.065c-.161.214-.352.406-.53.608" transform="translate(-1067.543 -185.038)" fill="#557085"/>
          <path id="Trazado_600204" data-name="Trazado 600204" d="M994.447,267.7c-.481.436-.918.861-1.386,1.25a2.865,2.865,0,0,0-1.005,3.47,39.458,39.458,0,0,0,3.134,6.639c2.409,3.673,5.136,7.137,7.734,10.685.233.317.494.614.742.92l-.1.266c-2.323-.464-4.677-.808-6.962-1.415a43.164,43.164,0,0,1-18.811-10.506,2.035,2.035,0,0,1-.574-1.33,21.6,21.6,0,0,1,.232-4.686c.921-4.147,3.64-6.569,7.779-7.41q2.8-.57,5.618-1.064a1.155,1.155,0,0,1,.895.179c.918.949,1.776,1.957,2.706,3" transform="translate(-960.886 -199.206)" fill="#557085"/>
          <path id="Trazado_600205" data-name="Trazado 600205" d="M1079.27,218.505a15.193,15.193,0,0,0,11.447-.021,3.477,3.477,0,0,1,.1.566c-.029,3.325-.079,6.649-.088,9.974a1.125,1.125,0,0,1-.716,1.135,10.468,10.468,0,0,1-10.166-.082,1.176,1.176,0,0,1-.579-.8c-.071-3.508-.09-7.018-.118-10.527,0-.051.05-.1.123-.243" transform="translate(-1037.667 -164.548)" fill="#fcd5d0"/>
          <path id="Trazado_600206" data-name="Trazado 600206" d="M1091.745,277.628a112.882,112.882,0,0,1-5.346,21.553,111.748,111.748,0,0,1-5.367-21.539,13.7,13.7,0,0,0,10.713-.015" transform="translate(-1039.086 -209.092)" fill="#fff"/>
          <path id="Trazado_600207" data-name="Trazado 600207" d="M1045.777,249.042l5.444-3.33a62.324,62.324,0,0,0,1.444,13.777c.981,4.433,2.125,8.829,3.208,13.282-.172-.193-.352-.378-.512-.579a70.37,70.37,0,0,1-7.45-10.875c-.543-1.028-.927-2.14-1.409-3.2a1.106,1.106,0,0,1,.408-1.582,8.228,8.228,0,0,0,.973-.85c1.437-1.321,1.5-2.61.187-4.09-.734-.829-1.48-1.648-2.293-2.552" transform="translate(-1012.535 -185.055)" fill="#557085"/>
          <path id="Trazado_600208" data-name="Trazado 600208" d="M1163.616,142.783v-3.919a2.117,2.117,0,0,1,2.291.82,1.868,1.868,0,0,1,.084,2.157,2.1,2.1,0,0,1-2.375.943" transform="translate(-1101.283 -104.544)" fill="#fcd5d0"/>
          <path id="Trazado_600209" data-name="Trazado 600209" d="M911.118,50.262V44.349c.054-.269.117-.536.159-.806.375-2.4.6-4.829,1.143-7.187A47.184,47.184,0,0,1,950.364.707c1.692-.287,3.4-.474,5.1-.707h5.913c.88.114,1.759.237,2.64.342a44.574,44.574,0,0,1,24.629,10.626c14.488,12.646,19.834,28.578,15.737,47.353-4.454,20.415-23.31,35.7-44.144,36.267a46.09,46.09,0,0,1-21.1-4.126C924.179,83.45,915.038,71.8,911.854,55.55c-.342-1.744-.5-3.525-.736-5.289M992.21,76.209c14.4-16.233,15.41-44.077-3.661-61.695a44.436,44.436,0,0,0-64.367,4.326c-15.653,18.8-11.818,44.008.382,57.2.017-.021.046-.04.048-.063.048-.49.081-.981.139-1.469a11.568,11.568,0,0,1,6.771-9.675,19.9,19.9,0,0,1,5.929-1.59,17.866,17.866,0,0,0,9.005-3.909c-.972-.57-1.935-1.108-2.872-1.688a11.008,11.008,0,0,1-5.6-9.518c-.118-5.571-.058-11.148,0-16.722a18.009,18.009,0,0,1,1.9-7.922,2.023,2.023,0,0,1,1.317-.907,1.373,1.373,0,0,1,1.138.682,2.236,2.236,0,0,1-.086,1.555,17.547,17.547,0,0,0-1.514,6.8c-.043,5.451-.062,10.9-.006,16.353a8.021,8.021,0,0,0,3.46,6.725,53.462,53.462,0,0,0,4.7,2.74c.714.405.937.05.931-.642-.009-1.2-.036-2.4.012-3.6a1.517,1.517,0,0,0-.691-1.382,13.312,13.312,0,0,1-5.286-8.5,60.106,60.106,0,0,1-.395-8.092c-.055-3.213,1.751-4.951,4.97-4.93a15.789,15.789,0,0,0,7.73-1.84,16.19,16.19,0,0,0,8.724-12.8,4.159,4.159,0,0,0-.385-.2c-.258-.1-.517-.2-.783-.274a17.5,17.5,0,0,0-17.481,4.071c-.813.738-1.609.815-2.2.217-.622-.628-.522-1.474.315-2.24a19.855,19.855,0,0,1,18.71-5.057A20.35,20.35,0,0,1,978.9,32.295c.023,4.927-.017,9.855.015,14.782a11.633,11.633,0,0,1-6.251,10.935c-.762.432-1.511.888-2.355,1.385,1.319.812,2.509,1.577,3.733,2.284a6.567,6.567,0,0,0,1.812.792c2.163.474,4.349.837,6.516,1.293a12.049,12.049,0,0,1,7.963,5.526,12.879,12.879,0,0,1,1.881,6.917M965,24.015a1.528,1.528,0,0,0-.242.182c-.092.123-.172.255-.258.382a18.858,18.858,0,0,1-8.59,7.026,19.493,19.493,0,0,1-7.748,1.443c-1.129-.013-1.912.5-1.912,1.432a54.968,54.968,0,0,0,.223,7.922A12.026,12.026,0,0,0,958.456,52.3c5.943-.045,11.2-4.3,11.929-10.051a79.945,79.945,0,0,0,.213-9.586,1.779,1.779,0,0,0-.506-1.047,30.253,30.253,0,0,1-5.092-7.6M962.391,87.7c.177-.2.369-.393.53-.608q2.269-3.03,4.53-6.065c.676-.9,1.633-1.038,2.263-.307a1.45,1.45,0,0,1-.088,2.011l-6.039,7.934c-.214.282-.434.559-.747.963a44.122,44.122,0,0,0,23.98-10.025c2.7-2.232,2.678-2.259,2.606-5.793a9.433,9.433,0,0,0-7.669-9.336c-2.013-.436-4.04-.808-6.065-1.185a.971.971,0,0,0-.753.118c-.939,1-1.832,2.038-2.769,3.1a10.21,10.21,0,0,1,1.617,1.5c.435.627,1.016,1.474.894,2.1a24.725,24.725,0,0,1-1.537,4.686,1.143,1.143,0,0,1-1.683.44,1.257,1.257,0,0,1-.69-1.621c.14-.437.359-.848.537-1.273.873-2.082.873-2.082-.808-3.606-.068-.062-.138-.123-.206-.186a2.5,2.5,0,0,1-.21-3.889c.767-.881,1.561-1.74,2.4-2.675l-5.443-3.336c.025,9.4-2.214,18.23-4.653,27.051M944.678,68.5c-.931-1.046-1.788-2.054-2.706-3a1.154,1.154,0,0,0-.895-.179q-2.816.494-5.618,1.064c-4.139.841-6.858,3.262-7.779,7.41a21.593,21.593,0,0,0-.232,4.686,2.036,2.036,0,0,0,.574,1.33,43.166,43.166,0,0,0,18.811,10.506c2.284.607,4.639.951,6.962,1.415l.1-.266c-.248-.306-.51-.6-.742-.92-2.6-3.548-5.325-7.012-7.734-10.685a39.458,39.458,0,0,1-3.134-6.639,2.865,2.865,0,0,1,1.005-3.47c.468-.389.905-.814,1.386-1.25m8.043-14.539c-.073.14-.123.192-.123.243.028,3.509.047,7.018.118,10.526a1.175,1.175,0,0,0,.579.8,10.467,10.467,0,0,0,10.166.082,1.125,1.125,0,0,0,.716-1.135c.009-3.325.059-6.649.088-9.974a3.485,3.485,0,0,0-.1-.566,15.193,15.193,0,0,1-11.447.021m11.056,14.579a13.7,13.7,0,0,1-10.713.015,111.729,111.729,0,0,0,5.367,21.539,112.9,112.9,0,0,0,5.346-21.553M944.36,63.987c.814.9,1.559,1.724,2.293,2.552,1.311,1.479,1.25,2.769-.187,4.09a8.248,8.248,0,0,1-.972.85,1.107,1.107,0,0,0-.409,1.582c.481,1.062.865,2.174,1.409,3.2a70.336,70.336,0,0,0,7.45,10.875c.16.2.34.385.511.579-1.083-4.453-2.228-8.85-3.208-13.283A62.327,62.327,0,0,1,949.8,60.657l-5.444,3.33m29.07-22.837c-.063.365-.138.751-.194,1.14a12.329,12.329,0,0,1-3.977,8,5.843,5.843,0,0,0-2.233,5.8,4.9,4.9,0,0,1,0,.737c-.018.751.3.965.962.591,1.521-.863,3.1-1.644,4.538-2.629a7.6,7.6,0,0,0,3.454-5.739c.192-2.26.113-4.542.15-6.815.008-.5,0-1,0-1.465l-2.706.376M967.524,17c-.207.834-.475,1.652-.6,2.492a4.289,4.289,0,0,0,.05,1.931,23.327,23.327,0,0,0,3.959,6.918c.743.93,1.429,1.907,2.155,2.851a.743.743,0,0,0,.428.281c.839.11,1.683.186,2.525.274.44-5.2-3.9-12.748-8.52-14.747m5.926,21.235a2.1,2.1,0,0,0,2.375-.943,1.868,1.868,0,0,0-.084-2.157,2.117,2.117,0,0,0-2.291-.82Z" transform="translate(-911.118 0)"/>
          <path id="Trazado_600215" data-name="Trazado 600215" d="M0,1.392s4.4-2.884,8.459-.351" transform="translate(51.113 45.904) rotate(180)" fill="none" stroke="#000" stroke-linecap="round" stroke-width="3"/>
        </g>
        <g id="Grupo_159785" data-name="Grupo 159785" transform="translate(-9076 -7098.014)">
          <path id="Trazado_600200-2" data-name="Trazado 600200" d="M1000.6,84.558a12.879,12.879,0,0,0-1.881-6.917,12.048,12.048,0,0,0-7.963-5.526c-2.166-.457-4.353-.819-6.516-1.293a6.556,6.556,0,0,1-1.812-.792c-1.223-.707-2.413-1.472-3.733-2.284.844-.5,1.593-.953,2.355-1.385a11.633,11.633,0,0,0,6.25-10.935c-.032-4.927.008-9.855-.015-14.782a20.35,20.35,0,0,0-15.84-20.136,19.856,19.856,0,0,0-18.71,5.057c-.837.766-.937,1.611-.315,2.24.591.6,1.387.52,2.2-.218a17.5,17.5,0,0,1,17.481-4.07c.266.074.525.176.783.274a4.3,4.3,0,0,1,.385.2,16.191,16.191,0,0,1-8.724,12.8,15.79,15.79,0,0,1-7.73,1.84c-3.219-.021-5.025,1.717-4.97,4.93a60.094,60.094,0,0,0,.4,8.092,13.313,13.313,0,0,0,5.286,8.5,1.516,1.516,0,0,1,.691,1.382c-.048,1.2-.021,2.4-.012,3.6.005.691-.217,1.046-.932.642a53.522,53.522,0,0,1-4.7-2.74,8.022,8.022,0,0,1-3.46-6.725c-.055-5.45-.037-10.9.006-16.353a17.546,17.546,0,0,1,1.515-6.8,2.235,2.235,0,0,0,.086-1.555,1.374,1.374,0,0,0-1.138-.682,2.021,2.021,0,0,0-1.317.907,18.009,18.009,0,0,0-1.9,7.922c-.057,5.573-.118,11.15,0,16.722a11.007,11.007,0,0,0,5.6,9.518c.937.58,1.9,1.118,2.872,1.688a17.865,17.865,0,0,1-9.005,3.909,19.9,19.9,0,0,0-5.929,1.59,11.568,11.568,0,0,0-6.771,9.675c-.058.488-.091.98-.139,1.469,0,.022-.032.042-.048.063-12.2-13.191-16.036-38.394-.382-57.2a44.436,44.436,0,0,1,64.367-4.327c19.071,17.618,18.057,45.462,3.661,61.7" transform="translate(-919.508 -8.349)" fill="#f2fbe6"/>
          <path id="Trazado_600201-2" data-name="Trazado 600201" d="M1025.25,65.889l-.746,9.283.373,14.922,1.586,4.338s5.692,5.785,6.345,5.691,3.732,0,3.732,0V93.2l-4.927-4.991-1.091-11.028.513-3.368,4.759-1.157,7.091-2.668L1051,61.963l1.038,6,4.815,4.691,5.343,2.517v5.205l-4.572,1.3-2.519,6.529-3.639,4.991-.653,6.925,4.105-.561L1062.2,93.2l.56-6.139.56-10.263V71.573l-3.919-9.61-6.531-5.754-7.184-1.9s-8.117,1.026-8.4.933-6.811,4.012-6.811,4.012Z" transform="translate(-996.512 -40.904)" fill="#f29100"/>
          <path id="Trazado_600202-2" data-name="Trazado 600202" d="M1072.084,97.283a30.255,30.255,0,0,0,5.091,7.595,1.777,1.777,0,0,1,.506,1.047,80,80,0,0,1-.213,9.586c-.732,5.754-5.985,10.006-11.928,10.051a12.026,12.026,0,0,1-11.984-9.892,54.994,54.994,0,0,1-.223-7.922c0-.928.783-1.444,1.912-1.432a19.484,19.484,0,0,0,7.748-1.443,18.856,18.856,0,0,0,8.59-7.026c.086-.128.166-.259.258-.383a1.559,1.559,0,0,1,.242-.182" transform="translate(-1018.201 -73.267)" fill="#fcd5d0"/>
          <path id="Trazado_600203-2" data-name="Trazado 600203" d="M1118.816,272.74c2.438-8.821,4.678-17.647,4.653-27.051l5.443,3.336c-.841.934-1.634,1.793-2.4,2.675a2.5,2.5,0,0,0,.21,3.889c.067.063.137.124.206.186,1.681,1.524,1.681,1.524.808,3.606-.178.425-.4.836-.537,1.273a1.258,1.258,0,0,0,.69,1.621,1.143,1.143,0,0,0,1.683-.44,24.709,24.709,0,0,0,1.537-4.686c.122-.627-.459-1.474-.894-2.1a10.212,10.212,0,0,0-1.617-1.5c.937-1.06,1.83-2.1,2.769-3.1a.97.97,0,0,1,.753-.118c2.025.376,4.053.749,6.065,1.185a9.433,9.433,0,0,1,7.669,9.336c.072,3.534.094,3.561-2.606,5.793a44.122,44.122,0,0,1-23.98,10.025c.313-.4.533-.681.747-.963l6.039-7.934a1.45,1.45,0,0,0,.088-2.011c-.63-.732-1.588-.6-2.263.307q-2.269,3.03-4.53,6.065c-.161.214-.352.406-.53.608" transform="translate(-1067.543 -185.038)" fill="#557085"/>
          <path id="Trazado_600204-2" data-name="Trazado 600204" d="M994.447,267.7c-.481.436-.918.861-1.386,1.25a2.865,2.865,0,0,0-1.005,3.47,39.458,39.458,0,0,0,3.134,6.639c2.409,3.673,5.136,7.137,7.734,10.685.233.317.494.614.742.92l-.1.266c-2.323-.464-4.677-.808-6.962-1.415a43.164,43.164,0,0,1-18.811-10.506,2.035,2.035,0,0,1-.574-1.33,21.6,21.6,0,0,1,.232-4.686c.921-4.147,3.64-6.569,7.779-7.41q2.8-.57,5.618-1.064a1.155,1.155,0,0,1,.895.179c.918.949,1.776,1.957,2.706,3" transform="translate(-960.886 -199.206)" fill="#557085"/>
          <path id="Trazado_600205-2" data-name="Trazado 600205" d="M1079.27,218.505a15.193,15.193,0,0,0,11.447-.021,3.477,3.477,0,0,1,.1.566c-.029,3.325-.079,6.649-.088,9.974a1.125,1.125,0,0,1-.716,1.135,10.468,10.468,0,0,1-10.166-.082,1.176,1.176,0,0,1-.579-.8c-.071-3.508-.09-7.018-.118-10.527,0-.051.05-.1.123-.243" transform="translate(-1037.667 -164.548)" fill="#fcd5d0"/>
          <path id="Trazado_600206-2" data-name="Trazado 600206" d="M1091.745,277.628a112.882,112.882,0,0,1-5.346,21.553,111.748,111.748,0,0,1-5.367-21.539,13.7,13.7,0,0,0,10.713-.015" transform="translate(-1039.086 -209.092)" fill="#fff"/>
          <path id="Trazado_600207-2" data-name="Trazado 600207" d="M1045.777,249.042l5.444-3.33a62.324,62.324,0,0,0,1.444,13.777c.981,4.433,2.125,8.829,3.208,13.282-.172-.193-.352-.378-.512-.579a70.37,70.37,0,0,1-7.45-10.875c-.543-1.028-.927-2.14-1.409-3.2a1.106,1.106,0,0,1,.408-1.582,8.228,8.228,0,0,0,.973-.85c1.437-1.321,1.5-2.61.187-4.09-.734-.829-1.48-1.648-2.293-2.552" transform="translate(-1012.535 -185.055)" fill="#557085"/>
          <path id="Trazado_600208-2" data-name="Trazado 600208" d="M1163.616,142.783v-3.919a2.117,2.117,0,0,1,2.291.82,1.868,1.868,0,0,1,.084,2.157,2.1,2.1,0,0,1-2.375.943" transform="translate(-1101.283 -104.544)" fill="#fcd5d0"/>
          <path id="Trazado_600209-2" data-name="Trazado 600209" d="M911.118,50.262V44.349c.054-.269.117-.536.159-.806.375-2.4.6-4.829,1.143-7.187A47.184,47.184,0,0,1,950.364.707c1.692-.287,3.4-.474,5.1-.707h5.913c.88.114,1.759.237,2.64.342a44.574,44.574,0,0,1,24.629,10.626c14.488,12.646,19.834,28.578,15.737,47.353-4.454,20.415-23.31,35.7-44.144,36.267a46.09,46.09,0,0,1-21.1-4.126C924.179,83.45,915.038,71.8,911.854,55.55c-.342-1.744-.5-3.525-.736-5.289M992.21,76.209c14.4-16.233,15.41-44.077-3.661-61.695a44.436,44.436,0,0,0-64.367,4.326c-15.653,18.8-11.818,44.008.382,57.2.017-.021.046-.04.048-.063.048-.49.081-.981.139-1.469a11.568,11.568,0,0,1,6.771-9.675,19.9,19.9,0,0,1,5.929-1.59,17.866,17.866,0,0,0,9.005-3.909c-.972-.57-1.935-1.108-2.872-1.688a11.008,11.008,0,0,1-5.6-9.518c-.118-5.571-.058-11.148,0-16.722a18.009,18.009,0,0,1,1.9-7.922,2.023,2.023,0,0,1,1.317-.907,1.373,1.373,0,0,1,1.138.682,2.236,2.236,0,0,1-.086,1.555,17.547,17.547,0,0,0-1.514,6.8c-.043,5.451-.062,10.9-.006,16.353a8.021,8.021,0,0,0,3.46,6.725,53.462,53.462,0,0,0,4.7,2.74c.714.405.937.05.931-.642-.009-1.2-.036-2.4.012-3.6a1.517,1.517,0,0,0-.691-1.382,13.312,13.312,0,0,1-5.286-8.5,60.106,60.106,0,0,1-.395-8.092c-.055-3.213,1.751-4.951,4.97-4.93a15.789,15.789,0,0,0,7.73-1.84,16.19,16.19,0,0,0,8.724-12.8,4.159,4.159,0,0,0-.385-.2c-.258-.1-.517-.2-.783-.274a17.5,17.5,0,0,0-17.481,4.071c-.813.738-1.609.815-2.2.217-.622-.628-.522-1.474.315-2.24a19.855,19.855,0,0,1,18.71-5.057A20.35,20.35,0,0,1,978.9,32.295c.023,4.927-.017,9.855.015,14.782a11.633,11.633,0,0,1-6.251,10.935c-.762.432-1.511.888-2.355,1.385,1.319.812,2.509,1.577,3.733,2.284a6.567,6.567,0,0,0,1.812.792c2.163.474,4.349.837,6.516,1.293a12.049,12.049,0,0,1,7.963,5.526,12.879,12.879,0,0,1,1.881,6.917M965,24.015a1.528,1.528,0,0,0-.242.182c-.092.123-.172.255-.258.382a18.858,18.858,0,0,1-8.59,7.026,19.493,19.493,0,0,1-7.748,1.443c-1.129-.013-1.912.5-1.912,1.432a54.968,54.968,0,0,0,.223,7.922A12.026,12.026,0,0,0,958.456,52.3c5.943-.045,11.2-4.3,11.929-10.051a79.945,79.945,0,0,0,.213-9.586,1.779,1.779,0,0,0-.506-1.047,30.253,30.253,0,0,1-5.092-7.6M962.391,87.7c.177-.2.369-.393.53-.608q2.269-3.03,4.53-6.065c.676-.9,1.633-1.038,2.263-.307a1.45,1.45,0,0,1-.088,2.011l-6.039,7.934c-.214.282-.434.559-.747.963a44.122,44.122,0,0,0,23.98-10.025c2.7-2.232,2.678-2.259,2.606-5.793a9.433,9.433,0,0,0-7.669-9.336c-2.013-.436-4.04-.808-6.065-1.185a.971.971,0,0,0-.753.118c-.939,1-1.832,2.038-2.769,3.1a10.21,10.21,0,0,1,1.617,1.5c.435.627,1.016,1.474.894,2.1a24.725,24.725,0,0,1-1.537,4.686,1.143,1.143,0,0,1-1.683.44,1.257,1.257,0,0,1-.69-1.621c.14-.437.359-.848.537-1.273.873-2.082.873-2.082-.808-3.606-.068-.062-.138-.123-.206-.186a2.5,2.5,0,0,1-.21-3.889c.767-.881,1.561-1.74,2.4-2.675l-5.443-3.336c.025,9.4-2.214,18.23-4.653,27.051M944.678,68.5c-.931-1.046-1.788-2.054-2.706-3a1.154,1.154,0,0,0-.895-.179q-2.816.494-5.618,1.064c-4.139.841-6.858,3.262-7.779,7.41a21.593,21.593,0,0,0-.232,4.686,2.036,2.036,0,0,0,.574,1.33,43.166,43.166,0,0,0,18.811,10.506c2.284.607,4.639.951,6.962,1.415l.1-.266c-.248-.306-.51-.6-.742-.92-2.6-3.548-5.325-7.012-7.734-10.685a39.458,39.458,0,0,1-3.134-6.639,2.865,2.865,0,0,1,1.005-3.47c.468-.389.905-.814,1.386-1.25m8.043-14.539c-.073.14-.123.192-.123.243.028,3.509.047,7.018.118,10.526a1.175,1.175,0,0,0,.579.8,10.467,10.467,0,0,0,10.166.082,1.125,1.125,0,0,0,.716-1.135c.009-3.325.059-6.649.088-9.974a3.485,3.485,0,0,0-.1-.566,15.193,15.193,0,0,1-11.447.021m11.056,14.579a13.7,13.7,0,0,1-10.713.015,111.729,111.729,0,0,0,5.367,21.539,112.9,112.9,0,0,0,5.346-21.553M944.36,63.987c.814.9,1.559,1.724,2.293,2.552,1.311,1.479,1.25,2.769-.187,4.09a8.248,8.248,0,0,1-.972.85,1.107,1.107,0,0,0-.409,1.582c.481,1.062.865,2.174,1.409,3.2a70.336,70.336,0,0,0,7.45,10.875c.16.2.34.385.511.579-1.083-4.453-2.228-8.85-3.208-13.283A62.327,62.327,0,0,1,949.8,60.657l-5.444,3.33m29.07-22.837c-.063.365-.138.751-.194,1.14a12.329,12.329,0,0,1-3.977,8,5.843,5.843,0,0,0-2.233,5.8,4.9,4.9,0,0,1,0,.737c-.018.751.3.965.962.591,1.521-.863,3.1-1.644,4.538-2.629a7.6,7.6,0,0,0,3.454-5.739c.192-2.26.113-4.542.15-6.815.008-.5,0-1,0-1.465l-2.706.376M967.524,17c-.207.834-.475,1.652-.6,2.492a4.289,4.289,0,0,0,.05,1.931,23.327,23.327,0,0,0,3.959,6.918c.743.93,1.429,1.907,2.155,2.851a.743.743,0,0,0,.428.281c.839.11,1.683.186,2.525.274.44-5.2-3.9-12.748-8.52-14.747m5.926,21.235a2.1,2.1,0,0,0,2.375-.943,1.868,1.868,0,0,0-.084-2.157,2.117,2.117,0,0,0-2.291-.82Z" transform="translate(-911.118 0)"/>
          <g id="Grupo_159822" data-name="Grupo 159822" transform="translate(70.572 39.173)">
            <g id="Grupo_159808" data-name="Grupo 159808" transform="translate(0 0)" clip-path="url(#clip-path-5)">
              <path id="Trazado_600213" data-name="Trazado 600213" d="M19.047,7.718a.99.99,0,0,0-.172-.291,1.131,1.131,0,0,0-1.27-.281,1.463,1.463,0,0,0-.512.321,1.2,1.2,0,0,0-.2.215.717.717,0,0,0-.14.448l-1.852.14-.266.02a4.96,4.96,0,0,0-.626-1.543L15,5.915l.6-.505a1.323,1.323,0,0,0,.462.238.925.925,0,0,0,.592-.053,1.106,1.106,0,0,0,.162-.086,1.874,1.874,0,0,0,.461-.321.944.944,0,0,0,.3-.62A1.079,1.079,0,0,0,17.1,3.6a.988.988,0,0,0-.287-.179,1.13,1.13,0,0,0-1.257.336,1.459,1.459,0,0,0-.307.521,1.233,1.233,0,0,0-.08.283.717.717,0,0,0,.083.462L13.673,6l-.147.091A5.011,5.011,0,0,0,12.2,5.015l.479-1.148.3-.726a1.322,1.322,0,0,0,.52,0,.924.924,0,0,0,.5-.32,1.161,1.161,0,0,0,.1-.151,1.87,1.87,0,0,0,.262-.5.945.945,0,0,0-.019-.689,1.08,1.08,0,0,0-.871-.633A.991.991,0,0,0,13.14.823a1.131,1.131,0,0,0-.961.877,1.464,1.464,0,0,0-.033.6,1.216,1.216,0,0,0,.06.288.717.717,0,0,0,.286.372l-.952,1.6-.072.12a4.972,4.972,0,0,0-1.69-.3q-.053-.63-.106-1.259l-.066-.784a1.336,1.336,0,0,0,.461-.24.925.925,0,0,0,.3-.514,1.173,1.173,0,0,0,.023-.182,1.857,1.857,0,0,0,0-.562.946.946,0,0,0-.334-.6A1.082,1.082,0,0,0,8.993.073,1,1,0,0,0,8.681.2a1.131,1.131,0,0,0-.449,1.221,1.459,1.459,0,0,0,.249.551,1.225,1.225,0,0,0,.186.228.719.719,0,0,0,.426.2q-.055.927-.11,1.854l-.011.183a4.96,4.96,0,0,0-1.859.7L6.319,4.03,5.86,3.39a1.328,1.328,0,0,0,.272-.443.926.926,0,0,0-.009-.594,1.171,1.171,0,0,0-.073-.168A1.856,1.856,0,0,0,5.764,1.7a.943.943,0,0,0-.6-.346,1.081,1.081,0,0,0-1,.409.988.988,0,0,0-.2.273,1.13,1.13,0,0,0,.242,1.278,1.457,1.457,0,0,0,.5.345,1.208,1.208,0,0,0,.277.1.72.72,0,0,0,.467-.048L6.31,5.361l.141.271A5.018,5.018,0,0,0,5.438,6.871L4.1,6.193l-.7-.356a1.328,1.328,0,0,0,.038-.519A.925.925,0,0,0,3.158,4.8a1.15,1.15,0,0,0-.143-.115,1.866,1.866,0,0,0-.477-.3A.946.946,0,0,0,1.85,4.35a1.079,1.079,0,0,0-.7.822.991.991,0,0,0-.052.334,1.13,1.13,0,0,0,.8,1.023,1.465,1.465,0,0,0,.6.078A1.223,1.223,0,0,0,2.8,6.568a.719.719,0,0,0,.393-.258l1.52,1.068.368.259a4.965,4.965,0,0,0-.3,1.481l-1.64.015-.787.007a1.328,1.328,0,0,0-.206-.477.925.925,0,0,0-.491-.335,1.156,1.156,0,0,0-.18-.037,1.864,1.864,0,0,0-.56-.045.945.945,0,0,0-.626.289,1.08,1.08,0,0,0-.239,1.05.994.994,0,0,0,.108.321,1.131,1.131,0,0,0,1.184.538,1.468,1.468,0,0,0,.568-.207,1.228,1.228,0,0,0,.241-.169.718.718,0,0,0,.23-.41l1.841.248.589.08a4.956,4.956,0,0,0,.378,1.378l-.058.031-1.5.794-.7.369a1.317,1.317,0,0,0-.4-.329.924.924,0,0,0-.59-.071,1.13,1.13,0,0,0-.176.051,1.849,1.849,0,0,0-.518.218.946.946,0,0,0-.423.544A1.08,1.08,0,0,0,1.1,14.014a1,1,0,0,0,.244.235,1.131,1.131,0,0,0,1.3-.068,1.462,1.462,0,0,0,.409-.446,1.214,1.214,0,0,0,.136-.261.718.718,0,0,0,.015-.469l1.748-.628.662-.238a5.006,5.006,0,0,0,.911,1.024l-.081.117-.963,1.394-.447.648a1.319,1.319,0,0,0-.509-.107.925.925,0,0,0-.556.208,1.158,1.158,0,0,0-.134.126,1.855,1.855,0,0,0-.359.433.946.946,0,0,0-.125.678,1.079,1.079,0,0,0,.721.8,1,1,0,0,0,.324.1A1.131,1.131,0,0,0,5.513,16.9a1.458,1.458,0,0,0,.157-.584,1.215,1.215,0,0,0,0-.294.719.719,0,0,0-.2-.423l1.263-1.363.514-.555a4.939,4.939,0,0,0,1.246.516l-.019.154-.213,1.681-.1.781a1.328,1.328,0,0,0-.5.14.926.926,0,0,0-.4.441,1.151,1.151,0,0,0-.06.173,1.851,1.851,0,0,0-.12.549.946.946,0,0,0,.2.659,1.08,1.08,0,0,0,1.008.377.978.978,0,0,0,.332-.064,1.131,1.131,0,0,0,.692-1.1,1.464,1.464,0,0,0-.129-.591,1.231,1.231,0,0,0-.135-.262.718.718,0,0,0-.375-.283l.493-1.791.2-.717q.193.015.391.015a4.984,4.984,0,0,0,.973-.095l.036.1.586,1.59.272.739a1.328,1.328,0,0,0-.38.355.923.923,0,0,0-.149.575,1.143,1.143,0,0,0,.026.182,1.857,1.857,0,0,0,.147.542.943.943,0,0,0,.483.492,1.08,1.08,0,0,0,1.069-.129.991.991,0,0,0,.266-.21,1.131,1.131,0,0,0,.107-1.3,1.463,1.463,0,0,0-.387-.464,1.208,1.208,0,0,0-.24-.171.718.718,0,0,0-.463-.078l-.387-1.817-.14-.654a4.983,4.983,0,0,0,1.236-.7l1.251,1.141.582.53a1.323,1.323,0,0,0-.174.49.921.921,0,0,0,.132.579,1.135,1.135,0,0,0,.107.149,1.852,1.852,0,0,0,.38.414.943.943,0,0,0,.655.214,1.079,1.079,0,0,0,.889-.607.988.988,0,0,0,.139-.308,1.131,1.131,0,0,0-.5-1.2,1.459,1.459,0,0,0-.557-.234,1.2,1.2,0,0,0-.292-.04.717.717,0,0,0-.447.144L13.8,13.152l-.348-.423a4.994,4.994,0,0,0,.834-1.249l1.5.4.761.2a1.319,1.319,0,0,0,.071.515A.926.926,0,0,0,17,13.05a1.175,1.175,0,0,0,.163.083,1.855,1.855,0,0,0,.528.192.941.941,0,0,0,.68-.111,1.08,1.08,0,0,0,.51-.948.99.99,0,0,0-.019-.338,1.132,1.132,0,0,0-1-.834,1.473,1.473,0,0,0-.6.049,1.255,1.255,0,0,0-.278.1.716.716,0,0,0-.33.334l-1.709-.729-.37-.158a5,5,0,0,0,.176-1.319c0-.087,0-.175-.007-.262L16.119,8.8l.768-.171a1.33,1.33,0,0,0,.3.425.926.926,0,0,0,.55.225,1.143,1.143,0,0,0,.183,0,1.846,1.846,0,0,0,.557-.073.944.944,0,0,0,.553-.412,1.08,1.08,0,0,0,.015-1.077" transform="translate(0 0)" fill="#9fc26f"/>
            </g>
          </g>
          <g id="Grupo_159823" data-name="Grupo 159823" transform="translate(8.231 29.682)">
            <g id="Grupo_159808-2" data-name="Grupo 159808" transform="translate(0 0)" clip-path="url(#clip-path-6)">
              <path id="Trazado_600213-2" data-name="Trazado 600213" d="M11.765,4.767a.611.611,0,0,0-.107-.18.7.7,0,0,0-.784-.173.9.9,0,0,0-.317.2.738.738,0,0,0-.124.133.443.443,0,0,0-.086.277L9.2,5.109l-.164.012a3.064,3.064,0,0,0-.387-.953l.614-.514.373-.312a.817.817,0,0,0,.285.147.572.572,0,0,0,.365-.033.683.683,0,0,0,.1-.053,1.158,1.158,0,0,0,.285-.2.583.583,0,0,0,.186-.383.667.667,0,0,0-.3-.595.61.61,0,0,0-.177-.111.7.7,0,0,0-.776.208.9.9,0,0,0-.19.322.762.762,0,0,0-.049.175.443.443,0,0,0,.051.286l-.976.6-.091.056a3.1,3.1,0,0,0-.82-.668l.3-.709.187-.449a.817.817,0,0,0,.321,0,.571.571,0,0,0,.309-.2.717.717,0,0,0,.065-.093,1.155,1.155,0,0,0,.162-.307A.583.583,0,0,0,8.863.916.667.667,0,0,0,8.325.525.612.612,0,0,0,8.116.509a.7.7,0,0,0-.593.542.9.9,0,0,0-.02.373A.751.751,0,0,0,7.54,1.6a.443.443,0,0,0,.177.23l-.588.986-.044.074A3.071,3.071,0,0,0,6.04,2.7l-.065-.778-.041-.484a.825.825,0,0,0,.285-.149A.572.572,0,0,0,6.4.976.725.725,0,0,0,6.417.864a1.147,1.147,0,0,0,0-.347A.585.585,0,0,0,6.213.144a.668.668,0,0,0-.658-.1.616.616,0,0,0-.193.081.7.7,0,0,0-.277.754.9.9,0,0,0,.154.34.757.757,0,0,0,.115.141.444.444,0,0,0,.263.123q-.034.573-.068,1.145l-.007.113a3.064,3.064,0,0,0-1.148.43L3.9,2.489,3.62,2.094a.82.82,0,0,0,.168-.274.572.572,0,0,0-.006-.367.723.723,0,0,0-.045-.1,1.146,1.146,0,0,0-.177-.3A.582.582,0,0,0,3.192.837a.668.668,0,0,0-.615.252.61.61,0,0,0-.124.169.7.7,0,0,0,.149.79.9.9,0,0,0,.306.213.746.746,0,0,0,.171.062.444.444,0,0,0,.288-.03L3.9,3.311l.087.168a3.1,3.1,0,0,0-.626.765l-.824-.418L2.1,3.606a.821.821,0,0,0,.023-.32.572.572,0,0,0-.174-.323.71.71,0,0,0-.088-.071,1.153,1.153,0,0,0-.294-.184.584.584,0,0,0-.425-.02.667.667,0,0,0-.43.508A.612.612,0,0,0,.681,3.4a.7.7,0,0,0,.5.632.9.9,0,0,0,.37.048.756.756,0,0,0,.18-.024A.444.444,0,0,0,1.97,3.9l.939.66.227.16a3.066,3.066,0,0,0-.187.915l-1.013.009-.486,0a.82.82,0,0,0-.127-.295.572.572,0,0,0-.3-.207.714.714,0,0,0-.111-.023,1.152,1.152,0,0,0-.346-.028.584.584,0,0,0-.387.178.667.667,0,0,0-.148.648.614.614,0,0,0,.067.2.7.7,0,0,0,.732.332.907.907,0,0,0,.351-.128.758.758,0,0,0,.149-.1.443.443,0,0,0,.142-.253l1.137.153.364.049A3.061,3.061,0,0,0,3.2,7.02l-.036.019-.925.49-.429.228a.814.814,0,0,0-.248-.2A.571.571,0,0,0,1.2,7.51a.7.7,0,0,0-.109.031,1.142,1.142,0,0,0-.32.135.584.584,0,0,0-.261.336.667.667,0,0,0,.168.644.616.616,0,0,0,.15.145.7.7,0,0,0,.8-.042.9.9,0,0,0,.252-.275.75.75,0,0,0,.084-.161.444.444,0,0,0,.01-.29l1.08-.388L3.464,7.5a3.092,3.092,0,0,0,.563.633l-.05.072-.595.861-.276.4A.815.815,0,0,0,2.791,9.4a.572.572,0,0,0-.344.129.715.715,0,0,0-.083.078,1.146,1.146,0,0,0-.222.267.584.584,0,0,0-.077.419.667.667,0,0,0,.445.494.617.617,0,0,0,.2.06.7.7,0,0,0,.693-.407.9.9,0,0,0,.1-.361.75.75,0,0,0,0-.182.444.444,0,0,0-.125-.261l.78-.842.317-.343a3.051,3.051,0,0,0,.77.319l-.012.095L5.1,9.9l-.061.482a.82.82,0,0,0-.309.086.572.572,0,0,0-.246.273.711.711,0,0,0-.037.107,1.143,1.143,0,0,0-.074.339A.584.584,0,0,0,4.5,11.6a.667.667,0,0,0,.623.233.6.6,0,0,0,.205-.04.7.7,0,0,0,.428-.68.9.9,0,0,0-.08-.365.76.76,0,0,0-.083-.162.444.444,0,0,0-.232-.175l.3-1.106.122-.443q.119.009.241.009a3.078,3.078,0,0,0,.6-.059l.022.06.362.982.168.456a.821.821,0,0,0-.235.219.57.57,0,0,0-.092.355A.706.706,0,0,0,6.87,11a1.147,1.147,0,0,0,.091.335.583.583,0,0,0,.3.3.667.667,0,0,0,.66-.08.612.612,0,0,0,.164-.13.7.7,0,0,0,.066-.8.9.9,0,0,0-.239-.287.746.746,0,0,0-.148-.105.443.443,0,0,0-.286-.048L7.237,9.062l-.086-.4a3.078,3.078,0,0,0,.764-.434l.773.7.359.327a.817.817,0,0,0-.107.3.569.569,0,0,0,.082.358.7.7,0,0,0,.066.092,1.144,1.144,0,0,0,.235.256.583.583,0,0,0,.4.132.667.667,0,0,0,.549-.375.61.61,0,0,0,.086-.191.7.7,0,0,0-.31-.741.9.9,0,0,0-.344-.145.739.739,0,0,0-.18-.025.443.443,0,0,0-.276.089l-.729-.886-.215-.261a3.085,3.085,0,0,0,.515-.771l.926.247.47.125a.815.815,0,0,0,.044.318.572.572,0,0,0,.237.28.726.726,0,0,0,.1.051,1.146,1.146,0,0,0,.326.119.581.581,0,0,0,.42-.069.667.667,0,0,0,.315-.586.612.612,0,0,0-.012-.209.7.7,0,0,0-.617-.515.91.91,0,0,0-.372.03.775.775,0,0,0-.171.061.442.442,0,0,0-.2.206L9.23,6.7,9,6.6a3.086,3.086,0,0,0,.109-.815c0-.054,0-.108,0-.162l.85-.188.475-.106a.822.822,0,0,0,.185.262.572.572,0,0,0,.34.139.706.706,0,0,0,.113,0,1.14,1.14,0,0,0,.344-.045.583.583,0,0,0,.341-.254.667.667,0,0,0,.01-.665" transform="translate(0 0)" fill="#579107"/>
            </g>
          </g>
          <path id="Trazado_600214" data-name="Trazado 600214" d="M583.17,4277.967s4.4-2.884,8.459-.352" transform="translate(-540.517 -4232.063)" fill="none" stroke="#000" stroke-linecap="round" stroke-width="3"/>
        </g>
        <text id="Mosquito" transform="translate(-9564 -6989)" fill="#12263f" font-size="16" font-family="Roboto-Bold, Roboto" font-weight="700"><tspan x="25.129" y="17">Mosquito</tspan></text>
        <text id="Pica_persona_con_dengue" data-name="Pica persona con dengue" transform="translate(-9445 -6989)" fill="#12263f" font-size="16" font-family="Roboto-Bold, Roboto" font-weight="700"><tspan x="12.113" y="17">Pica persona </tspan><tspan x="17.152" y="37">con dengue</tspan></text>
        <text id="Mosquito_infectado" data-name="Mosquito infectado" transform="translate(-9327 -6989)" fill="#12263f" font-size="16" font-family="Roboto-Bold, Roboto" font-weight="700"><tspan x="25.629" y="17">Mosquito </tspan><tspan x="25.512" y="37">infectado</tspan></text>
        <text id="Pica_persona_sana" data-name="Pica persona sana" transform="translate(-9076 -6987.632)" fill="#12263f" font-size="16" font-family="Roboto-Bold, Roboto" font-weight="700"><tspan x="1.613" y="17">Pica persona </tspan><tspan x="31.328" y="37">sana</tspan></text>
        <text id="Persona_enferma_con_dengue" data-name="Persona enferma
con dengue" transform="translate(-9208 -6987.632)" fill="#12263f" font-size="16" font-family="Roboto-Bold, Roboto" font-weight="700"><tspan x="-29.809" y="17">Persona </tspan><tspan x="-30.129" y="37">enferma</tspan><tspan x="-41.848" y="57">con dengue</tspan></text>
        <g id="Grupo_159832" data-name="Grupo 159832" transform="translate(-9337.255 -7057.234)">
          <rect id="Rectángulo_45982" data-name="Rectángulo 45982" width="6.451" height="11.287" transform="translate(11.287 3.226) rotate(90)" fill="#69489b"/>
          <path id="Polígono_17" data-name="Polígono 17" d="M6.72,0l6.72,11.736H0Z" transform="translate(20.889) rotate(90)" fill="#69489b"/>
        </g>
        <g id="Grupo_159836" data-name="Grupo 159836" transform="translate(-9098.445 -7057.234)">
          <rect id="Rectángulo_45982-2" data-name="Rectángulo 45982" width="6.451" height="11.287" transform="translate(11.287 3.226) rotate(90)" fill="#69489b"/>
          <path id="Polígono_17-2" data-name="Polígono 17" d="M6.72,0l6.72,11.736H0Z" transform="translate(20.889) rotate(90)" fill="#69489b"/>
        </g>
        <g id="Grupo_159834" data-name="Grupo 159834" transform="translate(-9455.04 -7057.234)">
          <rect id="Rectángulo_45982-3" data-name="Rectángulo 45982" width="6.451" height="11.287" transform="translate(11.287 3.226) rotate(90)" fill="#4462fe"/>
          <path id="Polígono_17-3" data-name="Polígono 17" d="M6.72,0l6.72,11.736H0Z" transform="translate(20.889) rotate(90)" fill="#4462fe"/>
        </g>
        <g id="Grupo_159835" data-name="Grupo 159835" transform="translate(-9217.255 -7057.234)">
          <rect id="Rectángulo_45982-4" data-name="Rectángulo 45982" width="6.451" height="11.287" transform="translate(11.287 3.226) rotate(90)" fill="#4462fe"/>
          <path id="Polígono_17-4" data-name="Polígono 17" d="M6.72,0l6.72,11.736H0Z" transform="translate(20.889) rotate(90)" fill="#4462fe"/>
        </g>
        <g id="Grupo_159829" data-name="Grupo 159829" transform="translate(-9315 -7098)">
          <g id="Grupo_159784" data-name="Grupo 159784" transform="translate(0 0)">
            <path id="Trazado_600181-3" data-name="Trazado 600181" d="M97.79,55.117a45.739,45.739,0,1,0-45.74,45.74,45.74,45.74,0,0,0,45.74-45.74" transform="translate(-4.753 -7.819)" fill="#f2fbe6"/>
            <path id="Trazado_600182-2" data-name="Trazado 600182" d="M148.4,101.62l14.369-7.957s8.3-3.079,9.33-2.519a12.8,12.8,0,0,0,1.866.84l-.747,1.586s9.05.653,9.517.747,2.053,2.032,2.053,2.032l-2.986,4.313-2.325.653-22.307,4.945-5.692-1.376Z" transform="translate(-111.768 -69.349)" fill="#99e6fc"/>
            <path id="Trazado_600197-2" data-name="Trazado 600197" d="M47.3,97.662a47.3,47.3,0,1,1,47.3-47.3,47.351,47.351,0,0,1-47.3,47.3m0-91.632A44.335,44.335,0,1,0,91.632,50.364,44.385,44.385,0,0,0,47.3,6.029" transform="translate(0 -3.067)"/>
            <path id="Trazado_600198-2" data-name="Trazado 600198" d="M100.36,142.02,96.021,145.7s-1.259,3.809-3.079,3.739a9.74,9.74,0,0,1-3.5-.91s-1.959-1.889-1.75-1.889.07-2.169.35-2.239,2.939-1.679,2.939-1.679l2.309-4.9s.84-4.381,3.919-4.01A32.982,32.982,0,0,1,104,135.653a21.729,21.729,0,0,0,1.75,1.4c.21.07,18.334,3.849,19.594,5.738s8.677,7.267,8.4,7.867-3.569,2.575-3.919,2.637-9.237,0-9.237,0l-8.187-5.466-7.47-5.6-.367-1.329Z" transform="translate(-66.034 -101.519)" fill="#557085"/>
            <path id="Trazado_600199-2" data-name="Trazado 600199" d="M127.2,95.336a1.576,1.576,0,0,0-.9.852,1.352,1.352,0,0,0,.034,1.055,1.415,1.415,0,0,0,1.972.692,11.926,11.926,0,0,0,5.457-4.505,3.451,3.451,0,0,0-2.7-5.355c-1.982-.047-3.945.014-5.787.082-.726.026-1.456.112-2.162.195l-.113.013a3.085,3.085,0,0,0-.64-2.378,3.158,3.158,0,0,0-2.755-1.121c-.457.035-.937.09-1.47.167a39.943,39.943,0,0,0-15.182,5.526c-2.092,1.281-4.241,2.553-6.318,3.783l-1.4.829a.652.652,0,0,1-.243.094c-.386-.042-.767-.1-1.17-.168-.354-.056-.721-.115-1.089-.159a7.6,7.6,0,0,0-8.423,6.608,1.441,1.441,0,0,0,1.088,1.609,1.421,1.421,0,0,0,1.67-1.006,4.3,4.3,0,0,0,.106-.469c.01-.053.02-.106.03-.159a4.568,4.568,0,0,1,3.73-3.693,8.879,8.879,0,0,1,2.176.033l.426.039a4.478,4.478,0,0,1,3.77,2.475.385.385,0,0,1,.009.2,19.455,19.455,0,0,1-.728,1.928.506.506,0,0,1-.207.2c-.248.108-.513.2-.794.292a6.748,6.748,0,0,0-1.451.621c-1.068.664-2.1,1.4-3.106,2.113q-.5.354-1,.705c-.261.183-.517.376-.766.567a5.818,5.818,0,0,0-5.587-2.8,4.846,4.846,0,0,0-4.648,4.313,4.959,4.959,0,0,0,2.619,4.75.577.577,0,0,1,.074.053.508.508,0,0,1,0,.07l-.021.506c-.067,1.619-.137,3.293-.16,4.945a10.11,10.11,0,0,1-2.861,7.091l-.168.178v.976l.115.161a1.767,1.767,0,0,0,1.243.836,1.716,1.716,0,0,0,1.3-.7,12.527,12.527,0,0,0,3.166-7.831c.056-1.236.1-2.491.138-3.7q.028-.858.058-1.716a11.067,11.067,0,0,0,1.152-.072,4.806,4.806,0,0,0,4.152-3.717.6.6,0,0,1,.281-.429l.093-.069c1.121-.836,2.279-1.7,3.4-2.579a11.868,11.868,0,0,1,3-1.651c.733-.292.97-.195,1.254.153a3.353,3.353,0,0,0,.9.75,1.491,1.491,0,0,1,.837,1.735,3.878,3.878,0,0,0-.031.881c0,.114.011.228.009.341a.924.924,0,0,1-.859,1.035q-.534.1-1.068.2c-1.135.219-2.308.446-3.462.608a4.151,4.151,0,0,0-3.637,3.178c-1.175,3.823-2.406,7.7-3.6,11.449q-.647,2.038-1.293,4.076c-.224.709-.463.884-1.218.89-.23,0-.46,0-.69,0-.359,0-.719,0-1.079.006a1.572,1.572,0,0,0-1.149.454,1.355,1.355,0,0,0-.36.994,1.4,1.4,0,0,0,1.5,1.374c.533.014,1.07.01,1.59.006l.242,0a3.749,3.749,0,0,0,3.855-2.859l.9-2.833q2.057-6.5,4.1-13a1.128,1.128,0,0,1,1.011-.89c1.658-.277,3.322-.579,4.884-.865a3.766,3.766,0,0,0,3.165-3.755c.865.711,1.689,1.39,2.5,2.076,0,.019,0,.041,0,.065-.031.5-.07.991-.109,1.487-.032.406-.064.813-.092,1.22a3.61,3.61,0,0,0,2.722,3.918l.116.034q1.32.387,2.638.777a.8.8,0,0,1,.635.745l.087.637q.111.815.219,1.63l.582,4.464q.621,4.766,1.248,9.532a3.335,3.335,0,0,0,3.067,2.907c.425.033.851.044,1.27.044.332,0,.659-.007.977-.015a1.41,1.41,0,1,0-.038-2.817c-.275-.006-.55-.005-.826,0-.32,0-.622,0-.926-.007-.514-.018-.664-.15-.729-.64q-.96-7.226-1.9-14.454l-.2-1.545A3.682,3.682,0,0,0,112.228,117a18.256,18.256,0,0,0,9.349,1.464l.076,0a.5.5,0,0,1,.085.006.15.15,0,0,1,.019.028,2.3,2.3,0,0,1,.252.613q.787,3.313,1.558,6.63l.976,4.178q.565,2.421,1.133,4.841a3.394,3.394,0,0,0,3.44,2.782c.47.008,1.024.015,1.578,0a1.371,1.371,0,0,0,1.422-1.4,1.4,1.4,0,0,0-1.4-1.421c-.316-.017-.628-.014-.931-.011-.144,0-.287,0-.432,0-.715,0-.8-.068-.959-.761q-.7-2.958-1.388-5.918-.763-3.259-1.529-6.518c-.227-.965-.461-1.928-.7-2.9l-.205-.846.082-.033c.454-.184.968-.393,1.461-.635a3.562,3.562,0,0,0,2.055-2.55,3.654,3.654,0,0,0-1.052-3.143,26.741,26.741,0,0,0-5.108-4.152,52.6,52.6,0,0,0-11.6-5.376l3.325-.691q4.681-.974,9.361-1.948a1.434,1.434,0,0,0,1.3-1.7,1.342,1.342,0,0,0-.581-.881,1.7,1.7,0,0,0-1.329-.175l-3.079.673q-6.961,1.522-13.925,3.034a1.652,1.652,0,0,1-.673-.015c-.671-.147-1.341-.3-2.01-.46-.824-.192-1.674-.391-2.521-.57l1.836-.777c2.062-.872,4.193-1.774,6.281-2.675A59.613,59.613,0,0,1,119.213,91.9,46.426,46.426,0,0,1,130.6,90.855c.559.019.727.148.841.382s.113.444-.215.9a9.378,9.378,0,0,1-4.022,3.2m-17.093,11.187a1.558,1.558,0,0,0-.667,1.051,1.5,1.5,0,0,0,.636,1.344,1.693,1.693,0,0,0,1.528-.027,4.6,4.6,0,0,0,2.032-2.77,40.533,40.533,0,0,1,8.4,4.6l.088.065-.063.079a1.54,1.54,0,0,1-.439.334,1.4,1.4,0,0,0-.745,1.806,1.417,1.417,0,0,0,1.885.789,3.344,3.344,0,0,0,1.583-1.247c.315.342.612.667.893,1a.569.569,0,0,1,.151.481.749.749,0,0,1-.418.484,10.747,10.747,0,0,1-5.019,1.254h-.117a17.561,17.561,0,0,1-5.4-.9,6.129,6.129,0,0,0,1.171-3.067,1.413,1.413,0,1,0-2.773-.515q-.042.173-.082.348a9.343,9.343,0,0,1-.278,1.026,1.479,1.479,0,0,1-.337.519,1.273,1.273,0,0,1-.365.3c-.01,0-.1-.018-.391-.251-1.328-1.078-2.672-2.184-3.971-3.253l-.918-.754a5.111,5.111,0,0,0,1.339-2.027,1.448,1.448,0,0,0-.8-2.025c-.3-.108-1.325-.353-1.853,1.028a2.485,2.485,0,0,1-.925,1.194c-1.542-1.291-3.154-2.621-4.925-4.061a13.151,13.151,0,0,0,.518-1.382c.834.215,1.67.425,2.505.635,1.539.387,3.13.787,4.683,1.213.829.227,1.665.515,2.475.794.474.163.964.332,1.453.489a2.22,2.22,0,0,1-.855,1.46m9.96-18.226a1.074,1.074,0,0,1-.858.74,52.031,52.031,0,0,0-10.864,3.6c-1.729.748-3.494,1.495-5.2,2.217-1.585.671-3.224,1.365-4.833,2.059a.873.873,0,0,1-.136.049.506.506,0,0,1-.044-.042c-.034-.036-.068-.07-.1-.1l.4-.242c.837-.5,1.667-1,2.5-1.488.64-.376,1.276-.76,1.912-1.144a53.4,53.4,0,0,1,6.294-3.426A36.646,36.646,0,0,1,119.718,87.7c.358-.04.4.029.449.1s.08.122-.1.5m-9.128,28.074c-.53-.158-1.061-.312-1.592-.465q-.56-.161-1.119-.324c-.616-.181-.632-.463-.637-.555a11.074,11.074,0,0,1,.015-1.223c.528.435,1.024.845,1.525,1.25a15.465,15.465,0,0,0,2.023,1.387c-.07-.024-.142-.048-.216-.07m-23.9-6.491a1.977,1.977,0,0,1-1.635,1.349,3.459,3.459,0,0,1-.448.064l-.13.013a3.333,3.333,0,0,1-2.252-.873,1.925,1.925,0,0,1-.67-1.992,1.846,1.846,0,0,1,1.537-1.345,3.75,3.75,0,0,1,.84-.1,2.987,2.987,0,0,1,2.164.934,1.835,1.835,0,0,1,.594,1.95" transform="translate(-59.137 -64.665)"/>
          </g>
          <g id="Grupo_159810" data-name="Grupo 159810" transform="translate(69.506 36.855)">
            <g id="Grupo_159808-3" data-name="Grupo 159808" transform="translate(0 0)" clip-path="url(#clip-path-7)">
              <path id="Trazado_600213-3" data-name="Trazado 600213" d="M20.1,8.147a1.045,1.045,0,0,0-.182-.307,1.194,1.194,0,0,0-1.341-.3,1.544,1.544,0,0,0-.541.339,1.261,1.261,0,0,0-.212.227.757.757,0,0,0-.147.473l-1.955.148-.281.021a5.235,5.235,0,0,0-.661-1.629l1.05-.879.637-.533a1.4,1.4,0,0,0,.488.251.977.977,0,0,0,.624-.056,1.167,1.167,0,0,0,.171-.09,1.978,1.978,0,0,0,.487-.339,1,1,0,0,0,.317-.655A1.139,1.139,0,0,0,18.05,3.8a1.043,1.043,0,0,0-.3-.189,1.193,1.193,0,0,0-1.326.355,1.54,1.54,0,0,0-.324.549,1.3,1.3,0,0,0-.084.3.757.757,0,0,0,.087.488L14.432,6.338l-.155.1a5.289,5.289,0,0,0-1.4-1.141l.506-1.212.32-.767a1.4,1.4,0,0,0,.549,0,.975.975,0,0,0,.528-.337,1.225,1.225,0,0,0,.11-.159,1.974,1.974,0,0,0,.276-.525,1,1,0,0,0-.02-.727A1.14,1.14,0,0,0,14.226.9,1.046,1.046,0,0,0,13.87.869a1.193,1.193,0,0,0-1.014.925,1.545,1.545,0,0,0-.034.637,1.283,1.283,0,0,0,.063.3.756.756,0,0,0,.3.393l-1,1.684-.076.127a5.248,5.248,0,0,0-1.784-.318q-.056-.665-.111-1.329l-.069-.828a1.41,1.41,0,0,0,.487-.254.977.977,0,0,0,.314-.543,1.238,1.238,0,0,0,.025-.192,1.96,1.96,0,0,0,0-.593,1,1,0,0,0-.353-.637A1.142,1.142,0,0,0,9.493.077a1.053,1.053,0,0,0-.329.139A1.194,1.194,0,0,0,8.69,1.505a1.54,1.54,0,0,0,.263.581,1.293,1.293,0,0,0,.2.241.759.759,0,0,0,.449.21q-.058.979-.116,1.957l-.012.193a5.236,5.236,0,0,0-1.962.735L6.67,4.254l-.485-.675a1.4,1.4,0,0,0,.287-.468.978.978,0,0,0-.009-.627,1.236,1.236,0,0,0-.077-.177,1.959,1.959,0,0,0-.3-.511,1,1,0,0,0-.63-.365A1.141,1.141,0,0,0,4.4,1.862a1.043,1.043,0,0,0-.211.288A1.193,1.193,0,0,0,4.447,3.5a1.538,1.538,0,0,0,.524.364,1.275,1.275,0,0,0,.292.106.76.76,0,0,0,.493-.051l.9,1.74.149.286A5.3,5.3,0,0,0,5.74,7.252L4.332,6.537l-.741-.376a1.4,1.4,0,0,0,.04-.548.977.977,0,0,0-.3-.552,1.214,1.214,0,0,0-.151-.122,1.97,1.97,0,0,0-.5-.314,1,1,0,0,0-.727-.034,1.139,1.139,0,0,0-.734.867,1.046,1.046,0,0,0-.055.353,1.193,1.193,0,0,0,.848,1.08,1.546,1.546,0,0,0,.632.082,1.291,1.291,0,0,0,.308-.041.759.759,0,0,0,.415-.272l1.6,1.127.388.273A5.24,5.24,0,0,0,5.04,9.625l-1.731.016-.831.007a1.4,1.4,0,0,0-.217-.5.977.977,0,0,0-.518-.354,1.22,1.22,0,0,0-.19-.039,1.968,1.968,0,0,0-.591-.047,1,1,0,0,0-.661.3,1.14,1.14,0,0,0-.252,1.108,1.049,1.049,0,0,0,.114.339,1.194,1.194,0,0,0,1.25.568,1.549,1.549,0,0,0,.6-.219,1.3,1.3,0,0,0,.255-.178.758.758,0,0,0,.242-.432l1.943.262.621.084A5.231,5.231,0,0,0,5.472,12l-.062.033-1.58.838-.734.389a1.391,1.391,0,0,0-.425-.347.976.976,0,0,0-.623-.075,1.192,1.192,0,0,0-.186.053,1.951,1.951,0,0,0-.547.23,1,1,0,0,0-.447.575,1.14,1.14,0,0,0,.287,1.1,1.052,1.052,0,0,0,.257.248,1.194,1.194,0,0,0,1.371-.071,1.543,1.543,0,0,0,.431-.47,1.281,1.281,0,0,0,.144-.275.758.758,0,0,0,.016-.5l1.845-.663.7-.251A5.284,5.284,0,0,0,6.881,13.9l-.085.124L5.779,15.491l-.472.683a1.392,1.392,0,0,0-.537-.113.977.977,0,0,0-.587.22,1.222,1.222,0,0,0-.141.133,1.958,1.958,0,0,0-.379.457,1,1,0,0,0-.132.716,1.139,1.139,0,0,0,.761.844,1.055,1.055,0,0,0,.342.1,1.194,1.194,0,0,0,1.184-.7,1.539,1.539,0,0,0,.166-.616,1.282,1.282,0,0,0,0-.311.758.758,0,0,0-.214-.447l1.333-1.438.542-.585a5.213,5.213,0,0,0,1.315.545l-.02.162-.224,1.774-.1.824a1.4,1.4,0,0,0-.529.147.977.977,0,0,0-.42.466,1.215,1.215,0,0,0-.064.183,1.954,1.954,0,0,0-.126.58,1,1,0,0,0,.213.7,1.14,1.14,0,0,0,1.064.4,1.033,1.033,0,0,0,.351-.068,1.194,1.194,0,0,0,.731-1.162,1.546,1.546,0,0,0-.136-.624,1.3,1.3,0,0,0-.142-.276.758.758,0,0,0-.4-.3L9.68,15.9l.208-.757q.2.016.412.016a5.261,5.261,0,0,0,1.027-.1l.038.1.618,1.678.287.78a1.4,1.4,0,0,0-.4.375.975.975,0,0,0-.158.607,1.206,1.206,0,0,0,.028.192,1.961,1.961,0,0,0,.155.573,1,1,0,0,0,.509.519,1.139,1.139,0,0,0,1.128-.136,1.046,1.046,0,0,0,.281-.222,1.194,1.194,0,0,0,.113-1.368,1.545,1.545,0,0,0-.408-.49,1.275,1.275,0,0,0-.254-.18.758.758,0,0,0-.489-.082l-.409-1.918-.147-.69a5.26,5.26,0,0,0,1.305-.741l1.321,1.2.614.56a1.4,1.4,0,0,0-.184.517.973.973,0,0,0,.139.611,1.2,1.2,0,0,0,.113.157,1.955,1.955,0,0,0,.4.437,1,1,0,0,0,.691.226,1.139,1.139,0,0,0,.939-.64,1.043,1.043,0,0,0,.147-.326,1.194,1.194,0,0,0-.53-1.267,1.54,1.54,0,0,0-.588-.247,1.262,1.262,0,0,0-.308-.042.757.757,0,0,0-.472.152l-1.246-1.514-.368-.447a5.271,5.271,0,0,0,.88-1.318l1.583.422.8.214a1.393,1.393,0,0,0,.075.544.978.978,0,0,0,.405.479,1.24,1.24,0,0,0,.173.087,1.958,1.958,0,0,0,.557.2.993.993,0,0,0,.718-.117,1.14,1.14,0,0,0,.538-1,1.045,1.045,0,0,0-.02-.357,1.194,1.194,0,0,0-1.054-.88,1.554,1.554,0,0,0-.636.051,1.325,1.325,0,0,0-.293.1.756.756,0,0,0-.349.352l-1.8-.769-.391-.167a5.273,5.273,0,0,0,.186-1.393c0-.092,0-.184-.007-.276l1.453-.322.811-.18a1.4,1.4,0,0,0,.317.448.977.977,0,0,0,.58.238,1.206,1.206,0,0,0,.194,0,1.949,1.949,0,0,0,.588-.077,1,1,0,0,0,.584-.435A1.14,1.14,0,0,0,20.1,8.147" transform="translate(0 0)" fill="#9fc26f"/>
            </g>
          </g>
          <g id="Grupo_159813" data-name="Grupo 159813" transform="translate(22.573 10.844)">
            <g id="Grupo_159808-4" data-name="Grupo 159808" transform="translate(0 0)" clip-path="url(#clip-path-6)">
              <path id="Trazado_600213-4" data-name="Trazado 600213" d="M11.765,4.767a.611.611,0,0,0-.107-.18.7.7,0,0,0-.784-.173.9.9,0,0,0-.317.2.738.738,0,0,0-.124.133.443.443,0,0,0-.086.277L9.2,5.109l-.164.012a3.064,3.064,0,0,0-.387-.953l.614-.514.373-.312a.817.817,0,0,0,.285.147.572.572,0,0,0,.365-.033.683.683,0,0,0,.1-.053,1.158,1.158,0,0,0,.285-.2.583.583,0,0,0,.186-.383.667.667,0,0,0-.3-.595.61.61,0,0,0-.177-.111.7.7,0,0,0-.776.208.9.9,0,0,0-.19.322.762.762,0,0,0-.049.175.443.443,0,0,0,.051.286l-.976.6-.091.056a3.1,3.1,0,0,0-.82-.668l.3-.709.187-.449a.817.817,0,0,0,.321,0,.571.571,0,0,0,.309-.2.717.717,0,0,0,.065-.093,1.155,1.155,0,0,0,.162-.307A.583.583,0,0,0,8.863.916.667.667,0,0,0,8.325.525.612.612,0,0,0,8.116.509a.7.7,0,0,0-.593.542.9.9,0,0,0-.02.373A.751.751,0,0,0,7.54,1.6a.443.443,0,0,0,.177.23l-.588.986-.044.074A3.071,3.071,0,0,0,6.04,2.7l-.065-.778-.041-.484a.825.825,0,0,0,.285-.149A.572.572,0,0,0,6.4.976.725.725,0,0,0,6.417.864a1.147,1.147,0,0,0,0-.347A.585.585,0,0,0,6.213.144a.668.668,0,0,0-.658-.1.616.616,0,0,0-.193.081.7.7,0,0,0-.277.754.9.9,0,0,0,.154.34.757.757,0,0,0,.115.141.444.444,0,0,0,.263.123q-.034.573-.068,1.145l-.007.113a3.064,3.064,0,0,0-1.148.43L3.9,2.489,3.62,2.094a.82.82,0,0,0,.168-.274.572.572,0,0,0-.006-.367.723.723,0,0,0-.045-.1,1.146,1.146,0,0,0-.177-.3A.582.582,0,0,0,3.192.837a.668.668,0,0,0-.615.252.61.61,0,0,0-.124.169.7.7,0,0,0,.149.79.9.9,0,0,0,.306.213.746.746,0,0,0,.171.062.444.444,0,0,0,.288-.03L3.9,3.311l.087.168a3.1,3.1,0,0,0-.626.765l-.824-.418L2.1,3.606a.821.821,0,0,0,.023-.32.572.572,0,0,0-.174-.323.71.71,0,0,0-.088-.071,1.153,1.153,0,0,0-.294-.184.584.584,0,0,0-.425-.02.667.667,0,0,0-.43.508A.612.612,0,0,0,.681,3.4a.7.7,0,0,0,.5.632.9.9,0,0,0,.37.048.756.756,0,0,0,.18-.024A.444.444,0,0,0,1.97,3.9l.939.66.227.16a3.066,3.066,0,0,0-.187.915l-1.013.009-.486,0a.82.82,0,0,0-.127-.295.572.572,0,0,0-.3-.207.714.714,0,0,0-.111-.023,1.152,1.152,0,0,0-.346-.028.584.584,0,0,0-.387.178.667.667,0,0,0-.148.648.614.614,0,0,0,.067.2.7.7,0,0,0,.732.332.907.907,0,0,0,.351-.128.758.758,0,0,0,.149-.1.443.443,0,0,0,.142-.253l1.137.153.364.049A3.061,3.061,0,0,0,3.2,7.02l-.036.019-.925.49-.429.228a.814.814,0,0,0-.248-.2A.571.571,0,0,0,1.2,7.51a.7.7,0,0,0-.109.031,1.142,1.142,0,0,0-.32.135.584.584,0,0,0-.261.336.667.667,0,0,0,.168.644.616.616,0,0,0,.15.145.7.7,0,0,0,.8-.042.9.9,0,0,0,.252-.275.75.75,0,0,0,.084-.161.444.444,0,0,0,.01-.29l1.08-.388L3.464,7.5a3.092,3.092,0,0,0,.563.633l-.05.072-.595.861-.276.4A.815.815,0,0,0,2.791,9.4a.572.572,0,0,0-.344.129.715.715,0,0,0-.083.078,1.146,1.146,0,0,0-.222.267.584.584,0,0,0-.077.419.667.667,0,0,0,.445.494.617.617,0,0,0,.2.06.7.7,0,0,0,.693-.407.9.9,0,0,0,.1-.361.75.75,0,0,0,0-.182.444.444,0,0,0-.125-.261l.78-.842.317-.343a3.051,3.051,0,0,0,.77.319l-.012.095L5.1,9.9l-.061.482a.82.82,0,0,0-.309.086.572.572,0,0,0-.246.273.711.711,0,0,0-.037.107,1.143,1.143,0,0,0-.074.339A.584.584,0,0,0,4.5,11.6a.667.667,0,0,0,.623.233.6.6,0,0,0,.205-.04.7.7,0,0,0,.428-.68.9.9,0,0,0-.08-.365.76.76,0,0,0-.083-.162.444.444,0,0,0-.232-.175l.3-1.106.122-.443q.119.009.241.009a3.078,3.078,0,0,0,.6-.059l.022.06.362.982.168.456a.821.821,0,0,0-.235.219.57.57,0,0,0-.092.355A.706.706,0,0,0,6.87,11a1.147,1.147,0,0,0,.091.335.583.583,0,0,0,.3.3.667.667,0,0,0,.66-.08.612.612,0,0,0,.164-.13.7.7,0,0,0,.066-.8.9.9,0,0,0-.239-.287.746.746,0,0,0-.148-.105.443.443,0,0,0-.286-.048L7.237,9.062l-.086-.4a3.078,3.078,0,0,0,.764-.434l.773.7.359.327a.817.817,0,0,0-.107.3.569.569,0,0,0,.082.358.7.7,0,0,0,.066.092,1.144,1.144,0,0,0,.235.256.583.583,0,0,0,.4.132.667.667,0,0,0,.549-.375.61.61,0,0,0,.086-.191.7.7,0,0,0-.31-.741.9.9,0,0,0-.344-.145.739.739,0,0,0-.18-.025.443.443,0,0,0-.276.089l-.729-.886-.215-.261a3.085,3.085,0,0,0,.515-.771l.926.247.47.125a.815.815,0,0,0,.044.318.572.572,0,0,0,.237.28.726.726,0,0,0,.1.051,1.146,1.146,0,0,0,.326.119.581.581,0,0,0,.42-.069.667.667,0,0,0,.315-.586.612.612,0,0,0-.012-.209.7.7,0,0,0-.617-.515.91.91,0,0,0-.372.03.775.775,0,0,0-.171.061.442.442,0,0,0-.2.206L9.23,6.7,9,6.6a3.086,3.086,0,0,0,.109-.815c0-.054,0-.108,0-.162l.85-.188.475-.106a.822.822,0,0,0,.185.262.572.572,0,0,0,.34.139.706.706,0,0,0,.113,0,1.14,1.14,0,0,0,.344-.045.583.583,0,0,0,.341-.254.667.667,0,0,0,.01-.665" transform="translate(0 0)" fill="#579107"/>
            </g>
          </g>
        </g>
        <g id="Grupo_159830" data-name="Grupo 159830" transform="translate(-9433 -7098)">
          <g id="Grupo_159782" data-name="Grupo 159782" transform="translate(0 0)">
            <path id="Trazado_600183" data-name="Trazado 600183" d="M492.339,30.2c-.449-3.711-2.6-5.629-6.244-5.631q-6.837,0-13.674,0A11.178,11.178,0,0,0,460.93,34.735a4.883,4.883,0,0,0-.035,1.1,1.349,1.349,0,0,0,1.436,1.269,1.378,1.378,0,0,0,1.313-1.3,14.649,14.649,0,0,1,.748-3.4,7.9,7.9,0,0,1,7.436-5.029c4.925-.115,9.854-.048,14.782-.027a2.833,2.833,0,0,1,2.905,2.748,2.891,2.891,0,0,0,3.018,2.944,2.817,2.817,0,0,1,2.815,2.743c.063,2.613.017,5.228.017,7.947a9.947,9.947,0,0,1-1.924-.025,1.463,1.463,0,0,1-1.191-1.55,16.608,16.608,0,0,0-.068-2.213,4.411,4.411,0,0,0-5.669-3.664,23.175,23.175,0,0,1-13.984.01,4.448,4.448,0,0,0-5.759,4.261c-.013.431,0,.862-.005,1.294-.014,1.356-.558,1.913-1.891,1.933-.367.006-.734,0-1.238,0,0-.562.019-1.074,0-1.583a1.371,1.371,0,1,0-2.74-.075c-.033,2.74-.071,5.483.028,8.221a3.239,3.239,0,0,0,2.266,2.99,1.167,1.167,0,0,1,.838,1.115,15.275,15.275,0,0,0,5.651,9.748,2.224,2.224,0,0,1,.814,1.6c.353,2.191-.563,3.217-2.544,4.176a79.843,79.843,0,0,1-13.772,5.44c-5.592,1.522-8.813,5.1-9.444,10.929C433.207,73.078,429.746,47.693,446.352,29a44.43,44.43,0,0,1,64.484-1.873c17.9,17.68,16.175,44.215,3.533,59.162a31.194,31.194,0,0,0-.885-3.5,11.072,11.072,0,0,0-7.027-6.85c-2.555-.886-5.2-1.519-7.715-2.508-2.593-1.021-5.076-2.326-7.6-3.524-.857-.407-2.013-.669-2.44-1.362s-.076-1.853-.155-2.8a1.615,1.615,0,0,1,.756-1.528,15.585,15.585,0,0,0,5.75-10,1.262,1.262,0,0,1,.663-.8,3.667,3.667,0,0,0,2.419-3.59q.029-6.883,0-13.766a5.619,5.619,0,0,0-5.4-5.79c-.118-.01-.234-.042-.4-.073" transform="translate(-432.204 -11.438)" fill="#f2fbe6"/>
            <path id="Trazado_600184" data-name="Trazado 600184" d="M549.233,80.8h-4.012V70.255l4.525-6.531L555.111,62l16.981.373,2.146,3.406.56,1.773,3.312,1.213,1.446,3.405.233,9.19-4.852-.56-1.353-4.572-1.4-2.519-9.636,1.224-9.071-1.084-1.819,1.084-1.026,4.374Z" transform="translate(-515.229 -47.45)" fill="#204259"/>
            <path id="Trazado_600185" data-name="Trazado 600185" d="M582.778,122.014c0,1.209.009,2.253,0,3.3a.935.935,0,0,1-.866,1c-1.531.307-1.915.755-2.128,2.327-.838,6.172-4.823,10.473-10.729,11.581a12.957,12.957,0,0,1-14.9-10.8q-.072-.549-.145-1.1a2.018,2.018,0,0,0-1.86-1.967c-.88-.12-1.136-.564-1.107-1.365.031-.861.009-1.724.014-2.586a2.681,2.681,0,0,1,.083-.389c.524,0,1.067.018,1.609,0a4.322,4.322,0,0,0,4.191-4.211c.014-.431,0-.862.007-1.293.014-1.758.94-2.393,2.636-2.007a50.021,50.021,0,0,0,5.881,1.053,22.151,22.151,0,0,0,8.657-.981c1.859-.553,2.746.12,2.774,2.07a9.8,9.8,0,0,0,.176,2.194,4.21,4.21,0,0,0,3.962,3.172c.546.024,1.095,0,1.749,0" transform="translate(-519.61 -86.906)" fill="#fcd5d0"/>
            <path id="Trazado_600186" data-name="Trazado 600186" d="M635.785,280.457c1.722-1.813,3.374-3.506,4.972-5.249,1.1-1.2,2.147-2.458,3.185-3.716a1.375,1.375,0,0,0-.055-2.116c-.659-.532-1.406-.394-2.093.376q-2.92,3.273-5.842,6.544a3.431,3.431,0,0,1-.649.669c3.3-8.686,6.861-17.268,5.449-26.982l5.471,2.681-1.486,2.922a3.686,3.686,0,0,0,.746,4.931c1.248,1.265,1.25,1.284.464,2.935a8.045,8.045,0,0,0-.538,1.172,1.294,1.294,0,0,0,.694,1.63,1.135,1.135,0,0,0,1.633-.357,18.333,18.333,0,0,0,1.485-3.918c.274-1.229-.524-2.208-1.4-3.057-1.137-1.107-1.124-1.122-.409-2.509.449-.871.9-1.74,1.4-2.686,1.723.544,3.415,1.075,5.1,1.613.908.289,1.825.555,2.717.888a8.732,8.732,0,0,1,5.714,8.082c.056,3.087.067,3.1-2.237,5.164a44.1,44.1,0,0,1-23.568,10.979,3.23,3.23,0,0,1-.367.036c-.091,0-.182-.014-.389-.032" transform="translate(-583.074 -189.029)" fill="#557085"/>
            <path id="Trazado_600187" data-name="Trazado 600187" d="M499.4,264.924c.64,1.237,1.269,2.33,1.76,3.482a1.78,1.78,0,0,1-.23,1.231,3.386,3.386,0,0,1-.76.794,3.669,3.669,0,0,0-.9,4.228,26.857,26.857,0,0,0,4.835,7.807c2.452,2.878,5.061,5.622,7.6,8.422a2.412,2.412,0,0,1,.612.945c-1.811-.356-3.643-.626-5.428-1.082a43.52,43.52,0,0,1-20.417-11.631,2.144,2.144,0,0,1-.554-1.34,19.53,19.53,0,0,1,.156-3.676,7.748,7.748,0,0,1,4.612-6.17c2.806-1.2,5.778-2.016,8.711-3.011" transform="translate(-470.552 -200.281)" fill="#557085"/>
            <path id="Trazado_600188" data-name="Trazado 600188" d="M550.373,252.641l5.489-2.7c-.124,1.163-.3,2.222-.341,3.286-.219,5.219,1.014,10.2,2.651,15.087.877,2.619,1.951,5.173,2.937,7.755a1.493,1.493,0,0,1,.138.857c-1.548-1.686-3.133-3.34-4.635-5.066a37.758,37.758,0,0,1-5.948-8.414c-.8-1.681-.788-1.686.5-3.006a3.694,3.694,0,0,0,.761-4.782c-.5-.986-1.009-1.963-1.55-3.015" transform="translate(-518.919 -188.994)" fill="#557085"/>
            <path id="Trazado_600189" data-name="Trazado 600189" d="M588.977,225.386a16.268,16.268,0,0,0,12.726.124c.16,1.469.155,2.7-.965,3.853-1.77,1.828-3.334,3.856-5.036,5.859a3.577,3.577,0,0,1-.471-.375c-1.881-2.11-3.845-4.157-5.58-6.383-.532-.683-.432-1.86-.674-3.077" transform="translate(-548.184 -170.504)" fill="#fcd5d0"/>
            <path id="Trazado_600190" data-name="Trazado 600190" d="M605.718,324c-.8-1.745-1.538-3.521-2.42-5.223a4.905,4.905,0,0,1-.3-3.947c.687-2.257,1.187-4.572,1.775-6.9H606.9c.626,2.443,1.21,4.913,1.905,7.353a4,4,0,0,1-.252,3.073c-.92,1.854-1.726,3.763-2.58,5.65l-.255-.007" transform="translate(-558.537 -232.671)" fill="#aaa"/>
            <path id="Trazado_600191" data-name="Trazado 600191" d="M589.171,254.795c-1.189,1-2.319,1.939-3.442,2.889-.538.455-.919.327-1.4-.169a4.444,4.444,0,0,1-1.31-3.476,17.709,17.709,0,0,1,.707-5.382l5.445,6.138" transform="translate(-543.693 -188.03)" fill="#fff"/>
            <path id="Trazado_600192" data-name="Trazado 600192" d="M623.926,254.626l5.259-6.189c.21,1.291.425,2.338.538,3.4.082.759-.042,1.542.051,2.3a3.706,3.706,0,0,1-1.418,3.22,1.062,1.062,0,0,1-1,.144c-1.16-.893-2.254-1.871-3.427-2.869" transform="translate(-574.505 -187.864)" fill="#fff"/>
            <path id="Trazado_600193" data-name="Trazado 600193" d="M633.814,297.094l-1.95,6.78-.207,0c-.424-1.653-.884-3.3-1.255-4.962-.16-.717,1.081-1.879,1.8-1.822.477.038.959.007,1.615.007" transform="translate(-579.372 -224.503)" fill="#fff"/>
            <path id="Trazado_600194" data-name="Trazado 600194" d="M588.41,303.769l-1.923-6.68c.775,0,1.521-.222,1.945.053.611.4,1.441,1.2,1.38,1.748a36.263,36.263,0,0,1-1.172,4.9l-.23-.019" transform="translate(-546.309 -224.442)" fill="#fff"/>
            <path id="Trazado_600195" data-name="Trazado 600195" d="M604.988,283.758l2.713-2.266,2.517,2.153c-.711.5-.727,1.569-1.843,1.572-2.316.007-2.316.04-3.387-1.459" transform="translate(-560.242 -212.759)" fill="#aaa"/>
            <path id="Trazado_600196" data-name="Trazado 600196" d="M423.731,53.329V47.416c.054-.268.119-.534.159-.8.32-2.158.527-4.339.969-6.471A47.309,47.309,0,0,1,462.794,3.8c1.755-.286,3.523-.49,5.286-.732h5.913c.88.114,1.76.235,2.641.342A45.416,45.416,0,0,1,504.66,17.153c11.735,12.188,15.926,26.759,12.558,43.333-4.249,20.91-23.3,36.674-44.641,37.171a46.316,46.316,0,0,1-30.084-9.591,46.62,46.62,0,0,1-18.034-29.538c-.315-1.719-.488-3.465-.727-5.2m60.135-31.5c.165.031.281.062.4.073a5.619,5.619,0,0,1,5.4,5.79q.041,6.883,0,13.766a3.666,3.666,0,0,1-2.419,3.59,1.262,1.262,0,0,0-.663.8,15.584,15.584,0,0,1-5.75,10,1.615,1.615,0,0,0-.756,1.528c.079.947-.275,2.1.155,2.8s1.583.955,2.44,1.362c2.522,1.2,5,2.5,7.6,3.524,2.511.988,5.16,1.622,7.715,2.508a11.07,11.07,0,0,1,7.027,6.85,31.194,31.194,0,0,1,.886,3.5c12.642-14.948,14.366-41.483-3.534-59.162a44.43,44.43,0,0,0-64.484,1.873c-16.605,18.69-13.145,44.075-1.624,57.336.631-5.825,3.852-9.407,9.444-10.929a79.83,79.83,0,0,0,13.772-5.44c1.982-.959,2.9-1.985,2.544-4.176a2.225,2.225,0,0,0-.814-1.6,15.274,15.274,0,0,1-5.651-9.748,1.167,1.167,0,0,0-.838-1.115,3.239,3.239,0,0,1-2.266-2.99c-.1-2.737-.061-5.481-.028-8.221a1.371,1.371,0,1,1,2.74.075c.023.51,0,1.022,0,1.583.5,0,.871,0,1.238,0,1.333-.02,1.877-.577,1.891-1.933,0-.431-.008-.863.006-1.293a4.448,4.448,0,0,1,5.759-4.261,23.177,23.177,0,0,0,13.984-.01,4.411,4.411,0,0,1,5.669,3.664,16.619,16.619,0,0,1,.068,2.213,1.463,1.463,0,0,0,1.191,1.55,9.945,9.945,0,0,0,1.924.025c0-2.718.046-5.334-.017-7.947a2.817,2.817,0,0,0-2.815-2.743,2.891,2.891,0,0,1-3.018-2.944,2.834,2.834,0,0,0-2.905-2.748c-4.927-.02-9.857-.088-14.782.027a7.9,7.9,0,0,0-7.436,5.029,14.662,14.662,0,0,0-.748,3.4,1.378,1.378,0,0,1-1.313,1.3,1.349,1.349,0,0,1-1.436-1.269,4.886,4.886,0,0,1,.035-1.1A11.178,11.178,0,0,1,463.948,16.2q6.837-.007,13.674,0c3.641,0,5.8,1.92,6.244,5.631M486.9,38.174c-.654,0-1.2.02-1.749,0A4.211,4.211,0,0,1,481.189,35a9.772,9.772,0,0,1-.176-2.194c-.028-1.949-.915-2.623-2.774-2.07a22.156,22.156,0,0,1-8.657.981,49.98,49.98,0,0,1-5.881-1.053c-1.7-.386-2.622.249-2.636,2.007,0,.431.007.862-.007,1.293a4.321,4.321,0,0,1-4.191,4.211c-.542.021-1.085,0-1.609,0a2.63,2.63,0,0,0-.083.389c-.006.862.017,1.725-.015,2.585-.029.8.227,1.245,1.107,1.365a2.019,2.019,0,0,1,1.861,1.967q.073.549.145,1.1a12.957,12.957,0,0,0,14.9,10.8c5.906-1.108,9.891-5.409,10.729-11.581.213-1.571.6-2.02,2.128-2.327a.934.934,0,0,0,.866-1c.013-1.044,0-2.088,0-3.3M476.442,94.5c.207.018.3.035.389.032a3.338,3.338,0,0,0,.368-.036,44.1,44.1,0,0,0,23.567-10.979c2.3-2.065,2.294-2.077,2.238-5.164a8.732,8.732,0,0,0-5.714-8.082c-.892-.333-1.809-.6-2.716-.888-1.69-.537-3.382-1.069-5.1-1.613-.492.946-.947,1.815-1.4,2.686-.715,1.386-.727,1.4.409,2.509.872.849,1.67,1.828,1.4,3.057a18.324,18.324,0,0,1-1.485,3.918,1.136,1.136,0,0,1-1.634.357,1.293,1.293,0,0,1-.694-1.631,8.018,8.018,0,0,1,.538-1.172c.786-1.652.783-1.67-.464-2.935a3.686,3.686,0,0,1-.746-4.931c.484-.953.969-1.905,1.486-2.922l-5.471-2.681c1.412,9.714-2.153,18.3-5.449,26.982a3.427,3.427,0,0,0,.649-.669q2.916-3.276,5.842-6.543c.687-.77,1.434-.909,2.093-.376a1.374,1.374,0,0,1,.055,2.116c-1.038,1.258-2.083,2.514-3.185,3.716-1.6,1.743-3.25,3.436-4.972,5.249M452.574,67.71c-2.933.994-5.905,1.808-8.711,3.01a7.748,7.748,0,0,0-4.611,6.17,19.525,19.525,0,0,0-.157,3.676,2.144,2.144,0,0,0,.554,1.34,43.52,43.52,0,0,0,20.416,11.631c1.785.456,3.618.727,5.429,1.082a2.408,2.408,0,0,0-.612-.945c-2.543-2.8-5.153-5.544-7.6-8.422a26.857,26.857,0,0,1-4.836-7.807,3.669,3.669,0,0,1,.9-4.228,3.378,3.378,0,0,0,.76-.794,1.78,1.78,0,0,0,.231-1.23c-.491-1.152-1.12-2.245-1.76-3.482m2.61-1c.541,1.052,1.054,2.029,1.55,3.015a3.694,3.694,0,0,1-.761,4.782c-1.286,1.319-1.3,1.325-.5,3.006a37.758,37.758,0,0,0,5.947,8.414c1.5,1.726,3.087,3.38,4.635,5.066a1.5,1.5,0,0,0-.138-.857c-.986-2.583-2.06-5.136-2.937-7.755-1.637-4.888-2.87-9.868-2.651-15.087.044-1.064.216-2.123.341-3.286l-5.489,2.7m9.339-8.764c.242,1.217.142,2.394.674,3.077,1.734,2.225,3.7,4.272,5.579,6.383a3.571,3.571,0,0,0,.471.375c1.7-2,3.266-4.031,5.036-5.859,1.12-1.157,1.126-2.383.965-3.853a16.266,16.266,0,0,1-12.726-.124m6.388,36.445.255.007c.854-1.887,1.66-3.8,2.58-5.65A4,4,0,0,0,474,85.679c-.695-2.439-1.279-4.91-1.905-7.353h-2.123c-.588,2.326-1.087,4.641-1.775,6.9a4.906,4.906,0,0,0,.3,3.947c.882,1.7,1.62,3.479,2.42,5.223m-1.7-24.563-5.445-6.138a17.711,17.711,0,0,0-.707,5.382,4.446,4.446,0,0,0,1.31,3.476c.482.5.863.624,1.4.169,1.123-.95,2.253-1.892,3.442-2.89m3.943,0c1.172,1,2.266,1.976,3.427,2.869a1.062,1.062,0,0,0,1-.144A3.706,3.706,0,0,0,479,69.333c-.093-.757.031-1.539-.051-2.3-.114-1.057-.328-2.1-.538-3.4l-5.259,6.189m5.022,5.829c-.656,0-1.138.03-1.615-.007-.717-.056-1.957,1.105-1.8,1.822.372,1.664.831,3.309,1.255,4.962l.207,0,1.95-6.78m-12.341,6.736.23.019a36.339,36.339,0,0,0,1.172-4.9c.061-.543-.769-1.351-1.381-1.748-.423-.275-1.169-.053-1.944-.053l1.923,6.68m2.644-8.328c1.071,1.5,1.071,1.465,3.386,1.459,1.117,0,1.132-1.069,1.843-1.572L471.189,71.8l-2.713,2.266" transform="translate(-423.731 -3.067)"/>
          </g>
          <g id="Grupo_159808-5" data-name="Grupo 159808" transform="translate(65.85 35.601)" opacity="0.53">
            <g id="Grupo_159808-6" data-name="Grupo 159808" transform="translate(0 0)" clip-path="url(#clip-path-9)">
              <path id="Trazado_600213-5" data-name="Trazado 600213" d="M22.6,9.157a1.174,1.174,0,0,0-.2-.345,1.342,1.342,0,0,0-1.507-.333,1.736,1.736,0,0,0-.608.381,1.417,1.417,0,0,0-.238.255.851.851,0,0,0-.166.532l-2.2.166-.316.024a5.884,5.884,0,0,0-.743-1.831l1.18-.988.716-.6a1.569,1.569,0,0,0,.548.283,1.1,1.1,0,0,0,.7-.063,1.312,1.312,0,0,0,.193-.1,2.223,2.223,0,0,0,.547-.381,1.12,1.12,0,0,0,.357-.736,1.281,1.281,0,0,0-.572-1.142,1.173,1.173,0,0,0-.341-.213,1.341,1.341,0,0,0-1.491.4,1.731,1.731,0,0,0-.364.618A1.463,1.463,0,0,0,18,5.416a.851.851,0,0,0,.1.549l-1.874,1.16-.174.108A5.945,5.945,0,0,0,14.473,5.95l.568-1.362.359-.862a1.568,1.568,0,0,0,.617,0,1.1,1.1,0,0,0,.594-.379,1.377,1.377,0,0,0,.124-.179,2.219,2.219,0,0,0,.31-.591,1.121,1.121,0,0,0-.023-.818,1.281,1.281,0,0,0-1.034-.751,1.175,1.175,0,0,0-.4-.031,1.341,1.341,0,0,0-1.14,1.04,1.737,1.737,0,0,0-.039.716,1.442,1.442,0,0,0,.071.342.85.85,0,0,0,.34.442l-1.13,1.893-.085.143A5.9,5.9,0,0,0,11.6,5.195q-.062-.747-.125-1.494L11.4,2.771a1.585,1.585,0,0,0,.547-.285,1.1,1.1,0,0,0,.353-.61,1.392,1.392,0,0,0,.028-.216,2.2,2.2,0,0,0,0-.667,1.123,1.123,0,0,0-.4-.716A1.283,1.283,0,0,0,10.67.087a1.183,1.183,0,0,0-.37.156,1.342,1.342,0,0,0-.532,1.449,1.731,1.731,0,0,0,.3.653,1.453,1.453,0,0,0,.221.271.853.853,0,0,0,.5.236q-.065,1.1-.131,2.2l-.013.217a5.885,5.885,0,0,0-2.206.827L7.5,4.781l-.545-.759A1.575,1.575,0,0,0,7.275,3.5a1.1,1.1,0,0,0-.011-.705,1.389,1.389,0,0,0-.087-.2,2.2,2.2,0,0,0-.339-.574,1.118,1.118,0,0,0-.708-.411,1.283,1.283,0,0,0-1.182.485,1.172,1.172,0,0,0-.237.324A1.341,1.341,0,0,0,5,3.933a1.729,1.729,0,0,0,.589.409,1.433,1.433,0,0,0,.329.119A.854.854,0,0,0,6.47,4.4L7.486,6.36l.167.322a5.954,5.954,0,0,0-1.2,1.469l-1.583-.8-.833-.423a1.576,1.576,0,0,0,.045-.616,1.1,1.1,0,0,0-.334-.621,1.364,1.364,0,0,0-.169-.137A2.214,2.214,0,0,0,3.012,5.2a1.123,1.123,0,0,0-.817-.038,1.28,1.28,0,0,0-.825.975,1.176,1.176,0,0,0-.061.4,1.341,1.341,0,0,0,.953,1.214,1.738,1.738,0,0,0,.711.092,1.452,1.452,0,0,0,.346-.046.853.853,0,0,0,.466-.306l1.8,1.267.437.307a5.89,5.89,0,0,0-.359,1.757l-1.946.018-.934.008a1.575,1.575,0,0,0-.244-.566,1.1,1.1,0,0,0-.582-.4,1.371,1.371,0,0,0-.214-.043,2.212,2.212,0,0,0-.665-.053,1.122,1.122,0,0,0-.743.342,1.282,1.282,0,0,0-.284,1.245,1.179,1.179,0,0,0,.128.381,1.342,1.342,0,0,0,1.405.638,1.741,1.741,0,0,0,.674-.246,1.457,1.457,0,0,0,.286-.2.852.852,0,0,0,.272-.486L5,11.753l.7.095a5.879,5.879,0,0,0,.448,1.635l-.069.037-1.776.942L3.48,14.9A1.563,1.563,0,0,0,3,14.51a1.1,1.1,0,0,0-.7-.085,1.34,1.34,0,0,0-.209.06,2.193,2.193,0,0,0-.615.259,1.122,1.122,0,0,0-.5.646A1.282,1.282,0,0,0,1.3,16.626a1.183,1.183,0,0,0,.289.279,1.342,1.342,0,0,0,1.541-.08,1.734,1.734,0,0,0,.485-.529,1.44,1.44,0,0,0,.162-.309.852.852,0,0,0,.018-.557l2.074-.745.785-.282a5.939,5.939,0,0,0,1.081,1.215l-.1.139L6.5,17.411l-.531.768a1.564,1.564,0,0,0-.6-.127,1.1,1.1,0,0,0-.66.247,1.373,1.373,0,0,0-.159.15,2.2,2.2,0,0,0-.426.513,1.122,1.122,0,0,0-.148.8,1.281,1.281,0,0,0,.856.949,1.186,1.186,0,0,0,.385.115,1.342,1.342,0,0,0,1.331-.782,1.73,1.73,0,0,0,.187-.693,1.441,1.441,0,0,0,0-.349.853.853,0,0,0-.241-.5l1.5-1.617.61-.658a5.86,5.86,0,0,0,1.478.612l-.023.182L9.8,19.019l-.117.927a1.575,1.575,0,0,0-.594.166,1.1,1.1,0,0,0-.472.524,1.366,1.366,0,0,0-.072.206,2.2,2.2,0,0,0-.142.652,1.122,1.122,0,0,0,.239.782,1.281,1.281,0,0,0,1.2.448,1.16,1.16,0,0,0,.394-.076,1.342,1.342,0,0,0,.822-1.306,1.737,1.737,0,0,0-.153-.7,1.461,1.461,0,0,0-.16-.31.852.852,0,0,0-.445-.335l.585-2.125.234-.851q.229.017.464.018a5.913,5.913,0,0,0,1.155-.113l.043.116.695,1.886.323.876a1.576,1.576,0,0,0-.451.421,1.1,1.1,0,0,0-.177.682,1.355,1.355,0,0,0,.031.216,2.2,2.2,0,0,0,.174.644,1.119,1.119,0,0,0,.573.584,1.281,1.281,0,0,0,1.268-.153,1.175,1.175,0,0,0,.315-.249,1.342,1.342,0,0,0,.127-1.538,1.736,1.736,0,0,0-.459-.551,1.433,1.433,0,0,0-.285-.2.851.851,0,0,0-.549-.093q-.23-1.078-.46-2.156l-.166-.776A5.912,5.912,0,0,0,15.2,15.8l1.484,1.353.69.629a1.57,1.57,0,0,0-.206.581,1.093,1.093,0,0,0,.157.687,1.347,1.347,0,0,0,.127.177,2.2,2.2,0,0,0,.451.491,1.119,1.119,0,0,0,.777.254,1.28,1.28,0,0,0,1.055-.72,1.173,1.173,0,0,0,.165-.366,1.342,1.342,0,0,0-.6-1.424,1.731,1.731,0,0,0-.661-.278,1.419,1.419,0,0,0-.346-.048.851.851,0,0,0-.53.17l-1.4-1.7-.413-.5a5.925,5.925,0,0,0,.989-1.482l1.779.474.9.24a1.565,1.565,0,0,0,.084.611,1.1,1.1,0,0,0,.456.538,1.394,1.394,0,0,0,.194.1,2.2,2.2,0,0,0,.627.228,1.117,1.117,0,0,0,.807-.132,1.281,1.281,0,0,0,.6-1.125,1.175,1.175,0,0,0-.022-.4,1.343,1.343,0,0,0-1.185-.99,1.747,1.747,0,0,0-.715.058,1.489,1.489,0,0,0-.329.117.849.849,0,0,0-.392.4l-2.027-.865-.439-.187a5.927,5.927,0,0,0,.209-1.565c0-.1,0-.207-.008-.31l1.633-.362.912-.2a1.578,1.578,0,0,0,.356.5,1.1,1.1,0,0,0,.652.267,1.356,1.356,0,0,0,.218,0,2.19,2.19,0,0,0,.661-.087,1.121,1.121,0,0,0,.656-.489A1.281,1.281,0,0,0,22.6,9.157" transform="translate(0 0)" fill="#579107"/>
            </g>
          </g>
          <g id="Grupo_159811" data-name="Grupo 159811" transform="translate(13.469 22.681)">
            <g id="Grupo_159808-7" data-name="Grupo 159808" transform="translate(0 0)" clip-path="url(#clip-path-6)">
              <path id="Trazado_600213-6" data-name="Trazado 600213" d="M11.765,4.767a.611.611,0,0,0-.107-.18.7.7,0,0,0-.784-.173.9.9,0,0,0-.317.2.738.738,0,0,0-.124.133.443.443,0,0,0-.086.277L9.2,5.109l-.164.012a3.064,3.064,0,0,0-.387-.953l.614-.514.373-.312a.817.817,0,0,0,.285.147.572.572,0,0,0,.365-.033.683.683,0,0,0,.1-.053,1.158,1.158,0,0,0,.285-.2.583.583,0,0,0,.186-.383.667.667,0,0,0-.3-.595.61.61,0,0,0-.177-.111.7.7,0,0,0-.776.208.9.9,0,0,0-.19.322.762.762,0,0,0-.049.175.443.443,0,0,0,.051.286l-.976.6-.091.056a3.1,3.1,0,0,0-.82-.668l.3-.709.187-.449a.817.817,0,0,0,.321,0,.571.571,0,0,0,.309-.2.717.717,0,0,0,.065-.093,1.155,1.155,0,0,0,.162-.307A.583.583,0,0,0,8.863.916.667.667,0,0,0,8.325.525.612.612,0,0,0,8.116.509a.7.7,0,0,0-.593.542.9.9,0,0,0-.02.373A.751.751,0,0,0,7.54,1.6a.443.443,0,0,0,.177.23l-.588.986-.044.074A3.071,3.071,0,0,0,6.04,2.7l-.065-.778-.041-.484a.825.825,0,0,0,.285-.149A.572.572,0,0,0,6.4.976.725.725,0,0,0,6.417.864a1.147,1.147,0,0,0,0-.347A.585.585,0,0,0,6.213.144a.668.668,0,0,0-.658-.1.616.616,0,0,0-.193.081.7.7,0,0,0-.277.754.9.9,0,0,0,.154.34.757.757,0,0,0,.115.141.444.444,0,0,0,.263.123q-.034.573-.068,1.145l-.007.113a3.064,3.064,0,0,0-1.148.43L3.9,2.489,3.62,2.094a.82.82,0,0,0,.168-.274.572.572,0,0,0-.006-.367.723.723,0,0,0-.045-.1,1.146,1.146,0,0,0-.177-.3A.582.582,0,0,0,3.192.837a.668.668,0,0,0-.615.252.61.61,0,0,0-.124.169.7.7,0,0,0,.149.79.9.9,0,0,0,.306.213.746.746,0,0,0,.171.062.444.444,0,0,0,.288-.03L3.9,3.311l.087.168a3.1,3.1,0,0,0-.626.765l-.824-.418L2.1,3.606a.821.821,0,0,0,.023-.32.572.572,0,0,0-.174-.323.71.71,0,0,0-.088-.071,1.153,1.153,0,0,0-.294-.184.584.584,0,0,0-.425-.02.667.667,0,0,0-.43.508A.612.612,0,0,0,.681,3.4a.7.7,0,0,0,.5.632.9.9,0,0,0,.37.048.756.756,0,0,0,.18-.024A.444.444,0,0,0,1.97,3.9l.939.66.227.16a3.066,3.066,0,0,0-.187.915l-1.013.009-.486,0a.82.82,0,0,0-.127-.295.572.572,0,0,0-.3-.207.714.714,0,0,0-.111-.023,1.152,1.152,0,0,0-.346-.028.584.584,0,0,0-.387.178.667.667,0,0,0-.148.648.614.614,0,0,0,.067.2.7.7,0,0,0,.732.332.907.907,0,0,0,.351-.128.758.758,0,0,0,.149-.1.443.443,0,0,0,.142-.253l1.137.153.364.049A3.061,3.061,0,0,0,3.2,7.02l-.036.019-.925.49-.429.228a.814.814,0,0,0-.248-.2A.571.571,0,0,0,1.2,7.51a.7.7,0,0,0-.109.031,1.142,1.142,0,0,0-.32.135.584.584,0,0,0-.261.336.667.667,0,0,0,.168.644.616.616,0,0,0,.15.145.7.7,0,0,0,.8-.042.9.9,0,0,0,.252-.275.75.75,0,0,0,.084-.161.444.444,0,0,0,.01-.29l1.08-.388L3.464,7.5a3.092,3.092,0,0,0,.563.633l-.05.072-.595.861-.276.4A.815.815,0,0,0,2.791,9.4a.572.572,0,0,0-.344.129.715.715,0,0,0-.083.078,1.146,1.146,0,0,0-.222.267.584.584,0,0,0-.077.419.667.667,0,0,0,.445.494.617.617,0,0,0,.2.06.7.7,0,0,0,.693-.407.9.9,0,0,0,.1-.361.75.75,0,0,0,0-.182.444.444,0,0,0-.125-.261l.78-.842.317-.343a3.051,3.051,0,0,0,.77.319l-.012.095L5.1,9.9l-.061.482a.82.82,0,0,0-.309.086.572.572,0,0,0-.246.273.711.711,0,0,0-.037.107,1.143,1.143,0,0,0-.074.339A.584.584,0,0,0,4.5,11.6a.667.667,0,0,0,.623.233.6.6,0,0,0,.205-.04.7.7,0,0,0,.428-.68.9.9,0,0,0-.08-.365.76.76,0,0,0-.083-.162.444.444,0,0,0-.232-.175l.3-1.106.122-.443q.119.009.241.009a3.078,3.078,0,0,0,.6-.059l.022.06.362.982.168.456a.821.821,0,0,0-.235.219.57.57,0,0,0-.092.355A.706.706,0,0,0,6.87,11a1.147,1.147,0,0,0,.091.335.583.583,0,0,0,.3.3.667.667,0,0,0,.66-.08.612.612,0,0,0,.164-.13.7.7,0,0,0,.066-.8.9.9,0,0,0-.239-.287.746.746,0,0,0-.148-.105.443.443,0,0,0-.286-.048L7.237,9.062l-.086-.4a3.078,3.078,0,0,0,.764-.434l.773.7.359.327a.817.817,0,0,0-.107.3.569.569,0,0,0,.082.358.7.7,0,0,0,.066.092,1.144,1.144,0,0,0,.235.256.583.583,0,0,0,.4.132.667.667,0,0,0,.549-.375.61.61,0,0,0,.086-.191.7.7,0,0,0-.31-.741.9.9,0,0,0-.344-.145.739.739,0,0,0-.18-.025.443.443,0,0,0-.276.089l-.729-.886-.215-.261a3.085,3.085,0,0,0,.515-.771l.926.247.47.125a.815.815,0,0,0,.044.318.572.572,0,0,0,.237.28.726.726,0,0,0,.1.051,1.146,1.146,0,0,0,.326.119.581.581,0,0,0,.42-.069.667.667,0,0,0,.315-.586.612.612,0,0,0-.012-.209.7.7,0,0,0-.617-.515.91.91,0,0,0-.372.03.775.775,0,0,0-.171.061.442.442,0,0,0-.2.206L9.23,6.7,9,6.6a3.086,3.086,0,0,0,.109-.815c0-.054,0-.108,0-.162l.85-.188.475-.106a.822.822,0,0,0,.185.262.572.572,0,0,0,.34.139.706.706,0,0,0,.113,0,1.14,1.14,0,0,0,.344-.045.583.583,0,0,0,.341-.254.667.667,0,0,0,.01-.665" transform="translate(0 0)" fill="#579107"/>
            </g>
          </g>
          <path id="Trazado_600216" data-name="Trazado 600216" d="M583.17,4277.967s4.4-2.884,8.459-.352" transform="translate(-540.093 -4232.063)" fill="none" stroke="#000" stroke-linecap="round" stroke-width="3"/>
        </g>
      </g>
    </g>
  </g>
</svg>
