<svg xmlns="http://www.w3.org/2000/svg" xmlns:xlink="http://www.w3.org/1999/xlink" width="85" height="85" viewBox="0 0 85 85">
  <defs>
    <clipPath id="clip-path">
      <rect id="Rectángulo_46278" data-name="Rectángulo 46278" width="45.208" height="56.01" fill="#fff"/>
    </clipPath>
  </defs>
  <g id="Grupo_160304" data-name="Grupo 160304" transform="translate(-285 -7556)">
    <circle id="Elipse_5642" data-name="Elipse 5642" cx="42.5" cy="42.5" r="42.5" transform="translate(285 7556)" fill="#4462fe"/>
    <g id="Grupo_160149" data-name="Grupo 160149" transform="translate(535 7570)">
      <g id="Grupo_160148" data-name="Grupo 160148" transform="translate(-230)" clip-path="url(#clip-path)">
        <path id="Trazado_600300" data-name="Trazado 600300" d="M94.973,96.869l0-2.2c0-2.367.008-4.806-.006-7.2a6.931,6.931,0,0,0-7.033-7.029l-.73,0c-1.3-.007-2.619-.015-3.936-.015-1.515,0-2.831.01-4.022.031a6.706,6.706,0,0,0-6.561,6.363c-.06,1.221-.053,2.472-.046,3.681,0,.386,0,.768,0,1.149q0,.666,0,1.333c0,1.5-.009,3.049.049,4.566a2.818,2.818,0,0,0,2.217,2.7,7.107,7.107,0,0,0,1.355.152c.221.011.47.023.724.046l.359.032v3.571q0,7.734,0,15.468v.073c0,.239,0,.486.021.718a3.637,3.637,0,0,0,5.848,2.722A.968.968,0,0,1,84.37,123l.216.112A4.763,4.763,0,0,0,86,123.67a3.7,3.7,0,0,0,3-.815,3.775,3.775,0,0,0,1.26-2.91c.009-4.456.007-9.1.005-13.2q0-2.66,0-5.321v-1.17l.582.074.206.026a3.266,3.266,0,0,0,3.927-3.487M93.07,94.8q0,1.179-.008,2.359a1.327,1.327,0,0,1-1.342,1.372,1.363,1.363,0,0,1-1.452-1.288c-.028-.474-.024-.951-.02-1.411,0-.168,0-.337,0-.5q0-1.385,0-2.769,0-2.492,0-4.983c0-.765-.281-1.182-.832-1.238a.845.845,0,0,0-1,.718,3.968,3.968,0,0,0-.066.8q0,12.736,0,25.472v6.277c0,.193,0,.39-.011.59a1.754,1.754,0,0,1-1.648,1.67,1.806,1.806,0,0,1-1.911-1.381,3.927,3.927,0,0,1-.066-.847q0-4.833,0-9.666v-6.827a3.564,3.564,0,0,0-.025-.549.911.911,0,0,0-1.81.029,5.21,5.21,0,0,0-.024.623v5.618q0,5.348,0,10.7a4.358,4.358,0,0,1-.081.967,1.768,1.768,0,0,1-1.758,1.35c-.058,0-.117,0-.177-.008a1.732,1.732,0,0,1-1.585-1.58,6.412,6.412,0,0,1-.021-.648v-.1q0-6.583,0-13.168V99.269q0-5.813,0-11.626c0-1.205-.554-1.284-.82-1.322a.838.838,0,0,0-.994.645,2.908,2.908,0,0,0-.079.719q0,2.294,0,4.587,0,2.352,0,4.7a1.58,1.58,0,0,1-.6,1.3,1.38,1.38,0,0,1-1.254.19,1.231,1.231,0,0,1-.955-1.234q0-1.457,0-2.914c-.006-2.4-.013-4.888.032-7.331a4.831,4.831,0,0,1,4.9-4.661c3.045-.034,6.021-.056,8.952.052a4.845,4.845,0,0,1,4.652,4.776c.042,2.552.032,5.144.022,7.65" transform="translate(-61.196 -67.751)" fill="#fff"/>
        <path id="Trazado_600301" data-name="Trazado 600301" d="M209.626,108.724c.022-2.266.041-5.247-.009-8.214a5.3,5.3,0,0,0-4.2-5.189,26.881,26.881,0,0,0-5.145-.195l-.663.016a.732.732,0,0,0-.63.364.952.952,0,0,0-.027.909,1.046,1.046,0,0,0,1.075.545c.488,0,.976,0,1.465,0h.059c.789,0,1.594,0,2.386.008a3.692,3.692,0,0,1,3.8,3.436,8.461,8.461,0,0,1,.039,1.081c0,.09,0,.178,0,.265q0,1.158,0,2.316c0,1.43,0,2.909.007,4.368a1.128,1.128,0,0,1-.278.843.943.943,0,0,1-.7.258c-.343,0-.918-.142-.921-1.092V106.41q0-2.592,0-5.184a3.99,3.99,0,0,0-.053-.7.887.887,0,0,0-.853-.752.87.87,0,0,0-.908.679,3.446,3.446,0,0,0-.064.786q0,7.557,0,15.113v10.331c0,1.394-.867,1.569-1.24,1.58a1.154,1.154,0,0,1-.843-.313,1.7,1.7,0,0,1-.452-1.229c0-.1,0-.2,0-.3V124q0-5.181,0-10.361v-.058a4.373,4.373,0,0,0-.026-.6.877.877,0,0,0-.9-.792.891.891,0,0,0-.907.8,4.129,4.129,0,0,0-.021.55v5.188q0,4.028,0,8.056a1.3,1.3,0,0,1-1.255,1.44c-.771.019-1.248-.512-1.282-1.4,0-.116,0-.232,0-.348v-3.261q0-4.031,0-8.062c0-.7-.342-1.126-.913-1.147a.854.854,0,0,0-.631.23,1.161,1.161,0,0,0-.314.848q0,1.246-.01,2.492c-.014,3.118-.028,6.343.029,9.511a3.044,3.044,0,0,0,1.537,2.639,3.156,3.156,0,0,0,3.164-.064,1.129,1.129,0,0,1,.576-.179,1.143,1.143,0,0,1,.612.2,2.933,2.933,0,0,0,2.263.381,3.128,3.128,0,0,0,2.493-3.336q.008-4.994,0-9.987v-5.314h.64c.136,0,.249,0,.361,0a2.7,2.7,0,0,0,2.752-2.712" transform="translate(-164.441 -80.116)" fill="#fff"/>
        <path id="Trazado_600302" data-name="Trazado 600302" d="M3.788,116.714h0c0,3.262,0,6.635.005,9.981a3.275,3.275,0,0,0,1.523,2.937,3.314,3.314,0,0,0,3.346-.119,1.027,1.027,0,0,1,.488-.119.785.785,0,0,1,.438.119,3.06,3.06,0,0,0,3.2.127,3.358,3.358,0,0,0,1.705-3.121c-.059-2.532-.046-5.1-.034-7.592v-.019c.006-1.175.012-2.39.01-3.584a3.193,3.193,0,0,0-.073-.73.872.872,0,0,0-1.066-.638c-.389.09-.749.3-.749,1.236q0,4.018,0,8.036v3.091c0,.05,0,.1,0,.151,0,.131,0,.265,0,.4a1.25,1.25,0,0,1-1.221,1.258,1.225,1.225,0,0,1-1.291-1.182,4.16,4.16,0,0,1-.014-.493c0-.047,0-.093,0-.14v-3.579q0-4.573,0-9.146a4.918,4.918,0,0,0-.04-.763.869.869,0,0,0-.891-.742c-.81,0-.931.731-.931,1.165q0,4.352,0,8.7v4.5c0,.038,0,.077,0,.115a2.661,2.661,0,0,1-.029.548,1.234,1.234,0,0,1-1.184,1.043,1.126,1.126,0,0,1-1.258-.978,4.922,4.922,0,0,1-.07-.828q0-5.977,0-11.956v-1.38q0-6.087,0-12.175c0-.435-.12-1.166-.923-1.17a.856.856,0,0,0-.622.228,1.288,1.288,0,0,0-.308.929q-.009,2.223,0,4.445v.194q0,1.261,0,2.522c0,.043,0,.087,0,.133a1.2,1.2,0,0,1-.114.708,1.155,1.155,0,0,1-.913.574c-.342-.016-.58-.315-.793-.621a.769.769,0,0,1-.094-.54c0-.038.007-.066.007-.092v-2.035q0-2.534,0-5.068a3.908,3.908,0,0,1,4.193-4.19c.417,0,.835,0,1.252,0h.024c.65,0,1.387,0,2.091-.011a2.039,2.039,0,0,0,.805-.17.832.832,0,0,0,.414-.949.937.937,0,0,0-1.045-.761H9.148c-1.336,0-2.717,0-4.065.092a5.62,5.62,0,0,0-5.044,5.194c-.063,2.788-.037,5.626-.012,8.372v.138a2.543,2.543,0,0,0,1.878,2.419,5.709,5.709,0,0,0,.975.154c.182.019.371.038.568.065l.341.047v1.044q0,2.111,0,4.222" transform="translate(0 -80.009)" fill="#fff"/>
        <path id="Trazado_600303" data-name="Trazado 600303" d="M110.7,5.121a5.182,5.182,0,0,0,5.137,5.13,5.135,5.135,0,0,0,3.672-1.559,5,5,0,0,0,1.471-3.586A5.172,5.172,0,0,0,115.857,0h-.044a5.156,5.156,0,0,0-5.108,5.12M115.82,1.87A3.276,3.276,0,0,1,119.1,5.107a3.28,3.28,0,0,1-3.224,3.29h-.047a3.191,3.191,0,0,1-2.242-.926A3.241,3.241,0,0,1,112.6,5.16,3.274,3.274,0,0,1,115.82,1.87" transform="translate(-93.268)" fill="#fff"/>
        <path id="Trazado_600304" data-name="Trazado 600304" d="M206.1,34.218h0a4.285,4.285,0,0,0,.02-8.569H206.1a4.326,4.326,0,0,0-3.038,1.28,4.192,4.192,0,0,0-1.252,3.018,4.321,4.321,0,0,0,4.293,4.271m-1.714-5.973a2.386,2.386,0,0,1,1.7-.723h.019a2.424,2.424,0,0,1,2.408,2.362,2.429,2.429,0,0,1-2.4,2.46H206.1a2.411,2.411,0,0,1-1.713-4.1" transform="translate(-170.024 -21.609)" fill="#fff"/>
        <path id="Trazado_600305" data-name="Trazado 600305" d="M30.565,29.366a4.293,4.293,0,0,0,4.28,4.273h.009a4.315,4.315,0,0,0,4.289-4.258,4.354,4.354,0,0,0-4.264-4.315h-.043a4.32,4.32,0,0,0-4.271,4.3m4.274-2.4h.01a2.409,2.409,0,0,1,0,4.817h-.025a2.434,2.434,0,0,1-2.386-2.454,2.412,2.412,0,0,1,2.4-2.363" transform="translate(-25.751 -21.118)" fill="#fff"/>
      </g>
    </g>
  </g>
</svg>
