<svg xmlns="http://www.w3.org/2000/svg" xmlns:xlink="http://www.w3.org/1999/xlink" width="1240" height="1225" viewBox="0 0 1240 1225">
  <defs>
    <clipPath id="clip-path">
      <path id="Trazado_165450" data-name="Trazado 165450" d="M1.917,0A1.872,1.872,0,0,0,0,1.824,1.872,1.872,0,0,0,1.918,3.647,1.872,1.872,0,0,0,3.835,1.825,1.875,1.875,0,0,0,1.917,0Z" fill="#69489b"/>
    </clipPath>
  </defs>
  <g id="Grupo_160856" data-name="Grupo 160856" transform="translate(-180.333 -482)">
    <g id="Grupo_160217" data-name="Grupo 160217" transform="translate(0 -9)">
      <rect id="Rectángulo_46307" data-name="Rectángulo 46307" width="1240" height="867" transform="translate(180.333 491)" fill="#fff"/>
      <g id="Grupo_160213" data-name="Grupo 160213">
        <rect id="Rectángulo_46293" data-name="Rectángulo 46293" width="379" height="60" rx="8" transform="translate(613.333 502)" fill="#344abe"/>
        <text id="Atención_integral_del_dengue" data-name="Atención integral del dengue" transform="translate(673.333 520)" fill="#fff" font-size="20" font-family="Roboto-Medium, Roboto" font-weight="500"><tspan x="0" y="19">Atención integral del dengue</tspan></text>
        <path id="Trazado_599189" data-name="Trazado 599189" d="M139.036,323.02l-.065-.066a11.164,11.164,0,0,0-2.059-2.076l-10.544-10.636,0,0a11.122,11.122,0,1,0-16.744,14.639l-.01.008.182.182q.218.231.448.449L122.1,337.4l.006,0a11.12,11.12,0,0,0,16.924-14.366Z" transform="translate(858.753 231.188)" fill="#ade65f"/>
        <g id="Grupo_160212" data-name="Grupo 160212" transform="translate(600 493.98)">
          <g id="Group_881458" data-name="Group 881458" transform="translate(0 3.835) rotate(-90)">
            <g id="Grupo_108454" data-name="Grupo 108454" transform="translate(0)">
              <path id="Trazado_165449" data-name="Trazado 165449" d="M1.917,0A1.872,1.872,0,0,0,0,1.824,1.872,1.872,0,0,0,1.918,3.647,1.872,1.872,0,0,0,3.835,1.825,1.875,1.875,0,0,0,1.917,0Z" fill="#69489b"/>
              <g id="Grupo_108453" data-name="Grupo 108453" transform="translate(0)" clip-path="url(#clip-path)">
                <g id="Group_881457" data-name="Group 881457" transform="translate(-0.001 0.001)">
                  <rect id="Rectangle_298911" data-name="Rectangle 298911" width="3.836" height="3.647" fill="#69489b"/>
                </g>
              </g>
            </g>
          </g>
          <g id="Group_881458-2" data-name="Group 881458" transform="translate(11.856 3.835) rotate(-90)">
            <g id="Grupo_108454-2" data-name="Grupo 108454" transform="translate(0)">
              <path id="Trazado_165449-2" data-name="Trazado 165449" d="M1.917,0A1.872,1.872,0,0,0,0,1.824,1.872,1.872,0,0,0,1.918,3.647,1.872,1.872,0,0,0,3.835,1.825,1.875,1.875,0,0,0,1.917,0Z" fill="#69489b"/>
              <g id="Grupo_108453-2" data-name="Grupo 108453" transform="translate(0)" clip-path="url(#clip-path)">
                <g id="Group_881457-2" data-name="Group 881457" transform="translate(-0.001 0.001)">
                  <rect id="Rectangle_298911-2" data-name="Rectangle 298911" width="3.836" height="3.647" fill="#69489b"/>
                </g>
              </g>
            </g>
          </g>
          <g id="Group_881458-3" data-name="Group 881458" transform="translate(11.856 13.72) rotate(-90)">
            <g id="Grupo_108454-3" data-name="Grupo 108454" transform="translate(0)">
              <path id="Trazado_165449-3" data-name="Trazado 165449" d="M1.917,0A1.872,1.872,0,0,0,0,1.824,1.872,1.872,0,0,0,1.918,3.647,1.872,1.872,0,0,0,3.835,1.825,1.875,1.875,0,0,0,1.917,0Z" fill="#69489b"/>
              <g id="Grupo_108453-3" data-name="Grupo 108453" transform="translate(0)" clip-path="url(#clip-path)">
                <g id="Group_881457-3" data-name="Group 881457" transform="translate(-0.001 0.001)">
                  <rect id="Rectangle_298911-3" data-name="Rectangle 298911" width="3.836" height="3.647" fill="#69489b"/>
                </g>
              </g>
            </g>
          </g>
          <g id="Group_881458-4" data-name="Group 881458" transform="translate(0 13.72) rotate(-90)">
            <g id="Grupo_108454-4" data-name="Grupo 108454" transform="translate(0)">
              <path id="Trazado_165449-4" data-name="Trazado 165449" d="M1.917,0A1.872,1.872,0,0,0,0,1.824,1.872,1.872,0,0,0,1.918,3.647,1.872,1.872,0,0,0,3.835,1.825,1.875,1.875,0,0,0,1.917,0Z" fill="#69489b"/>
              <g id="Grupo_108453-4" data-name="Grupo 108453" transform="translate(0)" clip-path="url(#clip-path)">
                <g id="Group_881457-4" data-name="Group 881457" transform="translate(-0.001 0.001)">
                  <rect id="Rectangle_298911-4" data-name="Rectangle 298911" width="3.836" height="3.647" fill="#69489b"/>
                </g>
              </g>
            </g>
          </g>
          <g id="Group_881458-5" data-name="Group 881458" transform="translate(11.856 23.604) rotate(-90)">
            <g id="Grupo_108454-5" data-name="Grupo 108454" transform="translate(0)">
              <path id="Trazado_165449-5" data-name="Trazado 165449" d="M1.917,0A1.872,1.872,0,0,0,0,1.824,1.872,1.872,0,0,0,1.918,3.647,1.872,1.872,0,0,0,3.835,1.825,1.875,1.875,0,0,0,1.917,0Z" transform="translate(0)" fill="#69489b"/>
              <g id="Grupo_108453-5" data-name="Grupo 108453" transform="translate(0)" clip-path="url(#clip-path)">
                <g id="Group_881457-5" data-name="Group 881457" transform="translate(-0.001 0.001)">
                  <rect id="Rectangle_298911-5" data-name="Rectangle 298911" width="3.836" height="3.647" fill="#69489b"/>
                </g>
              </g>
            </g>
          </g>
          <g id="Group_881458-6" data-name="Group 881458" transform="translate(0 23.604) rotate(-90)">
            <g id="Grupo_108454-6" data-name="Grupo 108454" transform="translate(0)">
              <path id="Trazado_165449-6" data-name="Trazado 165449" d="M1.917,0A1.872,1.872,0,0,0,0,1.824,1.872,1.872,0,0,0,1.918,3.647,1.872,1.872,0,0,0,3.835,1.825,1.875,1.875,0,0,0,1.917,0Z" transform="translate(0)" fill="#69489b"/>
              <g id="Grupo_108453-6" data-name="Grupo 108453" transform="translate(0)" clip-path="url(#clip-path)">
                <g id="Group_881457-6" data-name="Group 881457" transform="translate(-0.001 0.001)">
                  <rect id="Rectangle_298911-6" data-name="Rectangle 298911" width="3.836" height="3.647" fill="#69489b"/>
                </g>
              </g>
            </g>
          </g>
          <g id="Group_881458-7" data-name="Group 881458" transform="translate(23.538 3.835) rotate(-90)">
            <g id="Grupo_108454-7" data-name="Grupo 108454" transform="translate(0)">
              <path id="Trazado_165449-7" data-name="Trazado 165449" d="M1.917,0A1.872,1.872,0,0,0,0,1.824,1.872,1.872,0,0,0,1.918,3.647,1.872,1.872,0,0,0,3.835,1.825,1.875,1.875,0,0,0,1.917,0Z" fill="#69489b"/>
              <g id="Grupo_108453-7" data-name="Grupo 108453" transform="translate(0)" clip-path="url(#clip-path)">
                <g id="Group_881457-7" data-name="Group 881457" transform="translate(-0.001 0.001)">
                  <rect id="Rectangle_298911-7" data-name="Rectangle 298911" width="3.836" height="3.647" fill="#69489b"/>
                </g>
              </g>
            </g>
          </g>
          <g id="Group_881458-8" data-name="Group 881458" transform="translate(23.538 13.72) rotate(-90)">
            <g id="Grupo_108454-8" data-name="Grupo 108454" transform="translate(0)">
              <path id="Trazado_165449-8" data-name="Trazado 165449" d="M1.917,0A1.872,1.872,0,0,0,0,1.824,1.872,1.872,0,0,0,1.918,3.647,1.872,1.872,0,0,0,3.835,1.825,1.875,1.875,0,0,0,1.917,0Z" fill="#69489b"/>
              <g id="Grupo_108453-8" data-name="Grupo 108453" transform="translate(0)" clip-path="url(#clip-path)">
                <g id="Group_881457-8" data-name="Group 881457" transform="translate(-0.001 0.001)">
                  <rect id="Rectangle_298911-8" data-name="Rectangle 298911" width="3.836" height="3.647" fill="#69489b"/>
                </g>
              </g>
            </g>
          </g>
          <g id="Group_881458-9" data-name="Group 881458" transform="translate(23.538 23.604) rotate(-90)">
            <g id="Grupo_108454-9" data-name="Grupo 108454" transform="translate(0)">
              <path id="Trazado_165449-9" data-name="Trazado 165449" d="M1.917,0A1.872,1.872,0,0,0,0,1.824,1.872,1.872,0,0,0,1.918,3.647,1.872,1.872,0,0,0,3.835,1.825,1.875,1.875,0,0,0,1.917,0Z" transform="translate(0)" fill="#69489b"/>
              <g id="Grupo_108453-9" data-name="Grupo 108453" transform="translate(0)" clip-path="url(#clip-path)">
                <g id="Group_881457-9" data-name="Group 881457" transform="translate(-0.001 0.001)">
                  <rect id="Rectangle_298911-9" data-name="Rectangle 298911" width="3.836" height="3.647" fill="#69489b"/>
                </g>
              </g>
            </g>
          </g>
        </g>
        <path id="Trazado_600313" data-name="Trazado 600313" d="M-11959-9548v79.5" transform="translate(12759.333 10110)" fill="none" stroke="#4462fe" stroke-width="2"/>
        <path id="Trazado_600314" data-name="Trazado 600314" d="M-12201-9469h484.393" transform="translate(12759.333 10110)" fill="none" stroke="#4462fe" stroke-width="2"/>
        <text id="con_el_propósito_de_" data-name="con el propósito de " transform="translate(1034.333 1538)" fill="#12263f" font-size="16" font-family="Roboto-Regular, Roboto"><tspan x="0" y="15">con el propósito de </tspan></text>
        <rect id="Rectángulo_46301" data-name="Rectángulo 46301" width="335" height="128" rx="15" transform="translate(934.333 947)" fill="#e2e7fe"/>
        <rect id="Rectángulo_46302" data-name="Rectángulo 46302" width="335" height="101" rx="15" transform="translate(934.333 1102)" fill="#e2e7fe"/>
        <rect id="Rectángulo_46303" data-name="Rectángulo 46303" width="335" height="137" rx="15" transform="translate(934.333 1227)" fill="#e2e7fe"/>
        <rect id="Rectángulo_46304" data-name="Rectángulo 46304" width="335" height="113" rx="15" transform="translate(934.333 1390)" fill="#e2e7fe"/>
        <g id="Rectángulo_46306" data-name="Rectángulo 46306" transform="translate(885.333 1609)" fill="none" stroke="#4462fe" stroke-width="2">
          <rect width="435" height="107" rx="15" stroke="none"/>
          <rect x="1" y="1" width="433" height="105" rx="14" fill="none"/>
        </g>
        <text id="Desde_las_políticas_" data-name="Desde las políticas  " transform="translate(1032.333 883)" fill="#12263f" font-size="16" font-family="Roboto-Regular, Roboto"><tspan x="0" y="15" xml:space="preserve">Desde las políticas  </tspan></text>
        <rect id="Rectángulo_46296" data-name="Rectángulo 46296" width="505" height="114" rx="15" transform="translate(849.333 720)" fill="#f2fbe6"/>
        <text id="Contempla_la_Dimensión_de_Vida_Saludable_y_Enfermedades_transmisibles_" data-name="Contempla la Dimensión de Vida Saludable y Enfermedades transmisibles
" transform="translate(882.333 743)" fill="#12263f" font-size="16" font-family="Roboto-Regular, Roboto"><tspan x="0" y="15">Contempla la Dimensión de Vida Saludable y Enfermedades </tspan><tspan x="0" y="39">transmisibles</tspan><tspan x="0" y="63"></tspan></text>
        <text id="Política_de_atención_integral_en_salud_Ley_1753_del_2015_y_Resolución_429_del_20196" data-name="Política de atención integral en salud  Ley 1753 del 2015 y Resolución 429 del 20196" transform="translate(971.333 978)" fill="#12263f" font-size="16" font-family="Roboto-Regular, Roboto"><tspan x="0" y="15" xml:space="preserve">Política de atención integral en salud  </tspan><tspan x="0" y="39">Ley 1753 del 2015 y Resolución 429 </tspan><tspan x="0" y="63">del 20196</tspan></text>
        <text id="Rutas_integrales_de_atención_Resolución_1441_" data-name="Rutas integrales de atención; Resolución 1441
" transform="translate(963.333 1131)" fill="#12263f" font-size="16" font-family="Roboto-Regular, Roboto"><tspan x="0" y="15">Rutas integrales de atención; </tspan><tspan x="0" y="39">Resolución 1441</tspan><tspan x="0" y="63"></tspan></text>
        <text id="Rutas_integrales_de_atención_en_salud_Resolución_3202_de_2016_Atenciones_poblacionales_atención_colectiva_e_individual" data-name="Rutas integrales de atención en salud Resolución 3202 de 2016, Atenciones poblacionales, atención colectiva e individual" transform="translate(963.333 1253)" fill="#12263f" font-size="16" font-family="Roboto-Regular, Roboto"><tspan x="0" y="15">Rutas integrales de atención en salud </tspan><tspan x="0" y="39">Resolución 3202 de 2016, Atenciones </tspan><tspan x="0" y="63">poblacionales, atención colectiva e </tspan><tspan x="0" y="87">individual</tspan></text>
        <text id="Reducir_progresivamente_y_sostenida_del_número_de_muertes_en_todo_el_territorio_nacional_" data-name="Reducir progresivamente y sostenida del número de muertes en todo el territorio nacional
" transform="translate(922.333 1637)" fill="#12263f" font-size="16" font-family="Roboto-Regular, Roboto"><tspan x="0" y="15">Reducir progresivamente y sostenida del número </tspan><tspan x="0" y="39">de muertes en todo el territorio nacional</tspan><tspan x="0" y="63"></tspan></text>
        <text id="Ruta_de_Promoción_y_Mantenimiento_de_la_salud:_Resolución_3280_de_2018_Lineamientos_para_la_implementación_" data-name="Ruta de Promoción y Mantenimiento de la salud: Resolución 3280 de 2018, Lineamientos para la implementación
" transform="translate(963.333 1412)" fill="#12263f" font-size="16" font-family="Roboto-Regular, Roboto"><tspan x="0" y="15">Ruta de Promoción y Mantenimiento de </tspan><tspan x="0" y="39">la salud: Resolución 3280 de 2018, </tspan><tspan x="0" y="63">Lineamientos para la implementación</tspan><tspan x="0" y="87"></tspan></text>
        <path id="Trazado_600325" data-name="Trazado 600325" d="M-11959-9548v37.276" transform="translate(13061.833 11119.724)" fill="none" stroke="#4462fe" stroke-width="2"/>
        <path id="Trazado_600318" data-name="Trazado 600318" d="M-11959-9548v37.276" transform="translate(13060.833 10382)" fill="none" stroke="#4462fe" stroke-width="2"/>
        <path id="Trazado_600316" data-name="Trazado 600316" d="M-11959-9548v54" transform="translate(13060.833 10214)" fill="none" stroke="#4462fe" stroke-width="2"/>
        <path id="Trazado_600373" data-name="Trazado 600373" d="M-11959-9548v54" transform="translate(12458.833 10214)" fill="none" stroke="#4462fe" stroke-width="2"/>
        <path id="Trazado_600319" data-name="Trazado 600319" d="M-11591.5-9199.733v15.028h-204.525v520.993h36.692" transform="translate(12693.333 10110)" fill="none" stroke="#4462fe" stroke-width="2"/>
        <path id="Trazado_600322" data-name="Trazado 600322" d="M-11796.025-9094.773h36.692" transform="translate(12693.333 10106.273)" fill="none" stroke="#4462fe" stroke-width="2"/>
        <path id="Trazado_600326" data-name="Trazado 600326" d="M-11796.025-9094.773h36.692v536.686h-112.511" transform="translate(13065.025 10106.273)" fill="none" stroke="#4462fe" stroke-width="2"/>
        <path id="Trazado_600323" data-name="Trazado 600323" d="M-11796.025-9094.773h36.692" transform="translate(12693.333 10247.273)" fill="none" stroke="#4462fe" stroke-width="2"/>
        <path id="Trazado_600324" data-name="Trazado 600324" d="M-11796.025-9094.773h36.692" transform="translate(12693.333 10393.273)" fill="none" stroke="#4462fe" stroke-width="2"/>
        <path id="Trazado_600327" data-name="Trazado 600327" d="M-11796.025-9094.773h36.692" transform="translate(13065.025 10393.273)" fill="none" stroke="#4462fe" stroke-width="2"/>
        <path id="Trazado_600328" data-name="Trazado 600328" d="M-11796.025-9094.773h36.692" transform="translate(13065.025 10247.273)" fill="none" stroke="#4462fe" stroke-width="2"/>
        <path id="Trazado_600329" data-name="Trazado 600329" d="M-11796.025-9094.773h36.692" transform="translate(13065.025 10541.273)" fill="none" stroke="#4462fe" stroke-width="2"/>
        <rect id="Rectángulo_46295" data-name="Rectángulo 46295" width="250" height="50" rx="8" transform="translate(374.333 616)" fill="#54397c"/>
        <text id="Marco_conceptual" data-name="Marco conceptual" transform="translate(428.333 632)" fill="#fff" font-size="16" font-family="Roboto-Medium, Roboto" font-weight="500"><tspan x="0" y="15">Marco conceptual</tspan></text>
        <text id="a_partir_de:_" data-name="a partir de: " transform="translate(451.333 883)" fill="#12263f" font-size="16" font-family="Roboto-Regular, Roboto"><tspan x="0" y="15">a partir de: </tspan></text>
        <text id="para_tomar:_" data-name="para tomar: " transform="translate(458.333 1182)" fill="#12263f" font-size="16" font-family="Roboto-Regular, Roboto"><tspan x="0" y="15">para tomar: </tspan></text>
        <rect id="Rectángulo_46297" data-name="Rectángulo 46297" width="505" height="114" rx="15" transform="translate(246.333 720)" fill="#f2fbe6"/>
        <rect id="Rectángulo_46298" data-name="Rectángulo 46298" width="238" height="139" rx="15" transform="translate(246.333 947)" fill="#e2e7fe"/>
        <rect id="Rectángulo_46299" data-name="Rectángulo 46299" width="238" height="191" rx="15" transform="translate(513.333 947)" fill="#e2e7fe"/>
        <g id="Rectángulo_46300" data-name="Rectángulo 46300" transform="translate(331.333 1247)" fill="none" stroke="#4462fe" stroke-width="2">
          <rect width="335" height="148" rx="15" stroke="none"/>
          <rect x="1" y="1" width="333" height="146" rx="14" fill="none"/>
        </g>
        <text id="El_dengue_es_una_enfermedad_infecciosa_sistémica_y_dinámica_transmitido_a_través_de_la_picadura_de_mosquitos_de_la_especie_Aedes_aegypti_infectados_" data-name="El dengue es una enfermedad infecciosa sistémica y dinámica, transmitido a través de la picadura de mosquitos de la especie Aedes aegypti infectados
" transform="translate(279.333 743)" fill="#12263f" font-size="16" font-family="Roboto-Regular, Roboto"><tspan x="0" y="15">El dengue es una enfermedad infecciosa sistémica y dinámica, </tspan><tspan x="0" y="39">transmitido a través de la picadura de mosquitos de la especie </tspan><tspan x="0" y="63">Aedes aegypti infectados</tspan><tspan x="0" y="87"></tspan></text>
        <text id="Signos_de_alarma:_dolor_abdominal_vómito_sangrado_dolor_de_cabeza_fiebre_dolor_ocular_" data-name="Signos de alarma: dolor abdominal, vómito, sangrado, dolor de cabeza, fiebre, dolor ocular
" transform="translate(273.333 971)" fill="#12263f" font-size="16" font-family="Roboto-Bold, Roboto" font-weight="700"><tspan x="0" y="15">Signos de alarma:</tspan><tspan y="15" xml:space="preserve" font-family="Roboto-Regular, Roboto" font-weight="400"> dolor </tspan><tspan x="0" y="39" font-family="Roboto-Regular, Roboto" font-weight="400">abdominal, vómito, </tspan><tspan x="0" y="63" font-family="Roboto-Regular, Roboto" font-weight="400">sangrado, dolor de cabeza, </tspan><tspan x="0" y="87" font-family="Roboto-Regular, Roboto" font-weight="400">fiebre, dolor ocular</tspan><tspan font-family="Roboto-Regular, Roboto" font-weight="400"><tspan x="0" y="111"></tspan></tspan></text>
        <text id="Tipo_de_caso:_caso_Probable_caso_confirmado_por_laboratorio_caso_confirmado_por_nexo_Epidemiológico_mortalidad_por_dengue_" data-name="Tipo de caso: caso Probable, caso confirmado por laboratorio, caso confirmado por nexo Epidemiológico, mortalidad por dengue
" transform="translate(536.333 971)" fill="#12263f" font-size="16" font-family="Roboto-Bold, Roboto" font-weight="700"><tspan x="0" y="15">Tipo de caso: </tspan><tspan y="15" font-family="Roboto-Regular, Roboto" font-weight="400">caso </tspan><tspan x="0" y="39" font-family="Roboto-Regular, Roboto" font-weight="400">Probable, caso confirmado </tspan><tspan x="0" y="63" font-family="Roboto-Regular, Roboto" font-weight="400">por laboratorio, caso </tspan><tspan x="0" y="87" font-family="Roboto-Regular, Roboto" font-weight="400">confirmado por nexo </tspan><tspan x="0" y="111" font-family="Roboto-Regular, Roboto" font-weight="400">Epidemiológico, </tspan><tspan x="0" y="135" font-family="Roboto-Regular, Roboto" font-weight="400">mortalidad por dengue</tspan><tspan font-family="Roboto-Regular, Roboto" font-weight="400"><tspan x="0" y="159"></tspan></tspan></text>
        <text id="Acciones_colectivas:_investigación_de_brotes_y_situaciones_de_emergencia_búsqueda_activa_de_casos_y_políticas_de_control_vectorial_" data-name="Acciones colectivas: investigación de brotes y situaciones de emergencia, búsqueda activa de casos y políticas de control vectorial
" transform="translate(374.333 1273)" fill="#12263f" font-size="16" font-family="Roboto-Bold, Roboto" font-weight="700"><tspan x="0" y="15">Acciones colectivas: </tspan><tspan y="15" font-family="Roboto-Regular, Roboto" font-weight="400">investigación </tspan><tspan x="0" y="39" font-family="Roboto-Regular, Roboto" font-weight="400">de brotes y situaciones de </tspan><tspan x="0" y="63" font-family="Roboto-Regular, Roboto" font-weight="400">emergencia, búsqueda activa de </tspan><tspan x="0" y="87" font-family="Roboto-Regular, Roboto" font-weight="400">casos y políticas de control vectorial</tspan><tspan font-family="Roboto-Regular, Roboto" font-weight="400"><tspan x="0" y="111"></tspan></tspan></text>
        <path id="Trazado_600315" data-name="Trazado 600315" d="M-11959-9548v37.276" transform="translate(12457.833 10382)" fill="none" stroke="#4462fe" stroke-width="2"/>
        <path id="Trazado_600321" data-name="Trazado 600321" d="M-11959-9548v37.276" transform="translate(12457.833 10759.979)" fill="none" stroke="#4462fe" stroke-width="2"/>
        <path id="Trazado_600317" data-name="Trazado 600317" d="M-12460-9165.1v-31.022h273v31.022" transform="translate(12825.333 10112.105)" fill="none" stroke="#4462fe" stroke-width="2"/>
        <path id="Trazado_600320" data-name="Trazado 600320" d="M-12460-9165.1v-31.022h273v81.561" transform="translate(-11821.667 -8027.105) rotate(180)" fill="none" stroke="#4462fe" stroke-width="2"/>
        <rect id="Rectángulo_46294" data-name="Rectángulo 46294" width="250" height="50" rx="8" transform="translate(977.333 616)" fill="#54397c"/>
        <text id="Marco_normativo" data-name="Marco normativo" transform="translate(1038.333 632)" fill="#fff" font-size="16" font-family="Roboto-Medium, Roboto" font-weight="500"><tspan x="0" y="15">Marco normativo</tspan></text>
      </g>
    </g>
  </g>
</svg>
