<svg xmlns="http://www.w3.org/2000/svg" xmlns:xlink="http://www.w3.org/1999/xlink" width="1030" height="255" viewBox="0 0 1030 255">
  <defs>
    <clipPath id="clip-path">
      <rect id="Rectángulo_45986" data-name="Rectángulo 45986" width="30.413" height="30.385" fill="#579107"/>
    </clipPath>
    <clipPath id="clip-path-2">
      <rect id="Rectángulo_45986-2" data-name="Rectángulo 45986" width="25.635" height="25.611" fill="#9fc26f"/>
    </clipPath>
    <clipPath id="clip-path-3">
      <rect id="Rectángulo_45986-3" data-name="Rectángulo 45986" width="27.058" height="27.033" fill="#9fc26f"/>
    </clipPath>
    <clipPath id="clip-path-4">
      <rect id="Rectángulo_45986-4" data-name="Rectángulo 45986" width="15.834" height="15.819" fill="#579107"/>
    </clipPath>
  </defs>
  <g id="Grupo_159787" data-name="Grupo 159787" transform="translate(-285 -4156)">
    <rect id="Rectángulo_45978" data-name="Rectángulo 45978" width="1030" height="254" transform="translate(285 4157)" fill="#fff"/>
    <g id="Grupo_159786" data-name="Grupo 159786">
      <g id="Grupo_159781" data-name="Grupo 159781" transform="translate(32 75)">
        <g id="Grupo_159782" data-name="Grupo 159782" transform="translate(-210.287 -23.088)">
          <path id="Trazado_600183" data-name="Trazado 600183" d="M511.632,35.593c-.6-4.96-3.478-7.523-8.344-7.526q-9.137,0-18.273,0a14.937,14.937,0,0,0-15.357,13.581,6.531,6.531,0,0,0-.047,1.476,1.8,1.8,0,0,0,1.919,1.7,1.841,1.841,0,0,0,1.755-1.744,19.578,19.578,0,0,1,1-4.537,10.561,10.561,0,0,1,9.937-6.721c6.581-.154,13.169-.064,19.754-.036a3.786,3.786,0,0,1,3.883,3.672,3.863,3.863,0,0,0,4.034,3.934,3.764,3.764,0,0,1,3.762,3.666c.084,3.492.023,6.987.023,10.62a13.293,13.293,0,0,1-2.571-.033,1.955,1.955,0,0,1-1.591-2.071,22.2,22.2,0,0,0-.091-2.957,5.9,5.9,0,0,0-7.576-4.9,30.971,30.971,0,0,1-18.687.013,5.945,5.945,0,0,0-7.7,5.695c-.018.576,0,1.152-.007,1.729-.018,1.812-.746,2.557-2.527,2.583-.491.008-.981,0-1.655,0,0-.751.025-1.435-.006-2.116a1.832,1.832,0,1,0-3.662-.1c-.045,3.662-.095,7.328.038,10.986a4.328,4.328,0,0,0,3.028,4,1.56,1.56,0,0,1,1.12,1.49,20.412,20.412,0,0,0,7.552,13.027,2.972,2.972,0,0,1,1.088,2.134c.472,2.928-.753,4.3-3.4,5.581a106.7,106.7,0,0,1-18.4,7.27c-7.473,2.034-11.778,6.821-12.621,14.6-15.4-17.721-20.02-51.644,2.171-76.621a59.375,59.375,0,0,1,86.174-2.5c23.919,23.626,21.616,59.087,4.722,79.062a41.68,41.68,0,0,0-1.183-4.674,14.8,14.8,0,0,0-9.391-9.155c-3.414-1.183-6.954-2.031-10.31-3.351-3.466-1.364-6.783-3.108-10.153-4.71-1.145-.544-2.691-.894-3.261-1.82s-.1-2.477-.207-3.743a2.158,2.158,0,0,1,1.011-2.041,20.827,20.827,0,0,0,7.684-13.367,1.687,1.687,0,0,1,.886-1.065,4.9,4.9,0,0,0,3.232-4.8q.039-9.2,0-18.4a7.509,7.509,0,0,0-7.216-7.737c-.157-.014-.313-.056-.533-.1" transform="translate(274.018 4155.574)" fill="#f2fbe6"/>
          <path id="Trazado_600184" data-name="Trazado 600184" d="M550.582,87.122h-5.362V73.032l6.047-8.728L558.437,62l22.693.5L584,67.048l.748,2.369,4.426,1.621,1.933,4.551.311,12.282-6.483-.748-1.808-6.11-1.87-3.366-12.877,1.635-12.122-1.448-2.431,1.448-1.372,5.846Z" transform="translate(200.146 4123.532)" fill="#204259"/>
          <path id="Trazado_600185" data-name="Trazado 600185" d="M593.454,124.579c0,1.616.012,3.011,0,4.406a1.25,1.25,0,0,1-1.157,1.341c-2.046.41-2.559,1.009-2.844,3.109-1.119,8.247-6.445,14-14.338,15.476A17.316,17.316,0,0,1,555.2,134.477q-.1-.734-.194-1.468a2.7,2.7,0,0,0-2.486-2.629c-1.175-.16-1.518-.754-1.479-1.824.042-1.15.011-2.3.019-3.455a3.572,3.572,0,0,1,.111-.52c.7,0,1.426.024,2.15,0a5.775,5.775,0,0,0,5.6-5.628c.019-.575,0-1.152.009-1.728.018-2.35,1.256-3.2,3.523-2.682a66.848,66.848,0,0,0,7.859,1.408,29.6,29.6,0,0,0,11.568-1.311c2.485-.739,3.669.161,3.707,2.766a13.093,13.093,0,0,0,.235,2.932,5.627,5.627,0,0,0,5.295,4.24c.73.032,1.463,0,2.337,0" transform="translate(196.248 4088.426)" fill="#fcd5d0"/>
          <path id="Trazado_600186" data-name="Trazado 600186" d="M635.947,290.707c2.3-2.422,4.509-4.686,6.644-7.015,1.473-1.606,2.869-3.284,4.256-4.966.874-1.059.809-2.115-.073-2.828s-1.878-.526-2.8.5q-3.9,4.374-7.807,8.745a4.58,4.58,0,0,1-.867.894c4.4-11.608,9.169-23.076,7.281-36.057l7.311,3.582-1.985,3.9c-1.349,2.656-1.071,4.494,1,6.59,1.668,1.691,1.671,1.716.62,3.922a10.734,10.734,0,0,0-.719,1.566,1.729,1.729,0,0,0,.927,2.179,1.517,1.517,0,0,0,2.183-.477,24.5,24.5,0,0,0,1.984-5.236c.366-1.643-.7-2.951-1.866-4.086-1.519-1.48-1.5-1.5-.547-3.352.6-1.165,1.208-2.325,1.866-3.59,2.3.727,4.563,1.437,6.822,2.155,1.213.386,2.438.742,3.63,1.187a11.668,11.668,0,0,1,7.635,10.8c.075,4.126.09,4.142-2.99,6.9A58.934,58.934,0,0,1,636.958,290.7a4.308,4.308,0,0,1-.491.048c-.121,0-.243-.018-.52-.043" transform="translate(139.781 3997.562)" fill="#557085"/>
          <path id="Trazado_600187" data-name="Trazado 600187" d="M503.935,264.924c.855,1.653,1.7,3.114,2.352,4.654a2.378,2.378,0,0,1-.308,1.645,4.526,4.526,0,0,1-1.016,1.062,4.9,4.9,0,0,0-1.2,5.65,35.89,35.89,0,0,0,6.462,10.433c3.276,3.846,6.764,7.512,10.162,11.254a3.223,3.223,0,0,1,.818,1.263c-2.42-.476-4.869-.836-7.254-1.446A58.158,58.158,0,0,1,486.663,283.9a2.866,2.866,0,0,1-.741-1.791,26.1,26.1,0,0,1,.209-4.912,10.354,10.354,0,0,1,6.163-8.245c3.75-1.607,7.722-2.694,11.641-4.023" transform="translate(239.897 3987.55)" fill="#557085"/>
          <path id="Trazado_600188" data-name="Trazado 600188" d="M550.458,253.55l7.336-3.613c-.166,1.554-.4,2.969-.455,4.391-.292,6.974,1.355,13.629,3.542,20.162,1.172,3.5,2.607,6.913,3.925,10.364a2,2,0,0,1,.184,1.146c-2.068-2.253-4.187-4.463-6.194-6.77a50.458,50.458,0,0,1-7.948-11.245c-1.068-2.246-1.053-2.254.666-4.017a4.936,4.936,0,0,0,1.016-6.39c-.663-1.317-1.348-2.623-2.072-4.029" transform="translate(196.863 3997.593)" fill="#557085"/>
          <path id="Trazado_600189" data-name="Trazado 600189" d="M588.977,225.386a21.739,21.739,0,0,0,17.006.165c.214,1.964.206,3.6-1.29,5.148-2.365,2.443-4.455,5.152-6.73,7.83a4.781,4.781,0,0,1-.629-.5c-2.514-2.82-5.139-5.555-7.456-8.53-.711-.913-.577-2.485-.9-4.112" transform="translate(170.825 4014.045)" fill="#fcd5d0"/>
          <path id="Trazado_600190" data-name="Trazado 600190" d="M606.725,329.4c-1.069-2.331-2.055-4.705-3.234-6.98a6.556,6.556,0,0,1-.4-5.275c.918-3.017,1.586-6.11,2.372-9.218H608.3c.836,3.265,1.617,6.566,2.546,9.826a5.343,5.343,0,0,1-.336,4.107c-1.229,2.477-2.307,5.029-3.448,7.55l-.34-.01" transform="translate(161.613 3958.732)" fill="#aaa"/>
          <path id="Trazado_600191" data-name="Trazado 600191" d="M591.242,256.859c-1.588,1.332-3.1,2.592-4.6,3.861-.719.608-1.228.436-1.872-.226a5.94,5.94,0,0,1-1.75-4.646,23.667,23.667,0,0,1,.945-7.192l7.277,8.2" transform="translate(174.82 3998.451)" fill="#fff"/>
          <path id="Trazado_600192" data-name="Trazado 600192" d="M623.926,256.708l7.028-8.271c.281,1.726.567,3.124.719,4.537.109,1.015-.056,2.06.068,3.071a4.953,4.953,0,0,1-1.9,4.3,1.419,1.419,0,0,1-1.341.193c-1.55-1.193-3.013-2.5-4.579-3.833" transform="translate(147.405 3998.599)" fill="#fff"/>
          <path id="Trazado_600193" data-name="Trazado 600193" d="M634.967,297.1l-2.606,9.06-.276,0c-.566-2.208-1.181-4.406-1.678-6.631-.214-.958,1.444-2.511,2.4-2.435.637.05,1.281.01,2.158.01" transform="translate(143.075 3965.999)" fill="#fff"/>
          <path id="Trazado_600194" data-name="Trazado 600194" d="M589.057,306.045l-2.57-8.927c1.036,0,2.033-.3,2.6.071.817.53,1.926,1.61,1.844,2.336a48.464,48.464,0,0,1-1.566,6.546l-.307-.025" transform="translate(172.493 3966.054)" fill="#fff"/>
          <path id="Trazado_600195" data-name="Trazado 600195" d="M604.988,284.52l3.625-3.028,3.364,2.877c-.951.672-.971,2.1-2.463,2.1-3.094.009-3.094.054-4.526-1.949" transform="translate(160.096 3976.448)" fill="#aaa"/>
          <path id="Trazado_600196" data-name="Trazado 600196" d="M423.731,70.235v-7.9c.072-.358.159-.714.212-1.074.428-2.884.7-5.8,1.295-8.648,5.086-24.529,25.994-44.538,50.7-48.565,2.345-.382,4.709-.655,7.063-.978h7.9c1.176.153,2.352.314,3.529.457,14.617,1.776,27.263,7.785,37.453,18.367C547.563,38.178,553.163,57.65,548.662,79.8c-5.679,27.944-31.142,49.009-59.656,49.673-14.873.346-28.371-3.757-40.2-12.817a62.3,62.3,0,0,1-24.1-39.474c-.422-2.3-.652-4.63-.972-6.947m80.362-42.089c.22.041.375.083.533.1a7.509,7.509,0,0,1,7.216,7.737q.054,9.2,0,18.4a4.9,4.9,0,0,1-3.232,4.8,1.686,1.686,0,0,0-.886,1.065,20.826,20.826,0,0,1-7.684,13.367,2.158,2.158,0,0,0-1.011,2.041c.106,1.266-.368,2.811.207,3.743s2.116,1.276,3.261,1.82c3.371,1.6,6.687,3.345,10.153,4.709,3.356,1.321,6.9,2.168,10.31,3.351a14.793,14.793,0,0,1,9.391,9.155,41.681,41.681,0,0,1,1.184,4.674c16.894-19.976,19.2-55.436-4.722-79.062a59.375,59.375,0,0,0-86.174,2.5c-22.191,24.977-17.567,58.9-2.171,76.621.843-7.784,5.148-12.571,12.621-14.605a106.679,106.679,0,0,0,18.4-7.269c2.648-1.282,3.873-2.653,3.4-5.581a2.973,2.973,0,0,0-1.088-2.134,20.412,20.412,0,0,1-7.552-13.026,1.56,1.56,0,0,0-1.12-1.49,4.329,4.329,0,0,1-3.028-4c-.132-3.658-.082-7.324-.038-10.986a1.832,1.832,0,1,1,3.662.1c.031.681.006,1.365.006,2.116.674,0,1.164.006,1.655,0,1.781-.027,2.509-.771,2.527-2.583.006-.576-.01-1.153.008-1.728a5.944,5.944,0,0,1,7.7-5.695,30.973,30.973,0,0,0,18.687-.013,5.9,5.9,0,0,1,7.576,4.9,22.2,22.2,0,0,1,.091,2.957,1.956,1.956,0,0,0,1.591,2.071,13.289,13.289,0,0,0,2.571.033c0-3.633.061-7.128-.023-10.62a3.764,3.764,0,0,0-3.762-3.666,3.863,3.863,0,0,1-4.034-3.934,3.787,3.787,0,0,0-3.883-3.672c-6.585-.027-13.172-.117-19.754.037a10.561,10.561,0,0,0-9.937,6.721,19.6,19.6,0,0,0-1,4.537,1.841,1.841,0,0,1-1.755,1.744,1.8,1.8,0,0,1-1.919-1.7,6.528,6.528,0,0,1,.047-1.476,14.937,14.937,0,0,1,15.357-13.581q9.136-.01,18.273,0c4.866,0,7.745,2.566,8.344,7.526m4.053,21.837c-.874,0-1.606.027-2.337,0a5.627,5.627,0,0,1-5.294-4.24,13.057,13.057,0,0,1-.236-2.932c-.038-2.605-1.222-3.505-3.707-2.766A29.608,29.608,0,0,1,485,41.351a66.791,66.791,0,0,1-7.859-1.407c-2.266-.516-3.5.332-3.523,2.681,0,.576.01,1.152-.009,1.728a5.775,5.775,0,0,1-5.6,5.628c-.724.028-1.45,0-2.15,0a3.511,3.511,0,0,0-.111.52c-.008,1.152.023,2.3-.019,3.455-.039,1.07.3,1.664,1.479,1.824a2.7,2.7,0,0,1,2.486,2.629q.1.734.194,1.468A17.316,17.316,0,0,0,489.8,74.315c7.893-1.481,13.218-7.229,14.338-15.476.285-2.1.8-2.7,2.844-3.11a1.249,1.249,0,0,0,1.157-1.34c.018-1.4,0-2.791,0-4.406m-13.974,75.265c.277.024.4.047.52.043a4.461,4.461,0,0,0,.491-.048,58.936,58.936,0,0,0,31.494-14.672c3.08-2.759,3.065-2.775,2.99-6.9a11.669,11.669,0,0,0-7.635-10.8c-1.192-.444-2.417-.8-3.63-1.187-2.259-.718-4.52-1.428-6.822-2.155-.657,1.264-1.265,2.425-1.866,3.59-.955,1.852-.972,1.873.547,3.352,1.165,1.135,2.231,2.443,1.866,4.086a24.488,24.488,0,0,1-1.984,5.236,1.518,1.518,0,0,1-2.183.477,1.728,1.728,0,0,1-.927-2.179,10.715,10.715,0,0,1,.719-1.566c1.05-2.207,1.047-2.232-.621-3.923-2.068-2.1-2.346-3.934-1-6.59.647-1.273,1.295-2.546,1.985-3.9l-7.311-3.582c1.887,12.981-2.877,24.45-7.281,36.057a4.581,4.581,0,0,0,.867-.894q3.9-4.377,7.806-8.744c.918-1.03,1.917-1.215,2.8-.5s.947,1.768.073,2.828c-1.387,1.681-2.783,3.36-4.256,4.966-2.136,2.329-4.343,4.592-6.644,7.015m-31.9-35.795c-3.919,1.329-7.891,2.416-11.641,4.023a10.354,10.354,0,0,0-6.162,8.245,26.1,26.1,0,0,0-.209,4.912,2.865,2.865,0,0,0,.741,1.791,58.159,58.159,0,0,0,27.283,15.543c2.385.61,4.835.971,7.254,1.446a3.218,3.218,0,0,0-.818-1.263c-3.4-3.742-6.886-7.408-10.162-11.254a35.891,35.891,0,0,1-6.462-10.433,4.9,4.9,0,0,1,1.2-5.65,4.514,4.514,0,0,0,1.016-1.062,2.379,2.379,0,0,0,.308-1.644c-.656-1.54-1.5-3-2.352-4.654m3.488-1.331c.723,1.405,1.409,2.711,2.072,4.029a4.936,4.936,0,0,1-1.016,6.39c-1.718,1.763-1.734,1.771-.666,4.017A50.458,50.458,0,0,0,474.1,113.8c2.007,2.306,4.125,4.516,6.194,6.769a2,2,0,0,0-.184-1.146c-1.318-3.451-2.753-6.864-3.925-10.364-2.188-6.533-3.835-13.188-3.542-20.162.059-1.422.289-2.837.455-4.391l-7.336,3.613m12.481-11.712c.324,1.627.189,3.2.9,4.112,2.318,2.974,4.942,5.71,7.456,8.53a4.766,4.766,0,0,0,.63.5c2.275-2.677,4.365-5.387,6.73-7.83,1.5-1.546,1.5-3.185,1.29-5.148a21.737,21.737,0,0,1-17.006-.165m8.536,48.7.34.01c1.141-2.521,2.219-5.073,3.448-7.55a5.341,5.341,0,0,0,.336-4.107c-.928-3.26-1.71-6.561-2.546-9.826h-2.837c-.785,3.109-1.453,6.2-2.372,9.218a6.556,6.556,0,0,0,.4,5.275c1.179,2.275,2.165,4.649,3.234,6.98m-2.276-32.825-7.277-8.2a23.667,23.667,0,0,0-.945,7.192,5.941,5.941,0,0,0,1.75,4.646c.644.662,1.153.834,1.872.226,1.5-1.27,3.011-2.529,4.6-3.861m5.269,0c1.567,1.333,3.029,2.64,4.579,3.833a1.419,1.419,0,0,0,1.341-.193,4.953,4.953,0,0,0,1.9-4.3c-.124-1.011.041-2.057-.068-3.071-.152-1.413-.438-2.811-.719-4.537l-7.028,8.271m6.711,7.79c-.877,0-1.521.041-2.158-.01-.958-.075-2.616,1.477-2.4,2.435.5,2.224,1.111,4.422,1.677,6.631l.276,0,2.607-9.06m-16.492,9,.307.025a48.562,48.562,0,0,0,1.566-6.546c.081-.726-1.028-1.806-1.845-2.336-.566-.367-1.563-.071-2.6-.071l2.57,8.927m3.534-11.13c1.431,2,1.431,1.958,4.526,1.949,1.492,0,1.513-1.429,2.463-2.1l-3.364-2.877-3.625,3.028" transform="translate(281.557 4163.021)"/>
        </g>
        <g id="Grupo_159783" data-name="Grupo 159783" transform="translate(-280.5 -23.088)">
          <path id="Trazado_600181" data-name="Trazado 600181" d="M128.559,70.5a61.124,61.124,0,1,0-61.124,61.124A61.124,61.124,0,0,0,128.559,70.5" transform="translate(561.271 4158.793)" fill="#e2e7fe"/>
          <path id="Trazado_600182" data-name="Trazado 600182" d="M148.4,105.166l19.2-10.634s11.1-4.114,12.468-3.366a17.107,17.107,0,0,0,2.494,1.122l-1,2.12s12.095.873,12.718,1,2.743,2.715,2.743,2.715l-3.99,5.763-3.107.873-29.81,6.609-7.606-1.839Z" transform="translate(466.055 4104.047)" fill="#99e6fc"/>
          <path id="Trazado_600197" data-name="Trazado 600197" d="M63.206,129.479a63.206,63.206,0,1,1,63.206-63.206,63.278,63.278,0,0,1-63.206,63.206m0-122.454a59.247,59.247,0,1,0,59.248,59.248A59.315,59.315,0,0,0,63.206,7.026" transform="translate(565.5 4163.021)"/>
          <path id="Trazado_600198" data-name="Trazado 600198" d="M104.625,144.789l-5.8,4.916s-1.683,5.09-4.114,5a13.017,13.017,0,0,1-4.676-1.216s-2.618-2.525-2.338-2.525.093-2.9.467-2.993,3.928-2.244,3.928-2.244l3.086-6.546s1.122-5.854,5.237-5.359a44.076,44.076,0,0,1,9.071,2.46,29.041,29.041,0,0,0,2.338,1.87c.28.093,24.5,5.143,26.184,7.668s11.6,9.711,11.222,10.513-4.769,3.44-5.237,3.524-12.344,0-12.344,0l-10.941-7.3-9.983-7.481-.491-1.777Z" transform="translate(506.746 4075.424)" fill="#557085"/>
          <path id="Trazado_600199" data-name="Trazado 600199" d="M143.573,98.861a2.106,2.106,0,0,0-1.2,1.139,1.806,1.806,0,0,0,.045,1.41,1.891,1.891,0,0,0,2.636.925,15.938,15.938,0,0,0,7.293-6.021,4.612,4.612,0,0,0-3.6-7.156c-2.648-.063-5.272.019-7.733.11-.97.035-1.946.15-2.89.26l-.15.018a4.122,4.122,0,0,0-.855-3.177,4.22,4.22,0,0,0-3.681-1.5c-.61.047-1.253.12-1.965.223a53.378,53.378,0,0,0-20.288,7.384c-2.8,1.712-5.667,3.411-8.443,5.055l-1.872,1.108a.872.872,0,0,1-.325.126c-.516-.057-1.025-.138-1.564-.224-.473-.075-.963-.154-1.455-.213a10.158,10.158,0,0,0-11.256,8.83,1.925,1.925,0,0,0,1.454,2.15,1.9,1.9,0,0,0,2.232-1.345,5.748,5.748,0,0,0,.141-.627c.013-.071.026-.142.04-.213a6.1,6.1,0,0,1,4.984-4.935,11.864,11.864,0,0,1,2.908.045l.569.052a5.984,5.984,0,0,1,5.039,3.307.515.515,0,0,1,.012.262,26,26,0,0,1-.973,2.577.675.675,0,0,1-.276.262c-.332.145-.686.264-1.061.39a9.017,9.017,0,0,0-1.939.829c-1.427.888-2.811,1.872-4.151,2.824q-.665.473-1.331.942c-.349.245-.69.5-1.023.757a7.774,7.774,0,0,0-7.466-3.744,6.475,6.475,0,0,0-6.212,5.764,6.626,6.626,0,0,0,3.5,6.347.77.77,0,0,1,.1.07.678.678,0,0,1,0,.093l-.028.676c-.09,2.163-.183,4.4-.213,6.608a13.511,13.511,0,0,1-3.824,9.476l-.225.238v1.3l.154.215a2.361,2.361,0,0,0,1.661,1.117,2.293,2.293,0,0,0,1.739-.935A16.74,16.74,0,0,0,86.306,131.2c.075-1.651.13-3.328.184-4.95q.038-1.147.078-2.293a14.792,14.792,0,0,0,1.54-.1,6.423,6.423,0,0,0,5.549-4.967.8.8,0,0,1,.375-.573l.124-.093c1.5-1.117,3.046-2.272,4.545-3.447a15.859,15.859,0,0,1,4.014-2.206c.979-.39,1.3-.26,1.676.2a4.481,4.481,0,0,0,1.2,1,1.992,1.992,0,0,1,1.118,2.318,5.181,5.181,0,0,0-.041,1.177c.007.152.014.3.013.456a1.235,1.235,0,0,1-1.148,1.383q-.714.135-1.427.273c-1.516.293-3.084.6-4.626.813a5.548,5.548,0,0,0-4.861,4.246c-1.57,5.108-3.216,10.29-4.807,15.3q-.864,2.724-1.727,5.447c-.3.948-.619,1.181-1.628,1.19-.308,0-.615,0-.923,0-.48,0-.961,0-1.442.009a2.1,2.1,0,0,0-1.535.607,1.81,1.81,0,0,0-.481,1.328,1.869,1.869,0,0,0,2,1.836c.713.018,1.43.013,2.125.008l.323,0a5.01,5.01,0,0,0,5.152-3.82l1.2-3.786q2.748-8.684,5.483-17.371a1.508,1.508,0,0,1,1.352-1.189c2.216-.371,4.439-.774,6.527-1.156a5.033,5.033,0,0,0,4.23-5.018c1.156.951,2.257,1.858,3.341,2.775,0,.025,0,.055,0,.087-.042.662-.094,1.325-.146,1.987-.043.543-.086,1.086-.123,1.63a4.825,4.825,0,0,0,3.637,5.236l.154.045q1.764.517,3.526,1.039a1.073,1.073,0,0,1,.849,1l.116.852q.148,1.089.293,2.178l.777,5.965q.829,6.37,1.667,12.738a4.456,4.456,0,0,0,4.1,3.885c.567.045,1.137.059,1.7.059.443,0,.881-.009,1.306-.019a1.885,1.885,0,1,0-.051-3.764c-.368-.009-.735-.007-1.1,0-.428,0-.831,0-1.238-.009-.687-.024-.887-.2-.974-.856q-1.283-9.656-2.545-19.315l-.271-2.065a4.921,4.921,0,0,0-1.916-3.46,24.4,24.4,0,0,0,12.494,1.956c.04,0,.073,0,.1,0a.664.664,0,0,1,.114.008.2.2,0,0,1,.025.037,3.073,3.073,0,0,1,.337.82q1.052,4.427,2.082,8.859l1.3,5.583q.756,3.235,1.515,6.469a4.536,4.536,0,0,0,4.6,3.717c.627.01,1.368.019,2.109-.006a1.832,1.832,0,0,0,1.9-1.865,1.866,1.866,0,0,0-1.869-1.9c-.423-.023-.84-.019-1.244-.015-.192,0-.383,0-.577,0-.955,0-1.063-.09-1.281-1.017q-.929-3.953-1.855-7.908-1.02-4.356-2.043-8.711c-.3-1.289-.616-2.576-.931-3.873l-.274-1.131.11-.044c.606-.246,1.294-.525,1.953-.849a4.76,4.76,0,0,0,2.746-3.407,4.883,4.883,0,0,0-1.406-4.2,35.735,35.735,0,0,0-6.826-5.548,70.293,70.293,0,0,0-15.506-7.185l4.443-.924q6.255-1.3,12.509-2.6a1.916,1.916,0,0,0,1.735-2.268,1.794,1.794,0,0,0-.777-1.178,2.265,2.265,0,0,0-1.776-.234l-4.114.9q-9.3,2.034-18.609,4.054a2.207,2.207,0,0,1-.9-.02c-.9-.2-1.792-.405-2.687-.615-1.1-.257-2.238-.523-3.369-.761l2.453-1.039c2.755-1.166,5.6-2.371,8.394-3.575A79.664,79.664,0,0,1,132.9,94.274a62.042,62.042,0,0,1,15.211-1.4c.748.025.972.2,1.124.51s.15.593-.288,1.2a12.533,12.533,0,0,1-5.374,4.278M120.732,113.81a2.083,2.083,0,0,0-.892,1.4,2.005,2.005,0,0,0,.849,1.8,2.263,2.263,0,0,0,2.041-.036,6.145,6.145,0,0,0,2.716-3.7,54.167,54.167,0,0,1,11.224,6.142l.118.087-.084.106a2.058,2.058,0,0,1-.587.447,1.872,1.872,0,0,0-1,2.413,1.893,1.893,0,0,0,2.519,1.055,4.469,4.469,0,0,0,2.116-1.667c.42.457.818.891,1.193,1.333a.761.761,0,0,1,.2.643,1,1,0,0,1-.558.647,14.362,14.362,0,0,1-6.707,1.676h-.156a23.468,23.468,0,0,1-7.217-1.207,8.19,8.19,0,0,0,1.564-4.1,1.888,1.888,0,1,0-3.706-.688q-.056.231-.109.464a12.485,12.485,0,0,1-.371,1.372,1.977,1.977,0,0,1-.45.693,1.7,1.7,0,0,1-.488.4c-.013,0-.139-.024-.523-.336-1.775-1.44-3.57-2.918-5.307-4.347l-1.227-1.008a6.83,6.83,0,0,0,1.789-2.708,1.936,1.936,0,0,0-1.065-2.706c-.4-.145-1.77-.471-2.477,1.374a3.321,3.321,0,0,1-1.237,1.6c-2.061-1.726-4.215-3.5-6.581-5.427a17.575,17.575,0,0,0,.693-1.847c1.115.287,2.231.568,3.348.848,2.057.517,4.183,1.052,6.258,1.621,1.107.3,2.225.689,3.308,1.061.633.218,1.288.443,1.941.653a2.967,2.967,0,0,1-1.142,1.952m13.31-24.356a1.436,1.436,0,0,1-1.147.988,69.531,69.531,0,0,0-14.519,4.807c-2.31,1-4.669,2-6.949,2.963-2.118.9-4.308,1.824-6.458,2.751a1.169,1.169,0,0,1-.182.065.683.683,0,0,1-.058-.056c-.045-.048-.091-.094-.137-.138l.541-.324c1.118-.671,2.227-1.335,3.341-1.989.856-.5,1.706-1.015,2.555-1.529a71.359,71.359,0,0,1,8.41-4.578,48.973,48.973,0,0,1,14.137-3.762c.479-.053.537.039.6.135s.107.163-.135.666m-12.2,37.517c-.708-.212-1.418-.416-2.128-.621q-.748-.215-1.495-.433c-.823-.242-.844-.618-.851-.742a14.8,14.8,0,0,1,.02-1.634c.7.582,1.368,1.129,2.038,1.67a20.666,20.666,0,0,0,2.7,1.854c-.094-.033-.19-.064-.288-.093M89.909,118.3a2.642,2.642,0,0,1-2.185,1.8,4.622,4.622,0,0,1-.6.085l-.174.017a4.455,4.455,0,0,1-3.01-1.167,2.572,2.572,0,0,1-.895-2.662,2.467,2.467,0,0,1,2.054-1.8,5.012,5.012,0,0,1,1.122-.134,3.992,3.992,0,0,1,2.892,1.249,2.452,2.452,0,0,1,.794,2.607" transform="translate(512.883 4108.214)"/>
        </g>
        <g id="Grupo_159784" data-name="Grupo 159784" transform="translate(139.5 -23.088)">
          <path id="Trazado_600181-2" data-name="Trazado 600181" d="M128.559,70.5a61.124,61.124,0,1,0-61.124,61.124A61.124,61.124,0,0,0,128.559,70.5" transform="translate(561.271 4158.793)" fill="#f2fbe6"/>
          <path id="Trazado_600182-2" data-name="Trazado 600182" d="M148.4,105.166l19.2-10.634s11.1-4.114,12.468-3.366a17.107,17.107,0,0,0,2.494,1.122l-1,2.12s12.095.873,12.718,1,2.743,2.715,2.743,2.715l-3.99,5.763-3.107.873-29.81,6.609-7.606-1.839Z" transform="translate(466.055 4104.047)" fill="#99e6fc"/>
          <path id="Trazado_600197-2" data-name="Trazado 600197" d="M63.206,129.479a63.206,63.206,0,1,1,63.206-63.206,63.278,63.278,0,0,1-63.206,63.206m0-122.454a59.247,59.247,0,1,0,59.248,59.248A59.315,59.315,0,0,0,63.206,7.026" transform="translate(565.5 4163.021)"/>
          <path id="Trazado_600198-2" data-name="Trazado 600198" d="M104.625,144.789l-5.8,4.916s-1.683,5.09-4.114,5a13.017,13.017,0,0,1-4.676-1.216s-2.618-2.525-2.338-2.525.093-2.9.467-2.993,3.928-2.244,3.928-2.244l3.086-6.546s1.122-5.854,5.237-5.359a44.076,44.076,0,0,1,9.071,2.46,29.041,29.041,0,0,0,2.338,1.87c.28.093,24.5,5.143,26.184,7.668s11.6,9.711,11.222,10.513-4.769,3.44-5.237,3.524-12.344,0-12.344,0l-10.941-7.3-9.983-7.481-.491-1.777Z" transform="translate(506.746 4075.424)" fill="#557085"/>
          <path id="Trazado_600199-2" data-name="Trazado 600199" d="M143.573,98.861a2.106,2.106,0,0,0-1.2,1.139,1.806,1.806,0,0,0,.045,1.41,1.891,1.891,0,0,0,2.636.925,15.938,15.938,0,0,0,7.293-6.021,4.612,4.612,0,0,0-3.6-7.156c-2.648-.063-5.272.019-7.733.11-.97.035-1.946.15-2.89.26l-.15.018a4.122,4.122,0,0,0-.855-3.177,4.22,4.22,0,0,0-3.681-1.5c-.61.047-1.253.12-1.965.223a53.378,53.378,0,0,0-20.288,7.384c-2.8,1.712-5.667,3.411-8.443,5.055l-1.872,1.108a.872.872,0,0,1-.325.126c-.516-.057-1.025-.138-1.564-.224-.473-.075-.963-.154-1.455-.213a10.158,10.158,0,0,0-11.256,8.83,1.925,1.925,0,0,0,1.454,2.15,1.9,1.9,0,0,0,2.232-1.345,5.748,5.748,0,0,0,.141-.627c.013-.071.026-.142.04-.213a6.1,6.1,0,0,1,4.984-4.935,11.864,11.864,0,0,1,2.908.045l.569.052a5.984,5.984,0,0,1,5.039,3.307.515.515,0,0,1,.012.262,26,26,0,0,1-.973,2.577.675.675,0,0,1-.276.262c-.332.145-.686.264-1.061.39a9.017,9.017,0,0,0-1.939.829c-1.427.888-2.811,1.872-4.151,2.824q-.665.473-1.331.942c-.349.245-.69.5-1.023.757a7.774,7.774,0,0,0-7.466-3.744,6.475,6.475,0,0,0-6.212,5.764,6.626,6.626,0,0,0,3.5,6.347.77.77,0,0,1,.1.07.678.678,0,0,1,0,.093l-.028.676c-.09,2.163-.183,4.4-.213,6.608a13.511,13.511,0,0,1-3.824,9.476l-.225.238v1.3l.154.215a2.361,2.361,0,0,0,1.661,1.117,2.293,2.293,0,0,0,1.739-.935A16.74,16.74,0,0,0,86.306,131.2c.075-1.651.13-3.328.184-4.95q.038-1.147.078-2.293a14.792,14.792,0,0,0,1.54-.1,6.423,6.423,0,0,0,5.549-4.967.8.8,0,0,1,.375-.573l.124-.093c1.5-1.117,3.046-2.272,4.545-3.447a15.859,15.859,0,0,1,4.014-2.206c.979-.39,1.3-.26,1.676.2a4.481,4.481,0,0,0,1.2,1,1.992,1.992,0,0,1,1.118,2.318,5.181,5.181,0,0,0-.041,1.177c.007.152.014.3.013.456a1.235,1.235,0,0,1-1.148,1.383q-.714.135-1.427.273c-1.516.293-3.084.6-4.626.813a5.548,5.548,0,0,0-4.861,4.246c-1.57,5.108-3.216,10.29-4.807,15.3q-.864,2.724-1.727,5.447c-.3.948-.619,1.181-1.628,1.19-.308,0-.615,0-.923,0-.48,0-.961,0-1.442.009a2.1,2.1,0,0,0-1.535.607,1.81,1.81,0,0,0-.481,1.328,1.869,1.869,0,0,0,2,1.836c.713.018,1.43.013,2.125.008l.323,0a5.01,5.01,0,0,0,5.152-3.82l1.2-3.786q2.748-8.684,5.483-17.371a1.508,1.508,0,0,1,1.352-1.189c2.216-.371,4.439-.774,6.527-1.156a5.033,5.033,0,0,0,4.23-5.018c1.156.951,2.257,1.858,3.341,2.775,0,.025,0,.055,0,.087-.042.662-.094,1.325-.146,1.987-.043.543-.086,1.086-.123,1.63a4.825,4.825,0,0,0,3.637,5.236l.154.045q1.764.517,3.526,1.039a1.073,1.073,0,0,1,.849,1l.116.852q.148,1.089.293,2.178l.777,5.965q.829,6.37,1.667,12.738a4.456,4.456,0,0,0,4.1,3.885c.567.045,1.137.059,1.7.059.443,0,.881-.009,1.306-.019a1.885,1.885,0,1,0-.051-3.764c-.368-.009-.735-.007-1.1,0-.428,0-.831,0-1.238-.009-.687-.024-.887-.2-.974-.856q-1.283-9.656-2.545-19.315l-.271-2.065a4.921,4.921,0,0,0-1.916-3.46,24.4,24.4,0,0,0,12.494,1.956c.04,0,.073,0,.1,0a.664.664,0,0,1,.114.008.2.2,0,0,1,.025.037,3.073,3.073,0,0,1,.337.82q1.052,4.427,2.082,8.859l1.3,5.583q.756,3.235,1.515,6.469a4.536,4.536,0,0,0,4.6,3.717c.627.01,1.368.019,2.109-.006a1.832,1.832,0,0,0,1.9-1.865,1.866,1.866,0,0,0-1.869-1.9c-.423-.023-.84-.019-1.244-.015-.192,0-.383,0-.577,0-.955,0-1.063-.09-1.281-1.017q-.929-3.953-1.855-7.908-1.02-4.356-2.043-8.711c-.3-1.289-.616-2.576-.931-3.873l-.274-1.131.11-.044c.606-.246,1.294-.525,1.953-.849a4.76,4.76,0,0,0,2.746-3.407,4.883,4.883,0,0,0-1.406-4.2,35.735,35.735,0,0,0-6.826-5.548,70.293,70.293,0,0,0-15.506-7.185l4.443-.924q6.255-1.3,12.509-2.6a1.916,1.916,0,0,0,1.735-2.268,1.794,1.794,0,0,0-.777-1.178,2.265,2.265,0,0,0-1.776-.234l-4.114.9q-9.3,2.034-18.609,4.054a2.207,2.207,0,0,1-.9-.02c-.9-.2-1.792-.405-2.687-.615-1.1-.257-2.238-.523-3.369-.761l2.453-1.039c2.755-1.166,5.6-2.371,8.394-3.575A79.664,79.664,0,0,1,132.9,94.274a62.042,62.042,0,0,1,15.211-1.4c.748.025.972.2,1.124.51s.15.593-.288,1.2a12.533,12.533,0,0,1-5.374,4.278M120.732,113.81a2.083,2.083,0,0,0-.892,1.4,2.005,2.005,0,0,0,.849,1.8,2.263,2.263,0,0,0,2.041-.036,6.145,6.145,0,0,0,2.716-3.7,54.167,54.167,0,0,1,11.224,6.142l.118.087-.084.106a2.058,2.058,0,0,1-.587.447,1.872,1.872,0,0,0-1,2.413,1.893,1.893,0,0,0,2.519,1.055,4.469,4.469,0,0,0,2.116-1.667c.42.457.818.891,1.193,1.333a.761.761,0,0,1,.2.643,1,1,0,0,1-.558.647,14.362,14.362,0,0,1-6.707,1.676h-.156a23.468,23.468,0,0,1-7.217-1.207,8.19,8.19,0,0,0,1.564-4.1,1.888,1.888,0,1,0-3.706-.688q-.056.231-.109.464a12.485,12.485,0,0,1-.371,1.372,1.977,1.977,0,0,1-.45.693,1.7,1.7,0,0,1-.488.4c-.013,0-.139-.024-.523-.336-1.775-1.44-3.57-2.918-5.307-4.347l-1.227-1.008a6.83,6.83,0,0,0,1.789-2.708,1.936,1.936,0,0,0-1.065-2.706c-.4-.145-1.77-.471-2.477,1.374a3.321,3.321,0,0,1-1.237,1.6c-2.061-1.726-4.215-3.5-6.581-5.427a17.575,17.575,0,0,0,.693-1.847c1.115.287,2.231.568,3.348.848,2.057.517,4.183,1.052,6.258,1.621,1.107.3,2.225.689,3.308,1.061.633.218,1.288.443,1.941.653a2.967,2.967,0,0,1-1.142,1.952m13.31-24.356a1.436,1.436,0,0,1-1.147.988,69.531,69.531,0,0,0-14.519,4.807c-2.31,1-4.669,2-6.949,2.963-2.118.9-4.308,1.824-6.458,2.751a1.169,1.169,0,0,1-.182.065.683.683,0,0,1-.058-.056c-.045-.048-.091-.094-.137-.138l.541-.324c1.118-.671,2.227-1.335,3.341-1.989.856-.5,1.706-1.015,2.555-1.529a71.359,71.359,0,0,1,8.41-4.578,48.973,48.973,0,0,1,14.137-3.762c.479-.053.537.039.6.135s.107.163-.135.666m-12.2,37.517c-.708-.212-1.418-.416-2.128-.621q-.748-.215-1.495-.433c-.823-.242-.844-.618-.851-.742a14.8,14.8,0,0,1,.02-1.634c.7.582,1.368,1.129,2.038,1.67a20.666,20.666,0,0,0,2.7,1.854c-.094-.033-.19-.064-.288-.093M89.909,118.3a2.642,2.642,0,0,1-2.185,1.8,4.622,4.622,0,0,1-.6.085l-.174.017a4.455,4.455,0,0,1-3.01-1.167,2.572,2.572,0,0,1-.895-2.662,2.467,2.467,0,0,1,2.054-1.8,5.012,5.012,0,0,1,1.122-.134,3.992,3.992,0,0,1,2.892,1.249,2.452,2.452,0,0,1,.794,2.607" transform="translate(512.883 4108.214)"/>
        </g>
        <g id="Grupo_159781-2" data-name="Grupo 159781" transform="translate(48.924 -22.076)">
          <path id="Trazado_600200" data-name="Trazado 600200" d="M1026.95,109.271a17.21,17.21,0,0,0-2.514-9.244,16.1,16.1,0,0,0-10.642-7.384c-2.9-.61-5.817-1.095-8.708-1.728a8.763,8.763,0,0,1-2.421-1.059c-1.635-.945-3.225-1.967-4.988-3.053,1.128-.664,2.128-1.274,3.147-1.851,5.679-3.218,8.4-8.106,8.353-14.612-.043-6.585.01-13.17-.02-19.755-.06-13.076-8.556-24.028-21.168-26.908-9.442-2.156-17.833.207-25,6.759-1.119,1.023-1.253,2.153-.421,2.993.789.8,1.853.695,2.939-.291,6.777-6.153,14.584-7.885,23.361-5.439.355.1.7.235,1.046.366a5.743,5.743,0,0,1,.515.268C989.4,36,985.592,41.757,978.77,45.44a21.1,21.1,0,0,1-10.33,2.459c-4.3-.029-6.715,2.294-6.641,6.588a80.314,80.314,0,0,0,.528,10.814,17.791,17.791,0,0,0,7.064,11.363,2.026,2.026,0,0,1,.923,1.847c-.064,1.6-.028,3.21-.016,4.815.007.924-.29,1.4-1.245.857a71.527,71.527,0,0,1-6.276-3.661,10.721,10.721,0,0,1-4.625-8.987c-.074-7.284-.049-14.569.009-21.853a23.447,23.447,0,0,1,2.024-9.092,2.987,2.987,0,0,0,.115-2.078,1.836,1.836,0,0,0-1.521-.912,2.7,2.7,0,0,0-1.759,1.212A24.066,24.066,0,0,0,954.481,49.4c-.077,7.448-.157,14.9,0,22.346a14.71,14.71,0,0,0,7.487,12.719c1.252.775,2.539,1.494,3.838,2.256a23.873,23.873,0,0,1-12.034,5.224,26.6,26.6,0,0,0-7.923,2.125c-5.375,2.529-8.344,7-9.049,12.929-.078.653-.122,1.309-.185,1.963,0,.03-.042.056-.065.084-16.3-17.628-21.429-51.309-.511-76.438a59.383,59.383,0,0,1,86.018-5.782c25.486,23.544,24.13,60.753,4.893,82.447" transform="translate(-52.508 4157.648)" fill="#e2e7fe"/>
          <path id="Trazado_600201" data-name="Trazado 600201" d="M1025.5,69.784l-1,12.4.5,19.941,2.12,5.8s7.606,7.73,8.479,7.606,4.987,0,4.987,0V106.28L1034,99.61l-1.458-14.738.686-4.5,6.359-1.546,9.476-3.566,10.848-10.723,1.387,8.02,6.435,6.269,7.141,3.363v6.956l-6.109,1.74L1065.4,99.61l-4.863,6.67-.873,9.254,5.486-.75,9.725-8.5.748-8.2.748-13.715V77.379l-5.237-12.843-8.728-7.689-9.6-2.535s-10.848,1.371-11.222,1.247-9.1,5.361-9.1,5.361Z" transform="translate(-121.022 4128.682)" fill="#f29100"/>
          <path id="Trazado_600202" data-name="Trazado 600202" d="M1078.4,97.283a40.433,40.433,0,0,0,6.8,10.15,2.374,2.374,0,0,1,.676,1.4c-.024,4.274.251,8.6-.285,12.811-.978,7.689-8,13.371-15.941,13.432-7.782.059-14.9-5.628-16.015-13.22a73.459,73.459,0,0,1-.3-10.586c0-1.24,1.046-1.93,2.555-1.914a26.039,26.039,0,0,0,10.355-1.929,25.2,25.2,0,0,0,11.479-9.389c.115-.171.222-.347.345-.511a2.1,2.1,0,0,1,.323-.243" transform="translate(-140.32 4099.887)" fill="#fcd5d0"/>
          <path id="Trazado_600203" data-name="Trazado 600203" d="M1118.816,281.839c3.259-11.789,6.251-23.583,6.218-36.15l7.273,4.459c-1.123,1.249-2.184,2.4-3.209,3.574-1.574,1.808-1.468,3.564.28,5.2.09.084.183.165.275.248,2.246,2.036,2.247,2.037,1.08,4.819-.238.568-.531,1.117-.718,1.7a1.681,1.681,0,0,0,.922,2.166,1.527,1.527,0,0,0,2.25-.588A33.031,33.031,0,0,0,1135.24,261c.163-.838-.614-1.97-1.195-2.807a13.639,13.639,0,0,0-2.161-2.007c1.252-1.416,2.446-2.807,3.7-4.14a1.3,1.3,0,0,1,1.006-.158c2.707.5,5.416,1,8.106,1.584a12.605,12.605,0,0,1,10.248,12.476c.1,4.723.126,4.759-3.483,7.742a58.963,58.963,0,0,1-32.046,13.4c.418-.539.712-.91,1-1.287q4.036-5.3,8.07-10.6a1.938,1.938,0,0,0,.117-2.688c-.843-.978-2.122-.8-3.025.41q-3.033,4.049-6.054,8.106c-.215.286-.471.542-.708.812" transform="translate(-184.222 4000.439)" fill="#557085"/>
          <path id="Trazado_600204" data-name="Trazado 600204" d="M1000.248,268.778c-.643.582-1.227,1.151-1.852,1.671a3.828,3.828,0,0,0-1.343,4.637,52.738,52.738,0,0,0,4.189,8.872c3.219,4.908,6.863,9.537,10.335,14.279.311.424.66.82.992,1.23l-.136.355c-3.1-.621-6.251-1.08-9.3-1.892a57.682,57.682,0,0,1-25.138-14.04,2.718,2.718,0,0,1-.768-1.777,28.849,28.849,0,0,1,.31-6.262c1.23-5.542,4.865-8.778,10.4-9.9q3.745-.761,7.508-1.422a1.544,1.544,0,0,1,1.2.239c1.227,1.268,2.373,2.615,3.616,4.013" transform="translate(-89.324 3987.833)" fill="#557085"/>
          <path id="Trazado_600205" data-name="Trazado 600205" d="M1079.311,218.512a20.3,20.3,0,0,0,15.3-.028,4.636,4.636,0,0,1,.13.756c-.039,4.443-.106,8.886-.117,13.329a1.5,1.5,0,0,1-.957,1.516,13.988,13.988,0,0,1-13.586-.11,1.572,1.572,0,0,1-.774-1.071c-.094-4.688-.12-9.378-.157-14.067,0-.068.067-.138.164-.325" transform="translate(-157.64 4018.67)" fill="#fcd5d0"/>
          <path id="Trazado_600206" data-name="Trazado 600206" d="M1095.349,277.628a150.864,150.864,0,0,1-7.145,28.8,149.32,149.32,0,0,1-7.172-28.783,18.307,18.307,0,0,0,14.317-.019" transform="translate(-158.902 3979.037)" fill="#fff"/>
          <path id="Trazado_600207" data-name="Trazado 600207" d="M1045.777,250.162l7.275-4.45a83.281,83.281,0,0,0,1.93,18.411c1.311,5.924,2.84,11.8,4.288,17.75-.229-.258-.47-.505-.684-.773a94.029,94.029,0,0,1-9.956-14.532c-.726-1.374-1.239-2.86-1.882-4.279a1.478,1.478,0,0,1,.546-2.114,10.989,10.989,0,0,0,1.3-1.137c1.92-1.765,2-3.488.249-5.465-.981-1.107-1.977-2.2-3.064-3.411" transform="translate(-135.278 4000.424)" fill="#557085"/>
          <path id="Trazado_600208" data-name="Trazado 600208" d="M1163.616,144.119v-5.238a2.829,2.829,0,0,1,3.062,1.1,2.5,2.5,0,0,1,.112,2.883,2.811,2.811,0,0,1-3.174,1.26" transform="translate(-214.242 4072.059)" fill="#fcd5d0"/>
          <path id="Trazado_600209" data-name="Trazado 600209" d="M911.118,67.168v-7.9c.072-.359.156-.716.213-1.077.5-3.2.8-6.453,1.527-9.6A63.055,63.055,0,0,1,963.565.945C965.826.562,968.11.312,970.384,0h7.9c1.176.153,2.351.317,3.528.457,12.383,1.464,23.539,6.017,32.913,14.2,19.361,16.9,26.505,38.19,21.031,63.281-5.952,27.282-31.151,47.707-58.992,48.466a61.592,61.592,0,0,1-28.193-5.514c-20-9.37-32.217-24.936-36.472-46.654-.457-2.331-.662-4.711-.984-7.067m108.368,34.675c19.237-21.693,20.593-58.9-4.893-82.446a59.382,59.382,0,0,0-86.018,5.781c-20.918,25.13-15.793,58.811.511,76.438.022-.028.062-.054.065-.084.064-.655.108-1.311.185-1.963.705-5.928,3.674-10.4,9.049-12.93a26.593,26.593,0,0,1,7.923-2.125,23.876,23.876,0,0,0,12.034-5.224c-1.3-.762-2.586-1.481-3.838-2.256a14.71,14.71,0,0,1-7.487-12.719c-.158-7.445-.078-14.9,0-22.346a24.067,24.067,0,0,1,2.541-10.586,2.7,2.7,0,0,1,1.759-1.212,1.836,1.836,0,0,1,1.521.912,2.989,2.989,0,0,1-.115,2.078,23.449,23.449,0,0,0-2.024,9.092c-.058,7.284-.082,14.57-.009,21.853a10.719,10.719,0,0,0,4.624,8.987,71.448,71.448,0,0,0,6.276,3.661c.955.541,1.252.067,1.245-.857-.012-1.6-.048-3.212.016-4.815a2.027,2.027,0,0,0-.924-1.847,17.789,17.789,0,0,1-7.064-11.363,80.316,80.316,0,0,1-.528-10.814c-.074-4.294,2.34-6.616,6.641-6.588a21.1,21.1,0,0,0,10.33-2.459c6.822-3.684,10.627-9.436,11.658-17.107a5.57,5.57,0,0,0-.515-.268c-.345-.132-.691-.267-1.046-.367-8.778-2.446-16.584-.713-23.361,5.44-1.086.986-2.15,1.089-2.939.291-.831-.84-.7-1.97.422-2.993,7.169-6.552,15.561-8.915,25-6.758,12.612,2.88,21.108,13.832,21.168,26.908.03,6.585-.023,13.17.02,19.755.043,6.507-2.673,11.394-8.353,14.613-1.019.577-2.019,1.186-3.147,1.851,1.763,1.086,3.353,2.108,4.988,3.053a8.775,8.775,0,0,0,2.421,1.059c2.89.633,5.812,1.118,8.708,1.728a16.1,16.1,0,0,1,10.641,7.384,17.211,17.211,0,0,1,2.514,9.244m-36.361-69.75a2.045,2.045,0,0,0-.323.243c-.123.164-.23.341-.345.511a25.2,25.2,0,0,1-11.48,9.39,26.05,26.05,0,0,1-10.355,1.929c-1.509-.017-2.556.674-2.555,1.913a73.458,73.458,0,0,0,.3,10.586c1.116,7.592,8.232,13.279,16.015,13.22,7.942-.061,14.963-5.743,15.941-13.432.536-4.215.261-8.537.285-12.811a2.378,2.378,0,0,0-.676-1.4,40.429,40.429,0,0,1-6.8-10.15M979.637,117.2c.237-.27.493-.526.708-.812q3.032-4.049,6.054-8.106c.9-1.206,2.182-1.388,3.025-.41a1.938,1.938,0,0,1-.117,2.688q-4.035,5.3-8.07,10.6c-.287.376-.58.748-1,1.287a58.963,58.963,0,0,0,32.046-13.4c3.609-2.983,3.579-3.019,3.483-7.742a12.605,12.605,0,0,0-10.248-12.476c-2.69-.583-5.4-1.08-8.106-1.584a1.3,1.3,0,0,0-1.006.158c-1.255,1.333-2.448,2.724-3.7,4.14a13.642,13.642,0,0,1,2.161,2.007c.581.837,1.357,1.969,1.195,2.807a33.032,33.032,0,0,1-2.054,6.263,1.527,1.527,0,0,1-2.25.588,1.68,1.68,0,0,1-.922-2.166c.187-.584.48-1.133.718-1.7,1.167-2.782,1.166-2.783-1.08-4.819-.091-.083-.185-.164-.275-.248-1.748-1.633-1.854-3.389-.28-5.2,1.025-1.178,2.086-2.325,3.209-3.574l-7.273-4.459c.033,12.567-2.959,24.361-6.218,36.15M955.966,91.535c-1.244-1.4-2.389-2.744-3.616-4.013a1.542,1.542,0,0,0-1.2-.239q-3.763.66-7.508,1.422c-5.531,1.124-9.165,4.36-10.4,9.9a28.855,28.855,0,0,0-.31,6.262,2.721,2.721,0,0,0,.768,1.777,57.684,57.684,0,0,0,25.138,14.04c3.053.811,6.2,1.271,9.3,1.891l.136-.355c-.332-.409-.681-.805-.992-1.23-3.472-4.742-7.116-9.371-10.335-14.279a52.727,52.727,0,0,1-4.189-8.872,3.829,3.829,0,0,1,1.343-4.637c.625-.52,1.21-1.088,1.852-1.671m10.748-19.429c-.1.187-.164.256-.164.325.038,4.689.063,9.379.158,14.067a1.57,1.57,0,0,0,.774,1.071,13.988,13.988,0,0,0,13.585.11,1.5,1.5,0,0,0,.957-1.516c.012-4.443.078-8.886.117-13.329a4.668,4.668,0,0,0-.13-.756,20.3,20.3,0,0,1-15.3.028m14.775,19.483a18.307,18.307,0,0,1-14.317.019,149.315,149.315,0,0,0,7.172,28.783,150.867,150.867,0,0,0,7.145-28.8M955.542,85.51c1.087,1.209,2.083,2.3,3.065,3.411,1.751,1.977,1.671,3.7-.249,5.465a11.021,11.021,0,0,1-1.3,1.136,1.479,1.479,0,0,0-.546,2.114c.643,1.42,1.157,2.9,1.883,4.279a93.993,93.993,0,0,0,9.956,14.532c.214.268.454.515.684.773-1.447-5.951-2.977-11.826-4.288-17.75a83.294,83.294,0,0,1-1.93-18.411l-7.275,4.45M994.39,54.992c-.084.487-.185,1-.26,1.523-.6,4.153-2.124,8.044-5.314,10.7a7.808,7.808,0,0,0-2.984,7.752,6.54,6.54,0,0,1,.006.985c-.024,1,.406,1.29,1.286.79,2.033-1.153,4.142-2.2,6.065-3.513a10.151,10.151,0,0,0,4.616-7.67c.256-3.02.151-6.07.2-9.107.011-.671,0-1.342,0-1.958l-3.616.5M986.5,22.723c-.276,1.114-.635,2.208-.8,3.331a5.732,5.732,0,0,0,.066,2.58,31.172,31.172,0,0,0,5.291,9.245c.993,1.243,1.909,2.548,2.88,3.81a.993.993,0,0,0,.572.376c1.122.147,2.249.249,3.375.366.589-6.95-5.217-17.036-11.386-19.707M994.416,51.1a2.811,2.811,0,0,0,3.174-1.26,2.5,2.5,0,0,0-.112-2.883,2.829,2.829,0,0,0-3.062-1.1Z" transform="translate(-45.043 4165.077)"/>
        </g>
        <g id="Grupo_159785" data-name="Grupo 159785" transform="translate(258.925 -22.076)">
          <path id="Trazado_600200-2" data-name="Trazado 600200" d="M1026.95,109.271a17.21,17.21,0,0,0-2.514-9.244,16.1,16.1,0,0,0-10.642-7.384c-2.9-.61-5.817-1.095-8.708-1.728a8.763,8.763,0,0,1-2.421-1.059c-1.635-.945-3.225-1.967-4.988-3.053,1.128-.664,2.128-1.274,3.147-1.851,5.679-3.218,8.4-8.106,8.353-14.612-.043-6.585.01-13.17-.02-19.755-.06-13.076-8.556-24.028-21.168-26.908-9.442-2.156-17.833.207-25,6.759-1.119,1.023-1.253,2.153-.421,2.993.789.8,1.853.695,2.939-.291,6.777-6.153,14.584-7.885,23.361-5.439.355.1.7.235,1.046.366a5.743,5.743,0,0,1,.515.268C989.4,36,985.592,41.757,978.77,45.44a21.1,21.1,0,0,1-10.33,2.459c-4.3-.029-6.715,2.294-6.641,6.588a80.314,80.314,0,0,0,.528,10.814,17.791,17.791,0,0,0,7.064,11.363,2.026,2.026,0,0,1,.923,1.847c-.064,1.6-.028,3.21-.016,4.815.007.924-.29,1.4-1.245.857a71.527,71.527,0,0,1-6.276-3.661,10.721,10.721,0,0,1-4.625-8.987c-.074-7.284-.049-14.569.009-21.853a23.447,23.447,0,0,1,2.024-9.092,2.987,2.987,0,0,0,.115-2.078,1.836,1.836,0,0,0-1.521-.912,2.7,2.7,0,0,0-1.759,1.212A24.066,24.066,0,0,0,954.481,49.4c-.077,7.448-.157,14.9,0,22.346a14.71,14.71,0,0,0,7.487,12.719c1.252.775,2.539,1.494,3.838,2.256a23.873,23.873,0,0,1-12.034,5.224,26.6,26.6,0,0,0-7.923,2.125c-5.375,2.529-8.344,7-9.049,12.929-.078.653-.122,1.309-.185,1.963,0,.03-.042.056-.065.084-16.3-17.628-21.429-51.309-.511-76.438a59.383,59.383,0,0,1,86.018-5.782c25.486,23.544,24.13,60.753,4.893,82.447" transform="translate(-52.508 4157.648)" fill="#f2fbe6"/>
          <path id="Trazado_600201-2" data-name="Trazado 600201" d="M1025.5,69.784l-1,12.4.5,19.941,2.12,5.8s7.606,7.73,8.479,7.606,4.987,0,4.987,0V106.28L1034,99.61l-1.458-14.738.686-4.5,6.359-1.546,9.476-3.566,10.848-10.723,1.387,8.02,6.435,6.269,7.141,3.363v6.956l-6.109,1.74L1065.4,99.61l-4.863,6.67-.873,9.254,5.486-.75,9.725-8.5.748-8.2.748-13.715V77.379l-5.237-12.843-8.728-7.689-9.6-2.535s-10.848,1.371-11.222,1.247-9.1,5.361-9.1,5.361Z" transform="translate(-121.022 4128.682)" fill="#f29100"/>
          <path id="Trazado_600202-2" data-name="Trazado 600202" d="M1078.4,97.283a40.433,40.433,0,0,0,6.8,10.15,2.374,2.374,0,0,1,.676,1.4c-.024,4.274.251,8.6-.285,12.811-.978,7.689-8,13.371-15.941,13.432-7.782.059-14.9-5.628-16.015-13.22a73.459,73.459,0,0,1-.3-10.586c0-1.24,1.046-1.93,2.555-1.914a26.039,26.039,0,0,0,10.355-1.929,25.2,25.2,0,0,0,11.479-9.389c.115-.171.222-.347.345-.511a2.1,2.1,0,0,1,.323-.243" transform="translate(-140.32 4099.887)" fill="#fcd5d0"/>
          <path id="Trazado_600203-2" data-name="Trazado 600203" d="M1118.816,281.839c3.259-11.789,6.251-23.583,6.218-36.15l7.273,4.459c-1.123,1.249-2.184,2.4-3.209,3.574-1.574,1.808-1.468,3.564.28,5.2.09.084.183.165.275.248,2.246,2.036,2.247,2.037,1.08,4.819-.238.568-.531,1.117-.718,1.7a1.681,1.681,0,0,0,.922,2.166,1.527,1.527,0,0,0,2.25-.588A33.031,33.031,0,0,0,1135.24,261c.163-.838-.614-1.97-1.195-2.807a13.639,13.639,0,0,0-2.161-2.007c1.252-1.416,2.446-2.807,3.7-4.14a1.3,1.3,0,0,1,1.006-.158c2.707.5,5.416,1,8.106,1.584a12.605,12.605,0,0,1,10.248,12.476c.1,4.723.126,4.759-3.483,7.742a58.963,58.963,0,0,1-32.046,13.4c.418-.539.712-.91,1-1.287q4.036-5.3,8.07-10.6a1.938,1.938,0,0,0,.117-2.688c-.843-.978-2.122-.8-3.025.41q-3.033,4.049-6.054,8.106c-.215.286-.471.542-.708.812" transform="translate(-184.222 4000.439)" fill="#557085"/>
          <path id="Trazado_600204-2" data-name="Trazado 600204" d="M1000.248,268.778c-.643.582-1.227,1.151-1.852,1.671a3.828,3.828,0,0,0-1.343,4.637,52.738,52.738,0,0,0,4.189,8.872c3.219,4.908,6.863,9.537,10.335,14.279.311.424.66.82.992,1.23l-.136.355c-3.1-.621-6.251-1.08-9.3-1.892a57.682,57.682,0,0,1-25.138-14.04,2.718,2.718,0,0,1-.768-1.777,28.849,28.849,0,0,1,.31-6.262c1.23-5.542,4.865-8.778,10.4-9.9q3.745-.761,7.508-1.422a1.544,1.544,0,0,1,1.2.239c1.227,1.268,2.373,2.615,3.616,4.013" transform="translate(-89.324 3987.833)" fill="#557085"/>
          <path id="Trazado_600205-2" data-name="Trazado 600205" d="M1079.311,218.512a20.3,20.3,0,0,0,15.3-.028,4.636,4.636,0,0,1,.13.756c-.039,4.443-.106,8.886-.117,13.329a1.5,1.5,0,0,1-.957,1.516,13.988,13.988,0,0,1-13.586-.11,1.572,1.572,0,0,1-.774-1.071c-.094-4.688-.12-9.378-.157-14.067,0-.068.067-.138.164-.325" transform="translate(-157.64 4018.67)" fill="#fcd5d0"/>
          <path id="Trazado_600206-2" data-name="Trazado 600206" d="M1095.349,277.628a150.864,150.864,0,0,1-7.145,28.8,149.32,149.32,0,0,1-7.172-28.783,18.307,18.307,0,0,0,14.317-.019" transform="translate(-158.902 3979.037)" fill="#fff"/>
          <path id="Trazado_600207-2" data-name="Trazado 600207" d="M1045.777,250.162l7.275-4.45a83.281,83.281,0,0,0,1.93,18.411c1.311,5.924,2.84,11.8,4.288,17.75-.229-.258-.47-.505-.684-.773a94.029,94.029,0,0,1-9.956-14.532c-.726-1.374-1.239-2.86-1.882-4.279a1.478,1.478,0,0,1,.546-2.114,10.989,10.989,0,0,0,1.3-1.137c1.92-1.765,2-3.488.249-5.465-.981-1.107-1.977-2.2-3.064-3.411" transform="translate(-135.278 4000.424)" fill="#557085"/>
          <path id="Trazado_600208-2" data-name="Trazado 600208" d="M1163.616,144.119v-5.238a2.829,2.829,0,0,1,3.062,1.1,2.5,2.5,0,0,1,.112,2.883,2.811,2.811,0,0,1-3.174,1.26" transform="translate(-214.242 4072.059)" fill="#fcd5d0"/>
          <path id="Trazado_600209-2" data-name="Trazado 600209" d="M911.118,67.168v-7.9c.072-.359.156-.716.213-1.077.5-3.2.8-6.453,1.527-9.6A63.055,63.055,0,0,1,963.565.945C965.826.562,968.11.312,970.384,0h7.9c1.176.153,2.351.317,3.528.457,12.383,1.464,23.539,6.017,32.913,14.2,19.361,16.9,26.505,38.19,21.031,63.281-5.952,27.282-31.151,47.707-58.992,48.466a61.592,61.592,0,0,1-28.193-5.514c-20-9.37-32.217-24.936-36.472-46.654-.457-2.331-.662-4.711-.984-7.067m108.368,34.675c19.237-21.693,20.593-58.9-4.893-82.446a59.382,59.382,0,0,0-86.018,5.781c-20.918,25.13-15.793,58.811.511,76.438.022-.028.062-.054.065-.084.064-.655.108-1.311.185-1.963.705-5.928,3.674-10.4,9.049-12.93a26.593,26.593,0,0,1,7.923-2.125,23.876,23.876,0,0,0,12.034-5.224c-1.3-.762-2.586-1.481-3.838-2.256a14.71,14.71,0,0,1-7.487-12.719c-.158-7.445-.078-14.9,0-22.346a24.067,24.067,0,0,1,2.541-10.586,2.7,2.7,0,0,1,1.759-1.212,1.836,1.836,0,0,1,1.521.912,2.989,2.989,0,0,1-.115,2.078,23.449,23.449,0,0,0-2.024,9.092c-.058,7.284-.082,14.57-.009,21.853a10.719,10.719,0,0,0,4.624,8.987,71.448,71.448,0,0,0,6.276,3.661c.955.541,1.252.067,1.245-.857-.012-1.6-.048-3.212.016-4.815a2.027,2.027,0,0,0-.924-1.847,17.789,17.789,0,0,1-7.064-11.363,80.316,80.316,0,0,1-.528-10.814c-.074-4.294,2.34-6.616,6.641-6.588a21.1,21.1,0,0,0,10.33-2.459c6.822-3.684,10.627-9.436,11.658-17.107a5.57,5.57,0,0,0-.515-.268c-.345-.132-.691-.267-1.046-.367-8.778-2.446-16.584-.713-23.361,5.44-1.086.986-2.15,1.089-2.939.291-.831-.84-.7-1.97.422-2.993,7.169-6.552,15.561-8.915,25-6.758,12.612,2.88,21.108,13.832,21.168,26.908.03,6.585-.023,13.17.02,19.755.043,6.507-2.673,11.394-8.353,14.613-1.019.577-2.019,1.186-3.147,1.851,1.763,1.086,3.353,2.108,4.988,3.053a8.775,8.775,0,0,0,2.421,1.059c2.89.633,5.812,1.118,8.708,1.728a16.1,16.1,0,0,1,10.641,7.384,17.211,17.211,0,0,1,2.514,9.244m-36.361-69.75a2.045,2.045,0,0,0-.323.243c-.123.164-.23.341-.345.511a25.2,25.2,0,0,1-11.48,9.39,26.05,26.05,0,0,1-10.355,1.929c-1.509-.017-2.556.674-2.555,1.913a73.458,73.458,0,0,0,.3,10.586c1.116,7.592,8.232,13.279,16.015,13.22,7.942-.061,14.963-5.743,15.941-13.432.536-4.215.261-8.537.285-12.811a2.378,2.378,0,0,0-.676-1.4,40.429,40.429,0,0,1-6.8-10.15M979.637,117.2c.237-.27.493-.526.708-.812q3.032-4.049,6.054-8.106c.9-1.206,2.182-1.388,3.025-.41a1.938,1.938,0,0,1-.117,2.688q-4.035,5.3-8.07,10.6c-.287.376-.58.748-1,1.287a58.963,58.963,0,0,0,32.046-13.4c3.609-2.983,3.579-3.019,3.483-7.742a12.605,12.605,0,0,0-10.248-12.476c-2.69-.583-5.4-1.08-8.106-1.584a1.3,1.3,0,0,0-1.006.158c-1.255,1.333-2.448,2.724-3.7,4.14a13.642,13.642,0,0,1,2.161,2.007c.581.837,1.357,1.969,1.195,2.807a33.032,33.032,0,0,1-2.054,6.263,1.527,1.527,0,0,1-2.25.588,1.68,1.68,0,0,1-.922-2.166c.187-.584.48-1.133.718-1.7,1.167-2.782,1.166-2.783-1.08-4.819-.091-.083-.185-.164-.275-.248-1.748-1.633-1.854-3.389-.28-5.2,1.025-1.178,2.086-2.325,3.209-3.574l-7.273-4.459c.033,12.567-2.959,24.361-6.218,36.15M955.966,91.535c-1.244-1.4-2.389-2.744-3.616-4.013a1.542,1.542,0,0,0-1.2-.239q-3.763.66-7.508,1.422c-5.531,1.124-9.165,4.36-10.4,9.9a28.855,28.855,0,0,0-.31,6.262,2.721,2.721,0,0,0,.768,1.777,57.684,57.684,0,0,0,25.138,14.04c3.053.811,6.2,1.271,9.3,1.891l.136-.355c-.332-.409-.681-.805-.992-1.23-3.472-4.742-7.116-9.371-10.335-14.279a52.727,52.727,0,0,1-4.189-8.872,3.829,3.829,0,0,1,1.343-4.637c.625-.52,1.21-1.088,1.852-1.671m10.748-19.429c-.1.187-.164.256-.164.325.038,4.689.063,9.379.158,14.067a1.57,1.57,0,0,0,.774,1.071,13.988,13.988,0,0,0,13.585.11,1.5,1.5,0,0,0,.957-1.516c.012-4.443.078-8.886.117-13.329a4.668,4.668,0,0,0-.13-.756,20.3,20.3,0,0,1-15.3.028m14.775,19.483a18.307,18.307,0,0,1-14.317.019,149.315,149.315,0,0,0,7.172,28.783,150.867,150.867,0,0,0,7.145-28.8M955.542,85.51c1.087,1.209,2.083,2.3,3.065,3.411,1.751,1.977,1.671,3.7-.249,5.465a11.021,11.021,0,0,1-1.3,1.136,1.479,1.479,0,0,0-.546,2.114c.643,1.42,1.157,2.9,1.883,4.279a93.993,93.993,0,0,0,9.956,14.532c.214.268.454.515.684.773-1.447-5.951-2.977-11.826-4.288-17.75a83.294,83.294,0,0,1-1.93-18.411l-7.275,4.45M994.39,54.992c-.084.487-.185,1-.26,1.523-.6,4.153-2.124,8.044-5.314,10.7a7.808,7.808,0,0,0-2.984,7.752,6.54,6.54,0,0,1,.006.985c-.024,1,.406,1.29,1.286.79,2.033-1.153,4.142-2.2,6.065-3.513a10.151,10.151,0,0,0,4.616-7.67c.256-3.02.151-6.07.2-9.107.011-.671,0-1.342,0-1.958l-3.616.5M986.5,22.723c-.276,1.114-.635,2.208-.8,3.331a5.732,5.732,0,0,0,.066,2.58,31.172,31.172,0,0,0,5.291,9.245c.993,1.243,1.909,2.548,2.88,3.81a.993.993,0,0,0,.572.376c1.122.147,2.249.249,3.375.366.589-6.95-5.217-17.036-11.386-19.707M994.416,51.1a2.811,2.811,0,0,0,3.174-1.26,2.5,2.5,0,0,0-.112-2.883,2.829,2.829,0,0,0-3.062-1.1Z" transform="translate(-45.043 4165.077)"/>
        </g>
        <text id="Mosquito" transform="translate(314 4283)" fill="#12263f" font-size="16" font-family="Roboto-Bold, Roboto" font-weight="700"><tspan x="0" y="15">Mosquito</tspan></text>
        <text id="Pica_persona_con" data-name="Pica persona con" transform="translate(495 4283)" fill="#12263f" font-size="16" font-family="Roboto-Bold, Roboto" font-weight="700"><tspan x="0" y="15">Pica persona con</tspan></text>
        <text id="_dengue" data-name=" dengue" transform="translate(527 4303)" fill="#12263f" font-size="16" font-family="Roboto-Bold, Roboto" font-weight="700"><tspan x="0" y="15" xml:space="preserve"> dengue</tspan></text>
        <text id="Mosquito_infectado" data-name="Mosquito infectado" transform="translate(698 4283)" fill="#12263f" font-size="16" font-family="Roboto-Bold, Roboto" font-weight="700"><tspan x="0" y="15">Mosquito infectado</tspan></text>
        <text id="Pica_persona_sana" data-name="Pica persona sana" transform="translate(912 4283)" fill="#12263f" font-size="16" font-family="Roboto-Bold, Roboto" font-weight="700"><tspan x="0" y="15">Pica persona sana</tspan></text>
        <text id="Persona_enferma" data-name="Persona enferma" transform="translate(1125 4283)" fill="#12263f" font-size="16" font-family="Roboto-Bold, Roboto" font-weight="700"><tspan x="0" y="15">Persona enferma</tspan></text>
        <text id="con_dengue" data-name="con dengue" transform="translate(1145 4303)" fill="#12263f" font-size="16" font-family="Roboto-Bold, Roboto" font-weight="700"><tspan x="0" y="15">con dengue</tspan></text>
      </g>
      <path id="Rectángulo_45979" data-name="Rectángulo 45979" d="M0,0H230a0,0,0,0,1,0,0V28a16,16,0,0,1-16,16H16A16,16,0,0,1,0,28V0A0,0,0,0,1,0,0Z" transform="translate(685 4157)" fill="#344abe"/>
      <path id="Trazado_600181-3" data-name="Trazado 600181" d="M-8268-7543h400" transform="translate(8868 11700)" fill="none" stroke="#344abe" stroke-width="2"/>
      <rect id="Rectángulo_45980" data-name="Rectángulo 45980" width="14.054" height="33.109" transform="translate(491.727 4276.749) rotate(90)" fill="#4462fe"/>
      <rect id="Rectángulo_45981" data-name="Rectángulo 45981" width="14.054" height="33.109" transform="translate(911.727 4276.749) rotate(90)" fill="#4462fe"/>
      <rect id="Rectángulo_45982" data-name="Rectángulo 45982" width="14.054" height="33.109" transform="translate(703.727 4276.749) rotate(90)" fill="#69489b"/>
      <rect id="Rectángulo_45983" data-name="Rectángulo 45983" width="14.054" height="33.109" transform="translate(1123.727 4276.749) rotate(90)" fill="#69489b"/>
      <path id="Polígono_15" data-name="Polígono 15" d="M14.64,0l14.64,25.567H0Z" transform="translate(512.646 4269.722) rotate(90)" fill="#4462fe"/>
      <path id="Polígono_16" data-name="Polígono 16" d="M14.64,0l14.64,25.567H0Z" transform="translate(932.646 4269.722) rotate(90)" fill="#4462fe"/>
      <path id="Polígono_17" data-name="Polígono 17" d="M14.64,0l14.64,25.567H0Z" transform="translate(724.646 4269.722) rotate(90)" fill="#69489b"/>
      <path id="Polígono_18" data-name="Polígono 18" d="M14.64,0l14.64,25.567H0Z" transform="translate(1144.646 4269.722) rotate(90)" fill="#69489b"/>
    </g>
    <path id="Trazado_600210" data-name="Trazado 600210" d="M583.17,4278.436s5.88-3.854,11.3-.47" transform="translate(1 0.91)" fill="none" stroke="#000" stroke-linecap="round" stroke-width="3"/>
    <path id="Trazado_600211" data-name="Trazado 600211" d="M583.17,4278.436s5.88-3.854,11.3-.47" transform="translate(1598.474 8555.92) rotate(180)" fill="none" stroke="#000" stroke-linecap="round" stroke-width="3"/>
    <path id="Trazado_600212" data-name="Trazado 600212" d="M583.17,4278.436s5.88-3.854,11.3-.47" transform="translate(630.83 0.91)" fill="none" stroke="#000" stroke-linecap="round" stroke-width="3"/>
    <g id="Grupo_159808" data-name="Grupo 159808" transform="translate(615 4265.576)" opacity="0.53">
      <g id="Grupo_159808-2" data-name="Grupo 159808" transform="translate(0 0)" clip-path="url(#clip-path)">
        <path id="Trazado_600213" data-name="Trazado 600213" d="M30.2,12.236a1.569,1.569,0,0,0-.273-.461,1.793,1.793,0,0,0-2.014-.445,2.32,2.32,0,0,0-.812.509,1.894,1.894,0,0,0-.318.341,1.137,1.137,0,0,0-.221.711l-2.937.222-.422.032a7.864,7.864,0,0,0-.993-2.447l1.577-1.32.957-.8a2.1,2.1,0,0,0,.733.378,1.467,1.467,0,0,0,.938-.084,1.753,1.753,0,0,0,.257-.136,2.971,2.971,0,0,0,.731-.51,1.5,1.5,0,0,0,.477-.983,1.711,1.711,0,0,0-.764-1.526,1.567,1.567,0,0,0-.455-.284,1.792,1.792,0,0,0-1.992.533,2.313,2.313,0,0,0-.487.825,1.955,1.955,0,0,0-.126.449,1.137,1.137,0,0,0,.131.733l-2.5,1.55-.232.144a7.944,7.944,0,0,0-2.1-1.714l.759-1.82.48-1.151a2.1,2.1,0,0,0,.824,0A1.465,1.465,0,0,0,22.2,4.47a1.84,1.84,0,0,0,.166-.239,2.965,2.965,0,0,0,.415-.789,1.5,1.5,0,0,0-.03-1.093,1.712,1.712,0,0,0-1.381-1,1.571,1.571,0,0,0-.535-.042,1.793,1.793,0,0,0-1.523,1.39,2.321,2.321,0,0,0-.052.957,1.928,1.928,0,0,0,.1.457,1.136,1.136,0,0,0,.454.59L18.3,7.228l-.114.191a7.882,7.882,0,0,0-2.68-.477q-.084-1-.167-2l-.1-1.244a2.118,2.118,0,0,0,.731-.381,1.467,1.467,0,0,0,.471-.816,1.86,1.86,0,0,0,.037-.289,2.944,2.944,0,0,0,0-.891,1.5,1.5,0,0,0-.53-.957A1.715,1.715,0,0,0,14.258.116a1.581,1.581,0,0,0-.494.209,1.794,1.794,0,0,0-.711,1.936,2.314,2.314,0,0,0,.4.873,1.942,1.942,0,0,0,.295.362,1.14,1.14,0,0,0,.675.315q-.088,1.47-.175,2.94l-.017.29a7.864,7.864,0,0,0-2.948,1.1l-1.26-1.755L9.29,5.375a2.1,2.1,0,0,0,.432-.7,1.469,1.469,0,0,0-.014-.942,1.856,1.856,0,0,0-.116-.266A2.942,2.942,0,0,0,9.138,2.7a1.5,1.5,0,0,0-.946-.549A1.714,1.714,0,0,0,6.614,2.8a1.566,1.566,0,0,0-.317.433A1.792,1.792,0,0,0,6.68,5.256a2.311,2.311,0,0,0,.787.547,1.915,1.915,0,0,0,.439.159,1.141,1.141,0,0,0,.74-.076L10,8.5c.075.143.149.287.224.43a7.957,7.957,0,0,0-1.606,1.964L6.507,9.819,5.394,9.255a2.106,2.106,0,0,0,.06-.823A1.467,1.467,0,0,0,5.007,7.6a1.823,1.823,0,0,0-.226-.183,2.958,2.958,0,0,0-.756-.472A1.5,1.5,0,0,0,2.933,6.9a1.711,1.711,0,0,0-1.1,1.3,1.572,1.572,0,0,0-.082.53,1.792,1.792,0,0,0,1.273,1.623,2.323,2.323,0,0,0,.95.123,1.94,1.94,0,0,0,.463-.061,1.139,1.139,0,0,0,.623-.408L7.467,11.7l.583.411a7.871,7.871,0,0,0-.48,2.349l-2.6.024-1.248.011a2.1,2.1,0,0,0-.326-.757,1.467,1.467,0,0,0-.778-.531,1.833,1.833,0,0,0-.285-.058,2.956,2.956,0,0,0-.888-.071,1.5,1.5,0,0,0-.993.457A1.713,1.713,0,0,0,.073,15.2a1.575,1.575,0,0,0,.171.509,1.794,1.794,0,0,0,1.878.853,2.327,2.327,0,0,0,.9-.328,1.947,1.947,0,0,0,.383-.268,1.138,1.138,0,0,0,.364-.649l2.919.393.933.126a7.857,7.857,0,0,0,.6,2.186l-.093.049L5.753,19.327l-1.1.585a2.089,2.089,0,0,0-.638-.521,1.466,1.466,0,0,0-.935-.113,1.791,1.791,0,0,0-.28.08,2.931,2.931,0,0,0-.821.346,1.5,1.5,0,0,0-.671.863,1.713,1.713,0,0,0,.431,1.652,1.58,1.58,0,0,0,.386.372,1.794,1.794,0,0,0,2.059-.107,2.318,2.318,0,0,0,.648-.706,1.924,1.924,0,0,0,.216-.413,1.139,1.139,0,0,0,.024-.744l2.772-1,1.049-.377a7.937,7.937,0,0,0,1.444,1.624l-.128.186L8.681,23.267l-.709,1.027a2.091,2.091,0,0,0-.807-.169,1.467,1.467,0,0,0-.882.33,1.835,1.835,0,0,0-.212.2,2.941,2.941,0,0,0-.569.686,1.5,1.5,0,0,0-.2,1.075,1.712,1.712,0,0,0,1.143,1.268,1.584,1.584,0,0,0,.514.153A1.794,1.794,0,0,0,8.74,26.792a2.312,2.312,0,0,0,.249-.926,1.926,1.926,0,0,0,0-.467,1.139,1.139,0,0,0-.322-.671l2-2.161.815-.879a7.831,7.831,0,0,0,1.975.818l-.031.244q-.168,1.332-.337,2.665l-.156,1.238a2.105,2.105,0,0,0-.794.221,1.468,1.468,0,0,0-.63.7,1.825,1.825,0,0,0-.1.275,2.935,2.935,0,0,0-.19.871,1.5,1.5,0,0,0,.32,1.045,1.712,1.712,0,0,0,1.6.6,1.551,1.551,0,0,0,.527-.1,1.793,1.793,0,0,0,1.1-1.745,2.322,2.322,0,0,0-.2-.937,1.952,1.952,0,0,0-.213-.415,1.139,1.139,0,0,0-.595-.448l.782-2.84q.156-.569.313-1.137.307.023.62.024a7.9,7.9,0,0,0,1.543-.151l.057.155L18,25.29l.432,1.171a2.106,2.106,0,0,0-.6.563,1.464,1.464,0,0,0-.237.912,1.811,1.811,0,0,0,.041.288,2.945,2.945,0,0,0,.233.86,1.5,1.5,0,0,0,.765.78,1.712,1.712,0,0,0,1.694-.2,1.571,1.571,0,0,0,.421-.333,1.793,1.793,0,0,0,.17-2.055,2.32,2.32,0,0,0-.613-.736,1.915,1.915,0,0,0-.381-.27,1.138,1.138,0,0,0-.734-.124q-.307-1.44-.614-2.881l-.221-1.036a7.9,7.9,0,0,0,1.96-1.113L22.3,22.919l.922.84a2.1,2.1,0,0,0-.276.777,1.461,1.461,0,0,0,.209.918,1.8,1.8,0,0,0,.169.237,2.936,2.936,0,0,0,.6.657,1.5,1.5,0,0,0,1.039.34,1.711,1.711,0,0,0,1.41-.962,1.567,1.567,0,0,0,.22-.489,1.794,1.794,0,0,0-.8-1.9,2.313,2.313,0,0,0-.883-.371,1.9,1.9,0,0,0-.462-.064,1.137,1.137,0,0,0-.709.228l-1.872-2.274-.552-.671a7.917,7.917,0,0,0,1.322-1.98l2.378.633,1.206.321a2.092,2.092,0,0,0,.113.816,1.468,1.468,0,0,0,.609.719,1.862,1.862,0,0,0,.259.131,2.941,2.941,0,0,0,.837.3,1.492,1.492,0,0,0,1.079-.176,1.712,1.712,0,0,0,.808-1.5,1.57,1.57,0,0,0-.03-.536,1.794,1.794,0,0,0-1.583-1.322,2.335,2.335,0,0,0-.955.077,1.989,1.989,0,0,0-.44.156,1.135,1.135,0,0,0-.524.529L23.692,17.2l-.587-.25a7.92,7.92,0,0,0,.279-2.092c0-.139,0-.277-.011-.415l2.182-.484,1.218-.271a2.109,2.109,0,0,0,.476.673,1.467,1.467,0,0,0,.872.357,1.812,1.812,0,0,0,.291,0A2.927,2.927,0,0,0,29.3,14.6a1.5,1.5,0,0,0,.877-.653,1.713,1.713,0,0,0,.024-1.707" transform="translate(0 0)" fill="#579107"/>
      </g>
    </g>
    <g id="Grupo_159809" data-name="Grupo 159809" transform="translate(1251.309 4270.35)">
      <g id="Grupo_159808-3" data-name="Grupo 159808" transform="translate(0 0)" clip-path="url(#clip-path-2)">
        <path id="Trazado_600213-2" data-name="Trazado 600213" d="M25.453,10.314a1.323,1.323,0,0,0-.231-.389,1.511,1.511,0,0,0-1.7-.375,1.955,1.955,0,0,0-.685.429,1.6,1.6,0,0,0-.268.288.959.959,0,0,0-.187.6l-2.475.187-.356.027a6.628,6.628,0,0,0-.837-2.062L20.046,7.9l.806-.675a1.768,1.768,0,0,0,.618.318,1.237,1.237,0,0,0,.791-.071,1.477,1.477,0,0,0,.217-.115,2.5,2.5,0,0,0,.616-.429,1.261,1.261,0,0,0,.4-.829,1.442,1.442,0,0,0-.644-1.287,1.321,1.321,0,0,0-.384-.24,1.51,1.51,0,0,0-1.679.449,1.95,1.95,0,0,0-.41.7,1.648,1.648,0,0,0-.106.378.958.958,0,0,0,.111.618L18.272,8.025l-.2.122A6.7,6.7,0,0,0,16.3,6.7l.64-1.534.4-.97a1.767,1.767,0,0,0,.695,0,1.234,1.234,0,0,0,.669-.427,1.551,1.551,0,0,0,.14-.2A2.5,2.5,0,0,0,19.2,2.9a1.262,1.262,0,0,0-.026-.921,1.443,1.443,0,0,0-1.164-.845A1.324,1.324,0,0,0,17.56,1.1a1.511,1.511,0,0,0-1.284,1.172,1.956,1.956,0,0,0-.044.807,1.625,1.625,0,0,0,.08.385.958.958,0,0,0,.383.5L15.423,6.093l-.1.161a6.644,6.644,0,0,0-2.259-.4Q13,5.01,12.927,4.169l-.088-1.048a1.785,1.785,0,0,0,.616-.321,1.237,1.237,0,0,0,.4-.687,1.568,1.568,0,0,0,.031-.244,2.481,2.481,0,0,0,0-.751,1.265,1.265,0,0,0-.447-.806A1.445,1.445,0,0,0,12.018.1,1.333,1.333,0,0,0,11.6.274,1.512,1.512,0,0,0,11,1.905a1.95,1.95,0,0,0,.333.736,1.637,1.637,0,0,0,.249.3.961.961,0,0,0,.569.265Q12.078,4.45,12,5.689l-.015.244a6.629,6.629,0,0,0-2.484.931L8.444,5.385l-.613-.854a1.774,1.774,0,0,0,.364-.592,1.238,1.238,0,0,0-.012-.794,1.564,1.564,0,0,0-.1-.224A2.48,2.48,0,0,0,7.7,2.273a1.26,1.26,0,0,0-.8-.463,1.445,1.445,0,0,0-1.331.546,1.32,1.32,0,0,0-.267.365A1.511,1.511,0,0,0,5.63,4.43a1.948,1.948,0,0,0,.663.461,1.614,1.614,0,0,0,.37.134.962.962,0,0,0,.624-.064l1.145,2.2.188.363A6.706,6.706,0,0,0,7.267,9.182L5.484,8.277,4.546,7.8a1.775,1.775,0,0,0,.05-.693,1.237,1.237,0,0,0-.376-.7,1.536,1.536,0,0,0-.191-.154,2.494,2.494,0,0,0-.637-.4,1.264,1.264,0,0,0-.921-.043,1.442,1.442,0,0,0-.93,1.1,1.325,1.325,0,0,0-.069.447A1.511,1.511,0,0,0,2.547,8.725a1.958,1.958,0,0,0,.8.1,1.635,1.635,0,0,0,.39-.052.96.96,0,0,0,.525-.344L6.293,9.86l.492.346a6.634,6.634,0,0,0-.4,1.98l-2.192.02-1.052.009a1.774,1.774,0,0,0-.275-.638,1.237,1.237,0,0,0-.656-.448,1.545,1.545,0,0,0-.241-.049,2.491,2.491,0,0,0-.749-.06,1.263,1.263,0,0,0-.837.386,1.444,1.444,0,0,0-.319,1.4,1.328,1.328,0,0,0,.145.429,1.512,1.512,0,0,0,1.583.719,1.962,1.962,0,0,0,.759-.277,1.641,1.641,0,0,0,.322-.226.959.959,0,0,0,.307-.547l2.46.331.786.107a6.622,6.622,0,0,0,.5,1.842l-.078.042-2,1.061-.929.493a1.761,1.761,0,0,0-.538-.439,1.235,1.235,0,0,0-.788-.1,1.509,1.509,0,0,0-.236.068,2.47,2.47,0,0,0-.692.291,1.264,1.264,0,0,0-.565.728,1.444,1.444,0,0,0,.363,1.392,1.332,1.332,0,0,0,.325.314,1.512,1.512,0,0,0,1.736-.09,1.954,1.954,0,0,0,.546-.6,1.622,1.622,0,0,0,.182-.348.96.96,0,0,0,.021-.627L6.61,16.54l.884-.318a6.69,6.69,0,0,0,1.217,1.369l-.108.157L7.317,19.612l-.6.865a1.762,1.762,0,0,0-.68-.143,1.236,1.236,0,0,0-.743.279,1.547,1.547,0,0,0-.179.169,2.479,2.479,0,0,0-.48.578,1.264,1.264,0,0,0-.167.906,1.443,1.443,0,0,0,.964,1.068,1.336,1.336,0,0,0,.434.129,1.512,1.512,0,0,0,1.5-.88,1.949,1.949,0,0,0,.21-.78,1.623,1.623,0,0,0,0-.393.96.96,0,0,0-.271-.566L9,19.022l.687-.741a6.6,6.6,0,0,0,1.665.69l-.026.205q-.142,1.123-.284,2.246L10.9,22.466a1.774,1.774,0,0,0-.669.187,1.237,1.237,0,0,0-.531.59,1.538,1.538,0,0,0-.081.232,2.474,2.474,0,0,0-.16.734,1.264,1.264,0,0,0,.27.881,1.443,1.443,0,0,0,1.347.5,1.307,1.307,0,0,0,.444-.086,1.511,1.511,0,0,0,.925-1.471,1.957,1.957,0,0,0-.173-.789,1.645,1.645,0,0,0-.18-.35.96.96,0,0,0-.5-.378l.659-2.394.264-.958q.258.02.522.02a6.66,6.66,0,0,0,1.3-.127l.048.131.783,2.125.364.987a1.775,1.775,0,0,0-.508.474,1.234,1.234,0,0,0-.2.768,1.527,1.527,0,0,0,.035.243,2.482,2.482,0,0,0,.2.725,1.261,1.261,0,0,0,.645.657A1.443,1.443,0,0,0,17.133,25a1.324,1.324,0,0,0,.355-.281,1.511,1.511,0,0,0,.143-1.732,1.956,1.956,0,0,0-.517-.621,1.614,1.614,0,0,0-.321-.228.959.959,0,0,0-.619-.1q-.259-1.214-.518-2.428l-.187-.874a6.659,6.659,0,0,0,1.652-.938L18.8,19.318l.777.708a1.768,1.768,0,0,0-.232.655,1.231,1.231,0,0,0,.176.774,1.517,1.517,0,0,0,.143.2,2.475,2.475,0,0,0,.508.553,1.26,1.26,0,0,0,.875.286,1.442,1.442,0,0,0,1.188-.811,1.321,1.321,0,0,0,.186-.412,1.512,1.512,0,0,0-.671-1.6A1.95,1.95,0,0,0,21,19.354a1.6,1.6,0,0,0-.39-.054.958.958,0,0,0-.6.192l-1.578-1.916-.466-.565a6.673,6.673,0,0,0,1.114-1.669l2,.534,1.017.271a1.763,1.763,0,0,0,.095.688,1.238,1.238,0,0,0,.513.606,1.57,1.57,0,0,0,.218.111,2.479,2.479,0,0,0,.706.257,1.258,1.258,0,0,0,.909-.149,1.443,1.443,0,0,0,.681-1.267,1.324,1.324,0,0,0-.025-.452,1.512,1.512,0,0,0-1.334-1.115,1.968,1.968,0,0,0-.8.065,1.677,1.677,0,0,0-.371.132.957.957,0,0,0-.441.446l-2.283-.974-.495-.211a6.676,6.676,0,0,0,.235-1.763c0-.117,0-.234-.009-.35l1.84-.408,1.027-.228a1.778,1.778,0,0,0,.4.568,1.237,1.237,0,0,0,.735.3,1.527,1.527,0,0,0,.245,0,2.467,2.467,0,0,0,.745-.1,1.262,1.262,0,0,0,.739-.55,1.443,1.443,0,0,0,.021-1.439" transform="translate(0 0)" fill="#9fc26f"/>
      </g>
    </g>
    <g id="Grupo_159810" data-name="Grupo 159810" transform="translate(829.885 4267.251)">
      <g id="Grupo_159808-4" data-name="Grupo 159808" transform="translate(0 0)" clip-path="url(#clip-path-3)">
        <path id="Trazado_600213-3" data-name="Trazado 600213" d="M26.867,10.887a1.4,1.4,0,0,0-.243-.411,1.6,1.6,0,0,0-1.792-.4,2.064,2.064,0,0,0-.723.453,1.685,1.685,0,0,0-.283.3,1.012,1.012,0,0,0-.2.632l-2.613.2-.376.028a7,7,0,0,0-.884-2.177l1.4-1.175.851-.713a1.866,1.866,0,0,0,.652.336,1.305,1.305,0,0,0,.835-.075,1.559,1.559,0,0,0,.229-.121,2.643,2.643,0,0,0,.651-.453,1.331,1.331,0,0,0,.424-.875,1.522,1.522,0,0,0-.68-1.358,1.394,1.394,0,0,0-.4-.253,1.594,1.594,0,0,0-1.772.474,2.058,2.058,0,0,0-.433.734,1.739,1.739,0,0,0-.112.4,1.011,1.011,0,0,0,.117.652L19.287,8.47,19.08,8.6a7.068,7.068,0,0,0-1.872-1.525l.676-1.62.427-1.024a1.865,1.865,0,0,0,.733,0,1.3,1.3,0,0,0,.706-.451,1.637,1.637,0,0,0,.147-.212,2.638,2.638,0,0,0,.369-.7,1.332,1.332,0,0,0-.027-.972A1.523,1.523,0,0,0,19.011,1.2a1.4,1.4,0,0,0-.476-.037A1.6,1.6,0,0,0,17.18,2.4a2.065,2.065,0,0,0-.046.852,1.715,1.715,0,0,0,.085.406,1.011,1.011,0,0,0,.4.525L16.28,6.431l-.1.17a7.013,7.013,0,0,0-2.384-.424q-.074-.889-.149-1.776l-.093-1.106a1.885,1.885,0,0,0,.65-.339,1.305,1.305,0,0,0,.419-.726,1.654,1.654,0,0,0,.033-.257,2.619,2.619,0,0,0,0-.793,1.335,1.335,0,0,0-.472-.851A1.526,1.526,0,0,0,12.686.1a1.407,1.407,0,0,0-.44.186,1.6,1.6,0,0,0-.633,1.723,2.059,2.059,0,0,0,.351.777,1.728,1.728,0,0,0,.262.322,1.014,1.014,0,0,0,.6.28q-.078,1.308-.155,2.615l-.015.258a7,7,0,0,0-2.622.983L8.913,5.684l-.647-.9a1.873,1.873,0,0,0,.384-.625,1.307,1.307,0,0,0-.013-.838,1.651,1.651,0,0,0-.1-.237,2.618,2.618,0,0,0-.4-.683,1.33,1.33,0,0,0-.841-.488,1.525,1.525,0,0,0-1.4.577,1.393,1.393,0,0,0-.282.385,1.6,1.6,0,0,0,.341,1.8,2.056,2.056,0,0,0,.7.487,1.7,1.7,0,0,0,.391.142,1.015,1.015,0,0,0,.659-.068L8.9,7.562l.2.383A7.079,7.079,0,0,0,7.671,9.692L5.789,8.736l-.99-.5A1.874,1.874,0,0,0,4.852,7.5a1.305,1.305,0,0,0-.4-.738,1.622,1.622,0,0,0-.2-.163,2.632,2.632,0,0,0-.672-.42,1.335,1.335,0,0,0-.972-.046,1.522,1.522,0,0,0-.981,1.159,1.4,1.4,0,0,0-.073.472A1.6,1.6,0,0,0,2.688,9.21a2.067,2.067,0,0,0,.845.11,1.726,1.726,0,0,0,.412-.055A1.014,1.014,0,0,0,4.5,8.9l2.144,1.506.519.365a7,7,0,0,0-.427,2.089l-2.314.021-1.11.01a1.873,1.873,0,0,0-.29-.673,1.305,1.305,0,0,0-.692-.473,1.63,1.63,0,0,0-.254-.052,2.63,2.63,0,0,0-.79-.063A1.334,1.334,0,0,0,.4,12.04a1.524,1.524,0,0,0-.337,1.481,1.4,1.4,0,0,0,.153.453,1.6,1.6,0,0,0,1.671.759,2.07,2.07,0,0,0,.8-.292,1.732,1.732,0,0,0,.34-.238,1.012,1.012,0,0,0,.324-.578l2.6.35.83.113a6.99,6.99,0,0,0,.533,1.944l-.082.044-2.112,1.12-.981.52a1.858,1.858,0,0,0-.567-.464,1.3,1.3,0,0,0-.832-.1,1.593,1.593,0,0,0-.249.071,2.608,2.608,0,0,0-.731.308,1.335,1.335,0,0,0-.6.768,1.524,1.524,0,0,0,.383,1.47,1.406,1.406,0,0,0,.344.331A1.6,1.6,0,0,0,3.721,20a2.062,2.062,0,0,0,.577-.628,1.712,1.712,0,0,0,.192-.368,1.013,1.013,0,0,0,.022-.662l2.466-.886.934-.335A7.061,7.061,0,0,0,9.2,18.569l-.114.165L7.723,20.7l-.631.913a1.86,1.86,0,0,0-.718-.151,1.305,1.305,0,0,0-.785.294,1.633,1.633,0,0,0-.189.178,2.616,2.616,0,0,0-.506.61,1.334,1.334,0,0,0-.176.956A1.523,1.523,0,0,0,5.736,24.63a1.41,1.41,0,0,0,.458.136,1.6,1.6,0,0,0,1.582-.929A2.057,2.057,0,0,0,8,23.014,1.713,1.713,0,0,0,8,22.6a1.014,1.014,0,0,0-.286-.6l1.781-1.922.725-.782a6.967,6.967,0,0,0,1.757.728l-.027.217q-.15,1.185-.3,2.371l-.139,1.1a1.873,1.873,0,0,0-.707.2,1.306,1.306,0,0,0-.561.623,1.624,1.624,0,0,0-.085.244,2.611,2.611,0,0,0-.169.775,1.335,1.335,0,0,0,.285.93,1.523,1.523,0,0,0,1.422.532,1.38,1.38,0,0,0,.469-.09,1.6,1.6,0,0,0,.977-1.553,2.066,2.066,0,0,0-.182-.833,1.737,1.737,0,0,0-.19-.369,1.013,1.013,0,0,0-.529-.4l.7-2.527.279-1.012q.273.021.551.021a7.03,7.03,0,0,0,1.373-.134l.051.138.826,2.243.384,1.042a1.874,1.874,0,0,0-.537.5,1.3,1.3,0,0,0-.211.811,1.612,1.612,0,0,0,.037.256,2.62,2.62,0,0,0,.207.765,1.331,1.331,0,0,0,.681.694,1.523,1.523,0,0,0,1.507-.182,1.4,1.4,0,0,0,.375-.3,1.6,1.6,0,0,0,.151-1.828,2.064,2.064,0,0,0-.545-.655,1.7,1.7,0,0,0-.339-.241,1.012,1.012,0,0,0-.653-.11q-.273-1.282-.546-2.563l-.2-.922a7.029,7.029,0,0,0,1.744-.99l1.765,1.609.821.748a1.867,1.867,0,0,0-.245.691,1.3,1.3,0,0,0,.186.817,1.6,1.6,0,0,0,.151.21,2.612,2.612,0,0,0,.537.584,1.33,1.33,0,0,0,.924.3,1.522,1.522,0,0,0,1.254-.856,1.394,1.394,0,0,0,.2-.435,1.6,1.6,0,0,0-.708-1.693,2.058,2.058,0,0,0-.786-.33,1.687,1.687,0,0,0-.411-.057,1.011,1.011,0,0,0-.63.2l-1.665-2.023-.491-.6a7.044,7.044,0,0,0,1.176-1.762l2.115.563,1.073.286a1.861,1.861,0,0,0,.1.726,1.306,1.306,0,0,0,.542.64,1.657,1.657,0,0,0,.231.117,2.617,2.617,0,0,0,.745.271,1.328,1.328,0,0,0,.96-.157,1.523,1.523,0,0,0,.719-1.338,1.4,1.4,0,0,0-.027-.477A1.6,1.6,0,0,0,25.2,15.649a2.077,2.077,0,0,0-.85.069,1.77,1.77,0,0,0-.392.139,1.01,1.01,0,0,0-.466.471L21.079,15.3l-.522-.223a7.047,7.047,0,0,0,.248-1.861c0-.123,0-.246-.01-.369l1.942-.43,1.084-.241a1.877,1.877,0,0,0,.424.6,1.306,1.306,0,0,0,.775.318,1.612,1.612,0,0,0,.259,0,2.6,2.6,0,0,0,.786-.1,1.332,1.332,0,0,0,.78-.581,1.524,1.524,0,0,0,.022-1.519" transform="translate(0 0)" fill="#9fc26f"/>
      </g>
    </g>
    <g id="Grupo_159811" data-name="Grupo 159811" transform="translate(545 4248.311)">
      <g id="Grupo_159808-5" data-name="Grupo 159808" transform="translate(0 0)" clip-path="url(#clip-path-4)">
        <path id="Trazado_600213-4" data-name="Trazado 600213" d="M15.722,6.371a.817.817,0,0,0-.142-.24A.934.934,0,0,0,14.531,5.9a1.208,1.208,0,0,0-.423.265.986.986,0,0,0-.166.178.592.592,0,0,0-.115.37L12.3,6.827l-.22.016a4.094,4.094,0,0,0-.517-1.274l.821-.687.5-.417a1.092,1.092,0,0,0,.381.2.764.764,0,0,0,.488-.044.913.913,0,0,0,.134-.071,1.547,1.547,0,0,0,.381-.265.779.779,0,0,0,.248-.512.891.891,0,0,0-.4-.795.816.816,0,0,0-.237-.148.933.933,0,0,0-1.037.278,1.2,1.2,0,0,0-.253.43,1.018,1.018,0,0,0-.066.234.592.592,0,0,0,.068.382l-1.3.807-.121.075a4.136,4.136,0,0,0-1.1-.892l.4-.948.25-.6a1.091,1.091,0,0,0,.429,0,.762.762,0,0,0,.413-.264.958.958,0,0,0,.086-.124,1.544,1.544,0,0,0,.216-.411.78.78,0,0,0-.016-.569A.891.891,0,0,0,11.125.7a.818.818,0,0,0-.278-.022.933.933,0,0,0-.793.724,1.208,1.208,0,0,0-.027.5,1,1,0,0,0,.05.238.591.591,0,0,0,.236.307L9.527,3.764l-.059.1a4.1,4.1,0,0,0-1.4-.248q-.043-.52-.087-1.039l-.054-.647a1.1,1.1,0,0,0,.381-.2A.764.764,0,0,0,8.557,1.3a.968.968,0,0,0,.019-.15,1.533,1.533,0,0,0,0-.464A.781.781,0,0,0,8.3.192.893.893,0,0,0,7.423.06a.823.823,0,0,0-.257.109A.934.934,0,0,0,6.8,1.177,1.2,1.2,0,0,0,7,1.632a1.011,1.011,0,0,0,.154.188.594.594,0,0,0,.351.164q-.046.765-.091,1.53l-.009.151a4.094,4.094,0,0,0-1.535.575l-.656-.914L4.837,2.8a1.1,1.1,0,0,0,.225-.366.765.765,0,0,0-.007-.491A.966.966,0,0,0,4.994,1.8a1.532,1.532,0,0,0-.236-.4.778.778,0,0,0-.492-.286.892.892,0,0,0-.822.337.815.815,0,0,0-.165.225.933.933,0,0,0,.2,1.055,1.2,1.2,0,0,0,.41.285,1,1,0,0,0,.229.083.594.594,0,0,0,.385-.04l.707,1.36.116.224a4.142,4.142,0,0,0-.836,1.022l-1.1-.559-.579-.294a1.1,1.1,0,0,0,.031-.428.764.764,0,0,0-.232-.432.949.949,0,0,0-.118-.1A1.54,1.54,0,0,0,2.1,3.617a.781.781,0,0,0-.569-.027.891.891,0,0,0-.574.678.818.818,0,0,0-.043.276.933.933,0,0,0,.663.845,1.209,1.209,0,0,0,.495.064,1.01,1.01,0,0,0,.241-.032.593.593,0,0,0,.324-.213l1.254.881.3.214a4.1,4.1,0,0,0-.25,1.223L2.587,7.54l-.65.006a1.1,1.1,0,0,0-.17-.394.764.764,0,0,0-.405-.277.954.954,0,0,0-.149-.03,1.539,1.539,0,0,0-.462-.037.78.78,0,0,0-.517.238.892.892,0,0,0-.2.867.82.82,0,0,0,.089.265.934.934,0,0,0,.978.444,1.212,1.212,0,0,0,.469-.171,1.013,1.013,0,0,0,.2-.139.592.592,0,0,0,.189-.338l1.52.2.486.066a4.09,4.09,0,0,0,.312,1.138l-.048.026L3,10.062l-.574.3a1.087,1.087,0,0,0-.332-.271.763.763,0,0,0-.487-.059.932.932,0,0,0-.146.042,1.526,1.526,0,0,0-.428.18.781.781,0,0,0-.349.449.892.892,0,0,0,.224.86.823.823,0,0,0,.2.194.934.934,0,0,0,1.072-.056,1.207,1.207,0,0,0,.337-.368,1,1,0,0,0,.112-.215.593.593,0,0,0,.013-.387l1.443-.518.546-.2a4.132,4.132,0,0,0,.752.845l-.067.1L4.52,12.114l-.369.534a1.089,1.089,0,0,0-.42-.088.764.764,0,0,0-.459.172.955.955,0,0,0-.11.1,1.531,1.531,0,0,0-.3.357.781.781,0,0,0-.1.56.891.891,0,0,0,.6.66.825.825,0,0,0,.268.08.934.934,0,0,0,.926-.544,1.2,1.2,0,0,0,.13-.482,1,1,0,0,0,0-.243.593.593,0,0,0-.167-.349L5.556,11.75l.424-.458a4.077,4.077,0,0,0,1.028.426l-.016.127-.176,1.388-.081.645a1.1,1.1,0,0,0-.413.115.764.764,0,0,0-.328.364.95.95,0,0,0-.05.143,1.528,1.528,0,0,0-.1.454.781.781,0,0,0,.166.544.891.891,0,0,0,.832.311.807.807,0,0,0,.274-.053.933.933,0,0,0,.572-.909,1.209,1.209,0,0,0-.107-.488,1.016,1.016,0,0,0-.111-.216.593.593,0,0,0-.31-.233l.407-1.478.163-.592q.16.012.323.012a4.114,4.114,0,0,0,.8-.078l.03.081.483,1.312.225.61a1.1,1.1,0,0,0-.314.293.762.762,0,0,0-.123.475.943.943,0,0,0,.022.15,1.533,1.533,0,0,0,.121.448.779.779,0,0,0,.4.406.891.891,0,0,0,.882-.106.818.818,0,0,0,.219-.173.933.933,0,0,0,.089-1.07,1.208,1.208,0,0,0-.319-.383,1,1,0,0,0-.2-.141.592.592,0,0,0-.382-.064l-.32-1.5-.115-.54a4.113,4.113,0,0,0,1.021-.579l1.033.941.48.438a1.092,1.092,0,0,0-.144.4.761.761,0,0,0,.109.478.937.937,0,0,0,.088.123,1.529,1.529,0,0,0,.314.342.778.778,0,0,0,.541.177.891.891,0,0,0,.734-.5.816.816,0,0,0,.115-.255.934.934,0,0,0-.414-.991,1.2,1.2,0,0,0-.46-.193.987.987,0,0,0-.241-.033.592.592,0,0,0-.369.118l-.975-1.184-.288-.349a4.122,4.122,0,0,0,.688-1.031l1.238.33.628.167a1.089,1.089,0,0,0,.059.425.765.765,0,0,0,.317.374.97.97,0,0,0,.135.068A1.531,1.531,0,0,0,14.6,11a.777.777,0,0,0,.562-.092.891.891,0,0,0,.421-.783.818.818,0,0,0-.016-.279.934.934,0,0,0-.824-.688,1.216,1.216,0,0,0-.5.04,1.036,1.036,0,0,0-.229.081.591.591,0,0,0-.273.275l-1.41-.6-.306-.13a4.124,4.124,0,0,0,.145-1.089c0-.072,0-.144-.006-.216l1.136-.252.634-.141a1.1,1.1,0,0,0,.248.351.764.764,0,0,0,.454.186.943.943,0,0,0,.151,0,1.524,1.524,0,0,0,.46-.06.78.78,0,0,0,.456-.34.892.892,0,0,0,.013-.889" transform="translate(0 0)" fill="#579107"/>
      </g>
    </g>
    <g id="Grupo_159812" data-name="Grupo 159812" transform="translate(1168 4257.666)">
      <g id="Grupo_159808-6" data-name="Grupo 159808" transform="translate(0 0)" clip-path="url(#clip-path-4)">
        <path id="Trazado_600213-5" data-name="Trazado 600213" d="M15.722,6.371a.817.817,0,0,0-.142-.24A.934.934,0,0,0,14.531,5.9a1.208,1.208,0,0,0-.423.265.986.986,0,0,0-.166.178.592.592,0,0,0-.115.37L12.3,6.827l-.22.016a4.094,4.094,0,0,0-.517-1.274l.821-.687.5-.417a1.092,1.092,0,0,0,.381.2.764.764,0,0,0,.488-.044.913.913,0,0,0,.134-.071,1.547,1.547,0,0,0,.381-.265.779.779,0,0,0,.248-.512.891.891,0,0,0-.4-.795.816.816,0,0,0-.237-.148.933.933,0,0,0-1.037.278,1.2,1.2,0,0,0-.253.43,1.018,1.018,0,0,0-.066.234.592.592,0,0,0,.068.382l-1.3.807-.121.075a4.136,4.136,0,0,0-1.1-.892l.4-.948.25-.6a1.091,1.091,0,0,0,.429,0,.762.762,0,0,0,.413-.264.958.958,0,0,0,.086-.124,1.544,1.544,0,0,0,.216-.411.78.78,0,0,0-.016-.569A.891.891,0,0,0,11.125.7a.818.818,0,0,0-.278-.022.933.933,0,0,0-.793.724,1.208,1.208,0,0,0-.027.5,1,1,0,0,0,.05.238.591.591,0,0,0,.236.307L9.527,3.764l-.059.1a4.1,4.1,0,0,0-1.4-.248q-.043-.52-.087-1.039l-.054-.647a1.1,1.1,0,0,0,.381-.2A.764.764,0,0,0,8.557,1.3a.968.968,0,0,0,.019-.15,1.533,1.533,0,0,0,0-.464A.781.781,0,0,0,8.3.192.893.893,0,0,0,7.423.06a.823.823,0,0,0-.257.109A.934.934,0,0,0,6.8,1.177,1.2,1.2,0,0,0,7,1.632a1.011,1.011,0,0,0,.154.188.594.594,0,0,0,.351.164q-.046.765-.091,1.53l-.009.151a4.094,4.094,0,0,0-1.535.575l-.656-.914L4.837,2.8a1.1,1.1,0,0,0,.225-.366.765.765,0,0,0-.007-.491A.966.966,0,0,0,4.994,1.8a1.532,1.532,0,0,0-.236-.4.778.778,0,0,0-.492-.286.892.892,0,0,0-.822.337.815.815,0,0,0-.165.225.933.933,0,0,0,.2,1.055,1.2,1.2,0,0,0,.41.285,1,1,0,0,0,.229.083.594.594,0,0,0,.385-.04l.707,1.36.116.224a4.142,4.142,0,0,0-.836,1.022l-1.1-.559-.579-.294a1.1,1.1,0,0,0,.031-.428.764.764,0,0,0-.232-.432.949.949,0,0,0-.118-.1A1.54,1.54,0,0,0,2.1,3.617a.781.781,0,0,0-.569-.027.891.891,0,0,0-.574.678.818.818,0,0,0-.043.276.933.933,0,0,0,.663.845,1.209,1.209,0,0,0,.495.064,1.01,1.01,0,0,0,.241-.032.593.593,0,0,0,.324-.213l1.254.881.3.214a4.1,4.1,0,0,0-.25,1.223L2.587,7.54l-.65.006a1.1,1.1,0,0,0-.17-.394.764.764,0,0,0-.405-.277.954.954,0,0,0-.149-.03,1.539,1.539,0,0,0-.462-.037.78.78,0,0,0-.517.238.892.892,0,0,0-.2.867.82.82,0,0,0,.089.265.934.934,0,0,0,.978.444,1.212,1.212,0,0,0,.469-.171,1.013,1.013,0,0,0,.2-.139.592.592,0,0,0,.189-.338l1.52.2.486.066a4.09,4.09,0,0,0,.312,1.138l-.048.026L3,10.062l-.574.3a1.087,1.087,0,0,0-.332-.271.763.763,0,0,0-.487-.059.932.932,0,0,0-.146.042,1.526,1.526,0,0,0-.428.18.781.781,0,0,0-.349.449.892.892,0,0,0,.224.86.823.823,0,0,0,.2.194.934.934,0,0,0,1.072-.056,1.207,1.207,0,0,0,.337-.368,1,1,0,0,0,.112-.215.593.593,0,0,0,.013-.387l1.443-.518.546-.2a4.132,4.132,0,0,0,.752.845l-.067.1L4.52,12.114l-.369.534a1.089,1.089,0,0,0-.42-.088.764.764,0,0,0-.459.172.955.955,0,0,0-.11.1,1.531,1.531,0,0,0-.3.357.781.781,0,0,0-.1.56.891.891,0,0,0,.6.66.825.825,0,0,0,.268.08.934.934,0,0,0,.926-.544,1.2,1.2,0,0,0,.13-.482,1,1,0,0,0,0-.243.593.593,0,0,0-.167-.349L5.556,11.75l.424-.458a4.077,4.077,0,0,0,1.028.426l-.016.127-.176,1.388-.081.645a1.1,1.1,0,0,0-.413.115.764.764,0,0,0-.328.364.95.95,0,0,0-.05.143,1.528,1.528,0,0,0-.1.454.781.781,0,0,0,.166.544.891.891,0,0,0,.832.311.807.807,0,0,0,.274-.053.933.933,0,0,0,.572-.909,1.209,1.209,0,0,0-.107-.488,1.016,1.016,0,0,0-.111-.216.593.593,0,0,0-.31-.233l.407-1.478.163-.592q.16.012.323.012a4.114,4.114,0,0,0,.8-.078l.03.081.483,1.312.225.61a1.1,1.1,0,0,0-.314.293.762.762,0,0,0-.123.475.943.943,0,0,0,.022.15,1.533,1.533,0,0,0,.121.448.779.779,0,0,0,.4.406.891.891,0,0,0,.882-.106.818.818,0,0,0,.219-.173.933.933,0,0,0,.089-1.07,1.208,1.208,0,0,0-.319-.383,1,1,0,0,0-.2-.141.592.592,0,0,0-.382-.064l-.32-1.5-.115-.54a4.113,4.113,0,0,0,1.021-.579l1.033.941.48.438a1.092,1.092,0,0,0-.144.4.761.761,0,0,0,.109.478.937.937,0,0,0,.088.123,1.529,1.529,0,0,0,.314.342.778.778,0,0,0,.541.177.891.891,0,0,0,.734-.5.816.816,0,0,0,.115-.255.934.934,0,0,0-.414-.991,1.2,1.2,0,0,0-.46-.193.987.987,0,0,0-.241-.033.592.592,0,0,0-.369.118l-.975-1.184-.288-.349a4.122,4.122,0,0,0,.688-1.031l1.238.33.628.167a1.089,1.089,0,0,0,.059.425.765.765,0,0,0,.317.374.97.97,0,0,0,.135.068A1.531,1.531,0,0,0,14.6,11a.777.777,0,0,0,.562-.092.891.891,0,0,0,.421-.783.818.818,0,0,0-.016-.279.934.934,0,0,0-.824-.688,1.216,1.216,0,0,0-.5.04,1.036,1.036,0,0,0-.229.081.591.591,0,0,0-.273.275l-1.41-.6-.306-.13a4.124,4.124,0,0,0,.145-1.089c0-.072,0-.144-.006-.216l1.136-.252.634-.141a1.1,1.1,0,0,0,.248.351.764.764,0,0,0,.454.186.943.943,0,0,0,.151,0,1.524,1.524,0,0,0,.46-.06.78.78,0,0,0,.456-.34.892.892,0,0,0,.013-.889" transform="translate(0 0)" fill="#579107"/>
      </g>
    </g>
    <g id="Grupo_159813" data-name="Grupo 159813" transform="translate(767.166 4232.491)">
      <g id="Grupo_159808-7" data-name="Grupo 159808" transform="translate(0 0)" clip-path="url(#clip-path-4)">
        <path id="Trazado_600213-6" data-name="Trazado 600213" d="M15.722,6.371a.817.817,0,0,0-.142-.24A.934.934,0,0,0,14.531,5.9a1.208,1.208,0,0,0-.423.265.986.986,0,0,0-.166.178.592.592,0,0,0-.115.37L12.3,6.827l-.22.016a4.094,4.094,0,0,0-.517-1.274l.821-.687.5-.417a1.092,1.092,0,0,0,.381.2.764.764,0,0,0,.488-.044.913.913,0,0,0,.134-.071,1.547,1.547,0,0,0,.381-.265.779.779,0,0,0,.248-.512.891.891,0,0,0-.4-.795.816.816,0,0,0-.237-.148.933.933,0,0,0-1.037.278,1.2,1.2,0,0,0-.253.43,1.018,1.018,0,0,0-.066.234.592.592,0,0,0,.068.382l-1.3.807-.121.075a4.136,4.136,0,0,0-1.1-.892l.4-.948.25-.6a1.091,1.091,0,0,0,.429,0,.762.762,0,0,0,.413-.264.958.958,0,0,0,.086-.124,1.544,1.544,0,0,0,.216-.411.78.78,0,0,0-.016-.569A.891.891,0,0,0,11.125.7a.818.818,0,0,0-.278-.022.933.933,0,0,0-.793.724,1.208,1.208,0,0,0-.027.5,1,1,0,0,0,.05.238.591.591,0,0,0,.236.307L9.527,3.764l-.059.1a4.1,4.1,0,0,0-1.4-.248q-.043-.52-.087-1.039l-.054-.647a1.1,1.1,0,0,0,.381-.2A.764.764,0,0,0,8.557,1.3a.968.968,0,0,0,.019-.15,1.533,1.533,0,0,0,0-.464A.781.781,0,0,0,8.3.192.893.893,0,0,0,7.423.06a.823.823,0,0,0-.257.109A.934.934,0,0,0,6.8,1.177,1.2,1.2,0,0,0,7,1.632a1.011,1.011,0,0,0,.154.188.594.594,0,0,0,.351.164q-.046.765-.091,1.53l-.009.151a4.094,4.094,0,0,0-1.535.575l-.656-.914L4.837,2.8a1.1,1.1,0,0,0,.225-.366.765.765,0,0,0-.007-.491A.966.966,0,0,0,4.994,1.8a1.532,1.532,0,0,0-.236-.4.778.778,0,0,0-.492-.286.892.892,0,0,0-.822.337.815.815,0,0,0-.165.225.933.933,0,0,0,.2,1.055,1.2,1.2,0,0,0,.41.285,1,1,0,0,0,.229.083.594.594,0,0,0,.385-.04l.707,1.36.116.224a4.142,4.142,0,0,0-.836,1.022l-1.1-.559-.579-.294a1.1,1.1,0,0,0,.031-.428.764.764,0,0,0-.232-.432.949.949,0,0,0-.118-.1A1.54,1.54,0,0,0,2.1,3.617a.781.781,0,0,0-.569-.027.891.891,0,0,0-.574.678.818.818,0,0,0-.043.276.933.933,0,0,0,.663.845,1.209,1.209,0,0,0,.495.064,1.01,1.01,0,0,0,.241-.032.593.593,0,0,0,.324-.213l1.254.881.3.214a4.1,4.1,0,0,0-.25,1.223L2.587,7.54l-.65.006a1.1,1.1,0,0,0-.17-.394.764.764,0,0,0-.405-.277.954.954,0,0,0-.149-.03,1.539,1.539,0,0,0-.462-.037.78.78,0,0,0-.517.238.892.892,0,0,0-.2.867.82.82,0,0,0,.089.265.934.934,0,0,0,.978.444,1.212,1.212,0,0,0,.469-.171,1.013,1.013,0,0,0,.2-.139.592.592,0,0,0,.189-.338l1.52.2.486.066a4.09,4.09,0,0,0,.312,1.138l-.048.026L3,10.062l-.574.3a1.087,1.087,0,0,0-.332-.271.763.763,0,0,0-.487-.059.932.932,0,0,0-.146.042,1.526,1.526,0,0,0-.428.18.781.781,0,0,0-.349.449.892.892,0,0,0,.224.86.823.823,0,0,0,.2.194.934.934,0,0,0,1.072-.056,1.207,1.207,0,0,0,.337-.368,1,1,0,0,0,.112-.215.593.593,0,0,0,.013-.387l1.443-.518.546-.2a4.132,4.132,0,0,0,.752.845l-.067.1L4.52,12.114l-.369.534a1.089,1.089,0,0,0-.42-.088.764.764,0,0,0-.459.172.955.955,0,0,0-.11.1,1.531,1.531,0,0,0-.3.357.781.781,0,0,0-.1.56.891.891,0,0,0,.6.66.825.825,0,0,0,.268.08.934.934,0,0,0,.926-.544,1.2,1.2,0,0,0,.13-.482,1,1,0,0,0,0-.243.593.593,0,0,0-.167-.349L5.556,11.75l.424-.458a4.077,4.077,0,0,0,1.028.426l-.016.127-.176,1.388-.081.645a1.1,1.1,0,0,0-.413.115.764.764,0,0,0-.328.364.95.95,0,0,0-.05.143,1.528,1.528,0,0,0-.1.454.781.781,0,0,0,.166.544.891.891,0,0,0,.832.311.807.807,0,0,0,.274-.053.933.933,0,0,0,.572-.909,1.209,1.209,0,0,0-.107-.488,1.016,1.016,0,0,0-.111-.216.593.593,0,0,0-.31-.233l.407-1.478.163-.592q.16.012.323.012a4.114,4.114,0,0,0,.8-.078l.03.081.483,1.312.225.61a1.1,1.1,0,0,0-.314.293.762.762,0,0,0-.123.475.943.943,0,0,0,.022.15,1.533,1.533,0,0,0,.121.448.779.779,0,0,0,.4.406.891.891,0,0,0,.882-.106.818.818,0,0,0,.219-.173.933.933,0,0,0,.089-1.07,1.208,1.208,0,0,0-.319-.383,1,1,0,0,0-.2-.141.592.592,0,0,0-.382-.064l-.32-1.5-.115-.54a4.113,4.113,0,0,0,1.021-.579l1.033.941.48.438a1.092,1.092,0,0,0-.144.4.761.761,0,0,0,.109.478.937.937,0,0,0,.088.123,1.529,1.529,0,0,0,.314.342.778.778,0,0,0,.541.177.891.891,0,0,0,.734-.5.816.816,0,0,0,.115-.255.934.934,0,0,0-.414-.991,1.2,1.2,0,0,0-.46-.193.987.987,0,0,0-.241-.033.592.592,0,0,0-.369.118l-.975-1.184-.288-.349a4.122,4.122,0,0,0,.688-1.031l1.238.33.628.167a1.089,1.089,0,0,0,.059.425.765.765,0,0,0,.317.374.97.97,0,0,0,.135.068A1.531,1.531,0,0,0,14.6,11a.777.777,0,0,0,.562-.092.891.891,0,0,0,.421-.783.818.818,0,0,0-.016-.279.934.934,0,0,0-.824-.688,1.216,1.216,0,0,0-.5.04,1.036,1.036,0,0,0-.229.081.591.591,0,0,0-.273.275l-1.41-.6-.306-.13a4.124,4.124,0,0,0,.145-1.089c0-.072,0-.144-.006-.216l1.136-.252.634-.141a1.1,1.1,0,0,0,.248.351.764.764,0,0,0,.454.186.943.943,0,0,0,.151,0,1.524,1.524,0,0,0,.46-.06.78.78,0,0,0,.456-.34.892.892,0,0,0,.013-.889" transform="translate(0 0)" fill="#579107"/>
      </g>
    </g>
  </g>
</svg>
