<svg xmlns="http://www.w3.org/2000/svg" width="606" height="192" viewBox="0 0 606 192">
  <g id="Grupo_160817" data-name="Grupo 160817" transform="translate(9698 5705)">
    <g id="Grupo_160116" data-name="Grupo 160116" transform="translate(0 45)">
      <rect id="Rectángulo_46144" data-name="Rectángulo 46144" width="606" height="192" transform="translate(-9698 -5750)" fill="none"/>
      <g id="Grupo_160115" data-name="Grupo 160115" transform="translate(-5.297 -21.475)">
        <path id="Trazado_600264" data-name="Trazado 600264" d="M-8527-5828.137v-6.155" transform="translate(-1077.894 242.769)" fill="#4462fe" stroke="#707070" stroke-width="2"/>
        <path id="Trazado_600265" data-name="Trazado 600265" d="M-8527-5828.137v-6.155" transform="translate(-1027.112 242.769)" fill="#4462fe" stroke="#707070" stroke-width="2"/>
        <path id="Trazado_600266" data-name="Trazado 600266" d="M-8527-5828.137v-6.155" transform="translate(-976.086 242.769)" fill="#4462fe" stroke="#707070" stroke-width="2"/>
        <path id="Trazado_600267" data-name="Trazado 600267" d="M-8527-5828.137v-6.155" transform="translate(-925.547 242.769)" fill="#4462fe" stroke="#707070" stroke-width="2"/>
        <path id="Trazado_600268" data-name="Trazado 600268" d="M-8527-5828.137v-6.155" transform="translate(-874.036 242.769)" fill="#4462fe" stroke="#707070" stroke-width="2"/>
        <path id="Trazado_600269" data-name="Trazado 600269" d="M-8527-5828.137v-6.155" transform="translate(-823.01 242.769)" fill="#4462fe" stroke="#707070" stroke-width="2"/>
        <path id="Trazado_600270" data-name="Trazado 600270" d="M-8527-5828.137v-6.155" transform="translate(-771.742 242.769)" fill="#4462fe" stroke="#707070" stroke-width="2"/>
        <path id="Trazado_600271" data-name="Trazado 600271" d="M-8527-5828.137v-6.155" transform="translate(-720.96 242.769)" fill="#4462fe" stroke="#707070" stroke-width="2"/>
        <path id="Trazado_600272" data-name="Trazado 600272" d="M-8527-5828.137v-6.155" transform="translate(-669.935 242.769)" fill="#4462fe" stroke="#707070" stroke-width="2"/>
        <rect id="Rectángulo_46239" data-name="Rectángulo 46239" width="61" height="25" transform="translate(-9661.703 -5703.525)" fill="#ade65f"/>
        <rect id="Rectángulo_46243" data-name="Rectángulo 46243" width="61" height="25" transform="translate(-9166.703 -5703.525)" fill="#12263f"/>
        <rect id="Rectángulo_46236" data-name="Rectángulo 46236" width="9" height="87" transform="translate(-9180.703 -5678.525)" fill="#4462fe"/>
        <rect id="Rectángulo_46237" data-name="Rectángulo 46237" width="9" height="42" transform="translate(-9190.703 -5633.525)" fill="#4462fe" opacity="0.77"/>
        <rect id="Rectángulo_46231" data-name="Rectángulo 46231" width="9" height="78" transform="translate(-9201.703 -5669.525)" fill="#4462fe"/>
        <rect id="Rectángulo_46232" data-name="Rectángulo 46232" width="9" height="87" transform="translate(-9211.703 -5678.525)" fill="#4462fe" opacity="0.77"/>
        <rect id="Rectángulo_46229" data-name="Rectángulo 46229" width="9" height="25" transform="translate(-9221.703 -5616.525)" fill="#4462fe"/>
        <rect id="Rectángulo_46230" data-name="Rectángulo 46230" width="9" height="28" transform="translate(-9231.703 -5619.525)" fill="#4462fe" opacity="0.77"/>
        <rect id="Rectángulo_46228" data-name="Rectángulo 46228" width="8" height="87" transform="translate(-9241.703 -5678.525)" fill="#4462fe"/>
        <rect id="Rectángulo_46227" data-name="Rectángulo 46227" width="9" height="82" transform="translate(-9251.703 -5673.525)" fill="#4462fe" opacity="0.77"/>
        <rect id="Rectángulo_46221" data-name="Rectángulo 46221" width="9" height="39" transform="translate(-9262.703 -5630.525)" fill="#4462fe"/>
        <rect id="Rectángulo_46222" data-name="Rectángulo 46222" width="9" height="79" transform="translate(-9272.703 -5670.525)" fill="#4462fe" opacity="0.77"/>
        <rect id="Rectángulo_46214" data-name="Rectángulo 46214" width="8" height="38" transform="translate(-9282.703 -5629.525)" fill="#4462fe"/>
        <rect id="Rectángulo_46215" data-name="Rectángulo 46215" width="9" height="35" transform="translate(-9292.703 -5626.525)" fill="#4462fe" opacity="0.77"/>
        <rect id="Rectángulo_46208" data-name="Rectángulo 46208" width="10" height="36" transform="translate(-9313.703 -5627.525)" fill="#4462fe" opacity="0.77"/>
        <rect id="Rectángulo_46200" data-name="Rectángulo 46200" width="8" height="30" transform="translate(-9323.703 -5621.525)" fill="#4462fe"/>
        <rect id="Rectángulo_46201" data-name="Rectángulo 46201" width="8" height="29" transform="translate(-9333.703 -5620.525)" fill="#4462fe" opacity="0.77"/>
        <rect id="Rectángulo_46202" data-name="Rectángulo 46202" width="9" height="18" transform="translate(-9343.703 -5609.525)" fill="#4462fe"/>
        <rect id="Rectángulo_46197" data-name="Rectángulo 46197" width="8" height="14" transform="translate(-9353.703 -5605.525)" fill="#4462fe" opacity="0.77"/>
        <rect id="Rectángulo_46203" data-name="Rectángulo 46203" width="9" height="8" transform="translate(-9364.703 -5599.525)" fill="#4462fe"/>
        <rect id="Rectángulo_46195" data-name="Rectángulo 46195" width="8" height="17" transform="translate(-9374.703 -5608.525)" fill="#4462fe" opacity="0.77"/>
        <rect id="Rectángulo_46192" data-name="Rectángulo 46192" width="8" height="33" transform="translate(-9384.703 -5624.525)" fill="#4462fe"/>
        <rect id="Rectángulo_46193" data-name="Rectángulo 46193" width="8" height="22" transform="translate(-9394.703 -5613.525)" fill="#4462fe" opacity="0.77"/>
        <rect id="Rectángulo_46198" data-name="Rectángulo 46198" width="8" height="12" transform="translate(-9404.703 -5603.525)" fill="#4462fe"/>
        <rect id="Rectángulo_46204" data-name="Rectángulo 46204" width="9" height="9" transform="translate(-9415.703 -5600.525)" fill="#4462fe" opacity="0.77"/>
        <rect id="Rectángulo_46194" data-name="Rectángulo 46194" width="9" height="25" transform="translate(-9426.703 -5616.525)" fill="#4462fe"/>
        <rect id="Rectángulo_46199" data-name="Rectángulo 46199" width="8" height="12" transform="translate(-9435.703 -5603.525)" fill="#4462fe" opacity="0.77"/>
        <rect id="Rectángulo_46205" data-name="Rectángulo 46205" width="8" height="8" transform="translate(-9445.703 -5599.525)" fill="#4462fe"/>
        <rect id="Rectángulo_46206" data-name="Rectángulo 46206" width="8" height="10" transform="translate(-9455.703 -5601.525)" fill="#4462fe" opacity="0.77"/>
        <rect id="Rectángulo_46209" data-name="Rectángulo 46209" width="10" height="7" transform="translate(-9467.703 -5598.525)" fill="#4462fe"/>
        <rect id="Rectángulo_46216" data-name="Rectángulo 46216" width="8" height="3" transform="translate(-9476.703 -5594.525)" fill="#4462fe" opacity="0.77"/>
        <rect id="Rectángulo_46217" data-name="Rectángulo 46217" width="8" height="3" transform="translate(-9486.703 -5594.525)" fill="#4462fe"/>
        <rect id="Rectángulo_46210" data-name="Rectángulo 46210" width="8" height="8" transform="translate(-9496.703 -5599.525)" fill="#4462fe" opacity="0.77"/>
        <rect id="Rectángulo_46211" data-name="Rectángulo 46211" width="9" height="5" transform="translate(-9507.703 -5596.525)" fill="#4462fe"/>
        <rect id="Rectángulo_46218" data-name="Rectángulo 46218" width="9" height="3" transform="translate(-9517.703 -5594.525)" fill="#4462fe" opacity="0.77"/>
        <rect id="Rectángulo_46196" data-name="Rectángulo 46196" width="8" height="17" transform="translate(-9527.703 -5608.525)" fill="#4462fe"/>
        <rect id="Rectángulo_46219" data-name="Rectángulo 46219" width="8" height="4" transform="translate(-9537.703 -5595.525)" fill="#4462fe" opacity="0.77"/>
        <rect id="Rectángulo_46220" data-name="Rectángulo 46220" width="9" height="3" transform="translate(-9548.703 -5594.525)" fill="#4462fe"/>
        <rect id="Rectángulo_46212" data-name="Rectángulo 46212" width="9" height="5" transform="translate(-9558.703 -5596.525)" fill="#4462fe" opacity="0.77"/>
        <rect id="Rectángulo_46223" data-name="Rectángulo 46223" width="10" height="1" transform="translate(-9569.703 -5592.525)" fill="#4462fe"/>
        <rect id="Rectángulo_46224" data-name="Rectángulo 46224" width="8" height="1" transform="translate(-9578.703 -5592.525)" fill="#4462fe" opacity="0.77"/>
        <rect id="Rectángulo_46225" data-name="Rectángulo 46225" width="9" height="2" transform="translate(-9589.703 -5593.525)" fill="#4462fe"/>
        <rect id="Rectángulo_46207" data-name="Rectángulo 46207" width="9" height="11" transform="translate(-9599.703 -5602.525)" fill="#4462fe" opacity="0.77"/>
        <rect id="Rectángulo_46226" data-name="Rectángulo 46226" width="9" height="2" transform="translate(-9609.703 -5593.525)" fill="#4462fe"/>
        <rect id="Rectángulo_46213" data-name="Rectángulo 46213" width="9" height="54" transform="translate(-9302.703 -5645.525)" fill="#4462fe"/>
        <path id="Trazado_600273" data-name="Trazado 600273" d="M-10963.152-5717.155l11.825-7.563h9.51l10.154,2.578,9.9,3.609,11.053-4.468h11.055l8.611-1.719,10.538-6.187,10.668-3.609,9.253-8.594,10.924,3.609,10.154,6.7,10.226,1.812,9.354,10.067,10.57-36.509,20.61,14.318,19.784-15.77,11.566-2.247,9.491,2.247,9.985-3.569,20.565,10.841,20.662-7.272,9.589,3.306,11.306-7.451,10.357-2.682,20.05-10.5,10.36,2.458h10.692l9.19-6.479,9.021,2.234,10.526-2.234,11.028,8.938,9.69-1.565,9.55-5.319,10.834,1.967,9.857,6.927,9.858-1.117" transform="translate(1358.26 103.949)" fill="none" stroke="#000" stroke-width="2"/>
        <text id="_1980" data-name="1980" transform="translate(-9605.703 -5565.525)" fill="#12263f" font-size="16" font-family="Roboto-Regular, Roboto"><tspan x="-17.969" y="0">1980</tspan></text>
        <text id="_1985" data-name="1985" transform="translate(-9554.703 -5565.525)" fill="#12263f" font-size="16" font-family="Roboto-Regular, Roboto"><tspan x="-17.969" y="0">1985</tspan></text>
        <text id="_1990" data-name="1990" transform="translate(-9504.703 -5565.525)" fill="#12263f" font-size="16" font-family="Roboto-Regular, Roboto"><tspan x="-17.969" y="0">1990</tspan></text>
        <text id="_1995" data-name="1995" transform="translate(-9453.703 -5565.525)" fill="#12263f" font-size="16" font-family="Roboto-Regular, Roboto"><tspan x="-17.969" y="0">1995</tspan></text>
        <text id="_2000" data-name="2000" transform="translate(-9403.703 -5565.525)" fill="#12263f" font-size="16" font-family="Roboto-Regular, Roboto"><tspan x="-17.969" y="0">2000</tspan></text>
        <text id="_2005" data-name="2005" transform="translate(-9351.703 -5565.525)" fill="#12263f" font-size="16" font-family="Roboto-Regular, Roboto"><tspan x="-17.969" y="0">2005</tspan></text>
        <text id="_2010" data-name="2010" transform="translate(-9299.703 -5565.525)" fill="#12263f" font-size="16" font-family="Roboto-Regular, Roboto"><tspan x="-17.969" y="0">2010</tspan></text>
        <text id="_2015" data-name="2015" transform="translate(-9248.703 -5565.525)" fill="#12263f" font-size="16" font-family="Roboto-Regular, Roboto"><tspan x="-17.969" y="0">2015</tspan></text>
        <text id="_2020" data-name="2020" transform="translate(-9196.703 -5565.525)" fill="#12263f" font-size="16" font-family="Roboto-Regular, Roboto"><tspan x="-17.969" y="0">2020</tspan></text>
        <text id="_20" data-name="20" transform="translate(-9126.703 -5620.525)" fill="#12263f" font-size="16" font-family="Roboto-Regular, Roboto"><tspan x="-8.984" y="0">20</tspan></text>
        <text id="_1M" data-name="1M" transform="translate(-9648.703 -5622.525)" fill="#12263f" font-size="16" font-family="Roboto-Regular, Roboto"><tspan x="-11.477" y="0">1M</tspan></text>
        <text id="Países" transform="translate(-9137.703 -5685.525)" fill="#fff" font-size="16" font-family="Roboto-Regular, Roboto"><tspan x="-23.82" y="0">Países</tspan></text>
        <text id="Casos" transform="translate(-9631.703 -5685.525)" fill="#12263f" font-size="16" font-family="Roboto-Regular, Roboto"><tspan x="-22.371" y="0">Casos</tspan></text>
        <text id="_40" data-name="40" transform="translate(-9126.703 -5655.525)" fill="#12263f" font-size="16" font-family="Roboto-Regular, Roboto"><tspan x="-8.984" y="0">40</tspan></text>
        <text id="_2M" data-name="2M" transform="translate(-9648.703 -5656.525)" fill="#12263f" font-size="16" font-family="Roboto-Regular, Roboto"><tspan x="-11.477" y="0">2M</tspan></text>
        <text id="_0" data-name="0" transform="translate(-9126.703 -5585.525)" fill="#12263f" font-size="16" font-family="Roboto-Regular, Roboto"><tspan x="-4.492" y="0">0</tspan></text>
        <text id="_0M" data-name="0M" transform="translate(-9648.703 -5588.525)" fill="#12263f" font-size="16" font-family="Roboto-Regular, Roboto"><tspan x="-11.477" y="0">0M</tspan></text>
        <path id="Trazado_600274" data-name="Trazado 600274" d="M-10934-5374.623v82.59" transform="translate(1310.107 -298.664)" fill="none" stroke="#707070" stroke-width="2"/>
        <path id="Trazado_600275" data-name="Trazado 600275" d="M-10951.742-5280h8.088" transform="translate(1319.618 -344.803)" fill="none" stroke="#707070" stroke-width="2"/>
        <path id="Trazado_600276" data-name="Trazado 600276" d="M-10951.742-5280h8.088" transform="translate(1319.618 -311.167)" fill="none" stroke="#707070" stroke-width="2"/>
        <path id="Trazado_600277" data-name="Trazado 600277" d="M-10951.742-5280h8.088" transform="translate(1319.618 -378.44)" fill="none" stroke="#707070" stroke-width="2"/>
        <g id="Grupo_160112" data-name="Grupo 160112" transform="translate(-9146.369 -5673.286)">
          <path id="Trazado_600279" data-name="Trazado 600279" d="M-10934-5374.623v82.59" transform="translate(10934 5374.623)" fill="none" stroke="#707070" stroke-width="2"/>
          <path id="Trazado_600280" data-name="Trazado 600280" d="M-10951.742-5280h8.088" transform="translate(10951.742 5328.483)" fill="none" stroke="#707070" stroke-width="2"/>
          <path id="Trazado_600281" data-name="Trazado 600281" d="M-10951.742-5280h8.088" transform="translate(10951.742 5362.119)" fill="none" stroke="#707070" stroke-width="2"/>
          <path id="Trazado_600278" data-name="Trazado 600278" d="M-10951.742-5280h8.088" transform="translate(10951.742 5294.846)" fill="none" stroke="#707070" stroke-width="2"/>
        </g>
        <rect id="Rectángulo_46242" data-name="Rectángulo 46242" width="538" height="154" transform="translate(-9661.703 -5707.525)" fill="none"/>
      </g>
    </g>
  </g>
</svg>
