<svg xmlns="http://www.w3.org/2000/svg" width="1030" height="296" viewBox="0 0 1030 296">
  <g id="Grupo_160114" data-name="Grupo 160114" transform="translate(-285 -5712)">
    <g id="Grupo_160113" data-name="Grupo 160113" transform="translate(0 -3)">
      <path id="Trazado_600264" data-name="Trazado 600264" d="M-8527-5822.522v-11.77" transform="translate(8921.965 11772.021)" fill="#4462fe" stroke="#707070" stroke-width="2"/>
      <path id="Trazado_600265" data-name="Trazado 600265" d="M-8527-5822.522v-11.77" transform="translate(9019.07 11772.021)" fill="#4462fe" stroke="#707070" stroke-width="2"/>
      <path id="Trazado_600266" data-name="Trazado 600266" d="M-8527-5822.522v-11.77" transform="translate(9116.642 11772.021)" fill="#4462fe" stroke="#707070" stroke-width="2"/>
      <path id="Trazado_600267" data-name="Trazado 600267" d="M-8527-5822.522v-11.77" transform="translate(9213.283 11772.021)" fill="#4462fe" stroke="#707070" stroke-width="2"/>
      <path id="Trazado_600268" data-name="Trazado 600268" d="M-8527-5822.522v-11.77" transform="translate(9311.783 11772.021)" fill="#4462fe" stroke="#707070" stroke-width="2"/>
      <path id="Trazado_600269" data-name="Trazado 600269" d="M-8527-5822.522v-11.77" transform="translate(9409.354 11772.021)" fill="#4462fe" stroke="#707070" stroke-width="2"/>
      <path id="Trazado_600270" data-name="Trazado 600270" d="M-8527-5822.522v-11.77" transform="translate(9507.389 11772.021)" fill="#4462fe" stroke="#707070" stroke-width="2"/>
      <path id="Trazado_600271" data-name="Trazado 600271" d="M-8527-5822.522v-11.77" transform="translate(9604.494 11772.021)" fill="#4462fe" stroke="#707070" stroke-width="2"/>
      <path id="Trazado_600272" data-name="Trazado 600272" d="M-8527-5822.522v-11.77" transform="translate(9702.065 11772.021)" fill="#4462fe" stroke="#707070" stroke-width="2"/>
      <rect id="Rectángulo_46238" data-name="Rectángulo 46238" width="73" height="30" transform="translate(1242 5748)" fill="#12263f"/>
      <rect id="Rectángulo_46239" data-name="Rectángulo 46239" width="73" height="30" transform="translate(285 5748)" fill="#ade65f"/>
      <rect id="Rectángulo_46236" data-name="Rectángulo 46236" width="17" height="167" transform="translate(1206 5771)" fill="#4462fe"/>
      <rect id="Rectángulo_46237" data-name="Rectángulo 46237" width="17" height="80" transform="translate(1186 5858)" fill="#4462fe" opacity="0.77"/>
      <rect id="Rectángulo_46231" data-name="Rectángulo 46231" width="16" height="148" transform="translate(1167 5790)" fill="#4462fe"/>
      <rect id="Rectángulo_46232" data-name="Rectángulo 46232" width="17" height="166" transform="translate(1148 5772)" fill="#4462fe" opacity="0.77"/>
      <rect id="Rectángulo_46229" data-name="Rectángulo 46229" width="17" height="47" transform="translate(1128 5891)" fill="#4462fe"/>
      <rect id="Rectángulo_46230" data-name="Rectángulo 46230" width="17" height="53" transform="translate(1108 5885)" fill="#4462fe" opacity="0.77"/>
      <rect id="Rectángulo_46228" data-name="Rectángulo 46228" width="16" height="166" transform="translate(1089 5772)" fill="#4462fe"/>
      <rect id="Rectángulo_46227" data-name="Rectángulo 46227" width="16" height="156" transform="translate(1070 5782)" fill="#4462fe" opacity="0.77"/>
      <rect id="Rectángulo_46221" data-name="Rectángulo 46221" width="17" height="74" transform="translate(1050 5864)" fill="#4462fe"/>
      <rect id="Rectángulo_46222" data-name="Rectángulo 46222" width="17" height="151" transform="translate(1030 5787)" fill="#4462fe" opacity="0.77"/>
      <rect id="Rectángulo_46214" data-name="Rectángulo 46214" width="16" height="73" transform="translate(1011 5865)" fill="#4462fe"/>
      <rect id="Rectángulo_46215" data-name="Rectángulo 46215" width="17" height="68" transform="translate(991 5870)" fill="#4462fe" opacity="0.77"/>
      <rect id="Rectángulo_46208" data-name="Rectángulo 46208" width="17" height="69" transform="translate(952 5869)" fill="#4462fe" opacity="0.77"/>
      <rect id="Rectángulo_46200" data-name="Rectángulo 46200" width="16" height="57" transform="translate(933 5881)" fill="#4462fe"/>
      <rect id="Rectángulo_46201" data-name="Rectángulo 46201" width="17" height="56" transform="translate(913 5882)" fill="#4462fe" opacity="0.77"/>
      <rect id="Rectángulo_46202" data-name="Rectángulo 46202" width="17" height="33" transform="translate(894 5905)" fill="#4462fe"/>
      <rect id="Rectángulo_46197" data-name="Rectángulo 46197" width="17" height="26" transform="translate(874 5912)" fill="#4462fe" opacity="0.77"/>
      <rect id="Rectángulo_46203" data-name="Rectángulo 46203" width="16" height="16" transform="translate(855 5922)" fill="#4462fe"/>
      <rect id="Rectángulo_46195" data-name="Rectángulo 46195" width="17" height="32" transform="translate(835 5906)" fill="#4462fe" opacity="0.77"/>
      <rect id="Rectángulo_46192" data-name="Rectángulo 46192" width="16" height="64" transform="translate(816 5874)" fill="#4462fe"/>
      <rect id="Rectángulo_46193" data-name="Rectángulo 46193" width="17" height="41" transform="translate(796 5897)" fill="#4462fe" opacity="0.77"/>
      <rect id="Rectángulo_46198" data-name="Rectángulo 46198" width="16" height="25" transform="translate(777 5913)" fill="#4462fe"/>
      <rect id="Rectángulo_46204" data-name="Rectángulo 46204" width="17" height="18" transform="translate(757 5920)" fill="#4462fe" opacity="0.77"/>
      <rect id="Rectángulo_46194" data-name="Rectángulo 46194" width="17" height="47" transform="translate(737 5891)" fill="#4462fe"/>
      <rect id="Rectángulo_46199" data-name="Rectángulo 46199" width="17" height="25" transform="translate(718 5913)" fill="#4462fe" opacity="0.77"/>
      <rect id="Rectángulo_46205" data-name="Rectángulo 46205" width="16" height="17" transform="translate(699 5921)" fill="#4462fe"/>
      <rect id="Rectángulo_46206" data-name="Rectángulo 46206" width="17" height="21" transform="translate(679 5917)" fill="#4462fe" opacity="0.77"/>
      <rect id="Rectángulo_46209" data-name="Rectángulo 46209" width="17" height="15" transform="translate(659 5923)" fill="#4462fe"/>
      <rect id="Rectángulo_46216" data-name="Rectángulo 46216" width="17" height="6" transform="translate(640 5932)" fill="#4462fe" opacity="0.77"/>
      <rect id="Rectángulo_46217" data-name="Rectángulo 46217" width="16" height="7" transform="translate(621 5931)" fill="#4462fe"/>
      <rect id="Rectángulo_46210" data-name="Rectángulo 46210" width="17" height="16" transform="translate(601 5922)" fill="#4462fe" opacity="0.77"/>
      <rect id="Rectángulo_46211" data-name="Rectángulo 46211" width="17" height="10" transform="translate(581 5928)" fill="#4462fe"/>
      <rect id="Rectángulo_46218" data-name="Rectángulo 46218" width="16" height="6" transform="translate(562 5932)" fill="#4462fe" opacity="0.77"/>
      <rect id="Rectángulo_46196" data-name="Rectángulo 46196" width="16" height="31" transform="translate(543 5907)" fill="#4462fe"/>
      <rect id="Rectángulo_46219" data-name="Rectángulo 46219" width="17" height="9" transform="translate(523 5929)" fill="#4462fe" opacity="0.77"/>
      <rect id="Rectángulo_46220" data-name="Rectángulo 46220" width="17" height="6" transform="translate(503 5932)" fill="#4462fe"/>
      <rect id="Rectángulo_46212" data-name="Rectángulo 46212" width="17" height="11" transform="translate(483 5927)" fill="#4462fe" opacity="0.77"/>
      <rect id="Rectángulo_46223" data-name="Rectángulo 46223" width="17" height="3" transform="translate(464 5935)" fill="#4462fe"/>
      <rect id="Rectángulo_46224" data-name="Rectángulo 46224" width="17" height="3" transform="translate(445 5935)" fill="#4462fe" opacity="0.77"/>
      <rect id="Rectángulo_46225" data-name="Rectángulo 46225" width="17" height="5" transform="translate(425 5933)" fill="#4462fe"/>
      <rect id="Rectángulo_46207" data-name="Rectángulo 46207" width="17" height="23" transform="translate(405 5915)" fill="#4462fe" opacity="0.77"/>
      <rect id="Rectángulo_46226" data-name="Rectángulo 46226" width="17" height="5" transform="translate(386 5933)" fill="#4462fe"/>
      <rect id="Rectángulo_46213" data-name="Rectángulo 46213" width="17" height="105" transform="translate(972 5833)" fill="#4462fe"/>
      <path id="Trazado_600273" data-name="Trazado 600273" d="M-10963.151-5659.621l22.611-14.461h18.187l19.416,4.93,18.924,6.9,21.137-8.545h21.136l16.468-3.286,20.15-11.831,20.4-6.9,17.7-16.433,20.89,6.9,19.415,12.818,19.554,3.464,17.887,19.25,20.214-69.812,39.411,27.379,37.831-30.155,22.119-4.3,18.149,4.3,19.094-6.825,39.322,20.729,39.511-13.9,18.339,6.32,21.615-14.247,19.808-5.127,38.34-20.081,19.81,4.7h20.447l17.573-12.39,17.252,4.272,20.128-4.272,21.087,17.091,18.53-2.992,18.262-10.172,20.718,3.763,18.85,13.244,18.852-2.135" transform="translate(11358.117 11555.886)" fill="none" stroke="#000" stroke-width="3"/>
      <text id="_1980" data-name="1980" transform="translate(395 5973)" fill="#12263f" font-size="18" font-family="Roboto-Regular, Roboto"><tspan x="-20.215" y="0">1980</tspan></text>
      <text id="_1985" data-name="1985" transform="translate(492 5973)" fill="#12263f" font-size="18" font-family="Roboto-Regular, Roboto"><tspan x="-20.215" y="0">1985</tspan></text>
      <text id="_1990" data-name="1990" transform="translate(589 5973)" fill="#12263f" font-size="18" font-family="Roboto-Regular, Roboto"><tspan x="-20.215" y="0">1990</tspan></text>
      <text id="_1995" data-name="1995" transform="translate(685 5973)" fill="#12263f" font-size="18" font-family="Roboto-Regular, Roboto"><tspan x="-20.215" y="0">1995</tspan></text>
      <text id="_2000" data-name="2000" transform="translate(782 5973)" fill="#12263f" font-size="18" font-family="Roboto-Regular, Roboto"><tspan x="-20.215" y="0">2000</tspan></text>
      <text id="_2005" data-name="2005" transform="translate(881 5973)" fill="#12263f" font-size="18" font-family="Roboto-Regular, Roboto"><tspan x="-20.215" y="0">2005</tspan></text>
      <text id="_2010" data-name="2010" transform="translate(981 5973)" fill="#12263f" font-size="18" font-family="Roboto-Regular, Roboto"><tspan x="-20.215" y="0">2010</tspan></text>
      <text id="_2015" data-name="2015" transform="translate(1077 5973)" fill="#12263f" font-size="18" font-family="Roboto-Regular, Roboto"><tspan x="-20.215" y="0">2015</tspan></text>
      <text id="_2020" data-name="2020" transform="translate(1177 5973)" fill="#12263f" font-size="18" font-family="Roboto-Regular, Roboto"><tspan x="-20.215" y="0">2020</tspan></text>
      <text id="_20" data-name="20" transform="translate(1301 5879)" fill="#12263f" font-size="18" font-family="Roboto-Regular, Roboto"><tspan x="-10.107" y="0">20</tspan></text>
      <text id="_1M" data-name="1M" transform="translate(320 5878)" fill="#12263f" font-size="18" font-family="Roboto-Regular, Roboto"><tspan x="-12.911" y="0">1M</tspan></text>
      <text id="Países" transform="translate(1279 5769)" fill="#fff" font-size="18" font-family="Roboto-Regular, Roboto"><tspan x="-26.798" y="0">Países</tspan></text>
      <text id="Casos" transform="translate(322 5769)" fill="#12263f" font-size="18" font-family="Roboto-Regular, Roboto"><tspan x="-25.167" y="0">Casos</tspan></text>
      <text id="_40" data-name="40" transform="translate(1301 5815)" fill="#12263f" font-size="18" font-family="Roboto-Regular, Roboto"><tspan x="-10.107" y="0">40</tspan></text>
      <text id="_2M" data-name="2M" transform="translate(320 5813)" fill="#12263f" font-size="18" font-family="Roboto-Regular, Roboto"><tspan x="-12.911" y="0">2M</tspan></text>
      <text id="_0" data-name="0" transform="translate(1302 5943)" fill="#12263f" font-size="18" font-family="Roboto-Regular, Roboto"><tspan x="-5.054" y="0">0</tspan></text>
      <text id="_0M" data-name="0M" transform="translate(320 5942)" fill="#12263f" font-size="18" font-family="Roboto-Regular, Roboto"><tspan x="-12.911" y="0">0M</tspan></text>
      <path id="Trazado_600274" data-name="Trazado 600274" d="M-10934-5374.622v157.929" transform="translate(11292.635 11156.002)" fill="none" stroke="#707070" stroke-width="2"/>
      <path id="Trazado_600275" data-name="Trazado 600275" d="M-10951.741-5280h15.464" transform="translate(11294.637 11154.089)" fill="none" stroke="#707070" stroke-width="2"/>
      <path id="Trazado_600276" data-name="Trazado 600276" d="M-10951.741-5280h15.464" transform="translate(11294.637 11218.408)" fill="none" stroke="#707070" stroke-width="2"/>
      <path id="Trazado_600277" data-name="Trazado 600277" d="M-10951.741-5280h15.464" transform="translate(11294.637 11089.769)" fill="none" stroke="#707070" stroke-width="2"/>
      <g id="Grupo_160112" data-name="Grupo 160112" transform="translate(1271.758 5781.38)">
        <path id="Trazado_600279" data-name="Trazado 600279" d="M-10934-5374.622v157.929" transform="translate(10934 5374.622)" fill="none" stroke="#707070" stroke-width="2"/>
        <path id="Trazado_600280" data-name="Trazado 600280" d="M-10951.741-5280h15.464" transform="translate(10951.741 5372.709)" fill="none" stroke="#707070" stroke-width="2"/>
        <path id="Trazado_600281" data-name="Trazado 600281" d="M-10951.741-5280h15.464" transform="translate(10951.741 5437.029)" fill="none" stroke="#707070" stroke-width="2"/>
        <path id="Trazado_600278" data-name="Trazado 600278" d="M-10951.741-5280h15.464" transform="translate(10951.741 5308.389)" fill="none" stroke="#707070" stroke-width="2"/>
      </g>
    </g>
    <rect id="Rectángulo_46242" data-name="Rectángulo 46242" width="1030" height="296" transform="translate(285 5712)" fill="none"/>
  </g>
</svg>
