<svg xmlns="http://www.w3.org/2000/svg" xmlns:xlink="http://www.w3.org/1999/xlink" width="85" height="85" viewBox="0 0 85 85">
  <defs>
    <clipPath id="clip-path">
      <rect id="Rectángulo_46276" data-name="Rectángulo 46276" width="58.453" height="56.01" fill="#fff"/>
    </clipPath>
  </defs>
  <g id="Grupo_160305" data-name="Grupo 160305" transform="translate(-810 -7556)">
    <circle id="Elipse_5643" data-name="Elipse 5643" cx="42.5" cy="42.5" r="42.5" transform="translate(810 7556)" fill="#4462fe"/>
    <g id="Grupo_160145" data-name="Grupo 160145" transform="translate(824 7571)">
      <g id="Grupo_160144" data-name="Grupo 160144" clip-path="url(#clip-path)">
        <path id="Trazado_600290" data-name="Trazado 600290" d="M0,19.787c.069-.213.14-.426.207-.64a4.915,4.915,0,0,1,3.748-3.461,23.806,23.806,0,0,1,9.4-.371c.618.093.963.452.9.952-.063.526-.513.821-1.146.74a21.462,21.462,0,0,0-5.573-.181,30.959,30.959,0,0,0-3.474.617A3.177,3.177,0,0,0,1.73,20.916a3.235,3.235,0,0,0,3.258,2.848A41.475,41.475,0,0,0,14,22.9c3.537-.794,7.039-1.744,10.55-2.65a.721.721,0,0,0,.4-.481,12.96,12.96,0,0,0,.154-1.412c-1.138-.133-2.262-.267-3.388-.394-1.436-.162-2.872-.313-4.307-.478-.614-.071-.939-.442-.881-.972.054-.5.416-.789,1.029-.726,1.891.194,3.779.416,5.668.628l.575.062c-.168-.191-.262-.312-.371-.419-1.058-1.04-2.13-2.067-3.169-3.126a1.843,1.843,0,0,1-.48-.869C19.362,10,19,7.923,18.579,5.857a1.42,1.42,0,0,0-.522-.8c-1.611-1.145-3.251-2.251-4.879-3.373-.6-.413-.743-.877-.428-1.33s.819-.47,1.4-.069c1.773,1.213,3.537,2.439,5.32,3.638a1.572,1.572,0,0,1,.712,1.1q.573,3.14,1.177,6.273a1.026,1.026,0,0,0,.2.519c1.412,1.405,2.84,2.8,4.377,4.139-.094-.427-.185-.855-.283-1.282A3.652,3.652,0,0,1,28,10.186c.363-.141.372-.355.371-.651q-.007-3.167,0-6.335c0-.227-.052-.52.065-.666.2-.254.521-.576.79-.575s.584.324.787.579c.117.147.064.439.064.667,0,2.092.01,4.185-.005,6.277a.642.642,0,0,0,.484.741,3.672,3.672,0,0,1,2.278,4.289c-.1.479-.227.954-.375,1.575.221-.176.335-.253.432-.348,1.267-1.235,2.54-2.463,3.788-3.717a1.6,1.6,0,0,0,.4-.778c.41-2.068.8-4.141,1.176-6.216a1.565,1.565,0,0,1,.712-1.1c1.753-1.175,3.485-2.38,5.225-3.574.094-.065.185-.134.283-.192A.864.864,0,0,1,45.69.354a.823.823,0,0,1-.239,1.2c-.785.568-1.591,1.108-2.39,1.657-.924.635-1.859,1.255-2.768,1.912a1.116,1.116,0,0,0-.414.62c-.412,2.068-.778,4.145-1.2,6.211a2.173,2.173,0,0,1-.538,1.02c-.99,1.027-2.026,2.008-3.044,3.009-.131.129-.254.267-.472.5,1.189-.129,2.252-.241,3.315-.359,1.738-.194,3.475-.4,5.214-.581.432-.045.735-.153.829-.646a4.86,4.86,0,0,1,.437-.958,7.142,7.142,0,0,1-.758-.628.809.809,0,0,1,.012-1.217.837.837,0,0,1,1.183.026,7.642,7.642,0,0,1,.625.733l1.641-.686c0-.31-.014-.651,0-.99a.837.837,0,0,1,.816-.853.848.848,0,0,1,.872.806c.034.338.006.682.006,1.037l1.678.711a5.651,5.651,0,0,1,.552-.73.838.838,0,0,1,1.223-.039.87.87,0,0,1-.014,1.231c-.024.029-.053.055-.079.083-.619.665-.655.933-.136,1.655a.948.948,0,0,0,.534.231c.777.176,1.573.287,2.336.508a4.935,4.935,0,0,1-1.14,9.659c-.65.039-1.079-.258-1.129-.78s.323-.865.987-.925a3.227,3.227,0,0,0,.51-6.387c-.623-.15-1.253-.269-1.855-.4l-.732,1.942a6.908,6.908,0,0,1,.688.578.852.852,0,0,1,.038,1.226.861.861,0,0,1-1.228-.016c-.129-.113-.244-.24-.367-.36s-.219-.209-.335-.319l-1.528.638c0,.3.02.637,0,.974a.861.861,0,0,1-.867.876.847.847,0,0,1-.832-.9c-.013-.321,0-.643,0-.945l-1.638-.687a6.936,6.936,0,0,1-.533.65.87.87,0,0,1-1.309.076.837.837,0,0,1,.091-1.262,8.017,8.017,0,0,1,.655-.553l-.7-1.713L33.347,18.353c.052.569.085,1.11.163,1.646.014.1.2.216.321.249,4.865,1.279,9.674,2.814,14.721,3.275.284.026.571.03.853.066.622.079.97.441.927.941a.845.845,0,0,1-1.07.751c-2.052-.27-4.127-.451-6.143-.895-3.132-.689-6.223-1.567-9.331-2.363-.126-.032-.255-.055-.426-.092l-.356,1.184c.186.077.353.152.525.215,2.21.811,4.417,1.633,6.635,2.422a1.915,1.915,0,0,1,1.2,1.1q1.534,3.4,3.158,6.763a1.769,1.769,0,0,0,.751.768c2.162,1.068,4.345,2.094,6.52,3.137a2.926,2.926,0,0,1,.6.332.772.772,0,0,1,.256.967.789.789,0,0,1-.917.507,1.94,1.94,0,0,1-.531-.193c-2.4-1.146-4.8-2.283-7.187-3.462a1.879,1.879,0,0,1-.8-.815c-1.112-2.31-2.176-4.644-3.273-6.961a1.114,1.114,0,0,0-.5-.554c-2.04-.776-4.093-1.519-6.148-2.274a1.577,1.577,0,0,0,1.029,1.856c1.029.49,2.05,1,3.088,1.466a1.367,1.367,0,0,1,.825,1q1.3,5.254,2.643,10.5a1.58,1.58,0,0,0,.57.838c2.042,1.424,4.11,2.813,6.169,4.213a3.793,3.793,0,0,1,.5.372.785.785,0,0,1,.138,1.083.813.813,0,0,1-1.1.29,2.221,2.221,0,0,1-.336-.214c-2.264-1.539-4.536-3.066-6.779-4.635a1.86,1.86,0,0,1-.676-.976c-.9-3.436-1.757-6.882-2.607-10.33a1.169,1.169,0,0,0-.726-.912c-.924-.4-1.821-.851-2.746-1.29a2.3,2.3,0,0,0-.433,1.652c.439,3.527.806,7.063,1.234,10.592A9.184,9.184,0,0,1,32.6,47.092c-.4.581-.775,1.175-1.192,1.741a2.644,2.644,0,0,1-4.37-.007,27.318,27.318,0,0,1-1.9-2.976,10.048,10.048,0,0,1-.688-6.183q.635-5.064,1.155-10.142a3.706,3.706,0,0,0-.365-1.235c-1.129.539-2.187,1.035-3.231,1.557-.119.06-.193.265-.235.418-.213.788-.4,1.583-.612,2.372-.167.618-.55.876-1.069.752s-.728-.542-.579-1.169c.237-1,.46-2,.763-2.979a1.463,1.463,0,0,1,.661-.773c1.075-.566,2.171-1.1,3.287-1.575a1.172,1.172,0,0,0,.864-1.1,5.132,5.132,0,0,1,.147-.744c-.787.285-1.508.542-2.227.806-1.283.472-2.572.93-3.841,1.436a1.348,1.348,0,0,0-.664.606c-1.1,2.3-2.145,4.616-3.255,6.906a2.16,2.16,0,0,1-.918.926c-2.364,1.174-4.754,2.3-7.136,3.435-.051.025-.1.047-.157.069a.869.869,0,0,1-1.247-.4c-.195-.453-.007-.88.543-1.146,1.778-.861,3.522-1.809,5.354-2.535a4.86,4.86,0,0,0,2.941-2.951c.737-1.87,1.68-3.658,2.514-5.49a1.561,1.561,0,0,1,.969-.88c2.428-.874,4.846-1.775,7.316-2.684l-.338-1.213c-.283.067-.552.126-.819.194-3.129.792-6.243,1.649-9.391,2.361a45.615,45.615,0,0,1-9.741,1A4.931,4.931,0,0,1,.1,21.47a1,1,0,0,0-.1-.2V19.787m31.783.482a5.583,5.583,0,0,0-.965-3.338,1.814,1.814,0,0,0-3.2,0,6.2,6.2,0,0,0,0,6.624,1.813,1.813,0,0,0,3.2-.007,5.561,5.561,0,0,0,.961-3.282M45.41,16.433A2.556,2.556,0,0,0,48,18.987a2.567,2.567,0,0,0-.029-5.135,2.553,2.553,0,0,0-2.556,2.581M32.316,39.919h-6.2c-.055.953-.107,1.865-.159,2.777H32.5c-.061-.94-.119-1.84-.18-2.777M26.688,35.33l-.318,2.8h5.708l-.33-2.8Zm.3-9.925c-.6,1.513-.323,2.781.756,3.547a2.589,2.589,0,0,0,3.117-.12,2.745,2.745,0,0,0,.579-3.414,3.423,3.423,0,0,1-4.451-.014m-.51,19.055c0,.074-.022.143,0,.183.685,1.111,1.339,2.244,2.081,3.316a.879.879,0,0,0,1.428-.1c.646-.936,1.237-1.909,1.84-2.873a2.925,2.925,0,0,0,.2-.527Zm4.76-13.669a12.972,12.972,0,0,1-2.042.312,12.341,12.341,0,0,1-1.987-.326L26.9,33.558h4.649l-.314-2.767M27.463,14.746a3.415,3.415,0,0,1,3.515,0c.41-1.247.213-2.116-.587-2.693a2,2,0,0,0-2.34,0c-.8.577-1,1.44-.588,2.694" transform="translate(0 0)" fill="#fff"/>
        <path id="Trazado_600291" data-name="Trazado 600291" d="M13.85,10.333a1.69,1.69,0,0,1,.356-.189c.839-.208,1.317-.624,1.189-1.6-.057-.436.344-.714.8-.718.482,0,.888.29.825.751-.133.965.35,1.352,1.164,1.555a2.937,2.937,0,0,1,.493.264,7.044,7.044,0,0,1,.581-.728.855.855,0,0,1,1.266-.055.789.789,0,0,1-.043,1.212,1.122,1.122,0,0,0-.3,1.626c.226.467.414.7.929.616a1.336,1.336,0,0,1,.4,0,.815.815,0,0,1,.787.823.757.757,0,0,1-.79.854c-.909-.136-1.226.32-1.5,1.07-.146.4-.135.615.172.863a2.415,2.415,0,0,1,.393.412.788.788,0,0,1-.055,1.132.777.777,0,0,1-1.131.05,6.124,6.124,0,0,1-.675-.783c-.541.219-.969.368-1.371.57a.624.624,0,0,0-.262.409c-.05.278,0,.572-.05.85a.771.771,0,0,1-.839.692.779.779,0,0,1-.8-.675c-.087-.421-.025-.961-.268-1.236-.268-.3-.809-.365-1.384-.734a6.361,6.361,0,0,1-.6.821.839.839,0,0,1-1.223.053.81.81,0,0,1,.045-1.255,1.1,1.1,0,0,0,.317-1.525.989.989,0,0,0-1.11-.713,1.317,1.317,0,0,1-.91-.418c-.373-.46,0-1.292.576-1.223,1.025.123,1.361-.417,1.641-1.22.1-.292.084-.444-.126-.632a3.726,3.726,0,0,1-.511-.536.841.841,0,0,1,1.181-1.178c.3.23.554.514.844.788m2.3,6.155a2.567,2.567,0,1,0-2.507-2.633,2.561,2.561,0,0,0,2.507,2.633" transform="translate(-8.555 -6.633)" fill="#fff"/>
        <path id="Trazado_600292" data-name="Trazado 600292" d="M93.168,311.161l-.369-.847c-1.1-.091-1.462-.318-1.452-.9s.384-.807,1.423-.864c.29-.471.539-.894-.06-1.391A.738.738,0,0,1,92.8,306a.8.8,0,0,1,1.175.073.677.677,0,0,0,.93.178.573.573,0,0,0,.381-.6c.016-.663.314-1,.83-1.009.541-.01.866.33.859,1.031a.534.534,0,0,0,.522.6c.2.034.521.039.621-.082a.962.962,0,0,1,1.411-.145c.373.41.318.844-.2,1.391-.065.069-.129.138-.22.236l.353.857c1.109.095,1.469.319,1.46.9s-.386.81-1.418.867c-.308.472-.526.895.056,1.39a.742.742,0,0,1-.1,1.155.791.791,0,0,1-1.174-.077.626.626,0,0,0-.972-.127.787.787,0,0,0-.317.44c-.1.794-.321,1.11-.856,1.118s-.81-.3-.859-1.149c-.024-.42-.339-.42-.577-.5a.655.655,0,0,0-.533.062c-.638.5-1.069.569-1.441.179-.39-.409-.316-.84.245-1.426.052-.054.1-.113.183-.205m2.963-3.437a1.7,1.7,0,1,0,1.716,1.7,1.714,1.714,0,0,0-1.716-1.7" transform="translate(-77.416 -258.192)" fill="#fff"/>
        <path id="Trazado_600293" data-name="Trazado 600293" d="M66.506,244.757a3.063,3.063,0,0,1-.7-.661.745.745,0,0,1,.307-.994c.684-.479,1.378-.944,2.068-1.414,1.491-1.014,2.976-2.037,4.479-3.033a1.348,1.348,0,0,0,.623-.886c.259-1.127.55-2.247.837-3.367.191-.746.569-1.04,1.127-.9.525.136.715.576.538,1.289-.334,1.343-.654,2.691-1.03,4.022a1.645,1.645,0,0,1-.583.849c-2.291,1.592-4.605,3.151-6.917,4.714a7.134,7.134,0,0,1-.754.378" transform="translate(-55.7 -197.868)" fill="#fff"/>
      </g>
    </g>
  </g>
</svg>
